<?xml version="1.0" encoding="UTF-8"?>
<svg width="40px" height="40px" viewBox="0 0 40 40" version="1.1" xmlns="http://www.w3.org/2000/svg" xmlns:xlink="http://www.w3.org/1999/xlink">
    <!-- Generator: Sketch 43.2 (39069) - http://www.bohemiancoding.com/sketch -->
    <title>loading</title>
    <desc>Created with Sketch.</desc>
    <defs></defs>
    <g id="Page-1" stroke="none" stroke-width="1" fill="none" fill-rule="evenodd">
        <g id="loading" fill-rule="nonzero" fill="#000000">
            <path d="M36.9682067,20.4022043 C36.9682067,13.4427184 32.5968543,7.11119811 26.0909274,4.64611536 C25.6983853,4.49713243 25.2565213,4.69543736 25.1075383,5.08950483 C24.9580469,5.48306384 25.1568603,5.92391094 25.5504193,6.07289387 C31.4670247,8.31475645 35.4422757,14.0732264 35.4422757,20.4022043 C35.4422757,28.2774521 29.4677043,34.7808367 21.8136427,35.6249038 L22.8844893,34.3003286 C23.1494043,33.9723628 23.0985569,33.4923631 22.7710995,33.2274481 C22.4431337,32.9625331 21.9626256,33.0133805 21.6987275,33.3408378 L19.6119496,35.9208358 C19.4756785,36.0449034 19.387204,36.2162592 19.3683904,36.4099879 C19.3663565,36.4242252 19.3648311,36.4384624 19.3638142,36.4526997 C19.3633057,36.4628692 19.3607633,36.4725302 19.3607633,36.4826997 C19.3607633,36.4949031 19.3638142,36.506598 19.3643227,36.5188014 C19.3653396,36.5579539 19.3694074,36.5965979 19.3760176,36.635242 C19.3760176,36.6357504 19.376526,36.6362589 19.376526,36.6372758 C19.4085599,36.8106655 19.4960175,36.9743942 19.643475,37.0933772 L22.3236423,39.2610025 C22.4644896,39.3754092 22.63432,39.4308329 22.8026249,39.4308329 C23.0253366,39.4308329 23.2455059,39.3342228 23.3960143,39.1476128 C23.6609293,38.8201554 23.6105904,38.3401558 23.2826246,38.0752408 L22.1070323,37.1243941 C30.4643136,36.1389712 36.9682067,29.0177905 36.9682067,20.4022043 Z M20.7199148,4.79408134 C20.7483893,4.75797968 20.7727961,4.71984412 20.7946605,4.67916618 C20.7987283,4.67204754 20.8027961,4.66543738 20.8058469,4.65831874 C20.8221181,4.62475945 20.8363554,4.58967473 20.8475418,4.55306459 C20.8526265,4.53882731 20.8572028,4.52459004 20.8607621,4.51035276 C20.8683892,4.48187821 20.872457,4.45289518 20.8765248,4.4228952 C20.8800841,4.39950539 20.883135,4.37611558 20.8841519,4.35272577 C20.8846604,4.34204781 20.8872028,4.3323868 20.8872028,4.32170885 C20.8872028,4.30899699 20.8841519,4.29679361 20.883135,4.28408176 C20.882118,4.25408178 20.8790672,4.22509875 20.8739824,4.19560725 C20.8709316,4.17730218 20.8673723,4.15950559 20.8633045,4.14221747 C20.8551689,4.10916665 20.8455079,4.0766243 20.832796,4.04459043 C20.8282198,4.03289552 20.823135,4.02120061 20.8185588,4.00950571 C20.8027961,3.97391252 20.7839825,3.93933627 20.7621181,3.90577698 C20.7580503,3.89967529 20.754491,3.89408207 20.7504232,3.88798038 C20.7260165,3.85238719 20.6980504,3.8188279 20.6675419,3.7873025 C20.6649996,3.78476013 20.6619487,3.78170928 20.6594063,3.77916691 C20.6411013,3.76086184 20.6248301,3.74153982 20.6044911,3.72476018 L17.9243238,1.55713482 C17.5968665,1.29221978 17.1158499,1.34357567 16.8519518,1.67052456 C16.5870368,1.99798192 16.6373757,2.47798153 16.9653415,2.74289657 L18.1266965,3.68255682 C9.77805924,4.67458992 3.28179333,11.7922113 3.28179333,20.4032212 C3.28179333,27.4110121 7.69433212,33.7582951 14.2612759,36.1979542 C14.349242,36.2304965 14.4387334,36.2457507 14.5266995,36.2457507 C14.8358517,36.2457507 15.1277159,36.0555814 15.2416141,35.748463 C15.3880547,35.3533786 15.1872074,34.9145654 14.792123,34.7676163 C8.81958544,32.549652 4.80670734,26.7769449 4.80670734,20.4032212 C4.80670734,12.5239056 10.7873805,6.01747018 18.4470353,5.17899629 L17.3639853,6.51831723 C17.0990703,6.84628307 17.1499177,7.32628268 17.477375,7.59119772 C17.6182224,7.70509593 17.7880527,7.76051962 17.9563577,7.76051962 C18.1790694,7.76051962 18.3992387,7.66390952 18.549747,7.47729951 L20.7173724,4.79713219 C20.7183893,4.79560677 20.7188978,4.79458982 20.7199148,4.79408134 Z" id="Shape"></path>
        </g>
    </g>
</svg>