<?xml version="1.0" encoding="UTF-8"?>
<svg width="3465px" height="3369px" viewBox="0 0 3465 3369" version="1.1" xmlns="http://www.w3.org/2000/svg" xmlns:xlink="http://www.w3.org/1999/xlink">
    <!-- Generator: Sketch 43.2 (39069) - http://www.bohemiancoding.com/sketch -->
    <title>Slice 1</title>
    <desc>Created with Sketch.</desc>
    <defs></defs>
    <g id="Page-1" stroke="none" stroke-width="1" fill="none" fill-rule="evenodd">
        <g id="moeraki" fill-rule="nonzero">
            <g id="bg" transform="translate(14.000000, 0.000000)" fill="#FFFFFF">
                <rect id="Rectangle-path" x="0" y="0" width="3000" height="3000"></rect>
            </g>
            <g id="Sky" transform="translate(14.000000, 0.000000)" fill="#FFFFFF">
                <polygon id="Shape" points="0 0 3000 0 3000 3000 0 3000"></polygon>
            </g>
            <g id="Wash" transform="translate(578.000000, 1514.000000)" fill="#FFFFFF">
                <polygon id="Shape" points="0.514 0.27 2436 0.27 2436 992.986 0.514 992.986"></polygon>
            </g>
            <g id="Hills" transform="translate(14.000000, 1216.000000)" fill="#294867">
                <path d="M1080.816,310.677 L831.014,162.388 C831.014,162.388 625.002,178.312 614.055,180.302 C603.107,182.293 294.338,23.49 294.338,23.49 L0,0.598 L0,1227.006 L723.239,379.552 L1080.816,310.677 Z" id="Shape"></path>
                <polygon id="Shape" points="887.421 282.889 1104.359 254.944 1452.442 279.064 1503.018 298.27 1298.421 298.27"></polygon>
                <path d="M860.51,326.64 L1120.041,272.859 L1419.493,298.27 C1419.493,298.27 1265.847,294.885 1154.155,309.674 C1042.463,324.463 887.421,341.119 887.421,341.119 L860.51,326.64 Z" id="Shape"></path>
            </g>
            <g id="sand" transform="translate(0.000000, 1508.000000)" fill="#95A8BB">
                <path d="M1519.502,1.31 C-292.578,-8.69 17.253,920.463 26.485,1197.572 C43.178,1698.661 837.932,1860.898 837.932,1860.898 L3325.256,1449.148 C3325.256,1449.148 3795.42,523.273 3010,499 C-238.109,414.895 754,-23 1519.502,1.31 Z" id="Shape"></path>
            </g>
            <g id="Point" transform="translate(1077.000000, 1478.000000)" fill="#294867">
                <polygon id="Shape" points="468.653 36.27 383.943 0.332 0.897 36.27"></polygon>
            </g>
            <g id="Sea" transform="translate(1062.000000, 1514.000000)" fill="#6A8EB4">
                <path d="M1913.992,0.269 C2123.146,0.269 2187.738,257.659 2187.738,257.659 C2187.738,257.659 2297.584,441.444 1952,435.105 C-37.205,398.614 -388.978,0.269 371.493,0.27 L1084.172,0.27 L1913.992,0.269 Z" id="Shape"></path>
            </g>
            <g id="Boulders" transform="translate(646.000000, 1747.000000)" fill="#294867">
                <path d="M677.714,229.275 C500.021,230.642 468.55,234.477 462.543,214.035 C462.543,138.166 558.253,77.55 678.356,77.55 C798.459,77.55 895.822,139.054 895.822,214.923 C874.236,232.77 855.408,227.908 677.714,229.275 Z" id="Shape"></path>
                <path d="M535.249,191.868 C394.942,193.11 370.092,196.595 365.349,178.02 C365.349,109.083 440.922,54.006 535.756,54.006 C630.59,54.006 707.468,109.89 707.468,178.827 C690.424,195.044 675.557,190.626 535.249,191.868 Z" id="Shape"></path>
                <path d="M1005.62,177.364 C915.681,178.051 899.752,179.977 896.712,169.71 C896.712,131.602 945.155,101.156 1005.944,101.156 C1066.734,101.156 1116.014,132.048 1116.014,170.156 C1105.088,179.12 1095.558,176.678 1005.62,177.364 Z" id="Shape"></path>
                <path d="M123.525,87.016 C51.574,87.565 38.831,89.106 36.399,80.892 C36.399,50.406 75.153,26.05 123.785,26.05 C172.417,26.05 211.84,50.763 211.84,81.249 C203.1,88.421 195.476,86.467 123.525,87.016 Z" id="Shape"></path>
                <path d="M69.796,49.261 C12.235,49.7 2.04,50.933 0.094,44.362 C0.094,19.973 31.098,0.488 70.003,0.488 C108.909,0.488 140.448,20.259 140.448,44.647 C133.455,50.385 127.356,48.822 69.796,49.261 Z" id="Shape"></path>
            </g>
            <g id="highlights" transform="translate(1126.000000, 1820.000000)" fill="#95A8BB">
                <path d="M89.268,14.498 C63.818,21.173 18.641,49.667 0.737,88.519 C27.312,59.457 46.892,38.586 95.729,21.167 C135.969,6.815 89.268,14.498 89.268,14.498 Z" id="Shape"></path>
                <path d="M147.928,0.679 C124.396,1.842 102.245,7.068 83.355,17.612 C64.465,28.156 68.057,29.891 95.729,21.167 C123.401,12.444 139.653,6.742 160.055,6.742 C156.51,4.923 153.385,2.451 147.928,0.679 Z" id="Shape"></path>
            </g>
        </g>
    </g>
</svg>