<?xml version="1.0" standalone="no"?>
<!DOCTYPE svg PUBLIC "-//W3C//DTD SVG 20010904//EN"
 "http://www.w3.org/TR/2001/REC-SVG-20010904/DTD/svg10.dtd">
<svg version="1.0" xmlns="http://www.w3.org/2000/svg"
 width="128.000000pt" height="128.000000pt" viewBox="0 0 128.000000 128.000000"
 preserveAspectRatio="xMidYMid meet">
<metadata>
Created by potrace 1.11, written by Peter Selinger 2001-2013
</metadata>
<g transform="translate(0.000000,128.000000) scale(0.100000,-0.100000)"
fill="#000000" stroke="none">
<path d="M0 640 l0 -640 640 0 640 0 0 640 0 640 -640 0 -640 0 0 -640z m1120
0 l0 -480 -480 0 -480 0 0 480 0 480 480 0 480 0 0 -480z"/>
<path d="M310 633 l0 -313 54 0 55 0 0 313 0 312 -55 1 -54 0 0 -313z"/>
<path d="M549 946 c-1 -1 -3 -142 -3 -314 l-2 -313 145 2 c154 1 207 12 249
52 74 69 65 208 -17 255 l-28 15 38 38 c42 42 53 96 33 155 -16 48 -32 64 -84
87 -37 17 -69 20 -187 22 -79 1 -144 1 -144 1z m253 -97 c61 -16 79 -63 46
-126 -15 -29 -49 -40 -128 -39 l-65 1 -2 75 c-2 41 -1 80 1 86 5 14 98 16 148
3z m29 -260 c65 -26 64 -142 -1 -169 -22 -9 -117 -16 -167 -11 -8 1 -12 30
-12 95 l0 95 42 3 c58 4 107 0 138 -13z"/>
</g>
</svg>
