<!-- width="2000" height="2000" -->
<!--
						style="
						display: 	block; 
						margin: auto; 
						right: 0; 
						left: 0; 
						position: relative;
					  top: 50%;
					  left: 50%;
					  transform: translateX(-50%) translateY(-50%);"
-->
					<svg 
						viewBox="0, 0, 2000, 3000"
						width="100%" height="100%"
						preserveAspectRatio="xMidYMid slice"
					  version="1.1"
					  xmlns="http://www.w3.org/2000/svg"
					  xmlns:xlink="http://www.w3.org/1999/xlink"
					  >
					  <g id="Sky" class="lightest">
					    <path d="M-445.997,-231.85 L2360.597,-231.85 L2360.597,1544.368 L-445.997,1544.368 z" fill="#B2DFD5"/>
					  </g>
					  <g id="Sea" class="lighter">
					    <path d="M-445.997,1544.367 L2360.597,1544.367 L2360.597,2292.976 L-445.997,2292.976 z" fill="#7DBBAD"/>
					  </g>
					  <g id="Mountain" class="primary">
					    <path d="M1203.638,1413.274 L1148.609,1390.728 L1113.671,1403.915 L1040.736,1369.459 L936.151,1386.554 L900.108,1416.677 L869.536,1403.064 L834,1427.128 L-445.997,1544.367 L-445.997,1544.367 C-445.997,1544.367 2360.596,1544.367 2360.596,1544.367 C2360.596,1544.367 2360.596,1521.313 2360.596,1521.313 L1203.638,1413.274 z" fill="#028063"/>
					  </g>
					  <g id="Sand" class="primary">
					    <path d="M-445.997,2292.976 L2360.597,2292.976 L2360.597,3000 L-445.997,3000 z" fill="#2C937C"/>
					  </g>
					  <g id="Sails" class="white">
					    <path d="M381.435,1648.585 L348.19,1500 C348.19,1500 292.556,1578.024 381.435,1648.585 z" fill="#FFFFFF"/>
					    <path d="M381.435,1648.585 L365.83,1550.112 L397.718,1616.697 L381.435,1648.585 z" fill="#FFFFFF"/>
					    <path d="M485.924,1610.591 L455.392,1500 C455.392,1500 409.257,1581.416 485.924,1610.591 z" fill="#FFFFFF"/>
					    <path d="M469.062,1531.435 L485.924,1610.591 L499.323,1578.65" fill="#FFFFFF"/>
					    <path d="M652.721,1673.641 L619.476,1525.056 C619.476,1525.056 563.842,1603.08 652.721,1673.641 z" fill="#FFFFFF"/>
					    <path d="M652.721,1673.641 L637.116,1575.167 L669.004,1641.753 L652.721,1673.641 z" fill="#FFFFFF"/>
					    <path d="M2114.776,1610.591 L2081.531,1462.006 C2081.531,1462.006 2025.896,1540.03 2114.776,1610.591 z" fill="#FFFFFF"/>
					    <path d="M2114.776,1610.591 L2099.171,1512.117 L2131.059,1578.703 L2114.776,1610.591 z" fill="#FFFFFF"/>
					    <path d="M-122.278,1555.295 L-152.809,1444.705 C-152.809,1444.705 -198.945,1526.121 -122.278,1555.295 z" fill="#FFFFFF"/>
					    <path d="M-139.139,1476.139 L-122.278,1555.295 L-108.878,1523.355" fill="#FFFFFF"/>
					    <path d="M-445.998,2245.632 L2360.596,2292.976 L2360.596,2292.976 L-445.998,2373.447 z" fill="#FFFFFF"/>
					  </g>
					</svg>