<?xml version="1.0" encoding="UTF-8"?>
<!DOCTYPE svg PUBLIC "-//W3C//DTD SVG 1.1//EN" "http://www.w3.org/Graphics/SVG/1.1/DTD/svg11.dtd">
<svg version="1.1" xmlns="http://www.w3.org/2000/svg" xmlns:xlink="http://www.w3.org/1999/xlink" x="0" y="0" width="3000" height="3000" viewBox="0, 0, 3000, 3000">
  <g id="Background">
    <rect x="0" y="0" width="3000" height="3000" fill="#FFFFFF"/>
  </g>
  <g id="Bg">
    <path d="M-0,0 L3000,0 L3000,3000 L-0,3000 z" fill="#95A8BB" id="Shape"/>
  </g>
  <g id="Water">
    <path d="M0,1514.27 L3000,1514.27 L3000,3000.001 L0,3000.001 z" fill="#294867"/>
  </g>
  <g id="Hills_back_13">
    <path d="M-148.365,1458.212 C-148.365,1458.212 -187.466,1465.816 123.042,1463.907 C433.55,1461.998 1474.198,1435.411 1474.198,1435.411 C1474.198,1435.411 1971.237,1437.765 1971.237,1437.765 C1971.237,1437.765 2983.019,1435.411 2983.019,1435.411 C2983.019,1435.411 3048.48,1530.891 3048.48,1530.891 L0,1510.205 L-148.365,1458.212 z" fill="#6A8EB4"/>
  </g>
  <g id="Mt_eden_16_Copy">
    <path d="M103.293,1452.514 L0,1463.907 L-90.897,1493.743 L422.519,1482.916 L186.955,1463.907 L103.293,1452.514 z" fill="#6A8EB4"/>
  </g>
  <g id="Museum_14">
    <path d="M221.017,1451.013 L341.179,1451.013 L341.179,1470.318 L221.017,1470.318 z" fill="#2B5580"/>
    <path d="M280.714,1458.668 C267.175,1458.668 256.198,1456.117 256.198,1452.971 C256.198,1449.825 267.175,1447.275 280.714,1447.275 C294.254,1447.275 305.23,1449.825 305.23,1452.971 C305.23,1456.117 294.254,1458.668 280.714,1458.668 z" fill="#2B5580"/>
  </g>
  <g id="Mt_eden_16">
    <path d="M952.721,1391.118 L1227.309,1427.064 L670.586,1442.834 L847.462,1399.618 L880.71,1392.46 L895.012,1392.185 L911.157,1395.576 L952.721,1391.118 z" fill="#4D739B"/>
  </g>
  <g id="Hills">
    <path d="M-0,1475.557 L221.017,1470.318 L418.502,1454.096 L707.866,1428.94 L934.946,1422.948 L1209.211,1403.259 L1565.67,1422.948 L2003.283,1442.834 L2361.5,1433.056 L2535,1458.212 C2535,1458.212 2682.296,1452.514 2682.296,1452.514 C2682.296,1452.514 2807,1463.907 2807,1463.907 L2914.5,1470.318 L3000,1470.318 L3000,1524.476 L-0,1548.61 L-0,1475.557 z" fill="#4D739B"/>
    <path d="M193.896,1470.318 L285.86,1481.398 L220.93,1470.142 L193.896,1470.318 z" fill="#6A8EB4" display="none"/>
    <path d="M250.196,1467.963 C215.622,1479.797 345.311,1483.659 229.569,1494.738 C324.753,1482.136 168.848,1478.9 229.542,1469.546 C235.2,1469.535 250.196,1467.963 250.196,1467.963 z" fill="#6A8EB4"/>
  </g>
  <g id="Cloud">
    <path d="M2200.073,1188.482 C2252.864,1189.679 2160.479,1169.925 2107.687,1165.662 C1978.429,1155.222 1931.808,1163.877 1852.358,1169.629 C1790.937,1174.075 1778.246,1186.839 1778.246,1186.839 L2200.073,1188.482 z M2151.849,1188.546 C2169.792,1188.546 2184.337,1180.469 2184.337,1170.505 C2184.337,1160.541 2169.792,1152.464 2151.849,1152.464 C2133.907,1152.464 2119.362,1160.541 2119.362,1170.505 C2119.362,1180.469 2133.907,1188.546 2151.849,1188.546 z M2056.164,1171.573 C2079.853,1171.573 2099.057,1162.742 2099.057,1151.849 C2099.057,1140.956 2079.853,1132.125 2056.164,1132.125 C2032.474,1132.125 2013.271,1140.956 2013.271,1151.849 C2013.271,1162.742 2032.474,1171.573 2056.164,1171.573 z M2066.062,1184.268 C2102.507,1184.268 2132.052,1174.209 2132.052,1161.801 C2132.052,1149.393 2102.507,1139.334 2066.062,1139.334 C2029.617,1139.334 2000.073,1149.393 2000.073,1161.801 C2000.073,1174.209 2029.617,1184.268 2066.062,1184.268 z M1950.58,1179.162 C1970.906,1179.162 1987.382,1170.821 1987.382,1160.533 C1987.382,1150.245 1970.906,1141.905 1950.58,1141.905 C1930.255,1141.905 1913.779,1150.245 1913.779,1160.533 C1913.779,1170.821 1930.255,1179.162 1950.58,1179.162 z M1904.896,1184.037 C1926.061,1184.037 1943.22,1175.392 1943.22,1164.727 C1943.22,1154.062 1926.061,1145.417 1904.896,1145.417 C1883.73,1145.417 1866.571,1154.062 1866.571,1164.727 C1866.571,1175.392 1883.73,1184.037 1904.896,1184.037 z M1872.916,1179.392 C1887.354,1179.392 1899.058,1173.555 1899.058,1166.355 C1899.058,1159.154 1887.354,1153.317 1872.916,1153.317 C1858.479,1153.317 1846.774,1159.154 1846.774,1166.355 C1846.774,1173.555 1858.479,1179.392 1872.916,1179.392 z M1812.003,1184.037 C1823.637,1184.037 1833.069,1179.577 1833.069,1174.075 C1833.069,1168.573 1823.637,1164.113 1812.003,1164.113 C1800.368,1164.113 1790.937,1168.573 1790.937,1174.075 C1790.937,1179.577 1800.368,1184.037 1812.003,1184.037 z" fill="#FFFFFF"/>
  </g>
  <g id="Tower_10">
    <g>
      <path d="M1920.257,1290.25 L1936.61,1290.25 L1936.61,1335.233 L1920.257,1335.233 z" fill="#192D41"/>
      <path d="M1918.16,1280.928 L1938.708,1280.928 L1938.708,1290.25 L1918.16,1290.25 z" fill="#192D41"/>
      <path d="M1914.894,1262.589 L1941.973,1262.589 L1941.973,1282.504 L1914.894,1282.504 z" fill="#192D41"/>
      <path d="M1914.895,1251.414 L1941.973,1251.414 L1941.973,1262.589 L1914.895,1262.589 z" fill="#192D41"/>
      <path d="M1914.894,1243.677 L1941.973,1243.677 L1941.973,1251.413 L1914.894,1251.413 z" fill="#192D41"/>
      <path d="M1912.387,1237.229 L1944.48,1237.229 L1944.48,1243.677 L1912.387,1243.677 z" fill="#192D41"/>
      <path d="M1907.229,1230.066 L1949.638,1230.066 L1949.638,1237.229 L1907.229,1237.229 z" fill="#192D41"/>
      <path d="M1902,1225.481 L1954.868,1225.481 L1954.868,1230.066 L1902,1230.066 z" fill="#192D41"/>
      <path d="M1907.229,1220.966 L1949.638,1220.966 L1949.638,1230.066 L1907.229,1230.066 z" fill="#192D41"/>
      <path d="M1911.599,1217.208 L1945.268,1217.208 L1945.268,1225.481 L1911.599,1225.481 z" fill="#192D41"/>
      <path d="M1916.9,1201.125 L1939.967,1201.125 L1939.967,1219.32 L1916.9,1219.32 z" fill="#192D41"/>
      <path d="M1920.036,1195.797 L1936.832,1195.797 L1936.832,1201.125 L1920.036,1201.125 z" fill="#192D41"/>
      <path d="M1916.9,1191.348 L1939.967,1191.348 L1939.967,1195.797 L1916.9,1195.797 z" fill="#192D41"/>
      <path d="M1913.628,1189.317 L1943.24,1189.317 L1943.24,1191.348 L1913.628,1191.348 z" fill="#192D41"/>
      <path d="M1916.9,1187.517 L1939.967,1187.517 L1939.967,1189.317 L1916.9,1189.317 z" fill="#192D41"/>
      <path d="M1922.745,1174.747 L1934.122,1174.747 L1934.122,1187.517 L1922.745,1187.517 z" fill="#192D41"/>
      <path d="M1919.707,1172.28 L1937.16,1172.28 L1937.16,1174.747 L1919.707,1174.747 z" fill="#192D41"/>
      <path d="M1926.516,1119.025 L1930.351,1119.025 L1930.351,1172.28 L1926.516,1172.28 z" fill="#192D41"/>
      <path d="M1927.974,1050 L1928.894,1050 L1928.894,1119.025 L1927.974,1119.025 z" fill="#192D41"/>
    </g>
  </g>
  <g id="Back_features_8">
    <g>
      <path d="M1383.667,1314.336 C1392.31,1314.17 1397.407,1333.173 1397.407,1333.173 L1370.814,1333.228 C1370.814,1333.228 1375.024,1314.502 1383.667,1314.336 z" fill="#192D41"/>
      <path d="M1367.656,1333.228 L1403.944,1333.228 L1403.944,1341.261 L1367.656,1341.261 z" fill="#192D41" id="Shape"/>
      <path d="M1367.656,1338.934 L1418.072,1338.934 L1418.072,1349.682 L1367.656,1349.682 z" fill="#192D41"/>
      <path d="M1365.938,1343.477 L1422.615,1343.477 L1422.615,1530.889 L1365.938,1530.889 z" fill="#192D41"/>
      <path d="M1382.929,1294.493 L1384.478,1294.493 L1384.478,1315.301 L1382.929,1315.301 z" fill="#192D41"/>
    </g>
    <g>
      <path d="M1227.526,1294.491 L1292.803,1294.491 L1292.803,1505.198 L1227.526,1505.198 z" fill="#192D41"/>
      <path d="M1238.931,1282.531 L1284.793,1282.531 L1284.793,1299.842 L1238.931,1299.842 z" fill="#192D41"/>
      <path d="M1290.159,1276.208 L1292.803,1276.208 L1292.803,1296.328 L1290.159,1296.328 z" fill="#192D41"/>
      <path d="M1239.946,1267.371 C1249.846,1267.095 1259.597,1269.103 1269.016,1271.939 C1300.379,1281.381 1291.436,1297.67 1250.62,1286.619 C1249.4,1286.269 1248.168,1285.958 1246.961,1285.569 C1241.723,1283.882 1236.353,1282.088 1231.751,1278.974 C1226.581,1275.476 1225,1270.808 1232.079,1268.556 C1235.032,1267.616 1236.798,1267.653 1239.946,1267.371 z M1247.839,1271.957 C1245.499,1271.992 1244.219,1271.889 1241.979,1272.344 C1237.477,1273.26 1236.763,1275.882 1240.565,1278.627 C1244.052,1281.145 1248.291,1282.472 1252.344,1283.745 C1282.813,1292.815 1286.39,1281.509 1269.527,1276.208 C1262.489,1273.858 1255.224,1272.484 1247.839,1271.957 z" fill="#192D41"/>
    </g>
  </g>
  <g id="Skyline_9">
    <path d="M123.042,1527.25 L335.787,1527.25 L335.787,1558.986 L123.042,1558.986 z" fill="#2B5580"/>
    <path d="M210.257,1493.672 L289.314,1493.672 L289.314,1504.135 L210.257,1504.135 z" fill="#2B5580"/>
    <path d="M328.933,1494.738 L418.483,1494.738 L418.483,1558.986 L328.933,1558.986 z" fill="#2B5580"/>
    <path d="M406.252,1442.834 L458.671,1442.834 L458.671,1524.476 L406.252,1524.476 z" fill="#2B5580"/>
    <path d="M458.671,1458.212 L471.842,1458.212 L471.842,1524.476 L458.671,1524.476 z" fill="#2B5580"/>
    <path d="M469.526,1467.963 L520.981,1467.963 L520.981,1522.332 L469.526,1522.332 z" fill="#2B5580"/>
    <path d="M483.677,1458.212 L520.981,1458.212 L520.981,1477.517 L483.677,1477.517 z" fill="#2B5580"/>
    <path d="M497.055,1442.834 L581.441,1442.834 L581.441,1558.986 L497.055,1558.986 z" fill="#2B5580"/>
    <path d="M536.064,1435.411 L565.032,1435.411 L565.032,1470.318 L536.064,1470.318 z" fill="#2B5580"/>
    <path d="M581.441,1453.51 L646,1453.51 L646,1544.296 L581.441,1544.296 z" fill="#2B5580"/>
    <path d="M655.762,1453.51 L707.847,1453.51 L707.847,1544.296 L655.762,1544.296 z" fill="#2B5580"/>
    <path d="M695.289,1401.878 L748.308,1401.878 L748.308,1511.616 L695.289,1511.616 z" fill="#2B5580"/>
    <path d="M742.727,1415.216 L783.654,1415.216 L783.654,1524.476 L742.727,1524.476 z" fill="#2B5580"/>
    <path d="M783.654,1458.212 L803.5,1458.212 L803.5,1544.296 L783.654,1544.296 z" fill="#2B5580"/>
    <path d="M795.5,1407.375 L863,1407.375 L863,1510.205 L795.5,1510.205 z" fill="#2B5580"/>
    <path d="M852.758,1421.248 L892.758,1421.248 L892.758,1509.943 L852.758,1509.943 z" fill="#2B5580"/>
    <path d="M901.5,1407.375 L969,1407.375 L969,1505.201 L901.5,1505.201 z" fill="#2B5580"/>
    <path d="M969,1421.51 L1015.5,1421.51 L1015.5,1502.421 L969,1502.421 z" fill="#2B5580"/>
    <path d="M1011,1433.056 L1111.914,1433.056 L1111.914,1522.332 L1011,1522.332 z" fill="#2B5580"/>
    <path d="M1111.914,1442.834 L1149,1442.834 L1149,1524.476 L1111.914,1524.476 z" fill="#2B5580"/>
    <path d="M1149,1427.064 L1186.752,1427.064 L1186.752,1524.476 L1149,1524.476 z" fill="#2B5580"/>
    <path d="M1185.6,1458.212 L1246.008,1458.212 L1246.008,1524.476 L1185.6,1524.476 z" fill="#2B5580"/>
    <path d="M1347.501,1421.51 L1390.906,1421.51 L1390.906,1510.205 L1347.501,1510.205 z" fill="#2B5580"/>
    <path d="M1442.972,1427.064 L1505.451,1427.064 L1505.451,1510.205 L1442.972,1510.205 z" fill="#2B5580"/>
    <path d="M1452.323,1399.471 L1489.367,1399.471 L1489.367,1437.766 L1452.323,1437.766 z" fill="#2B5580"/>
    <path d="M1565.65,1401.878 L1626.493,1401.878 L1626.493,1530.891 L1565.65,1530.891 z" fill="#2B5580"/>
    <path d="M1585.675,1371.842 L1665.97,1371.842 L1665.97,1467.848 L1585.675,1467.848 z" fill="#2B5580"/>
    <path d="M1613.945,1364.185 L1648.694,1364.185 L1648.694,1399.471 L1613.945,1399.471 z" fill="#2B5580"/>
    <path d="M1789.857,1355.859 L1849.627,1355.859 L1849.627,1498.271 L1789.857,1498.271 z" fill="#2B5580"/>
    <path d="M1998.045,1421.51 L2051.439,1421.51 L2051.439,1522.332 L1998.045,1522.332 z" fill="#2B5580"/>
    <path d="M2051.439,1453.51 L2109.048,1453.51 L2109.048,1522.332 L2051.439,1522.332 z" fill="#2B5580"/>
    <path d="M2061.5,1415.645 L2105.058,1415.645 L2105.058,1475.338 L2061.5,1475.338 z" fill="#2B5580"/>
    <path d="M2116.073,1407.375 L2155.416,1407.375 L2155.416,1505.201 L2116.073,1505.201 z" fill="#2B5580"/>
    <path d="M2109.048,1453.511 L2227.544,1453.511 L2227.544,1522.332 L2109.048,1522.332 z" fill="#2B5580"/>
    <path d="M2149.795,1437.766 L2227.544,1437.766 L2227.544,1467.963 L2149.795,1467.963 z" fill="#2B5580"/>
    <path d="M2163.846,1427.064 L2215.835,1427.064 L2215.835,1442.834 L2163.846,1442.834 z" fill="#2B5580"/>
    <path d="M2227.544,1453.51 L2282.725,1453.51 L2282.725,1522.332 L2227.544,1522.332 z" fill="#2B5580"/>
    <path d="M2233.988,1442.834 L2255.506,1442.834 L2255.506,1458.212 L2233.988,1458.212 z" fill="#2B5580"/>
    <path d="M2265.546,1442.834 L2282.724,1442.834 L2282.724,1453.51 L2265.546,1453.51 z" fill="#2B5580"/>
    <path d="M2276.773,1465.173 L2367.058,1465.173 L2367.058,1524.476 L2276.773,1524.476 z" fill="#2B5580"/>
    <path d="M2361.5,1477.516 L2432,1477.516 L2432,1524.476 L2361.5,1524.476 z" fill="#2B5580"/>
    <path d="M2432,1498.271 L2518.5,1498.271 L2518.5,1524.476 L2432,1524.476 z" fill="#2B5580"/>
    <path d="M2469,1477.517 L2518.5,1477.517 L2518.5,1491.486 L2469,1491.486 z" fill="#2B5580"/>
    <path d="M2535,1498.271 L2575,1498.271 L2575,1530.891 L2535,1530.891 z" fill="#2B5580"/>
    <path d="M2563.295,1511.616 L2683.795,1511.616 L2683.795,1532.605 L2563.295,1532.605 z" fill="#2B5580"/>
    <path d="M2634,1488.747 L2769.5,1488.747 L2769.5,1530.891 L2634,1530.891 z" fill="#2B5580"/>
    <path d="M2705.5,1474.909 L2807,1474.909 L2807,1530.891 L2705.5,1530.891 z" fill="#2B5580"/>
    <path d="M2807,1488.747 L2900.799,1488.747 L2900.799,1530.891 L2807,1530.891 z" fill="#2B5580"/>
    <path d="M2900.799,1511.616 L3045.304,1511.616 L3045.304,1530.891 L2900.799,1530.891 z" fill="#2B5580"/>
    <path d="M642.749,1474.909 L660.498,1474.909 L660.498,1544.296 L642.749,1544.296 z" fill="#2B5580"/>
    <path d="M-16.981,1548.61 L123.042,1548.61 L123.042,1569.663 L-16.981,1569.663 z" fill="#2B5580"/>
    <path d="M60.927,1527.33 L115.952,1527.33 L115.952,1540.191 L60.927,1540.191 z" fill="#2B5580"/>
    <path d="M335.787,1498.271 L1292.803,1498.271 L1292.803,1558.986 L335.787,1558.986 z" fill="#2B5580"/>
    <path d="M1292.804,1465.173 L2276.775,1465.173 L2276.775,1544.296 L1292.804,1544.296 z" fill="#2B5580"/>
    <path d="M2265.547,1505.201 L2518.501,1505.201 L2518.501,1536.587 L2265.547,1536.587 z" fill="#2B5580"/>
    <path d="M1193.633,1320.249 L1217.702,1320.249 L1217.702,1502.421 L1193.633,1502.421 z" fill="#2B5580"/>
    <path d="M1211.42,1329.977 L1227.31,1329.977 L1227.31,1502.421 L1211.42,1502.421 z" fill="#2B5580"/>
    <path d="M1489.367,1391.079 L1558.493,1391.079 L1558.493,1458.21 L1489.367,1458.21 z" fill="#2B5580" id="Shape"/>
    <path d="M210.257,1507.778 L289.314,1507.778 L289.314,1518.241 L210.257,1518.241 z" fill="#2B5580"/>
    <path d="M123.042,1518.241 L288.569,1518.241 L288.569,1530.89 L123.042,1530.89 z" fill="#2B5580"/>
    <path d="M328.933,1479.27 L400.182,1479.27 L400.182,1488.747 L328.933,1488.747 z" fill="#2B5580"/>
    <path d="M1317.935,1433.056 L1347.501,1433.056 L1347.501,1530.89 L1317.935,1530.89 z" fill="#2B5580"/>
  </g>
  <g id="Mid_dark_21">
    <path d="M1390.906,1461.046 L1452.323,1461.046 L1452.323,1536.585 L1390.906,1536.585 z" fill="#192D41"/>
    <path d="M1452.323,1503.549 L1505.451,1503.549 L1505.451,1536.585 L1452.323,1536.585 z" fill="#192D41"/>
    <path d="M1404.932,1433.055 L1442.972,1433.055 L1442.972,1467.847 L1404.932,1467.847 z" fill="#192D41"/>
    <path d="M1379.033,1500.808 L1404.932,1500.808 L1404.932,1527.33 L1379.033,1527.33 z" fill="#192D41"/>
  </g>
  <g id="Feature_buildings_7">
    <g>
      <path d="M1084.188,1380.172 L1111.914,1380.172 L1111.914,1482.916 L1084.188,1482.916 z" fill="#192D41"/>
      <path d="M1049.444,1365.501 L1088.961,1365.501 L1088.961,1467.961 L1049.444,1467.961 z" fill="#192D41"/>
      <path d="M1038.559,1380.172 L1051.337,1380.172 L1051.337,1456.603 L1038.559,1456.603 z" fill="#192D41"/>
      <path d="M1025.071,1386.748 L1043.765,1386.748 L1043.765,1451.634 L1025.071,1451.634 z" fill="#192D41"/>
      <path d="M1049.444,1365.501 L1067.544,1355.6 L1088.961,1365.501 L1049.444,1365.501 z" fill="#192D41"/>
      <path d="M1031.637,1388.421 L1038.559,1380.172 L1045.835,1382.865 L1040.382,1388.318 L1031.637,1388.421 z" fill="#192D41"/>
      <path d="M1066.309,1338.418 L1068.984,1338.418 L1068.984,1361.773 L1066.309,1361.773 z" fill="#192D41"/>
    </g>
    <g>
      <path d="M1959.345,1376.242 L1987.045,1376.242 L1987.045,1514.74 L1959.345,1514.74 z" fill="#2B5580"/>
      <path d="M1973.991,1386.749 L2003.283,1386.749 L2003.283,1514.74 L1973.991,1514.74 z" fill="#2B5580"/>
      <path d="M1845.048,1399.471 L1871.305,1399.471 L1871.305,1518.241 L1845.048,1518.241 z" fill="#2B5580"/>
      <path d="M1831.003,1433.056 L1849.627,1433.056 L1849.627,1514.74 L1831.003,1514.74 z" fill="#2B5580"/>
      <path d="M1789.857,1395.807 L1808.778,1395.807 L1808.778,1482.916 L1789.857,1482.916 z" fill="#2B5580" id="Shape"/>
    </g>
    <g>
      <path d="M1824.626,1305.56 L1889.811,1305.56 L1889.811,1370.314 L1824.626,1370.314 z" fill="#192D41"/>
      <path d="M1840.985,1348.192 L1869.954,1348.192 L1869.954,1482.916 L1840.985,1482.916 z" fill="#192D41"/>
      <path d="M1833.333,1289.358 L1883.02,1289.358 L1883.02,1319.324 L1833.333,1319.324 z" fill="#192D41"/>
      <path d="M1858.176,1305.559 C1850.392,1305.559 1844.082,1299.249 1844.082,1291.465 C1844.082,1283.682 1850.392,1277.371 1858.176,1277.371 C1865.96,1277.371 1872.27,1283.682 1872.27,1291.465 C1872.27,1299.249 1865.96,1305.559 1858.176,1305.559 z" fill="#192D41"/>
    </g>
    <g>
      <path d="M1867.014,1353.954 L1959.345,1353.954 L1959.345,1514.739 L1867.014,1514.739 z" fill="#192D41"/>
      <path d="M1875.61,1346.631 L1947.884,1346.631 L1947.884,1367.645 L1875.61,1367.645 z" fill="#192D41"/>
      <path d="M1880.386,1336.761 L1942.471,1336.761 L1942.471,1365.098 L1880.386,1365.098 z" fill="#192D41"/>
      <path d="M1885.48,1327.209 L1937.058,1327.209 L1937.058,1353.954 L1885.48,1353.954 z" fill="#192D41"/>
      <path d="M1910.632,1305.559 L1915.727,1305.559 L1915.727,1336.761 L1910.632,1336.761 z" fill="#192D41"/>
    </g>
    <g>
      <path d="M1505.675,1437.765 L1561.657,1437.765 L1561.657,1448.718 L1505.675,1448.718 z" fill="#192D41"/>
      <path d="M1501.78,1448.718 L1573.34,1448.718 L1573.34,1470.624 L1501.78,1470.624 z" fill="#192D41"/>
      <path d="M1497.886,1460.401 L1576.991,1460.401 L1576.991,1484.527 L1497.886,1484.527 z" fill="#192D41"/>
      <path d="M1489.367,1477.515 L1576.991,1477.515 L1576.991,1536.585 L1489.367,1536.585 z" fill="#192D41"/>
      <path d="M1489.367,1442.876 L1521.009,1442.876 L1521.009,1506.891 L1489.367,1506.891 z" fill="#192D41"/>
    </g>
    <g>
      <path d="M1730.512,1343.631 L1792.838,1343.631 L1792.838,1500.808 L1730.512,1500.808 z" fill="#192D41"/>
      <path d="M1789.857,1345.063 L1790.015,1321.052 L1784.697,1320.992 L1769.581,1330.671 L1748.192,1330.91 L1741.688,1346.262 L1789.857,1345.063 z" fill="#192D41"/>
    </g>
    <path d="M1265.079,1446.526 L1342.091,1446.526 L1342.091,1536.585 L1265.079,1536.585 z" fill="#192D41"/>
    <g>
      <path d="M1283.629,1458.21 L1336.131,1458.21 L1336.131,1532.625 L1283.629,1532.625 z" fill="#2B5580"/>
      <path d="M1286.575,1453.509 L1331.845,1453.509 L1331.845,1458.21 L1286.575,1458.21 z" fill="#2B5580"/>
      <path d="M1303.11,1463.312 L1316.106,1463.312 L1316.106,1527.25 L1303.11,1527.25 z" fill="#192D41"/>
      <path d="M1287.943,1463.312 L1300.939,1463.312 L1300.939,1527.25 L1287.943,1527.25 z" fill="#192D41" id="Shape"/>
      <path d="M1318.493,1463.312 L1331.489,1463.312 L1331.489,1527.25 L1318.493,1527.25 z" fill="#192D41" id="Shape"/>
    </g>
  </g>
  <g id="Skyline_mid">
    <path d="M1611.712,1485.028 L1772.463,1485.028 L1772.463,1530.89 L1611.712,1530.89 z" fill="#2B5580"/>
    <g>
      <path d="M1672.841,1391.079 L1695.614,1391.079 L1695.614,1494.736 L1672.841,1494.736 z" fill="#2B5580"/>
      <path d="M1688.154,1381.852 L1732.326,1381.852 L1732.326,1494.736 L1688.154,1494.736 z" fill="#2B5580"/>
      <path d="M1633.184,1421.509 L1682.853,1421.509 L1682.853,1498.27 L1633.184,1498.27 z" fill="#2B5580"/>
      <path d="M1607.663,1383.815 L1656.547,1383.815 L1656.547,1453.509 L1607.663,1453.509 z" fill="#2B5580"/>
      <path d="M1637.111,1371.84 L1665.97,1371.84 L1665.97,1440.159 L1637.111,1440.159 z" fill="#2B5580"/>
      <path d="M1613.945,1364.183 L1648.694,1364.183 L1648.694,1407.374 L1613.945,1407.374 z" fill="#2B5580"/>
      <path d="M1585.675,1371.84 L1637.111,1371.84 L1637.111,1498.27 L1585.675,1498.27 z" fill="#2B5580"/>
      <path d="M1579.197,1393.631 L1609.43,1393.631 L1609.43,1484.527 L1579.197,1484.527 z" fill="#2B5580"/>
      <path d="M1565.65,1401.877 L1598.043,1401.877 L1598.043,1474.908 L1565.65,1474.908 z" fill="#2B5580"/>
    </g>
  </g>
  <g id="Waterfront">
    <path d="M55.024,1556.901 L646,1556.901 L646,1569.663 L55.024,1569.663 z" fill="#192D41"/>
    <path d="M882.598,1544.296 L1044.524,1544.296 L1044.524,1569.663 L882.598,1569.663 z" fill="#192D41"/>
    <path d="M1100.721,1536.587 L1292.803,1536.587 L1292.803,1558.986 L1100.721,1558.986 z" fill="#192D41"/>
    <path d="M1501.487,1536.585 L1732.326,1536.585 L1732.326,1556.901 L1501.487,1556.901 z" fill="#192D41"/>
    <path d="M2057.699,1530.891 L2389.095,1530.891 L2389.095,1556.901 L2057.699,1556.901 z" fill="#192D41"/>
    <path d="M2469.001,1524.476 L2726.958,1524.476 L2726.958,1544.296 L2469.001,1544.296 z" fill="#192D41"/>
    <path d="M1789.857,1524.476 L2090.061,1524.476 L2090.061,1542.391 L1789.857,1542.391 z" fill="#192D41"/>
    <path d="M1100.721,1536.587 L1980.99,1536.587 L1980.99,1544.296 L1100.721,1544.296 z" fill="#192D41"/>
    <path d="M670.585,1544.296 L1105.999,1544.296 L1105.999,1558.986 L670.585,1558.986 z" fill="#192D41"/>
    <path d="M670.586,1518.24 L818.902,1518.24 L818.902,1544.296 L670.586,1544.296 z" fill="#192D41"/>
    <path d="M642.749,1542.391 L687.274,1542.391 L687.274,1558.986 L642.749,1558.986 z" fill="#192D41"/>
    <path d="M568.432,1542.391 L646,1542.391 L646,1556.901 L568.432,1556.901 z" fill="#192D41"/>
    <path d="M483.677,1542.391 L561.244,1542.391 L561.244,1556.901 L483.677,1556.901 z" fill="#192D41"/>
    <path d="M483.676,1523.072 L561.244,1523.072 L561.244,1536.587 L483.676,1536.587 z" fill="#192D41"/>
    <path d="M395.716,1523.072 L473.284,1523.072 L473.284,1536.587 L395.716,1536.587 z" fill="#192D41"/>
    <path d="M123.042,1542.391 L200.609,1542.391 L200.609,1556.901 L123.042,1556.901 z" fill="#192D41"/>
    <path d="M211.002,1542.391 L288.569,1542.391 L288.569,1556.901 L211.002,1556.901 z" fill="#192D41"/>
    <path d="M303.972,1542.391 L381.539,1542.391 L381.539,1556.901 L303.972,1556.901 z" fill="#192D41"/>
    <path d="M394.274,1542.391 L471.842,1542.391 L471.842,1556.901 L394.274,1556.901 z" fill="#192D41"/>
    <path d="M1990.776,1542.391 L2069.261,1542.391 L2069.261,1548.61 L1990.776,1548.61 z" fill="#192D41"/>
    <path d="M2092.065,1475.338 L2120.524,1475.338 L2120.524,1544.296 L2092.065,1544.296 z" fill="#192D41"/>
    <path d="M1275.131,1516.49 L1337.306,1516.49 C1339.124,1516.49 1340.597,1517.964 1340.597,1519.781 L1340.597,1519.781 C1340.597,1521.598 1339.124,1523.071 1337.306,1523.071 L1275.131,1523.071 C1273.313,1523.071 1271.84,1521.598 1271.84,1519.781 L1271.84,1519.781 C1271.84,1517.964 1273.313,1516.49 1275.131,1516.49 z" fill="#2B5580"/>
  </g>
  <g id="Layer_front_buildings">
    <path d="M719.04,1488.747 L806.928,1488.747 L806.928,1511.616 L719.04,1511.616 z" fill="#192D41"/>
    <path d="M812.529,1460.484 L882.598,1460.484 L882.598,1524.476 L812.529,1524.476 z" fill="#192D41"/>
    <path d="M889.861,1462.422 L941.344,1462.422 L941.344,1527.25 L889.861,1527.25 z" fill="#192D41"/>
    <path d="M806.928,1518.241 L978.235,1518.241 L978.235,1548.61 L806.928,1548.61 z" fill="#192D41"/>
    <path d="M971.947,1500.808 L1006.53,1500.808 L1006.53,1544.296 L971.947,1544.296 z" fill="#192D41"/>
    <path d="M1006.53,1511.616 L1049.577,1511.616 L1049.577,1548.61 L1006.53,1548.61 z" fill="#192D41"/>
    <path d="M1054.485,1498.271 L1105.999,1498.271 L1105.999,1544.296 L1054.485,1544.296 z" fill="#192D41"/>
    <path d="M1111.914,1502.421 L1134.255,1502.421 L1134.255,1530.891 L1111.914,1530.891 z" fill="#192D41"/>
    <path d="M1149,1504.135 L1183.326,1504.135 L1183.326,1527.25 L1149,1527.25 z" fill="#192D41"/>
    <path d="M1100.721,1522.332 L1191.169,1522.332 L1191.169,1536.585 L1100.721,1536.585 z" fill="#192D41"/>
    <path d="M1223.628,1516.49 L1261.734,1516.49 L1261.734,1542.391 L1223.628,1542.391 z" fill="#192D41"/>
    <path d="M1253.094,1523.072 L1345.375,1523.072 L1345.375,1540.191 L1253.094,1540.191 z" fill="#192D41"/>
    <path d="M1336.131,1507.778 L1365.938,1507.778 L1365.938,1539.442 L1336.131,1539.442 z" fill="#192D41"/>
    <path d="M1347.501,1523.072 L1422.615,1523.072 L1422.615,1536.585 L1347.501,1536.585 z" fill="#192D41"/>
    <path d="M1565.65,1511.616 L1618.244,1511.616 L1618.244,1540.191 L1565.65,1540.191 z" fill="#192D41"/>
    <path d="M1782.536,1511.616 L1828.333,1511.616 L1828.333,1530.89 L1782.536,1530.89 z" fill="#192D41"/>
    <path d="M1798.911,1477.13 L1816.959,1477.13 L1816.959,1516.49 L1798.911,1516.49 z" fill="#192D41"/>
    <path d="M1821.989,1523.072 L1858.667,1523.072 L1858.667,1540.191 L1821.989,1540.191 z" fill="#192D41"/>
    <path d="M1879.703,1518.241 L1895.428,1518.241 L1895.428,1537.532 L1879.703,1537.532 z" fill="#192D41"/>
    <path d="M1957.035,1518.241 L1972.76,1518.241 L1972.76,1537.531 L1957.035,1537.531 z" fill="#192D41"/>
    <path d="M1937.703,1518.241 L1953.428,1518.241 L1953.428,1537.531 L1937.703,1537.531 z" fill="#192D41"/>
    <path d="M1917.873,1518.241 L1933.598,1518.241 L1933.598,1537.531 L1917.873,1537.531 z" fill="#192D41"/>
    <path d="M1898.292,1518.241 L1914.017,1518.241 L1914.017,1537.532 L1898.292,1537.532 z" fill="#192D41"/>
    <path d="M1977.212,1447.275 L2010.809,1447.275 L2010.809,1514.27 L1977.212,1514.27 z" fill="#192D41"/>
    <path d="M1986.466,1465.173 L2071.654,1465.173 L2071.654,1524.476 L1986.466,1524.476 z" fill="#192D41"/>
    <path d="M2034.209,1481.398 L2140.927,1481.398 L2140.927,1537.532 L2034.209,1537.532 z" fill="#192D41"/>
    <path d="M2155.416,1527.33 L2276.773,1527.33 L2276.773,1548.61 L2155.416,1548.61 z" fill="#192D41"/>
    <path d="M2310.885,1524.476 L2367.058,1524.476 L2367.058,1551.807 L2310.885,1551.807 z" fill="#192D41"/>
    <path d="M2356.534,1530.891 L2414.704,1530.891 L2414.704,1548.61 L2356.534,1548.61 z" fill="#192D41"/>
    <path d="M2307.755,1498.271 L2361.5,1498.271 L2361.5,1527.33 L2307.755,1527.33 z" fill="#192D41"/>
    <path d="M2248.802,1485.028 L2316.102,1485.028 L2316.102,1536.585 L2248.802,1536.585 z" fill="#192D41"/>
    <path d="M1887.574,1465.173 L1980.99,1465.173 L1980.99,1514.27 L1887.574,1514.27 z" fill="#192D41"/>
    <path d="M2155.416,1482.916 L2239.158,1482.916 L2239.158,1537.532 L2155.416,1537.532 z" fill="#192D41"/>
  </g>
  <g id="Ferry_building">
    <g>
      <path d="M1634.567,1498.271 L1753.686,1498.271 L1753.686,1532.605 L1634.567,1532.605 z" fill="#192D41"/>
      <path d="M1640.05,1494.738 L1748.107,1494.738 L1753.686,1498.271 L1634.567,1498.271 z" fill="#192D41"/>
      <path d="M1682.128,1482.217 L1702.339,1482.217 L1702.339,1488.747 L1682.128,1488.747 z" fill="#192D41"/>
      <path d="M1683.867,1471.495 L1700.599,1471.495 L1700.599,1495.518 L1683.867,1495.518 z" fill="#192D41"/>
      <path d="M1690.82,1446.526 L1693.029,1446.526 L1693.029,1460.603 L1690.82,1460.603 z" fill="#192D41"/>
      <path d="M1694.107,1458.668 L1700.599,1471.495 L1683.867,1471.495 L1689.315,1458.668 L1694.107,1458.668 z" fill="#192D41"/>
      <path d="M1628.552,1525.817 L1757.274,1525.817 L1757.274,1532.605 L1628.552,1532.605 z" fill="#192D41"/>
    </g>
    <path d="M1692.103,1497.378 C1690.351,1497.378 1688.932,1496.059 1688.932,1494.432 C1688.932,1492.805 1690.351,1491.486 1692.103,1491.486 C1693.855,1491.486 1695.275,1492.805 1695.275,1494.432 C1695.275,1496.059 1693.855,1497.378 1692.103,1497.378 z" fill="#2B5580"/>
    <path d="M1690.337,1473.193 L1693.869,1473.193 L1693.869,1482.916 L1690.337,1482.916 z" fill="#2B5580"/>
    <path d="M1649.861,1509.942 L1653.555,1509.942 L1653.555,1532.605 L1649.861,1532.605 z" fill="#2B5580"/>
    <path d="M1736.94,1509.911 L1740.355,1509.911 L1740.355,1532.605 L1736.94,1532.605 z" fill="#2B5580"/>
    <path d="M1685.432,1509.942 L1688.932,1509.942 L1688.932,1532.625 L1685.432,1532.625 z" fill="#2B5580"/>
    <path d="M1697.193,1509.942 L1700.692,1509.942 L1700.692,1532.625 L1697.193,1532.625 z" fill="#2B5580"/>
  </g>
</svg>
