<svg
	version="1.1"
	xmlns="http://www.w3.org/2000/svg"
	xmlns:xlink="http://www.w3.org/1999/xlink" x="0" y="0"
	viewBox="0, 0, 3000, 3000"
	width="100%" height="100%"
	preserveAspectRatio="xMidYMid slice"
>
  <title>
    Auckland Skyline
  </title>
  <g id="Bg" class="lightest">
    <path d="M0 0h3000v3000H0z" fill="#95A8BB" id="Shape"/>
  </g>
  <g class="darker">
	  <path d="M0 1514.27h3000v1485.731H0z" fill="#294867" id="Water"/>
  </g>
  <g class="lighter">
	  <path d="M-148.365 1458.212s-39.101 7.604 271.407 5.695c310.508-1.909 1351.156-28.496 1351.156-28.496l497.039 2.354 1011.782-2.354 65.461 95.48L0 1510.205l-148.365-51.993z" fill="#6A8EB4" id="Hills_back_13"/>
	  <path d="M103.293 1452.514L0 1463.907l-90.897 29.836 513.416-10.827-235.564-19.009-83.662-11.393z" fill="#6A8EB4" id="Mt_eden_16_Copy"/>
	</g>
	
  <g id="Museum_14" fill="#2B5580" class="primary">
    <path d="M221.017 1451.013h120.162v19.305H221.017z"/>
    <path d="M280.714 1458.668c-13.539 0-24.516-2.551-24.516-5.697s10.977-5.696 24.516-5.696c13.54 0 24.516 2.55 24.516 5.696s-10.976 5.697-24.516 5.697z"/>
  </g>
 <g class="lighter">
  <path d="M952.721 1391.118l274.588 35.946-556.723 15.77 176.876-43.216 33.248-7.158 14.302-.275 16.145 3.391 41.564-4.458z" fill="#4D739B" id="Mt_eden_16"/>
 </g>
  <g id="Hills" class="lighter">
    <path d="M0 1475.557l221.017-5.239 197.485-16.222 289.364-25.156 227.08-5.992 274.265-19.689 356.459 19.689 437.613 19.886 358.217-9.778 173.5 25.156 147.296-5.698L2807 1463.907l107.5 6.411h85.5v54.158L0 1548.61v-73.053z" fill="#4D739B"/>
    <path d="M250.196 1467.963c-34.574 11.834 95.115 15.696-20.627 26.775 95.184-12.602-60.721-15.838-.027-25.192 5.658-.011 20.654-1.583 20.654-1.583z" fill="#6A8EB4"/>
  </g>
  <g class="white">
  <path d="M2200.073 1188.482c52.791 1.197-39.594-18.557-92.386-22.82-129.258-10.44-175.879-1.785-255.329 3.967-61.421 4.446-74.112 17.21-74.112 17.21l421.827 1.643zm-48.224.064c17.943 0 32.488-8.077 32.488-18.041s-14.545-18.041-32.488-18.041c-17.942 0-32.487 8.077-32.487 18.041s14.545 18.041 32.487 18.041zm-95.685-16.973c23.689 0 42.893-8.831 42.893-19.724s-19.204-19.724-42.893-19.724c-23.69 0-42.893 8.831-42.893 19.724s19.203 19.724 42.893 19.724zm9.898 12.695c36.445 0 65.99-10.059 65.99-22.467s-29.545-22.467-65.99-22.467c-36.445 0-65.989 10.059-65.989 22.467s29.544 22.467 65.989 22.467zm-115.482-5.106c20.326 0 36.802-8.341 36.802-18.629 0-10.288-16.476-18.628-36.802-18.628-20.325 0-36.801 8.34-36.801 18.628s16.476 18.629 36.801 18.629zm-45.684 4.875c21.165 0 38.324-8.645 38.324-19.31s-17.159-19.31-38.324-19.31c-21.166 0-38.325 8.645-38.325 19.31s17.159 19.31 38.325 19.31zm-31.98-4.645c14.438 0 26.142-5.837 26.142-13.037 0-7.201-11.704-13.038-26.142-13.038-14.437 0-26.142 5.837-26.142 13.038 0 7.2 11.705 13.037 26.142 13.037zm-60.913 4.645c11.634 0 21.066-4.46 21.066-9.962s-9.432-9.962-21.066-9.962c-11.635 0-21.066 4.46-21.066 9.962s9.431 9.962 21.066 9.962z" fill="#FFF" id="Cloud"/>
  </g>
  <g fill="#192D41" id="Tower_10" class="darker">
    <path d="M1920.257 1290.25h16.353v44.983h-16.353z"/>
    <path d="M1918.16 1280.928h20.548v9.322h-20.548z"/>
    <path d="M1914.894 1262.589h27.079v19.915h-27.079z"/>
    <path d="M1914.895 1251.414h27.078v11.175h-27.078z"/>
    <path d="M1914.894 1243.677h27.079v7.736h-27.079z"/>
    <path d="M1912.387 1237.229h32.093v6.448h-32.093z"/>
    <path d="M1907.229 1230.066h42.409v7.163h-42.409z"/>
    <path d="M1902 1225.481h52.868v4.585H1902z"/>
    <path d="M1907.229 1220.966h42.409v9.1h-42.409z"/>
    <path d="M1911.599 1217.208h33.669v8.273h-33.669z"/>
    <path d="M1916.9 1201.125h23.067v18.195H1916.9z"/>
    <path d="M1920.036 1195.797h16.796v5.328h-16.796z"/>
    <path d="M1916.9 1191.348h23.067v4.449H1916.9z"/>
    <path d="M1913.628 1189.317h29.612v2.031h-29.612z"/>
    <path d="M1916.9 1187.517h23.067v1.8H1916.9z"/>
    <path d="M1922.745 1174.747h11.377v12.77h-11.377z"/>
    <path d="M1919.707 1172.28h17.453v2.467h-17.453z"/>
    <path d="M1926.516 1119.025h3.835v53.255h-3.835z"/>
    <path d="M1927.974 1050h.92v69.025h-.92z"/>
  </g>
  <g id="Back_features_8" fill="#192D41" class="primary">
    <path d="M1383.667 1314.336c8.643-.166 13.74 18.837 13.74 18.837l-26.593.055s4.21-18.726 12.853-18.892z"/>
    <path d="M1367.656 1333.228h36.288v8.033h-36.288z" id="Shape"/>
    <path d="M1367.656 1338.934h50.416v10.748h-50.416z"/>
    <path d="M1365.938 1343.477h56.677v187.412h-56.677z"/>
    <path d="M1382.929 1294.493h1.549v20.808h-1.549z"/>
    <path d="M1227.526 1294.491h65.277v210.707h-65.277z"/>
    <path d="M1238.931 1282.531h45.862v17.311h-45.862z"/>
    <path d="M1290.159 1276.208h2.644v20.12h-2.644z"/>
    <path d="M1239.946 1267.371c9.9-.276 19.651 1.732 29.07 4.568 31.363 9.442 22.42 25.731-18.396 14.68-1.22-.35-2.452-.661-3.659-1.05-5.238-1.687-10.608-3.481-15.21-6.595-5.17-3.498-6.751-8.166.328-10.418 2.953-.94 4.719-.903 7.867-1.185zm7.893 4.586c-2.34.035-3.62-.068-5.86.387-4.502.916-5.216 3.538-1.414 6.283 3.487 2.518 7.726 3.845 11.779 5.118 30.469 9.07 34.046-2.236 17.183-7.537-7.038-2.35-14.303-3.724-21.688-4.251z"/>
  </g>
  <g id="Skyline_9" fill="#2B5580" class="primary">
    <path d="M123.042 1527.25h212.745v31.736H123.042z"/>
    <path d="M210.257 1493.672h79.057v10.463h-79.057z"/>
    <path d="M328.933 1494.738h89.55v64.248h-89.55z"/>
    <path d="M406.252 1442.834h52.419v81.642h-52.419z"/>
    <path d="M458.671 1458.212h13.171v66.264h-13.171z"/>
    <path d="M469.526 1467.963h51.455v54.369h-51.455z"/>
    <path d="M483.677 1458.212h37.304v19.305h-37.304z"/>
    <path d="M497.055 1442.834h84.386v116.152h-84.386z"/>
    <path d="M536.064 1435.411h28.968v34.907h-28.968z"/>
    <path d="M581.441 1453.51H646v90.786h-64.559z"/>
    <path d="M655.762 1453.51h52.085v90.786h-52.085z"/>
    <path d="M695.289 1401.878h53.019v109.738h-53.019z"/>
    <path d="M742.727 1415.216h40.927v109.26h-40.927z"/>
    <path d="M783.654 1458.212H803.5v86.084h-19.846z"/>
    <path d="M795.5 1407.375H863v102.83h-67.5z"/>
    <path d="M852.758 1421.248h40v88.695h-40z"/>
    <path d="M901.5 1407.375H969v97.826h-67.5z"/>
    <path d="M969 1421.51h46.5v80.911H969z"/>
    <path d="M1011 1433.056h100.914v89.276H1011z"/>
    <path d="M1111.914 1442.834H1149v81.642h-37.086z"/>
    <path d="M1149 1427.064h37.752v97.412H1149z"/>
    <path d="M1185.6 1458.212h60.408v66.264H1185.6z"/>
    <path d="M1347.501 1421.51h43.405v88.695h-43.405z"/>
    <path d="M1442.972 1427.064h62.479v83.141h-62.479z"/>
    <path d="M1452.323 1399.471h37.044v38.295h-37.044z"/>
    <path d="M1565.65 1401.878h60.843v129.013h-60.843z"/>
    <path d="M1585.675 1371.842h80.295v96.006h-80.295z"/>
    <path d="M1613.945 1364.185h34.749v35.286h-34.749z"/>
    <path d="M1789.857 1355.859h59.77v142.412h-59.77z"/>
    <path d="M1998.045 1421.51h53.394v100.822h-53.394z"/>
    <path d="M2051.439 1453.51h57.609v68.822h-57.609z"/>
    <path d="M2061.5 1415.645h43.558v59.693H2061.5z"/>
    <path d="M2116.073 1407.375h39.343v97.826h-39.343z"/>
    <path d="M2109.048 1453.511h118.496v68.821h-118.496z"/>
    <path d="M2149.795 1437.766h77.749v30.197h-77.749z"/>
    <path d="M2163.846 1427.064h51.989v15.77h-51.989z"/>
    <path d="M2227.544 1453.51h55.181v68.822h-55.181z"/>
    <path d="M2233.988 1442.834h21.518v15.378h-21.518z"/>
    <path d="M2265.546 1442.834h17.178v10.676h-17.178z"/>
    <path d="M2276.773 1465.173h90.285v59.303h-90.285z"/>
    <path d="M2361.5 1477.516h70.5v46.96h-70.5z"/>
    <path d="M2432 1498.271h86.5v26.205H2432z"/>
    <path d="M2469 1477.517h49.5v13.969H2469z"/>
    <path d="M2535 1498.271h40v32.62h-40z"/>
    <path d="M2563.295 1511.616h120.5v20.989h-120.5z"/>
    <path d="M2634 1488.747h135.5v42.144H2634z"/>
    <path d="M2705.5 1474.909H2807v55.982h-101.5z"/>
    <path d="M2807 1488.747h93.799v42.144H2807z"/>
    <path d="M2900.799 1511.616h144.505v19.275h-144.505z"/>
    <path d="M642.749 1474.909h17.749v69.387h-17.749z"/>
    <path d="M-16.981 1548.61h140.023v21.053H-16.981z"/>
    <path d="M60.927 1527.33h55.025v12.861H60.927z"/>
    <path d="M335.787 1498.271h957.016v60.715H335.787z"/>
    <path d="M1292.804 1465.173h983.971v79.123h-983.971z"/>
    <path d="M2265.547 1505.201h252.954v31.386h-252.954z"/>
    <path d="M1193.633 1320.249h24.069v182.172h-24.069z"/>
    <path d="M1211.42 1329.977h15.89v172.444h-15.89z"/>
    <path d="M1489.367 1391.079h69.126v67.131h-69.126z" id="Shape"/>
    <path d="M210.257 1507.778h79.057v10.463h-79.057z"/>
    <path d="M123.042 1518.241h165.527v12.649H123.042z"/>
    <path d="M328.933 1479.27h71.249v9.477h-71.249z"/>
    <path d="M1317.935 1433.056h29.566v97.834h-29.566z"/>
  </g>
  <g id="Mid_dark_21" fill="#192D41"  class="darkest">
    <path d="M1390.906 1461.046h61.417v75.539h-61.417z"/>
    <path d="M1452.323 1503.549h53.128v33.036h-53.128z"/>
    <path d="M1404.932 1433.055h38.04v34.792h-38.04z"/>
    <path d="M1379.033 1500.808h25.899v26.522h-25.899z"/>
  </g>
  <g id="Feature_buildings_7" class="darkest">
    <g fill="#192D41">
      <path d="M1084.188 1380.172h27.726v102.744h-27.726z"/>
      <path d="M1049.444 1365.501h39.517v102.46h-39.517z"/>
      <path d="M1038.559 1380.172h12.778v76.431h-12.778z"/>
      <path d="M1025.071 1386.748h18.694v64.886h-18.694z"/>
      <path d="M1049.444 1365.501l18.1-9.901 21.417 9.901h-39.517z"/>
      <path d="M1031.637 1388.421l6.922-8.249 7.276 2.693-5.453 5.453-8.745.103z"/>
      <path d="M1066.309 1338.418h2.675v23.355h-2.675z"/>
    </g>
    <g fill="#2B5580" class="primary">
      <path d="M1959.345 1376.242h27.7v138.498h-27.7z"/>
      <path d="M1973.991 1386.749h29.292v127.991h-29.292z"/>
      <path d="M1845.048 1399.471h26.257v118.77h-26.257z"/>
      <path d="M1831.003 1433.056h18.624v81.684h-18.624z"/>
      <path d="M1789.857 1395.807h18.921v87.109h-18.921z" id="Shape"/>
    </g>
    <g fill="#192D41" class="darkest">
      <path d="M1824.626 1305.56h65.185v64.754h-65.185z"/>
      <path d="M1840.985 1348.192h28.969v134.724h-28.969z"/>
      <path d="M1833.333 1289.358h49.687v29.966h-49.687z"/>
      <path d="M1858.176 1305.559c-7.784 0-14.094-6.31-14.094-14.094 0-7.783 6.31-14.094 14.094-14.094s14.094 6.311 14.094 14.094c0 7.784-6.31 14.094-14.094 14.094z"/>
    </g>
    <g fill="#192D41" class="darkest">
      <path d="M1867.014 1353.954h92.331v160.785h-92.331z"/>
      <path d="M1875.61 1346.631h72.274v21.014h-72.274z"/>
      <path d="M1880.386 1336.761h62.085v28.337h-62.085z"/>
      <path d="M1885.48 1327.209h51.578v26.745h-51.578z"/>
      <path d="M1910.632 1305.559h5.095v31.202h-5.095z"/>
    </g>
    <g fill="#192D41" class="darkest">
      <path d="M1505.675 1437.765h55.982v10.953h-55.982z"/>
      <path d="M1501.78 1448.718h71.56v21.906h-71.56z"/>
      <path d="M1497.886 1460.401h79.105v24.126h-79.105z"/>
      <path d="M1489.367 1477.515h87.624v59.07h-87.624z"/>
      <path d="M1489.367 1442.876h31.642v64.015h-31.642z"/>
    </g>
    <g fill="#192D41" class="darkest">
      <path d="M1730.512 1343.631h62.326v157.177h-62.326z"/>
      <path d="M1789.857 1345.063l.158-24.011-5.318-.06-15.116 9.679-21.389.239-6.504 15.352 48.169-1.199z"/>
    </g>
    <g fill="#192D41" class="darkest">
	    <path d="M1265.079 1446.526h77.012v90.059h-77.012z" fill="#192D41"/>
    </g>
    <g fill="#2B5580" class="primary">
	    <path d="M1283.629 1458.21h52.502v74.415h-52.502z" fill="#2B5580"/>
			<path d="M1286.575 1453.509h45.27v4.701h-45.27z" fill="#2B5580"/>
    </g>
    <g fill="#192D41" class="darkest">
	    <path d="M1303.11 1463.312h12.996v63.938h-12.996z" fill="#192D41"/>
	    <path d="M1287.943 1463.312h12.996v63.938h-12.996z" fill="#192D41" id="Shape"/>
	    <path d="M1318.493 1463.312h12.996v63.938h-12.996z" fill="#192D41" id="Shape"/>
    </g>
  </g>
  <g id="Skyline_mid" fill="#2B5580" class="primary">
    <path d="M1611.712 1485.028h160.751v45.862h-160.751z"/>
    <path d="M1672.841 1391.079h22.773v103.657h-22.773z"/>
    <path d="M1688.154 1381.852h44.172v112.884h-44.172z"/>
    <path d="M1633.184 1421.509h49.669v76.761h-49.669z"/>
    <path d="M1607.663 1383.815h48.884v69.694h-48.884z"/>
    <path d="M1637.111 1371.84h28.859v68.319h-28.859z"/>
    <path d="M1613.945 1364.183h34.749v43.191h-34.749z"/>
    <path d="M1585.675 1371.84h51.436v126.43h-51.436z"/>
    <path d="M1579.197 1393.631h30.233v90.896h-30.233z"/>
    <path d="M1565.65 1401.877h32.393v73.031h-32.393z"/>
  </g>
  <g id="Waterfront" class="darkest">
    <path d="M55.024 1556.901H646v12.762H55.024z" fill="#192D41"/>
    <path d="M882.598 1544.296h161.926v25.367H882.598z" fill="#192D41"/>
    <path d="M1100.721 1536.587h192.082v22.399h-192.082z" fill="#192D41"/>
    <path d="M1501.487 1536.585h230.839v20.316h-230.839z" fill="#192D41"/>
    <path d="M2057.699 1530.891h331.396v26.01h-331.396z" fill="#192D41"/>
    <path d="M2469.001 1524.476h257.957v19.82h-257.957z" fill="#192D41"/>
    <path d="M1789.857 1524.476h300.204v17.915h-300.204z" fill="#192D41"/>
    <path d="M1100.721 1536.587h880.269v7.709h-880.269z" fill="#192D41"/>
    <path d="M670.585 1544.296h435.414v14.69H670.585z" fill="#192D41"/>
    <path d="M670.586 1518.24h148.316v26.056H670.586z" fill="#192D41"/>
    <path d="M642.749 1542.391h44.525v16.595h-44.525z" fill="#192D41"/>
    <path d="M568.432 1542.391H646v14.51h-77.568z" fill="#192D41"/>
    <path d="M483.677 1542.391h77.567v14.51h-77.567z" fill="#192D41"/>
    <path d="M483.676 1523.072h77.568v13.515h-77.568z" fill="#192D41"/>
    <path d="M395.716 1523.072h77.568v13.515h-77.568z" fill="#192D41"/>
    <path d="M123.042 1542.391h77.567v14.51h-77.567z" fill="#192D41"/>
    <path d="M211.002 1542.391h77.567v14.51h-77.567z" fill="#192D41"/>
    <path d="M303.972 1542.391h77.567v14.51h-77.567z" fill="#192D41"/>
    <path d="M394.274 1542.391h77.568v14.51h-77.568z" fill="#192D41"/>
    <path d="M1990.776 1542.391h78.485v6.219h-78.485z" fill="#192D41"/>
    <path d="M2092.065 1475.338h28.459v68.958h-28.459z" fill="#192D41"/>
    <path d="M1275.131 1516.49h62.175c1.818 0 3.291 1.474 3.291 3.291s-1.473 3.29-3.291 3.29h-62.175c-1.818 0-3.291-1.473-3.291-3.29s1.473-3.291 3.291-3.291z" fill="#2B5580"/>
  </g>
  <g id="Layer_front_buildings" fill="#192D41" class="darkest">
    <path d="M719.04 1488.747h87.888v22.869H719.04z"/>
    <path d="M812.529 1460.484h70.069v63.992h-70.069z"/>
    <path d="M889.861 1462.422h51.483v64.828h-51.483z"/>
    <path d="M806.928 1518.241h171.307v30.369H806.928z"/>
    <path d="M971.947 1500.808h34.583v43.488h-34.583z"/>
    <path d="M1006.53 1511.616h43.047v36.994h-43.047z"/>
    <path d="M1054.485 1498.271h51.514v46.025h-51.514z"/>
    <path d="M1111.914 1502.421h22.341v28.47h-22.341z"/>
    <path d="M1149 1504.135h34.326v23.115H1149z"/>
    <path d="M1100.721 1522.332h90.448v14.253h-90.448z"/>
    <path d="M1223.628 1516.49h38.106v25.901h-38.106z"/>
    <path d="M1253.094 1523.072h92.281v17.119h-92.281z"/>
    <path d="M1336.131 1507.778h29.807v31.664h-29.807z"/>
    <path d="M1347.501 1523.072h75.114v13.513h-75.114z"/>
    <path d="M1565.65 1511.616h52.594v28.575h-52.594z"/>
    <path d="M1782.536 1511.616h45.797v19.274h-45.797z"/>
    <path d="M1798.911 1477.13h18.048v39.36h-18.048z"/>
    <path d="M1821.989 1523.072h36.678v17.119h-36.678z"/>
    <path d="M1879.703 1518.241h15.725v19.291h-15.725z"/>
    <path d="M1957.035 1518.241h15.725v19.29h-15.725z"/>
    <path d="M1937.703 1518.241h15.725v19.29h-15.725z"/>
    <path d="M1917.873 1518.241h15.725v19.29h-15.725z"/>
    <path d="M1898.292 1518.241h15.725v19.291h-15.725z"/>
    <path d="M1977.212 1447.275h33.597v66.995h-33.597z"/>
    <path d="M1986.466 1465.173h85.188v59.303h-85.188z"/>
    <path d="M2034.209 1481.398h106.718v56.134h-106.718z"/>
    <path d="M2155.416 1527.33h121.357v21.28h-121.357z"/>
    <path d="M2310.885 1524.476h56.173v27.331h-56.173z"/>
    <path d="M2356.534 1530.891h58.17v17.719h-58.17z"/>
    <path d="M2307.755 1498.271h53.745v29.059h-53.745z"/>
    <path d="M2248.802 1485.028h67.3v51.557h-67.3z"/>
    <path d="M1887.574 1465.173h93.416v49.097h-93.416z"/>
    <path d="M2155.416 1482.916h83.742v54.616h-83.742z"/>
  </g>
  <g id="Ferry_building">
    <g fill="#192D41" class="darkest">
      <path d="M1634.567 1498.271h119.119v34.334h-119.119z"/>
      <path d="M1640.05 1494.738h108.057l5.579 3.533h-119.119z"/>
      <path d="M1682.128 1482.217h20.211v6.53h-20.211z"/>
      <path d="M1683.867 1471.495h16.732v24.023h-16.732z"/>
      <path d="M1690.82 1446.526h2.209v14.077h-2.209z"/>
      <path d="M1694.107 1458.668l6.492 12.827h-16.732l5.448-12.827h4.792z"/>
      <path d="M1628.552 1525.817h128.722v6.788h-128.722z"/>
    </g>
    <g fill="#2B5580" class="primary">
	    <path d="M1692.103 1497.378c-1.752 0-3.171-1.319-3.171-2.946 0-1.627 1.419-2.946 3.171-2.946 1.752 0 3.172 1.319 3.172 2.946 0 1.627-1.42 2.946-3.172 2.946z" fill="#2B5580"/>
	    <path d="M1690.337 1473.193h3.532v9.723h-3.532z" fill="#2B5580"/>
	    <path d="M1649.861 1509.942h3.694v22.663h-3.694z" fill="#2B5580"/>
	    <path d="M1736.94 1509.911h3.415v22.694h-3.415z" fill="#2B5580"/>
	    <path d="M1685.432 1509.942h3.5v22.683h-3.5z" fill="#2B5580"/>
	    <path d="M1697.193 1509.942h3.499v22.683h-3.499z" fill="#2B5580"/>
    </g>
  </g>
</svg>