<svg version="1.1" xmlns="http://www.w3.org/2000/svg" xmlns:xlink="http://www.w3.org/1999/xlink"
	x="0" y="0"
	width="100%" height="100%"
	viewBox="0 0 3000 3000"
	preserveAspectRatio="xMidYMid slice"
	>
  <g id="bg" class="lightest">
    <rect x="0" y="0" width="3000" height="3000" fill="#FFFFFF"/>
  </g>
  <g id="Sea" class="primary">
    <path d="M0,1514.27 L3000,1514.27 L3000,3000 L0,3000 z" fill="#4D739B"/>
  </g>
  <g id="Sand" class="lighter">
    <path d="M1293.154,1535.425 C1293.154,1535.425 917.502,1559.675 736.441,1698.833 C628.622,1781.699 1228.37,2019.438 3177.438,2130.713 C4947.904,2231.791 4098.004,2446.835 4098.004,2446.835 L3177.438,3000.001 L177.438,3000 L177.438,1536.857 L1274.831,1532.463 L1318.791,1530.172 L1325.378,1534.181 L1293.154,1535.425 z" fill="#6A8EB4"/>
  </g>
  <g id="Hills" class="lighter">
    <path d="M1198.91,1501.501 L1600.606,1490.229 L1689.796,1474.013 L1845.204,1497.662 C1845.204,1497.662 1984.395,1485.5 1991.152,1486.851 C1997.909,1488.202 2203.317,1494.959 2210.074,1496.986 C2216.831,1499.013 2396.563,1479.478 2396.563,1479.478 C2396.563,1479.478 2824.552,1479.478 2830.826,1479.478 C2837.1,1479.478 2858.063,1514.271 2858.063,1514.271 L1205.41,1514.271 L1198.91,1501.501 z" fill="#6A8EB4"/>
  </g>
  <g id="Land" class="darker">
    <path d="M1355.795,1534.281 L1253.797,1509.349 L1260.597,1433.417 L1075.906,1337.262 L958.172,1155.567 L948.566,1039.649 L716.904,909.301 L325.37,1164.074 L366.178,1536.858 L1355.795,1534.281 z" fill="#2B5580"/>
  </g>
  <g id="Island" class="darker">
    <path d="M1462.062,1543.643 L1429.484,1530.623 L1478.558,1402.783 L1499.177,1380.102 L1512.373,1270.82 L1639.495,1345.716 L1625.971,1370.305 L1664.083,1451.447 L1678.837,1521.524 L1691.746,1542.888 L1462.062,1543.643 z" fill="#2B5580"/>
    <path d="M1726.447,1523.064 L1762.884,1541.193 L1699.608,1542.888 L1699.608,1530.529 L1726.447,1523.064 z" fill="#2B5580"/>
  </g>
  <g id="Island_2" class="darker">
    <path d="M2231.395,1518.927 L2221.459,1513.959 L2196.988,1458.761 L2164.237,1460.969 L2137.741,1483.416 L2132.774,1518.927 L2231.395,1518.927 z" fill="#2B5580"/>
  </g>
  <g id="Shadows" class="darker">
    <path d="M2231.395,2815 L3220,3140 L-115.194,3281.871 L-0,1884.25 L514.265,1798.834 L2231.395,2815 z" fill="#294867"/>
    <path d="M2469.375,1812.353 L3010,2095.051 L3010,2780 L1580,2805 L960,2510 L1458.609,3281.871 L3099.544,3325.282 L3010,1909.374 L2469.375,1812.353 z" fill="#294867"/>
  </g>
  <g id="Rocks" class="darker">
    <path d="M2188.274,2089.329 C2029.635,2090.324 2001.539,2093.116 1996.176,2078.231 C1996.176,2022.988 2081.623,1978.85 2188.846,1978.85 C2296.07,1978.85 2382.992,2023.634 2382.992,2078.878 C2363.722,2091.874 2346.912,2088.333 2188.274,2089.329 z" fill="#294867"/>
    <path d="M2289.596,2057.159 C2174.432,2058.047 2154.035,2060.54 2150.142,2047.252 C2200.517,1974.398 2212.172,1958.532 2290.011,1958.532 C2367.851,1958.532 2430.952,1998.512 2430.952,2047.829 C2416.962,2059.431 2404.76,2056.27 2289.596,2057.159 z" fill="#294867"/>
    <path d="M2524.609,1883.383 C2421.791,1884.371 2403.581,1887.143 2400.105,1872.367 C2400.105,1817.526 2455.485,1773.711 2524.98,1773.711 C2594.475,1773.711 2650.812,1818.168 2650.812,1873.009 C2638.322,1885.91 2627.427,1882.395 2524.609,1883.383 z" fill="#294867"/>
    <path d="M1902.829,1958.051 C1830.878,1958.6 1818.135,1960.141 1815.703,1951.927 C1815.703,1921.441 1854.457,1897.084 1903.089,1897.084 C1951.721,1897.084 1991.144,1921.798 1991.144,1952.284 C1982.404,1959.455 1974.78,1957.501 1902.829,1958.051 z" fill="#294867"/>
    <path d="M1849.1,1920.296 C1791.539,1920.735 1781.344,1921.968 1779.399,1915.396 C1779.399,1891.008 1810.402,1871.522 1849.307,1871.522 C1888.213,1871.522 1919.752,1891.293 1919.752,1915.682 C1912.76,1921.419 1906.66,1919.856 1849.1,1920.296 z" fill="#294867"/>
    <path d="M2211.996,1971.763 C2207.124,1973.053 2197.631,1979.022 2201.057,1978.85 C2249.653,1976.413 2297.777,1985.824 2329.967,2010.421 C2298.418,1982.509 2258.529,1969.676 2211.996,1971.763 z" fill="#4D739B"/>
  </g>
  <g id="Cliffs" class="darkest">
    <path d="M1234.958,565 L2216.095,951.628 L2252.696,1288.358 L2335.659,1586.047 L2469.375,1812.353 C2469.375,1812.353 2676.357,1893.851 3010,1909.374 C3017.652,1509.647 3010,-0 3010,-0 L1293.48,0 L1234.958,565 z" fill="#122131"/>
    <path d="M2017.66,493.484 L796.198,1191.519 L612.371,1754.598 C612.371,1754.598 588.873,1853.845 567.734,1859.61 C435.138,1941.282 90.195,1950.89 90.195,1950.89 C90.195,1950.89 79.974,-41.516 79.974,-41.516 C79.974,-41.516 1855.521,-41.516 1855.521,-41.516 L2017.66,493.484 z" fill="#122131"/>
    <path d="M2699.923,1908.507 C2597.105,1909.495 2578.895,1912.267 2575.419,1897.491 C2575.419,1842.65 2630.799,1798.834 2700.294,1798.834 C2769.789,1798.834 2826.126,1843.292 2826.126,1898.133 C2813.636,1911.034 2802.741,1907.519 2699.923,1908.507 z" fill="#122131"/>
    <path d="M2914.643,1949.82 C2782.506,1951.04 2759.104,1954.461 2754.637,1936.222 C2754.637,1868.531 2825.809,1814.448 2915.12,1814.448 C3004.431,1814.448 3076.833,1869.323 3076.833,1937.015 C3060.781,1952.939 3046.78,1948.6 2914.643,1949.82 z" fill="#122131"/>
  </g>
</svg>
