<svg version="1.1" xmlns="http://www.w3.org/2000/svg" xmlns:xlink="http://www.w3.org/1999/xlink"
	x="0" y="0"
	width="100%" height="100%"
	viewBox="0 0 1683.8 2381.1"
	preserveAspectRatio="xMidYMid slice"
	>
  <g id="Sky" class="lightest">		
		<rect x="0" y="0" fill="#EEFFFE" width="1683.8" height="1727.9"/>
  </g>
  <g  id="hill_back" class="lighter">
		<path fill="#AFD1C3" d="M376.2,854.5c0,0,454.9-80,818.9-80s864.9,80,864.9,80v1101.2H376.2V854.5z"/>
  </g>
  <g id="hill_mid" class="primary">
		<path id="hill_mid" fill="#85B2A0" d="M-805.7,800.7c0,0,454.9-80,818.9-80c905.7,0,1670.7,303.3,1670.7,303.3l-6,877.9H-805.7
	V800.7z"/>
  </g>
  <g class="darker">
		<path fill-rule="evenodd" clip-rule="evenodd" fill="#3A7C79" d="M894.6,1189.2c5.3-4.8,8.6-11.7,8.6-19.5c0-8.2-3.7-15.5-9.6-20.3
			c2.5-4.8,4-10.2,4-16c0-4.1-0.7-8-2-11.6c2.3-3.4,3.6-7.5,3.6-12c0-5.3-1.9-10.2-5.2-14c1.3-3.3,2-7,2-10.8c0-8-3.1-15.2-8.1-20.6
			c1.6-3.7,2.5-7.8,2.5-12.1c0-7.4-2.7-14.2-7.1-19.4c1-2.5,1.5-5.2,1.5-8.1c0-10.2-6.7-18.8-16-21.7c-0.1-18.2-14.9-32.9-33.1-32.9
			c-7.1,0-13.7,2.3-19.1,6.1c-6.3-4.8-14.2-7.7-22.7-7.7c-20.2,0-36.6,15.9-37.4,35.9c-11.5,0.4-20.8,9.9-20.8,21.5
			c0,8.5,4.9,15.8,12,19.3c0,0.3-0.1,0.7-0.1,1c0,2.1,0.3,4.2,0.9,6.1c-5.9,5-9.7,12.6-9.7,21c0,3.1,0.5,6.2,1.5,9
			c-1.5,3.2-2.3,6.8-2.3,10.6c0,5,1.4,9.6,3.9,13.5c-2.6,3.8-4.4,8.3-5.1,13.1c-1.2-0.2-2.3-0.3-3.5-0.3c-13.7,0-24.7,11.1-24.7,24.7
			c0,10.5,6.5,19.4,15.7,23c-5.3,5.7-8.5,13.3-8.5,21.7c0,4.3,0.9,8.4,2.4,12.1c-9.2,2.8-15.9,11.3-15.9,21.4
			c0,12.3,10,22.3,22.3,22.3c7.5,0,14.1-3.7,18.1-9.3c3.4,1.3,7.1,2.1,11,2.1c3.4,0,6.7-0.6,9.8-1.6c0.3,0,0.7,0,1,0
			c0.1,0,0.3,0,0.4,0c4.3,4.4,10.4,7.2,17.1,7.2c4.7,0,9.2-1.4,12.9-3.8v35.6h32v-40.5c4.7,5.3,11.6,8.6,19.3,8.6
			c10.2,0,19-5.9,23.2-14.4c4,3,8.9,4.8,14.3,4.8c13,0,23.5-10.5,23.5-23.5C907.2,1201,902.1,1193.2,894.6,1189.2z"/>
		<path fill-rule="evenodd" clip-rule="evenodd" fill="#3A7C79" d="M1007.8,1127.6c3.2-6,5-12.8,5-20c0-5.1-0.9-10-2.5-14.5
			c2.9-4.3,4.5-9.4,4.5-15c0-4.7-1.2-9.1-3.3-13c6.4-6.8,10.3-15.9,10.3-26c0-13.7-7.2-25.6-18-32.3c0-0.2,0-0.5,0-0.7
			c0-16.2-10.2-30-24.4-35.5c-1.7-9.5-8-17.3-16.6-21.1c0-0.3,0-0.6,0-0.9c0-22.9-18.6-41.5-41.5-41.5c-5.6,0-10.9,1.1-15.8,3.1
			c-0.6-0.1-1.1-0.1-1.7-0.1c-6.8,0-12.4,4.8-13.7,11.2c-2.9,3.3-5.3,7.1-7,11.2c-5.6,1.9-10.8,4.7-15.2,8.4
			c-12.5,7.1-21.9,19.1-25.5,33.4c-10.2,3.3-17.5,12.9-17.5,24.2c0,2.7,0.4,5.3,1.2,7.7c-6,5.1-10.2,12.1-11.6,20.1
			c-15.3,9.6-25.6,26.7-25.6,46.2c0,13,4.5,24.8,12.1,34.2c-7.3,5.4-12.1,14-12.1,23.8c0,7.2,2.6,13.9,7,19c-6.8,7.2-11,16.8-11,27.5
			c0,10.2,3.8,19.5,10.1,26.6c1.6,19.3,17.7,34.4,37.4,34.4c4.3,0,8.4-0.7,12.3-2.1c0.4,0,0.8,0.1,1.2,0.1c0.2,0,0.4,0,0.6,0
			c5.4,5.6,13,9,21.4,9c5.9,0,11.4-1.7,16-4.7v45.6h41v-51c5.9,6.2,14.2,10,23.4,10c17.9,0,32.5-14.5,32.5-32.5c0-1.9-0.2-3.7-0.5-5.5
			c0.2,0,0.3,0,0.5,0c14.9,0,27-12.1,27-27c0-0.5,0-1,0-1.5c7.4-6.1,12-15.2,12-25.5C1019.8,1142.8,1015.1,1133.6,1007.8,1127.6z"/>
		<path fill-rule="evenodd" clip-rule="evenodd" fill="#3A7C79" d="M1176.2,1160.4c6.6-6,10.7-14.6,10.7-24.2
			c0-10.2-4.6-19.2-11.9-25.2c3.2-5.9,5-12.7,5-19.9c0-5.1-0.9-9.9-2.5-14.4c2.8-4.3,4.5-9.4,4.5-14.9c0-6.6-2.4-12.7-6.4-17.4
			c1.6-4.2,2.4-8.7,2.4-13.4c0-9.9-3.8-18.9-10.1-25.6c2-4.6,3.1-9.7,3.1-15c0-9.2-3.3-17.6-8.8-24.2c1.2-3.1,1.8-6.5,1.8-10
			c0-12.7-8.3-23.4-19.8-27c-0.1-22.6-18.5-40.9-41.1-40.9c-8.9,0-17.1,2.8-23.8,7.6c-7.8-6-17.6-9.6-28.3-9.6
			c-25.1,0-45.5,19.8-46.5,44.6c-14.3,0.5-25.8,12.3-25.8,26.7c0,10.5,6.1,19.6,14.9,24c0,0.4,0,0.9,0,1.3c0,2.7,0.4,5.2,1.2,7.6
			c-7.4,6.3-12.1,15.6-12.1,26.1c0,3.9,0.7,7.6,1.9,11.1c-1.8,4-2.9,8.5-2.9,13.1c0,6.2,1.8,11.9,4.8,16.8c-3.3,4.8-5.5,10.3-6.4,16.2
			c-1.4-0.2-2.9-0.3-4.4-0.3c-17,0-30.7,13.8-30.7,30.7c0,13,8.1,24.1,19.5,28.6c-6.5,7.1-10.5,16.5-10.5,26.9c0,5.3,1.1,10.4,3,15
			c-11.5,3.4-19.8,14-19.8,26.6c0,15.3,12.4,27.8,27.8,27.8c9.3,0,17.5-4.5,22.5-11.5c4.2,1.7,8.8,2.6,13.7,2.6c4.3,0,8.3-0.7,12.2-2
			c0.4,0,0.8,0.1,1.2,0.1c0.2,0,0.4,0,0.6,0c5.4,5.5,12.9,8.9,21.2,8.9c5.8,0,11.1-1.6,15.7-4.5v44.1h40v-50.4
			c5.9,6.7,14.5,10.8,24.1,10.8c12.6,0,23.6-7.3,28.9-17.9c4.9,3.8,11.1,6,17.7,6c16.1,0,29.2-13.1,29.2-29.2
			C1191.8,1175,1185.4,1165.3,1176.2,1160.4z"/>
</g>
  <g class="primary">
		<path fill-rule="evenodd" clip-rule="evenodd" fill="#85B2A0" d="M1376.8,1145.2c0-13.2-5.2-25.2-13.6-34.1
			c5.4-6.4,8.6-14.6,8.6-23.6c0-12.1-5.9-22.9-15-29.6c9.4-11.6,15-26.4,15-42.5c0-24.2-12.7-45.4-31.8-57.4c-1.8-10-7-18.7-14.4-25
			c1-3,1.5-6.2,1.5-9.6c0-14-9.1-26-21.8-30.1c-4.4-17.8-16-32.8-31.6-41.6c-5.5-4.6-12-8.2-18.9-10.5c-2.2-5.1-5.1-9.8-8.7-13.9
			c-1.6-7.9-8.6-13.9-17-13.9c-0.7,0-1.4,0.1-2.1,0.1c-6-2.5-12.7-3.9-19.6-3.9c-28.5,0-51.6,23.1-51.6,51.6c0,0.4,0,0.8,0,1.1
			c-10.6,4.7-18.5,14.4-20.6,26.2c-17.8,6.8-30.4,24-30.4,44.1c0,0.3,0,0.6,0,0.8c-13.4,8.3-22.4,23.2-22.4,40.2
			c0,12.5,4.9,23.9,12.8,32.3c-2.6,4.8-4.1,10.3-4.1,16.1c0,6.9,2.1,13.3,5.6,18.6c-2,5.6-3.2,11.7-3.2,18c0,9,2.3,17.5,6.2,24.9
			c-9.1,7.5-14.9,18.9-14.9,31.6c0,12.8,5.8,24.2,15,31.7c0,0.6-0.1,1.2-0.1,1.9c0,18.5,15,33.5,33.5,33.5c0.2,0,0.4,0,0.6,0
			c-0.4,2.2-0.6,4.5-0.6,6.8c0,22.3,18.1,40.4,40.4,40.4c11.5,0,21.9-4.8,29.2-12.5v62.8h51v-56c5.7,3.6,12.5,5.7,19.8,5.7
			c10.4,0,19.9-4.3,26.6-11.2c0.2,0,0.5,0,0.7,0c0.5,0,1.1,0,1.6-0.1c4.8,1.6,9.9,2.5,15.2,2.5c24.4,0,44.5-18.8,46.4-42.7
			C1372,1169.5,1376.8,1157.9,1376.8,1145.2z"/>
  </g>
  <g class="darker" id="Hill_front_dark">
		<path fill="#3A7C79" d="M5,1310c0,0,454.9-80,818.9-80s864.9,80,864.9,80v1101.2H5V1310z"/>
  </g>
  <g class="darker">
		<path fill-rule="evenodd" clip-rule="evenodd" fill="#3A7C79" d="M762.7,1155.4c1.3-3.2,2.1-6.7,2.1-10.4c0-7.2-2.8-13.8-7.3-18.7
			c7.9-3.1,13.5-10.8,13.5-19.8c0-11.8-9.5-21.3-21.3-21.3c-1,0-2,0.1-3,0.2c-0.6-4.1-2.2-8-4.4-11.3c2.1-3.4,3.3-7.4,3.3-11.6
			c0-3.3-0.7-6.3-2-9.1c0.8-2.4,1.3-5,1.3-7.7c0-7.2-3.3-13.7-8.4-18.1c0.5-1.7,0.8-3.4,0.8-5.3c0-0.3,0-0.6,0-0.9
			c6.1-3,10.4-9.3,10.4-16.6c0-10-8-18.2-17.9-18.5c-0.7-17.2-14.9-31-32.3-31c-7.4,0-14.2,2.5-19.6,6.6c-4.7-3.3-10.3-5.3-16.5-5.3
			c-15.7,0-28.4,12.7-28.5,28.4c-8,2.5-13.8,9.9-13.8,18.7c0,2.4,0.5,4.8,1.3,6.9c-3.8,4.5-6.1,10.4-6.1,16.8c0,3.7,0.8,7.2,2.2,10.4
			c-4.3,4.7-7,10.9-7,17.8c0,3.3,0.6,6.4,1.7,9.3c-2.8,3.2-4.4,7.4-4.4,12c0,3.8,1.2,7.4,3.1,10.3c-1.1,3.1-1.8,6.5-1.8,10
			c0,5,1.2,9.7,3.4,13.8c-5,4.2-8.3,10.5-8.3,17.5c0,6.6,2.9,12.6,7.4,16.8c-6.4,3.4-10.8,10.2-10.8,17.9c0,11.2,9.1,20.3,20.3,20.3
			c4.6,0,8.9-1.6,12.3-4.2c3.7,7.4,11.2,12.4,20,12.4c6.5,0,12.4-2.8,16.5-7.3v34.6h27v-31.1c3.3,2.4,7.4,3.7,11.8,3.7
			c5.8,0,11-2.4,14.7-6.2c0.1,0,0.3,0,0.4,0c0.3,0,0.6,0,0.9,0c2.6,0.9,5.5,1.4,8.4,1.4c3.4,0,6.6-0.6,9.5-1.8c3.5,4.8,9.2,8,15.6,8
			c10.6,0,19.2-8.6,19.2-19.2C776.4,1165.1,770.6,1157.7,762.7,1155.4z"/>
  </g>
  <g class="lighter">		

	<path fill-rule="evenodd" clip-rule="evenodd" fill="#AFD1C3" d="M705.2,1144.7c0-9.2-3.6-17.5-9.4-23.7c3.7-4.4,6-10.1,6-16.4
		c0-8.4-4.1-15.9-10.4-20.5c6.5-8.1,10.4-18.3,10.4-29.5c0-16.8-8.8-31.5-22-39.8c-1.2-6.9-4.9-13-10-17.3c0.7-2.1,1-4.3,1-6.6
		c0-9.7-6.3-18-15.1-20.9c-3-12.4-11.1-22.7-21.9-28.8c-3.8-3.2-8.3-5.7-13.1-7.3c-1.5-3.6-3.6-6.8-6.1-9.7c-1.1-5.5-6-9.6-11.8-9.6
		c-0.5,0-1,0-1.5,0.1c-4.2-1.7-8.8-2.7-13.6-2.7c-19.8,0-35.8,16-35.8,35.8c0,0.3,0,0.5,0,0.8c-7.4,3.2-12.8,10-14.3,18.2
		c-12.3,4.7-21.1,16.6-21.1,30.6c0,0.2,0,0.4,0,0.6c-9.3,5.8-15.5,16.1-15.5,27.9c0,8.7,3.4,16.6,8.9,22.4c-1.8,3.3-2.9,7.1-2.9,11.2
		c0,4.8,1.4,9.2,3.9,12.9c-1.4,3.9-2.2,8.1-2.2,12.5c0,6.2,1.6,12.1,4.3,17.3c-6.3,5.2-10.4,13.1-10.4,21.9c0,8.8,4,16.8,10.4,22
		c0,0.4,0,0.9,0,1.3c0,12.9,10.4,23.3,23.3,23.3c0.1,0,0.3,0,0.4,0c-0.3,1.5-0.4,3.1-0.4,4.8c0,15.5,12.5,28,28,28
		c7.6,0,14.5-3,19.5-8v43.7h36v-39.7c4,2.5,8.7,4,13.8,4c7.2,0,13.8-3,18.5-7.8c0.2,0,0.3,0,0.5,0c0.4,0,0.7,0,1.1-0.1
		c3.3,1.1,6.9,1.8,10.6,1.8c16.9,0,30.8-13,32.2-29.6C701.9,1161.5,705.2,1153.5,705.2,1144.7z"/>
  </g>
	<g class="darker">
		<path fill-rule="evenodd" clip-rule="evenodd" fill="#3A7C79" d="M575,1174c1.6-4,2.6-8.4,2.6-13c0-9-3.5-17.1-9.1-23.2
			c9.8-3.9,16.8-13.4,16.8-24.6c0-14.6-11.9-26.5-26.5-26.5c-1.3,0-2.5,0.1-3.8,0.3c-0.8-5.1-2.7-9.9-5.5-14c2.6-4.2,4.1-9.2,4.1-14.5
			c0-4-0.9-7.9-2.5-11.3c1-3,1.6-6.2,1.6-9.6c0-9-4-17.1-10.4-22.5c0.7-2.1,1-4.3,1-6.6c0-0.4,0-0.7,0-1.1
			c7.6-3.8,12.8-11.6,12.8-20.7c0-12.5-9.9-22.6-22.3-23c-0.9-21.4-18.5-38.5-40.1-38.5c-9.2,0-17.6,3.1-24.4,8.2
			c-5.8-4.1-12.9-6.5-20.5-6.5c-19.5,0-35.3,15.8-35.4,35.3c-9.9,3.1-17.1,12.3-17.1,23.2c0,3,0.6,6,1.6,8.6
			c-4.7,5.6-7.6,12.9-7.6,20.8c0,4.6,1,9,2.7,12.9c-5.4,5.8-8.7,13.5-8.7,22.1c0,4.1,0.8,7.9,2.1,11.5c-3.4,4-5.5,9.3-5.5,15
			c0,4.7,1.4,9.1,3.9,12.8c-1.4,3.9-2.2,8-2.2,12.4c0,6.2,1.6,12,4.3,17.1c-6.3,5.2-10.3,13-10.3,21.8c0,8.3,3.5,15.7,9.2,20.8
			c-8,4.2-13.5,12.6-13.5,22.3c0,13.9,11.3,25.2,25.2,25.2c5.7,0,11-1.9,15.3-5.2c4.5,9.1,14,15.4,24.9,15.4c8.4,0,15.9-3.7,21-9.6
			v43.4h34v-37.9c4,2.6,8.7,4,13.8,4c7.2,0,13.7-3,18.3-7.7c0.2,0,0.3,0,0.5,0c0.4,0,0.7,0,1.1-0.1c3.3,1.1,6.8,1.8,10.5,1.8
			c4.2,0,8.1-0.8,11.8-2.2c4.3,6,11.4,9.9,19.4,9.9c13.2,0,23.9-10.7,23.9-23.9C592.1,1186.1,584.9,1177,575,1174z"/>
	</g>
  <g class="lighter">		
		<path fill-rule="evenodd" clip-rule="evenodd" fill="#AFD1C3" d="M476,1110.9c3.4-6.4,5.4-13.7,5.4-21.5c0-5.5-1-10.7-2.7-15.5
			c3.1-4.6,4.9-10.1,4.9-16.1c0-5-1.3-9.8-3.6-13.9c6.8-7.3,11.1-17.1,11.1-27.9c0-14.6-7.7-27.4-19.3-34.6c0-0.2,0-0.5,0-0.7
			c0-17.4-10.9-32.2-26.2-38c-1.8-10.1-8.6-18.5-17.8-22.6c0-0.3,0-0.6,0-1c0-24.5-19.9-44.4-44.4-44.4c-6,0-11.7,1.2-16.9,3.3
			c-0.6-0.1-1.2-0.1-1.8-0.1c-7.2,0-13.3,5.1-14.7,12c-3.1,3.5-5.7,7.6-7.5,12c-6,2-11.6,5.1-16.3,9c-13.4,7.6-23.5,20.5-27.3,35.8
			c-10.9,3.6-18.8,13.8-18.8,25.9c0,2.9,0.4,5.6,1.3,8.2c-6.4,5.4-10.9,13-12.4,21.6c-16.4,10.3-27.4,28.6-27.4,49.4
			c0,13.9,4.8,26.6,12.9,36.6c-7.8,5.7-12.9,15-12.9,25.5c0,7.8,2.8,14.9,7.4,20.4c-7.3,7.7-11.7,18-11.7,29.4
			c0,10.9,4.1,20.9,10.9,28.5c1.7,20.6,19,36.8,40,36.8c4.6,0,9-0.8,13.1-2.2c0.5,0,0.9,0,1.4,0c0.2,0,0.4,0,0.6,0
			c5.8,6,14,9.7,22.9,9.7c6.1,0,11.9-1.7,16.8-4.7v48h44v-54.4c6.4,6.8,15.4,11.1,25.5,11.1c19.2,0,34.8-15.6,34.8-34.8
			c0-2-0.2-4-0.5-5.9c0.2,0,0.3,0,0.5,0c16,0,28.9-12.9,28.9-28.9c0-0.5,0-1.1,0-1.6c7.9-6.5,12.9-16.3,12.9-27.3
			C488.9,1127.2,483.9,1117.3,476,1110.9z"/>
  </g>
  <g class="darker">
		<rect x="342.9" y="1199" fill-rule="evenodd" clip-rule="evenodd" fill="#3A7C79" width="44" height="81"/>
  </g>
  <g class="primary">
		<rect x="-1472.1" y="1307.9" fill="#85B2A0" width="306" height="306"/>
  </g>
  <g class="lighter">		
		<rect x="-1894.8" y="1248" fill="#AFD1C3" width="306" height="306"/>
  </g>
<rect x="-1867.6" y="905.8" fill="#B4C2B6" width="306" height="306"/>
  <g class="darker">
		<rect x="-1834.8" y="2031.1" fill="#3A7C79" width="306" height="306"/>
  </g>
<rect x="-1867.6" y="1613.9" fill="#7DA3A2" width="306" height="306"/>
<rect x="-1867.6" y="410.7" fill="#CEE3D8" width="306" height="306"/>
  <g class="primary">
		<path id="mid_tree" fill-rule="evenodd" clip-rule="evenodd" fill="#85B2A0" d="M442.7,1146.8c0-16.4-8.7-30.8-21.8-38.7
			c11.8-5.6,20-17.7,20-31.7c0-16.7-11.6-30.6-27.2-34.2c0.2-1.4,0.3-2.8,0.3-4.3c0-5.4-1.2-10.4-3.3-15c1.4-4,2.1-8.3,2.1-12.7
			c0-11.9-5.4-22.6-13.8-29.8c0.9-2.8,1.3-5.7,1.3-8.7c0-0.5,0-1,0-1.5c10.1-5,17-15.4,17-27.4c0-16.5-13.1-30-29.5-30.5
			c-1.2-28.4-24.5-51-53.2-51c-12.1,0-23.3,4.1-32.3,10.9c-7.7-5.4-17-8.7-27.2-8.7c-25.9,0-46.9,20.9-47,46.7
			c-13.1,4.1-22.7,16.3-22.7,30.8c0,4,0.7,7.9,2.1,11.5c-6.3,7.5-10,17.1-10,27.6c0,6.1,1.3,11.9,3.6,17.2c-7.1,7.7-11.5,18-11.5,29.3
			c0,5.4,1,10.5,2.8,15.3c-4.6,5.3-7.3,12.3-7.3,19.8c0,6.3,1.9,12.1,5.1,17c-1.9,5.1-2.9,10.7-2.9,16.4c0,8.2,2.1,15.9,5.7,22.7
			c-8.3,6.9-13.6,17.2-13.6,28.8c0,10.9,4.7,20.8,12.2,27.6c-10.6,5.6-17.9,16.7-17.9,29.6c0,18.4,15,33.4,33.4,33.4
			c7.6,0,14.6-2.6,20.3-6.8c6,12.1,18.5,20.4,33,20.4c10.8,0,20.6-4.7,27.3-12.1v30.3l46-5.7v-17.5c5.2,3.2,11.3,5.1,17.8,5.1
			c9.5,0,18.1-3.9,24.3-10.2c0.2,0,0.4,0,0.6,0c0.5,0,1,0,1.5,0c4.3,1.5,9,2.3,13.8,2.3c23.4,0,42.5-19,42.5-42.5c0-7.6-2-14.8-5.6-21
			C437.4,1171.2,442.7,1159.6,442.7,1146.8z"/>
  </g>
	  <g class="darker">
			<path fill-rule="evenodd" clip-rule="evenodd" fill="#3A7C79" d="M1262.3,1183c1.5-3.7,2.4-7.8,2.4-12.1c0-8.4-3.2-16-8.5-21.7
				c9.2-3.6,15.7-12.5,15.7-23c0-13.7-11.1-24.7-24.7-24.7c-1.2,0-2.4,0.1-3.5,0.3c-0.7-4.8-2.5-9.2-5.1-13.1c2.4-3.9,3.9-8.5,3.9-13.5
				c0-3.8-0.8-7.4-2.3-10.6c1-2.8,1.5-5.8,1.5-9c0-8.4-3.8-15.9-9.7-21c0.6-1.9,0.9-4,0.9-6.1c0-0.4,0-0.7-0.1-1
				c7.1-3.5,12-10.8,12-19.3c0-11.6-9.2-21.1-20.8-21.5c-0.8-20-17.3-35.9-37.4-35.9c-8.6,0-16.4,2.9-22.7,7.7
				c-5.4-3.8-12-6.1-19.1-6.1c-18.2,0-33,14.7-33.1,32.9c-9.2,2.9-16,11.5-16,21.7c0,2.8,0.5,5.6,1.5,8.1c-4.4,5.3-7.1,12-7.1,19.4
				c0,4.3,0.9,8.4,2.5,12.1c-5,5.4-8.1,12.6-8.1,20.6c0,3.8,0.7,7.4,2,10.8c-3.2,3.8-5.2,8.6-5.2,14c0,4.4,1.3,8.5,3.6,12
				c-1.3,3.6-2,7.5-2,11.6c0,5.8,1.4,11.2,4,16c-5.9,4.8-9.6,12.1-9.6,20.3c0,7.7,3.3,14.6,8.6,19.5c-7.5,3.9-12.6,11.8-12.6,20.8
				c0,13,10.5,23.5,23.5,23.5c5.4,0,10.3-1.8,14.3-4.8c4.2,8.5,13,14.4,23.2,14.4c7.8,0,14.9-3.5,19.6-9v40.9h32v-35.4
				c3.7,2.3,8,3.6,12.6,3.6c6.7,0,12.8-2.8,17.1-7.2c0.1,0,0.3,0,0.4,0c0.3,0,0.7,0,1,0c3.1,1.1,6.4,1.6,9.8,1.6c3.9,0,7.6-0.7,11-2.1
				c4.1,5.6,10.7,9.3,18.1,9.3c12.3,0,22.3-10,22.3-22.3C1278.2,1194.3,1271.5,1185.8,1262.3,1183z"/>
			<rect x="1244.9" y="1191" fill-rule="evenodd" clip-rule="evenodd" fill="#3A7C79" width="41" height="76"/>
	 </g>
  <g class="lighter">		
	<path fill-rule="evenodd" clip-rule="evenodd" fill="#AFD1C3" d="M1398.8,1109.6c3.2-6,5-12.8,5-20c0-5.1-0.9-10-2.5-14.5
		c2.9-4.3,4.5-9.4,4.5-15c0-4.7-1.2-9.1-3.3-13c6.4-6.8,10.3-15.9,10.3-26c0-13.7-7.2-25.6-18-32.3c0-0.2,0-0.5,0-0.7
		c0-16.2-10.2-30-24.4-35.5c-1.7-9.5-8-17.3-16.6-21.1c0-0.3,0-0.6,0-0.9c0-22.9-18.6-41.5-41.5-41.5c-5.6,0-10.9,1.1-15.8,3.1
		c-0.6-0.1-1.1-0.1-1.7-0.1c-6.8,0-12.4,4.8-13.7,11.2c-2.9,3.3-5.3,7.1-7,11.2c-5.6,1.9-10.8,4.7-15.2,8.4
		c-12.5,7.1-21.9,19.1-25.5,33.4c-10.2,3.3-17.5,12.9-17.5,24.2c0,2.7,0.4,5.3,1.2,7.7c-6,5.1-10.2,12.1-11.6,20.1
		c-15.3,9.6-25.6,26.7-25.6,46.2c0,13,4.5,24.8,12.1,34.2c-7.3,5.4-12.1,14-12.1,23.8c0,7.2,2.6,13.9,7,19c-6.8,7.2-11,16.8-11,27.5
		c0,10.2,3.8,19.5,10.1,26.6c1.6,19.3,17.7,34.4,37.4,34.4c4.3,0,8.4-0.7,12.3-2.1c0.4,0,0.8,0.1,1.2,0.1c0.2,0,0.4,0,0.6,0
		c5.4,5.6,13,9,21.4,9c5.9,0,11.4-1.7,16-4.7l41-5.3c5.9,6.2,14.2,10,23.4,10c17.9,0,32.5-14.5,32.5-32.5c0-1.9-0.2-3.7-0.5-5.5
		c0.2,0,0.3,0,0.5,0c14.9,0,27-12.1,27-27c0-0.5,0-1,0-1.5c7.4-6.1,12-15.2,12-25.5C1410.8,1124.8,1406.1,1115.6,1398.8,1109.6z"/>
  </g>
<g class="darker">
	<rect x="1143.9" y="1197" fill-rule="evenodd" clip-rule="evenodd" fill="#3A7C79" width="32" height="60"/>
	<path fill-rule="evenodd" clip-rule="evenodd" fill="#3A7C79" d="M1457.2,1176.4c6.6-6,10.7-14.6,10.7-24.2
		c0-10.2-4.6-19.2-11.9-25.2c3.2-5.9,5-12.7,5-19.9c0-5.1-0.9-9.9-2.5-14.4c2.8-4.3,4.5-9.4,4.5-14.9c0-6.6-2.4-12.7-6.4-17.4
		c1.6-4.2,2.4-8.7,2.4-13.4c0-9.9-3.8-18.9-10.1-25.6c2-4.6,3.1-9.7,3.1-15c0-9.2-3.3-17.6-8.8-24.2c1.2-3.1,1.8-6.5,1.8-10
		c0-12.7-8.3-23.4-19.8-27c-0.1-22.6-18.5-40.9-41.1-40.9c-8.9,0-17.1,2.8-23.8,7.6c-7.8-6-17.6-9.6-28.3-9.6
		c-25.1,0-45.5,19.8-46.5,44.6c-14.3,0.5-25.8,12.3-25.8,26.7c0,10.5,6.1,19.6,14.9,24c0,0.4,0,0.9,0,1.3c0,2.7,0.4,5.2,1.2,7.6
		c-7.4,6.3-12.1,15.6-12.1,26.1c0,3.9,0.7,7.6,1.9,11.1c-1.8,4-2.9,8.5-2.9,13.1c0,6.2,1.8,11.9,4.8,16.8c-3.3,4.8-5.5,10.3-6.4,16.2
		c-1.4-0.2-2.9-0.3-4.4-0.3c-17,0-30.7,13.8-30.7,30.7c0,13,8.1,24.1,19.5,28.6c-6.5,7.1-10.5,16.5-10.5,26.9c0,5.3,1.1,10.4,3,15
		c-11.5,3.4-19.8,14-19.8,26.6c0,15.3,12.4,27.8,27.8,27.8c9.3,0,17.5-4.5,22.5-11.5c4.2,1.7,8.8,2.6,13.7,2.6c4.3,0,8.3-0.7,12.2-2
		c0.4,0,0.8,0.1,1.2,0.1c0.2,0,0.4,0,0.6,0c5.4,5.5,12.9,8.9,21.2,8.9c5.8,0,11.1-1.6,15.7-4.5v44.1h40v-50.4
		c5.9,6.7,14.5,10.8,24.1,10.8c12.6,0,23.6-7.3,28.9-17.9c4.9,3.8,11.1,6,17.7,6c16.1,0,29.2-13.1,29.2-29.2
		C1472.8,1191,1466.4,1181.3,1457.2,1176.4z"/>
	<rect x="1515.9" y="1218" fill-rule="evenodd" clip-rule="evenodd" fill="#3A7C79" width="51" height="94"/>
</g>
  <g class="primary">
		<path fill-rule="evenodd" clip-rule="evenodd" fill="#85B2A0" d="M1688.8,1181.2c0-13.2-5.2-25.2-13.6-34.1
			c5.4-6.4,8.6-14.6,8.6-23.6c0-12.1-5.9-22.9-15-29.6c9.4-11.6,15-26.4,15-42.5c0-24.2-12.7-45.4-31.8-57.4c-1.8-10-7-18.7-14.4-25
			c1-3,1.5-6.2,1.5-9.6c0-14-9.1-26-21.8-30.1c-4.4-17.8-16-32.8-31.6-41.6c-5.5-4.6-12-8.2-18.9-10.5c-2.2-5.1-5.1-9.8-8.7-13.9
			c-1.6-7.9-8.6-13.9-17-13.9c-0.7,0-1.4,0.1-2.1,0.1c-6-2.5-12.7-3.9-19.6-3.9c-28.5,0-51.6,23.1-51.6,51.6c0,0.4,0,0.8,0,1.1
			c-10.6,4.7-18.5,14.4-20.6,26.2c-17.8,6.8-30.4,24-30.4,44.1c0,0.3,0,0.6,0,0.8c-13.4,8.3-22.4,23.2-22.4,40.2
			c0,12.5,4.9,23.9,12.8,32.3c-2.6,4.8-4.1,10.3-4.1,16.1c0,6.9,2.1,13.3,5.6,18.6c-2,5.6-3.2,11.7-3.2,18c0,9,2.3,17.5,6.2,24.9
			c-9.1,7.5-14.9,18.9-14.9,31.6c0,12.8,5.8,24.2,15,31.7c0,0.6-0.1,1.2-0.1,1.9c0,18.5,15,33.5,33.5,33.5c0.2,0,0.4,0,0.6,0
			c-0.4,2.2-0.6,4.5-0.6,6.8c0,22.3,18.1,40.4,40.4,40.4c11.5,0,21.9-4.8,29.2-12.5l51,6.8c5.7,3.6,12.5,5.7,19.8,5.7
			c10.4,0,19.9-4.3,26.6-11.2c0.2,0,0.5,0,0.7,0c0.5,0,1.1,0,1.6-0.1c4.8,1.6,9.9,2.5,15.2,2.5c24.4,0,44.5-18.8,46.4-42.7
			C1684,1205.5,1688.8,1193.9,1688.8,1181.2z"/>
  </g>
  <g class="lighter">		
		<path id="light_tree" fill-rule="evenodd" clip-rule="evenodd" fill="#AFD1C3" d="M261.8,1204.7c2.3-5.7,3.6-11.9,3.6-18.4
			c0-12.7-4.9-24.2-12.9-32.9c13.9-5.5,23.8-19,23.8-34.9c0-20.7-16.8-37.5-37.5-37.5c-1.8,0-3.6,0.1-5.3,0.4
			c-1.1-7.3-3.8-14-7.8-19.8c3.7-5.9,5.9-13,5.9-20.5c0-5.7-1.3-11.2-3.5-16.1c1.5-4.3,2.3-8.8,2.3-13.6c0-12.8-5.7-24.2-14.7-31.8
			c0.9-2.9,1.4-6.1,1.4-9.3c0-0.5,0-1,0-1.6c10.8-5.3,18.2-16.4,18.2-29.3c0-17.7-14-32-31.5-32.6c-1.3-30.3-26.2-54.5-56.8-54.5
			c-13,0-24.9,4.4-34.5,11.7c-8.2-5.8-18.2-9.3-29-9.3c-27.7,0-50.1,22.3-50.2,50c-14,4.4-24.2,17.5-24.2,32.9c0,4.3,0.8,8.4,2.2,12.3
			c-6.7,8-10.7,18.3-10.7,29.5c0,6.5,1.4,12.7,3.8,18.3c-7.6,8.2-12.3,19.2-12.3,31.3c0,5.7,1.1,11.2,3,16.3
			c-4.9,5.7-7.8,13.1-7.8,21.2c0,6.7,2,13,5.5,18.1c-2,5.5-3.1,11.4-3.1,17.6c0,8.8,2.2,17,6.1,24.2c-8.9,7.3-14.5,18.4-14.5,30.8
			c0,11.7,5,22.2,13,29.5c-11.3,6-19.1,17.9-19.1,31.6c0,19.7,16,35.7,35.7,35.7c8.1,0,15.6-2.7,21.7-7.3
			c6.4,12.9,19.8,21.8,35.2,21.8c11.1,0,21.2-4.6,28.3-12.1v38.7l50-7.4v-24.7c5.5,3.4,12.1,5.4,19.1,5.4c10.2,0,19.3-4.2,25.9-10.9
			c0.2,0,0.5,0,0.7,0c0.5,0,1,0,1.6-0.1c4.6,1.6,9.6,2.5,14.8,2.5c5.9,0,11.5-1.1,16.7-3.2c6.2,8.5,16.2,14.1,27.5,14.1
			c18.7,0,33.9-15.2,33.9-33.9C286,1221.8,275.8,1208.9,261.8,1204.7z"/>
  </g>
<g class="darker">
	<path id="dark_tree_2_" fill-rule="evenodd" clip-rule="evenodd" fill="#3A7C79" d="M399.7,1077.7c4.8-9,7.6-19.3,7.6-30.2
		c0-7.7-1.4-15.1-3.8-21.9c4.3-6.5,6.9-14.2,6.9-22.6c0-7.1-1.8-13.8-5-19.6c9.7-10.3,15.6-24.1,15.6-39.3
		c0-20.6-10.9-38.7-27.2-48.8c0-0.3,0-0.7,0-1c0-24.5-15.3-45.3-36.9-53.6c-2.5-14.3-12.1-26.1-25-31.8c0-0.5,0-0.9,0-1.4
		c0-34.6-28-62.6-62.6-62.6c-8.4,0-16.5,1.7-23.8,4.7c-0.9-0.1-1.7-0.2-2.6-0.2c-10.2,0-18.7,7.2-20.7,16.8c-4.4,5-8,10.7-10.6,16.9
		c-8.5,2.8-16.3,7.2-23,12.7c-18.9,10.7-33.1,28.8-38.4,50.5c-15.4,5-26.5,19.5-26.5,36.6c0,4,0.6,8,1.8,11.6
		c-9,7.6-15.4,18.3-17.5,30.4c-23.2,14.5-38.6,40.3-38.6,69.7c0,19.5,6.8,37.5,18.2,51.6c-11,8.1-18.2,21.2-18.2,35.9
		c0,10.9,4,20.9,10.5,28.7c-10.2,10.8-16.5,25.4-16.5,41.5c0,15.4,5.8,29.5,15.3,40.1c2.4,29.1,26.7,51.9,56.4,51.9
		c6.5,0,12.6-1.1,18.4-3.1c0.6,0,1.3,0.1,2,0.1c0.3,0,0.6,0,0.9,0c8.2,8.4,19.7,13.6,32.3,13.6c8.6,0,16.6-2.4,23.4-6.5v67.6h62
		v-76.9c9,9.7,21.8,15.8,36.1,15.8c27.1,0,49-22,49-49c0-2.8-0.3-5.6-0.7-8.3c0.2,0,0.5,0,0.7,0c22.5,0,40.7-18.2,40.7-40.7
		c0-0.8,0-1.5-0.1-2.3c11.1-9.1,18.2-23,18.2-38.5C417.8,1100.6,410.8,1086.8,399.7,1077.7z"/>
	<path id="dark_tree_1_" fill-rule="evenodd" clip-rule="evenodd" fill="#3A7C79" d="M63.2,1203.6c0-16.4-8.7-30.8-21.8-38.7
		c11.8-5.6,20-17.7,20-31.7c0-16.7-11.6-30.6-27.2-34.2c0.2-1.4,0.3-2.8,0.3-4.3c0-5.4-1.2-10.4-3.3-15c1.4-4,2.1-8.3,2.1-12.7
		c0-11.9-5.4-22.6-13.8-29.8c0.9-2.8,1.3-5.7,1.3-8.7c0-0.5,0-1,0-1.5c10.1-5,17-15.4,17-27.4c0-16.5-13.1-30-29.5-30.5
		c-1.2-28.4-24.5-51-53.2-51c-12.1,0-23.3,4.1-32.3,10.9c-7.7-5.4-17-8.7-27.2-8.7c-25.9,0-46.9,20.9-47,46.7
		c-13.1,4.1-22.7,16.3-22.7,30.8c0,4,0.7,7.9,2.1,11.5c-6.3,7.5-10,17.1-10,27.6c0,6.1,1.3,11.9,3.6,17.2c-7.1,7.7-11.5,18-11.5,29.3
		c0,5.4,1,10.5,2.8,15.3c-4.6,5.3-7.3,12.3-7.3,19.8c0,6.3,1.9,12.1,5.1,17c-1.9,5.1-2.9,10.7-2.9,16.4c0,8.2,2.1,15.9,5.7,22.7
		c-8.3,6.9-13.6,17.2-13.6,28.8c0,10.9,4.7,20.8,12.2,27.6c-10.6,5.6-17.9,16.7-17.9,29.6c0,18.4,15,33.4,33.4,33.4
		c7.6,0,14.6-2.6,20.3-6.8c6,12.1,18.5,20.4,33,20.4c10.8,0,20.6-4.7,27.3-12.1v30.3l46-5.7v-17.5c5.2,3.2,11.3,5.1,17.8,5.1
		c9.5,0,18.1-3.9,24.3-10.2c0.2,0,0.4,0,0.6,0c0.5,0,1,0,1.5,0c4.3,1.5,9,2.3,13.8,2.3c23.4,0,42.5-19,42.5-42.5c0-7.6-2-14.8-5.6-21
		C57.9,1227.9,63.2,1216.4,63.2,1203.6z"/>
	<path id="dark_tree" fill-rule="evenodd" clip-rule="evenodd" fill="#3A7C79" d="M1803.7,1077.7c4.8-9,7.6-19.3,7.6-30.2
		c0-7.7-1.4-15.1-3.8-21.9c4.3-6.5,6.9-14.3,6.9-22.6c0-7.1-1.8-13.8-5-19.6c9.7-10.3,15.6-24.1,15.6-39.3
		c0-20.6-10.9-38.7-27.2-48.8c0-0.3,0-0.7,0-1c0-24.5-15.3-45.3-36.9-53.6c-2.5-14.3-12.1-26.1-25-31.8c0-0.5,0-0.9,0-1.4
		c0-34.6-28-62.6-62.6-62.6c-8.4,0-16.5,1.7-23.8,4.7c-0.9-0.1-1.7-0.2-2.6-0.2c-10.2,0-18.7,7.2-20.7,16.8c-4.4,5-8,10.7-10.6,16.9
		c-8.5,2.8-16.3,7.2-23,12.7c-18.9,10.7-33.1,28.8-38.4,50.5c-15.4,5-26.5,19.5-26.5,36.6c0,4,0.6,8,1.8,11.6
		c-9,7.6-15.4,18.3-17.5,30.4c-23.2,14.5-38.6,40.3-38.6,69.7c0,19.5,6.8,37.5,18.2,51.6c-11,8.1-18.2,21.2-18.2,35.9
		c0,10.9,4,20.9,10.5,28.7c-10.2,10.8-16.5,25.4-16.5,41.5c0,15.4,5.8,29.5,15.3,40.1c2.4,29.1,26.7,51.9,56.4,51.9
		c6.5,0,12.6-1.1,18.4-3.1c0.6,0,1.3,0.1,2,0.1c0.3,0,0.6,0,0.9,0c8.2,8.4,19.7,13.6,32.3,13.6c8.6,0,16.6-2.4,23.4-6.5v67.6h62
		v-76.9c9,9.7,21.8,15.8,36.1,15.8c27.1,0,49-22,49-49c0-2.8-0.3-5.6-0.7-8.3c0.2,0,0.5,0,0.7,0c22.5,0,40.7-18.2,40.7-40.7
		c0-0.8,0-1.5-0.1-2.3c11.1-9.1,18.2-23,18.2-38.5C1821.8,1100.6,1814.8,1086.8,1803.7,1077.7z"/>
</g>
  <g class="lightest">		
		<polygon fill="#EEFFFE" points="564.7,1019.8 564.7,1252.2 1071.5,1252.2 1071.5,1103.3 1007.8,1039.5 930.4,1038.7 901.8,1010 
			710.5,1010 710.5,949.8 566.4,949.8 "/>
		<polygon fill="#EEFFFE" points="675.5,843.4 675.5,869.7 668.4,869.7 668.4,843.4 610.5,843.4 610.5,869.7 603.4,869.7 603.4,843.4 
			550.6,843.4 550.6,1263.3 722.6,1263.3 722.6,843.4 "/>
		<polygon fill="#EEFFFE" points="1071.4,1259.4 1071.5,1100.7 1007.8,1036.9 937.7,1104.6 937.7,1259.4 "/>
  </g>
<g class="darker">
	<circle fill="#3A7C79" cx="615.2" cy="1152.4" r="12"/>
	<rect x="603.3" y="1151.5" fill="#3A7C79" width="24" height="56.2"/>
	<circle fill="#3A7C79" cx="636.8" cy="919.3" r="15"/>
	<rect x="621.9" y="918.8" fill="#3A7C79" width="30" height="70.3"/>
	<circle fill="#3A7C79" cx="662" cy="1152.4" r="12"/>
	<rect x="650.1" y="1151.5" fill="#3A7C79" width="24" height="56.2"/>
	<circle fill="#3A7C79" cx="794.7" cy="1152.4" r="12"/>
	<rect x="782.7" y="1151.5" fill="#3A7C79" width="24" height="56.2"/>
	<circle fill="#3A7C79" cx="841.5" cy="1152.4" r="12"/>
	<rect x="829.5" y="1151.5" fill="#3A7C79" width="24" height="56.2"/>
	<circle fill="#3A7C79" cx="981.7" cy="1152.4" r="12"/>
	<rect x="969.7" y="1151.5" fill="#3A7C79" width="24" height="56.2"/>
	<circle fill="#3A7C79" cx="1028.5" cy="1152.4" r="12"/>
	<rect x="1016.5" y="1151.5" fill="#3A7C79" width="24" height="56.2"/>
</g>
<g id="pathway" class="lighter">
	<path fill="#85B2A0" d="M937.7,1259.4c-440.8,23.5-497.5,129.3,186.5,224.5c897.2,124.9,69.1,538.3-1124.2,628.3
		c-1157.1,87.2-373.1,639.8-373.1,639.8s5240.5-123.6,3989-886c-174-106-1260.4-394-2082.4-432
		C719.4,1396.4,510.9,1297.7,937.7,1259.4z"/>
</g>
  <g class="primary">
		<polygon fill="#85B2A0" points="550.6,837.4 521.9,850.5 521.9,1256.4 550.6,1263.3 "/>
		<polygon fill="#85B2A0" points="968.3,1075.8 1007.8,1036.9 899.2,1036.9 941.9,1075.8 929.1,1075.8 905.9,1099 906.3,1252.2 
			937.7,1259.4 937.7,1104.6 955.4,1088 955.6,1088.2 968.3,1075.8 968.3,1075.8 "/>
		<polygon fill="#85B2A0" points="722.6,1075.5 968.6,1075.8 902.8,1010 722.6,1010 "/>
  </g>
</svg>
