<svg
	version="1.1"
	xmlns="http://www.w3.org/2000/svg"
	xmlns:xlink="http://www.w3.org/1999/xlink" x="0" y="0"
	viewBox="0, 0, 3000, 3000"
	width="100%" height="100%"
	preserveAspectRatio="xMidYMid slice"
>
  <title>
    Christchurch
  </title>
  <g id="Background" class="lightest">
    <rect x="0" y="0" width="3000" height="3000" fill="#FFFFFF"/>
  </g>
  <g id="Bg" class="lightest">
    <path d="M-0,0 L3000,0 L3000,3000 L-0,3000 z" fill="#95A8BB" id="Shape"/>
  </g>
  <g id="Hills_6" class="lighter">
    <path d="M3093.962,1435.503 L2853.756,1402.583 L2625.396,1474.85 L2164.333,1527.802 L2027.683,1583.251 L1791.559,1593.064 L1600,1663.839 L1620.505,1739.83 L3163.393,1814.506 L3163.393,1390.539 L3093.962,1435.503 z" fill="#4D739B"/>
  </g>
  <g id="Grass" class="lighter">
    <path d="M0,1653.072 L3000,1653.072 L3000,2999.999 L0,2999.999 z" fill="#6A8EB4"/>
  </g>
  <g id="River" class="lightest">
    <path d="M3061.638,1835.815 C2437.785,1858.712 2895.844,1714.66 2513.485,1704.673 C1697.381,1683.358 2117.263,1642.732 1849.176,1642.732 C1581.088,1642.732 774.01,1595.75 774.01,1595.75 C774.01,1595.75 916.955,1595.749 916.955,1595.749 C916.955,1595.749 985.631,1595.75 1214.814,1595.75 C1443.997,1595.75 1565.366,1594.621 1735.317,1594.621 C1905.268,1594.621 2229.872,1590.069 2336.87,1595.75 C2443.868,1601.43 2933.62,1627.346 3000,1627.346 C3066.38,1627.346 3061.638,1835.815 3061.638,1835.815 z" fill="#FFFFFF" display="none"/>
    <path d="M2825.189,1791.135 C2203.145,1791.135 1698.879,1771.024 1698.879,1746.216 C1698.879,1721.407 2203.145,1701.296 2825.189,1701.296 C3447.232,1701.296 3951.499,1721.407 3951.499,1746.216 C3951.499,1771.024 3447.232,1791.135 2825.189,1791.135 z" fill="#95A8BB" display="none"/>
    <path d="M1866.791,1680.573 C2162.959,1685.248 2310.094,1726.515 1920.408,1817.269 C1662.167,1877.411 2318.618,1960.262 3951.243,1960.262 C4349.539,1960.262 4049.985,1904.637 3779.347,1904.637 C2064.481,1904.637 2025.431,1834.645 2160.168,1789.361 C2247.37,1760.054 2374.604,1669.713 1866.791,1680.573 z" fill="#95A8BB"/>
    <path d="M2680.163,1784.088 C3352.21,1794.214 3686.078,1883.584 2801.827,2080.131 C2215.843,2210.38 2935.077,2223.897 3838.865,2223.897 C4742.651,2223.897 4777.157,1981.239 4163.045,1981.239 C3548.933,1981.239 3261.491,1967.837 3464.233,1925.711 C3666.975,1883.584 3832.458,1760.568 2680.163,1784.088 z" fill="#95A8BB" display="none"/>
  </g>
  <g id="City_2" class="lighter">
    <path d="M1035.237,1583.483 L1107.631,1583.483 L1107.631,1654.314 L1035.237,1654.314 z" fill="#4D739B"/>
    <path d="M1122.908,1566.266 L1173.183,1566.266 L1173.183,1654.313 L1122.908,1654.313 z" fill="#4D739B"/>
    <path d="M740.976,1570.928 L869.918,1570.928 L869.918,1653.185 L740.976,1653.185 z" fill="#4D739B"/>
    <path d="M610.121,1593.064 L681.121,1593.064 L681.121,1654.313 L610.121,1654.313 z" fill="#4D739B"/>
    <path d="M501.621,1627.404 L566.621,1627.404 L566.621,1653.185 L501.621,1653.185 z" fill="#4D739B"/>
    <path d="M381.121,1593.064 L434.121,1593.064 L434.121,1653.185 L381.121,1653.185 z" fill="#4D739B"/>
    <path d="M437.845,1610.563 L481.628,1610.563 L481.628,1654.314 L437.845,1654.314 z" fill="#4D739B"/>
    <path d="M951.703,1532.279 L977.854,1532.279 L977.854,1606.6 L951.703,1606.6 z" fill="#4D739B"/>
    <path d="M886.965,1532.279 L951.703,1532.279 L951.703,1627.404 L886.965,1627.404 z" fill="#4D739B"/>
    <path d="M951.703,1511.627 L988.588,1511.627 L988.588,1604.232 L951.703,1604.232 z" fill="#4D739B"/>
    <path d="M1225.918,1619.699 L1311.692,1619.699 L1311.692,1654.314 L1225.918,1654.314 z" fill="#4D739B"/>
    <path d="M1434.776,1619.699 L1507.471,1619.699 L1507.471,1646.668 L1434.776,1646.668 z" fill="#4D739B"/>
    <path d="M1311.691,1593.99 L1341.958,1593.99 L1341.958,1649.421 L1311.691,1649.421 z" fill="#4D739B"/>
    <path d="M1703.849,1619.699 L1725.234,1619.699 L1725.234,1653.185 L1703.849,1653.185 z" fill="#4D739B"/>
    <path d="M1748.351,1593.064 L1784.716,1593.064 L1784.716,1653.185 L1748.351,1653.185 z" fill="#4D739B"/>
    <path d="M1558.025,1606.599 L1596.757,1606.599 L1596.757,1646.668 L1558.025,1646.668 z" fill="#4D739B"/>
    <path d="M1531.31,1612.544 L1571.518,1612.544 L1571.518,1653.185 L1531.31,1653.185 z" fill="#4D739B"/>
    <path d="M1201.621,1583.483 L1250.576,1583.483 L1250.576,1635.11 L1201.621,1635.11 z" fill="#4D739B"/>
    <path d="M1262.621,1583.483 L1286.021,1583.483 L1286.021,1627.404 L1262.621,1627.404 z" fill="#4D739B"/>
    <path d="M1013.232,1566.266 L1035.236,1566.266 L1035.236,1619.699 L1013.232,1619.699 z" fill="#4D739B"/>
    <path d="M1341.958,1609.176 L1378.975,1609.176 L1378.975,1635.11 L1341.958,1635.11 z" fill="#4D739B"/>
    <path d="M185.548,1608.623 L256.646,1608.623 L256.646,1654.314 L185.548,1654.314 z" fill="#4D739B"/>
    <path d="M77.89,1610.563 L105.328,1610.563 L105.328,1654.314 L77.89,1654.314 z" fill="#4D739B"/>
    <path d="M105.328,1621.408 L159.223,1621.408 L159.223,1658.744 L105.328,1658.744 z" fill="#4D739B"/>
    <path d="M1596.757,1627.404 L1643.234,1627.404 L1643.234,1643.375 L1596.757,1643.375 z" fill="#4D739B"/>
    <path d="M1013.232,3143.865 L1013.232,3143.865 L1013.232,3163.68 L1013.232,3163.68 z" fill="#4D739B"/>
    <path d="M717.174,1593.99 L749.115,1593.99 L749.115,1637.137 L717.174,1637.137 z" fill="#4D739B"/>
    <path d="M556.313,1611.979 L647.19,1611.979 L647.19,1639.466 L556.313,1639.466 z" fill="#4D739B"/>
  </g>
  <g id="City" class="primary">
    <path d="M1122.908,1893.125 L1133.452,1893.125 L1133.452,1894.379 L1122.908,1894.379 z" fill="#294867"/>
    <path d="M359.049,1627.404 L464.614,1627.404 L464.614,1653.185 L359.049,1653.185 z" fill="#294867"/>
    <path d="M642.611,1619.699 L705.274,1619.699 L705.274,1654.314 L642.611,1654.314 z" fill="#294867"/>
    <path d="M768.211,1619.699 L856.054,1619.699 L856.054,1654.314 L768.211,1654.314 z" fill="#294867"/>
    <path d="M1185.849,1599.665 L1225.918,1599.665 L1225.918,1646.668 L1185.849,1646.668 z" fill="#294867"/>
    <path d="M1748.351,1619.699 L1848.522,1619.699 L1848.522,1653.185 L1748.351,1653.185 z" fill="#294867"/>
    <path d="M1558.025,1635.11 L1725.234,1635.11 L1725.234,1653.185 L1558.025,1653.185 z" fill="#294867"/>
    <path d="M1452.46,1627.404 L1558.025,1627.404 L1558.025,1654.313 L1452.46,1654.313 z" fill="#294867"/>
    <path d="M1286.021,1635.11 L1485.593,1635.11 L1485.593,1654.313 L1286.021,1654.313 z" fill="#294867"/>
    <path d="M1099.89,1627.404 L1250.575,1627.404 L1250.575,1654.313 L1099.89,1654.313 z" fill="#294867"/>
    <path d="M918.454,1593.064 L1047.998,1593.064 L1047.998,1654.314 L918.454,1654.314 z" fill="#294867"/>
    <path d="M841.38,1608.623 L988.588,1608.623 L988.588,1654.313 L841.38,1654.313 z" fill="#294867"/>
    <path d="M960.078,1606.599 L1133.452,1606.599 L1133.452,1654.313 L960.078,1654.313 z" fill="#294867"/>
    <path d="M1291.952,1606.6 L1328.561,1606.6 L1328.561,1651.459 L1291.952,1651.459 z" fill="#294867"/>
    <path d="M1361.757,1619.699 L1422.254,1619.699 L1422.254,1651.459 L1361.757,1651.459 z" fill="#294867"/>
    <path d="M134,1628.161 L220.389,1628.161 L220.389,1658.744 L134,1658.744 z" fill="#294867"/>
    <path d="M46.5,1637.137 L93,1637.137 L93,1658.744 L46.5,1658.744 z" fill="#294867"/>
    <path d="M220.389,1643.375 L243.064,1643.375 L243.064,1653.186 L220.389,1653.186 z" fill="#294867"/>
    <path d="M387.102,1586.011 L434.121,1586.011 L434.121,1674.237 L387.102,1674.237 z" fill="#294867"/>
    <path d="M446.431,1631.881 L470.9,1631.881 L470.9,1654.314 L446.431,1654.314 z" fill="#294867"/>
    <path d="M481.628,1635.11 L499.534,1635.11 L499.534,1654.314 L481.628,1654.314 z" fill="#294867"/>
    <path d="M705.274,1628.161 L763.914,1628.161 L763.914,1653.185 L705.274,1653.185 z" fill="#294867"/>
  </g>
  <g id="City2a" class="primary">
    <path d="M1924.003,1627.404 L2031.002,1627.404 L2031.002,1653.185 L1924.003,1653.185 z" fill="#294867"/>
    <path d="M2068.937,1635.11 L2208.035,1635.11 L2208.035,1653.185 L2068.937,1653.185 z" fill="#294867"/>
    <path d="M2234.861,1627.404 L2372.423,1627.404 L2372.423,1654.314 L2234.861,1654.314 z" fill="#294867"/>
    <path d="M2372.423,1606.599 L2460.94,1606.599 L2460.94,1654.313 L2372.423,1654.313 z" fill="#294867"/>
    <path d="M2440.513,1635.11 L2847.106,1635.11 L2847.106,1654.314 L2440.513,1654.314 z" fill="#294867"/>
    <path d="M2822.787,1606.599 L3046.511,1606.599 L3046.511,1654.313 L2822.787,1654.313 z" fill="#294867"/>
    <path d="M3025.113,1635.11 L3236.192,1635.11 L3236.192,1654.314 L3025.113,1654.314 z" fill="#294867"/>
    <path d="M3195.337,1635.11 L3333.621,1635.11 L3333.621,1685.91 L3195.337,1685.91 z" fill="#294867"/>
    <path d="M3098.066,1653.185 L3207.982,1653.185 L3207.982,1674.237 L3098.066,1674.237 z" fill="#294867"/>
    <path d="M2409.386,1653.185 L2951.186,1653.185 L2951.186,1674.237 L2409.386,1674.237 z" fill="#294867"/>
    <path d="M2874.342,1635.11 L3025.112,1635.11 L3025.112,1685.91 L2874.342,1685.91 z" fill="#294867"/>
    <path d="M2991.067,1635.11 L3236.191,1635.11 L3236.191,1685.91 L2991.067,1685.91 z" fill="#294867"/>
    <path d="M3186.582,1566.266 L3376.261,1566.266 L3376.261,1701.296 L3186.582,1701.296 z" fill="#294867"/>
    <path d="M2589.548,1577.27 L2727.673,1577.27 L2727.673,1685.91 L2589.548,1685.91 z" fill="#294867"/>
  </g>
  <g id="lightTrees" class="darker">
    <g>
      <path d="M1561.688,1663.31 L1571.923,1663.31 L1571.923,1701.296 L1561.688,1701.296 z" fill="#2B5580"/>
      <path d="M1566.805,1682.2 C1544.061,1682.2 1525.623,1663.762 1525.623,1641.017 C1525.623,1618.273 1544.061,1599.835 1566.805,1599.835 C1589.55,1599.835 1607.988,1618.273 1607.988,1641.017 C1607.988,1663.762 1589.55,1682.2 1566.805,1682.2 z" fill="#2B5580"/>
    </g>
    <g>
      <path d="M1520.325,1653.072 L1527.493,1653.072 L1527.493,1679.672 L1520.325,1679.672 z" fill="#2B5580"/>
      <path d="M1523.909,1666.3 C1507.982,1666.3 1495.071,1653.388 1495.071,1637.462 C1495.071,1621.535 1507.982,1608.623 1523.909,1608.623 C1539.836,1608.623 1552.747,1621.535 1552.747,1637.462 C1552.747,1653.388 1539.836,1666.3 1523.909,1666.3 z" fill="#2B5580"/>
    </g>
    <g>
      <path d="M1418.697,1650.521 L1426.161,1650.521 L1426.161,1678.222 L1418.697,1678.222 z" fill="#2B5580"/>
      <path d="M1422.429,1664.297 C1405.843,1664.297 1392.397,1650.851 1392.397,1634.264 C1392.397,1617.678 1405.843,1604.232 1422.429,1604.232 C1439.015,1604.232 1452.461,1617.678 1452.461,1634.264 C1452.461,1650.851 1439.015,1664.297 1422.429,1664.297 z" fill="#2B5580"/>
    </g>
    <g>
      <path d="M1449.494,1644.746 L1456.163,1644.746 L1456.163,1669.497 L1449.494,1669.497 z" fill="#2B5580"/>
      <path d="M1452.829,1657.054 C1438.009,1657.054 1425.995,1645.04 1425.995,1630.221 C1425.995,1615.401 1438.009,1603.387 1452.829,1603.387 C1467.648,1603.387 1479.662,1615.401 1479.662,1630.221 C1479.662,1645.04 1467.648,1657.054 1452.829,1657.054 z" fill="#2B5580"/>
    </g>

    <g>
      <path d="M1747.07,1658.143 L1757.858,1658.143 L1757.858,1698.179 L1747.07,1698.179 z" fill="#2B5580"/>
      <path d="M1752.464,1678.052 C1728.493,1678.052 1709.061,1658.62 1709.061,1634.649 C1709.061,1610.677 1728.493,1591.245 1752.464,1591.245 C1776.436,1591.245 1795.868,1610.677 1795.868,1634.649 C1795.868,1658.62 1776.436,1678.052 1752.464,1678.052 z" fill="#2B5580"/>
    </g>

    <g>
      <path d="M1920.071,1652.933 L1927.127,1652.933 L1927.127,1679.119 L1920.071,1679.119 z" fill="#2B5580"/>
      <path d="M1923.599,1665.955 C1907.92,1665.955 1895.21,1653.245 1895.21,1637.566 C1895.21,1621.886 1907.92,1609.176 1923.599,1609.176 C1939.279,1609.176 1951.989,1621.886 1951.989,1637.566 C1951.989,1653.245 1939.279,1665.955 1923.599,1665.955 z" fill="#2B5580"/>
    </g>
    <g>
      <path d="M1886.605,1653.145 L1892.483,1653.145 L1892.483,1674.956 L1886.605,1674.956 z" fill="#2B5580"/>
      <path d="M1889.544,1663.992 C1876.485,1663.992 1865.898,1653.405 1865.898,1640.346 C1865.898,1627.286 1876.485,1616.7 1889.544,1616.7 C1902.603,1616.7 1913.19,1627.286 1913.19,1640.346 C1913.19,1653.405 1902.603,1663.992 1889.544,1663.992 z" fill="#2B5580"/>
    </g>
    <g>
      <path d="M1199.966,1648.724 L1207.568,1648.724 L1207.568,1676.934 L1199.966,1676.934 z" fill="#2B5580"/>
      <path d="M1203.767,1662.752 C1186.877,1662.752 1173.184,1649.06 1173.184,1632.169 C1173.184,1615.279 1186.877,1601.586 1203.767,1601.586 C1220.658,1601.586 1234.35,1615.279 1234.35,1632.169 C1234.35,1649.06 1220.658,1662.752 1203.767,1662.752 z" fill="#2B5580"/>
    </g>
    <g>
      <path d="M1199.966,1648.724 L1207.568,1648.724 L1207.568,1676.934 L1199.966,1676.934 z" fill="#2B5580"/>
      <path d="M1203.767,1662.752 C1186.877,1662.752 1173.184,1649.06 1173.184,1632.169 C1173.184,1615.279 1186.877,1601.586 1203.767,1601.586 C1220.658,1601.586 1234.35,1615.279 1234.35,1632.169 C1234.35,1649.06 1220.658,1662.752 1203.767,1662.752 z" fill="#2B5580"/>
    </g>
    <g>
      <path d="M1244.34,1645.601 L1254.357,1645.601 L1254.357,1682.776 L1244.34,1682.776 z" fill="#2B5580"/>
      <path d="M1249.349,1664.088 C1227.09,1664.088 1209.046,1646.044 1209.046,1623.785 C1209.046,1601.527 1227.09,1583.483 1249.349,1583.483 C1271.607,1583.483 1289.651,1601.527 1289.651,1623.785 C1289.651,1646.044 1271.607,1664.088 1249.349,1664.088 z" fill="#2B5580"/>
    </g>
    <g>
      <path d="M1274.23,1654.566 L1281.831,1654.566 L1281.831,1682.776 L1274.23,1682.776 z" fill="#2B5580"/>
      <path d="M1278.031,1668.594 C1261.14,1668.594 1247.448,1654.902 1247.448,1638.012 C1247.448,1621.121 1261.14,1607.429 1278.031,1607.429 C1294.921,1607.429 1308.614,1621.121 1308.614,1638.012 C1308.614,1654.902 1294.921,1668.594 1278.031,1668.594 z" fill="#2B5580"/>
    </g>

    <g>
      <path d="M1109.843,1663.089 L1117.308,1663.089 L1117.308,1690.791 L1109.843,1690.791 z" fill="#2B5580"/>
      <path d="M1113.575,1676.865 C1096.989,1676.865 1083.543,1663.419 1083.543,1646.833 C1083.543,1630.246 1096.989,1616.8 1113.575,1616.8 C1130.162,1616.8 1143.608,1630.246 1143.608,1646.833 C1143.608,1663.419 1130.162,1676.865 1113.575,1676.865 z" fill="#2B5580"/>
    </g>
    <g>
      <path d="M1142.787,1662.766 L1149.457,1662.766 L1149.457,1687.517 L1142.787,1687.517 z" fill="#2B5580"/>
      <path d="M1146.122,1675.075 C1131.303,1675.075 1119.289,1663.061 1119.289,1648.241 C1119.289,1633.422 1131.303,1621.408 1146.122,1621.408 C1160.942,1621.408 1172.956,1633.422 1172.956,1648.241 C1172.956,1663.061 1160.942,1675.075 1146.122,1675.075 z" fill="#2B5580"/>
    </g>
    <g>
      <path d="M1000.855,1657.701 L1008.456,1657.701 L1008.456,1685.91 L1000.855,1685.91 z" fill="#2B5580"/>
      <path d="M1004.655,1671.729 C987.765,1671.729 974.072,1658.036 974.072,1641.146 C974.072,1624.255 987.765,1610.563 1004.655,1610.563 C1021.546,1610.563 1035.238,1624.255 1035.238,1641.146 C1035.238,1658.036 1021.546,1671.729 1004.655,1671.729 z" fill="#2B5580"/>
    </g>
    <g>
      <path d="M1023.884,1651.732 L1033.901,1651.732 L1033.901,1688.906 L1023.884,1688.906 z" fill="#2B5580"/>
      <path d="M1028.892,1670.218 C1006.634,1670.218 988.59,1652.174 988.59,1629.916 C988.59,1607.658 1006.634,1589.614 1028.892,1589.614 C1051.151,1589.614 1069.195,1607.658 1069.195,1629.916 C1069.195,1652.174 1051.151,1670.218 1028.892,1670.218 z" fill="#2B5580"/>
    </g>
    <g>
      <path d="M1065.508,1660.03 L1073.11,1660.03 L1073.11,1688.239 L1065.508,1688.239 z" fill="#2B5580"/>
      <path d="M1069.309,1674.058 C1052.419,1674.058 1038.726,1660.366 1038.726,1643.475 C1038.726,1626.585 1052.419,1612.892 1069.309,1612.892 C1086.2,1612.892 1099.892,1626.585 1099.892,1643.475 C1099.892,1660.366 1086.2,1674.058 1069.309,1674.058 z" fill="#2B5580"/>
    </g>
    <g>
      <path d="M186.005,1675.298 L193.606,1675.298 L193.606,1703.508 L186.005,1703.508 z" fill="#2B5580"/>
      <path d="M189.806,1689.327 C172.915,1689.327 159.223,1675.634 159.223,1658.744 C159.223,1641.853 172.915,1628.161 189.806,1628.161 C206.696,1628.161 220.389,1641.853 220.389,1658.744 C220.389,1675.634 206.696,1689.327 189.806,1689.327 z" fill="#2B5580"/>
    </g>
    <g>
      <path d="M186.005,1675.298 L193.606,1675.298 L193.606,1703.508 L186.005,1703.508 z" fill="#2B5580"/>
      <path d="M189.806,1689.327 C172.915,1689.327 159.223,1675.634 159.223,1658.744 C159.223,1641.853 172.915,1628.161 189.806,1628.161 C206.696,1628.161 220.389,1641.853 220.389,1658.744 C220.389,1675.634 206.696,1689.327 189.806,1689.327 z" fill="#2B5580"/>
    </g>
    <g>
      <path d="M95.882,1689.664 L103.346,1689.664 L103.346,1717.365 L95.882,1717.365 z" fill="#2B5580"/>
      <path d="M99.614,1703.439 C83.028,1703.439 69.582,1689.993 69.582,1673.407 C69.582,1656.821 83.028,1643.375 99.614,1643.375 C116.201,1643.375 129.646,1656.821 129.646,1673.407 C129.646,1689.993 116.201,1703.439 99.614,1703.439 z" fill="#2B5580"/>
    </g>
    <g>
      <path d="M128.826,1689.341 L135.496,1689.341 L135.496,1714.091 L128.826,1714.091 z" fill="#2B5580"/>
      <path d="M132.161,1701.649 C117.341,1701.649 105.328,1689.635 105.328,1674.816 C105.328,1659.996 117.341,1647.982 132.161,1647.982 C146.981,1647.982 158.994,1659.996 158.994,1674.816 C158.994,1689.635 146.981,1701.649 132.161,1701.649 z" fill="#2B5580"/>
    </g>
    <g>
      <path d="M-13.107,1684.275 L-5.505,1684.275 L-5.505,1712.484 L-13.107,1712.484 z" fill="#2B5580"/>
      <path d="M-9.306,1698.303 C-26.196,1698.303 -39.889,1684.611 -39.889,1667.72 C-39.889,1650.83 -26.196,1637.137 -9.306,1637.137 C7.585,1637.137 21.277,1650.83 21.277,1667.72 C21.277,1684.611 7.585,1698.303 -9.306,1698.303 z" fill="#2B5580"/>
    </g>
    <g>
      <path d="M9.923,1678.306 L19.94,1678.306 L19.94,1715.481 L9.923,1715.481 z" fill="#2B5580"/>
      <path d="M14.931,1696.792 C-7.327,1696.792 -25.371,1678.749 -25.371,1656.49 C-25.371,1634.232 -7.327,1616.188 14.931,1616.188 C37.189,1616.188 55.233,1634.232 55.233,1656.49 C55.233,1678.749 37.189,1696.792 14.931,1696.792 z" fill="#2B5580"/>
    </g>
    <g>
      <path d="M51.547,1686.604 L59.149,1686.604 L59.149,1714.813 L51.547,1714.813 z" fill="#2B5580"/>
      <path d="M55.348,1700.632 C38.457,1700.632 24.765,1686.94 24.765,1670.049 C24.765,1653.159 38.457,1639.466 55.348,1639.466 C72.238,1639.466 85.931,1653.159 85.931,1670.049 C85.931,1686.94 72.238,1700.632 55.348,1700.632 z" fill="#2B5580"/>
    </g>
  </g>

  <g id="darkTrees" class="darkest">
    <g>
      <path d="M2106.682,1666.264 L2117.394,1666.264 L2117.394,1706.019 L2106.682,1706.019 z" fill="#192D41"/>
      <path d="M2112.038,1686.034 C2088.235,1686.034 2068.939,1666.738 2068.939,1642.935 C2068.939,1619.132 2088.235,1599.835 2112.038,1599.835 C2135.841,1599.835 2155.137,1619.132 2155.137,1642.935 C2155.137,1666.738 2135.841,1686.034 2112.038,1686.034 z" fill="#192D41"/>
    </g>
    <g>
      <path d="M2140.384,1667.611 L2149.355,1667.611 L2149.355,1700.905 L2140.384,1700.905 z" fill="#192D41"/>
      <path d="M2144.87,1684.168 C2124.935,1684.168 2108.775,1668.008 2108.775,1648.073 C2108.775,1628.139 2124.935,1611.979 2144.87,1611.979 C2164.804,1611.979 2180.964,1628.139 2180.964,1648.073 C2180.964,1668.008 2164.804,1684.168 2144.87,1684.168 z" fill="#192D41"/>
    </g>
    <g>
      <path d="M2203.497,1657.555 L2211.714,1657.555 L2211.714,1688.049 L2203.497,1688.049 z" fill="#192D41"/>
      <path d="M2207.605,1672.719 C2189.347,1672.719 2174.545,1657.918 2174.545,1639.659 C2174.545,1621.401 2189.347,1606.6 2207.605,1606.6 C2225.864,1606.6 2240.665,1621.401 2240.665,1639.659 C2240.665,1657.918 2225.864,1672.719 2207.605,1672.719 z" fill="#192D41"/>
    </g>
    <g>
      <path d="M2167.457,1655.468 L2176.428,1655.468 L2176.428,1688.761 L2167.457,1688.761 z" fill="#192D41"/>
      <path d="M2171.942,1672.024 C2152.008,1672.024 2135.848,1655.864 2135.848,1635.93 C2135.848,1615.995 2152.008,1599.835 2171.942,1599.835 C2191.876,1599.835 2208.037,1615.995 2208.037,1635.93 C2208.037,1655.864 2191.876,1672.024 2171.942,1672.024 z" fill="#192D41"/>
    </g>
    <g>
      <path d="M1820.832,1637.157 L1837.275,1637.157 L1837.275,1698.179 L1820.832,1698.179 z" fill="#192D41"/>
      <path d="M1829.054,1667.502 C1792.517,1667.502 1762.898,1637.883 1762.898,1601.346 C1762.898,1564.809 1792.517,1535.19 1829.054,1535.19 C1865.591,1535.19 1895.21,1564.809 1895.21,1601.346 C1895.21,1637.883 1865.591,1667.502 1829.054,1667.502 z" fill="#192D41"/>
    </g>
    <g>
      <path d="M2346.363,1648.421 L2355.529,1648.421 L2355.529,1682.436 L2346.363,1682.436 z" fill="#192D41"/>
      <path d="M2350.946,1665.337 C2330.579,1665.337 2314.069,1648.826 2314.069,1628.46 C2314.069,1608.093 2330.579,1591.583 2350.946,1591.583 C2371.312,1591.583 2387.823,1608.093 2387.823,1628.46 C2387.823,1648.826 2371.312,1665.337 2350.946,1665.337 z" fill="#192D41"/>
    </g>
    <g>
      <path d="M2346.363,1648.421 L2355.529,1648.421 L2355.529,1682.436 L2346.363,1682.436 z" fill="#192D41"/>
      <path d="M2350.946,1665.337 C2330.579,1665.337 2314.069,1648.826 2314.069,1628.46 C2314.069,1608.093 2330.579,1591.583 2350.946,1591.583 C2371.312,1591.583 2387.823,1608.093 2387.823,1628.46 C2387.823,1648.826 2371.312,1665.337 2350.946,1665.337 z" fill="#192D41"/>
    </g>
    <g>
      <path d="M2418.76,1653.923 L2430.019,1653.923 L2430.019,1695.707 L2418.76,1695.707 z" fill="#192D41"/>
      <path d="M2424.389,1674.701 C2399.371,1674.701 2379.09,1654.42 2379.09,1629.402 C2379.09,1604.383 2399.371,1584.102 2424.389,1584.102 C2449.408,1584.102 2469.689,1604.383 2469.689,1629.402 C2469.689,1654.42 2449.408,1674.701 2424.389,1674.701 z" fill="#192D41"/>
    </g>
    <g>
      <path d="M2375.544,1648.421 L2384.71,1648.421 L2384.71,1682.436 L2375.544,1682.436 z" fill="#192D41"/>
      <path d="M2380.127,1665.337 C2359.76,1665.337 2343.25,1648.826 2343.25,1628.46 C2343.25,1608.093 2359.76,1591.583 2380.127,1591.583 C2400.494,1591.583 2417.004,1608.093 2417.004,1628.46 C2417.004,1648.826 2400.494,1665.337 2380.127,1665.337 z" fill="#192D41"/>
    </g>
    <g>
      <path d="M2448.245,1655.832 L2459.504,1655.832 L2459.504,1697.616 L2448.245,1697.616 z" fill="#192D41"/>
      <path d="M2453.875,1676.611 C2428.856,1676.611 2408.575,1656.329 2408.575,1631.311 C2408.575,1606.293 2428.856,1586.011 2453.875,1586.011 C2478.893,1586.011 2499.174,1606.293 2499.174,1631.311 C2499.174,1656.329 2478.893,1676.611 2453.875,1676.611 z" fill="#192D41"/>
    </g>
    <g>
      <path d="M2448.245,1655.832 L2459.504,1655.832 L2459.504,1697.616 L2448.245,1697.616 z" fill="#192D41"/>
      <path d="M2453.875,1676.611 C2428.856,1676.611 2408.575,1656.329 2408.575,1631.311 C2408.575,1606.293 2428.856,1586.011 2453.875,1586.011 C2478.893,1586.011 2499.174,1606.293 2499.174,1631.311 C2499.174,1656.329 2478.893,1676.611 2453.875,1676.611 z" fill="#192D41"/>
    </g>
    <g>
      <path d="M2519.731,1655.832 L2530.99,1655.832 L2530.99,1697.616 L2519.731,1697.616 z" fill="#192D41"/>
      <path d="M2525.361,1676.611 C2500.342,1676.611 2480.061,1656.329 2480.061,1631.311 C2480.061,1606.293 2500.342,1586.011 2525.361,1586.011 C2550.379,1586.011 2570.66,1606.293 2570.66,1631.311 C2570.66,1656.329 2550.379,1676.611 2525.361,1676.611 z" fill="#192D41"/>
    </g>
    <g>
      <path d="M2484.094,1655.832 L2495.353,1655.832 L2495.353,1697.616 L2484.094,1697.616 z" fill="#192D41"/>
      <path d="M2489.723,1676.611 C2464.705,1676.611 2444.424,1656.329 2444.424,1631.311 C2444.424,1606.293 2464.705,1586.011 2489.723,1586.011 C2514.742,1586.011 2535.023,1606.293 2535.023,1631.311 C2535.023,1656.329 2514.742,1676.611 2489.723,1676.611 z" fill="#192D41"/>
    </g>
    <g>
      <path d="M2744.405,1661.901 L2755.664,1661.901 L2755.664,1703.685 L2744.405,1703.685 z" fill="#192D41"/>
      <path d="M2750.034,1682.68 C2725.016,1682.68 2704.735,1662.398 2704.735,1637.38 C2704.735,1612.362 2725.016,1592.08 2750.034,1592.08 C2775.052,1592.08 2795.334,1612.362 2795.334,1637.38 C2795.334,1662.398 2775.052,1682.68 2750.034,1682.68 z" fill="#192D41"/>
    </g>
    <g>
      <path d="M2744.405,1661.901 L2755.664,1661.901 L2755.664,1703.685 L2744.405,1703.685 z" fill="#192D41"/>
      <path d="M2750.034,1682.68 C2725.016,1682.68 2704.735,1662.398 2704.735,1637.38 C2704.735,1612.362 2725.016,1592.08 2750.034,1592.08 C2775.052,1592.08 2795.334,1612.362 2795.334,1637.38 C2795.334,1662.398 2775.052,1682.68 2750.034,1682.68 z" fill="#192D41"/>
    </g>
    <g>
      <path d="M2815.891,1661.901 L2827.15,1661.901 L2827.15,1703.685 L2815.891,1703.685 z" fill="#192D41"/>
      <path d="M2821.521,1682.68 C2796.502,1682.68 2776.221,1662.398 2776.221,1637.38 C2776.221,1612.362 2796.502,1592.08 2821.521,1592.08 C2846.539,1592.08 2866.82,1612.362 2866.82,1637.38 C2866.82,1662.398 2846.539,1682.68 2821.521,1682.68 z" fill="#192D41"/>
    </g>
    <g>
      <path d="M2780.254,1661.901 L2791.513,1661.901 L2791.513,1703.685 L2780.254,1703.685 z" fill="#192D41"/>
      <path d="M2785.883,1682.68 C2760.865,1682.68 2740.584,1662.398 2740.584,1637.38 C2740.584,1612.362 2760.865,1592.08 2785.883,1592.08 C2810.902,1592.08 2831.183,1612.362 2831.183,1637.38 C2831.183,1662.398 2810.902,1682.68 2785.883,1682.68 z" fill="#192D41"/>
    </g>
    <g>
      <path d="M2845.376,1663.81 L2856.635,1663.81 L2856.635,1705.594 L2845.376,1705.594 z" fill="#192D41"/>
      <path d="M2851.006,1684.589 C2825.988,1684.589 2805.706,1664.308 2805.706,1639.289 C2805.706,1614.271 2825.988,1593.99 2851.006,1593.99 C2876.024,1593.99 2896.305,1614.271 2896.305,1639.289 C2896.305,1664.308 2876.024,1684.589 2851.006,1684.589 z" fill="#192D41"/>
    </g>
    <g>
      <path d="M2845.376,1663.81 L2856.635,1663.81 L2856.635,1705.594 L2845.376,1705.594 z" fill="#192D41"/>
      <path d="M2851.006,1684.589 C2825.988,1684.589 2805.706,1664.308 2805.706,1639.289 C2805.706,1614.271 2825.988,1593.99 2851.006,1593.99 C2876.024,1593.99 2896.305,1614.271 2896.305,1639.289 C2896.305,1664.308 2876.024,1684.589 2851.006,1684.589 z" fill="#192D41"/>
    </g>
    <g>
      <path d="M3047.138,1659.12 L3058.397,1659.12 L3058.397,1700.905 L3047.138,1700.905 z" fill="#192D41"/>
      <path d="M3052.768,1679.899 C3027.749,1679.899 3007.468,1659.618 3007.468,1634.599 C3007.468,1609.581 3027.749,1589.3 3052.768,1589.3 C3077.786,1589.3 3098.067,1609.581 3098.067,1634.599 C3098.067,1659.618 3077.786,1679.899 3052.768,1679.899 z" fill="#192D41"/>
    </g>
    <g>
      <path d="M3011.501,1659.12 L3022.76,1659.12 L3022.76,1700.905 L3011.501,1700.905 z" fill="#192D41"/>
      <path d="M3017.13,1679.899 C2992.112,1679.899 2971.831,1659.618 2971.831,1634.599 C2971.831,1609.581 2992.112,1589.3 3017.13,1589.3 C3042.149,1589.3 3062.43,1609.581 3062.43,1634.599 C3062.43,1659.618 3042.149,1679.899 3017.13,1679.899 z" fill="#192D41"/>
    </g>
    <g>
      <path d="M3180.076,1661.901 L3191.335,1661.901 L3191.335,1703.685 L3180.076,1703.685 z" fill="#192D41"/>
      <path d="M3185.706,1682.68 C3160.688,1682.68 3140.406,1662.399 3140.406,1637.38 C3140.406,1612.362 3160.688,1592.081 3185.706,1592.081 C3210.724,1592.081 3231.005,1612.362 3231.005,1637.38 C3231.005,1662.399 3210.724,1682.68 3185.706,1682.68 z" fill="#192D41"/>
    </g>
    <g>
      <path d="M748.783,1657.498 L757.754,1657.498 L757.754,1690.791 L748.783,1690.791 z" fill="#192D41"/>
      <path d="M753.269,1674.054 C733.334,1674.054 717.174,1657.894 717.174,1637.96 C717.174,1618.025 733.334,1601.865 753.269,1601.865 C773.203,1601.865 789.363,1618.025 789.363,1637.96 C789.363,1657.894 773.203,1674.054 753.269,1674.054 z" fill="#192D41"/>
    </g>
    <g>
      <path d="M676.594,1658.494 L685.565,1658.494 L685.565,1691.787 L676.594,1691.787 z" fill="#192D41"/>
      <path d="M681.08,1675.05 C661.145,1675.05 644.985,1658.89 644.985,1638.956 C644.985,1619.021 661.145,1602.861 681.08,1602.861 C701.014,1602.861 717.174,1619.021 717.174,1638.956 C717.174,1658.89 701.014,1675.05 681.08,1675.05 z" fill="#192D41"/>
    </g>
    <g>
      <path d="M799.821,1657.219 L808.793,1657.219 L808.793,1690.512 L799.821,1690.512 z" fill="#192D41"/>
      <path d="M804.307,1673.775 C784.373,1673.775 768.213,1657.615 768.213,1637.681 C768.213,1617.746 784.373,1601.586 804.307,1601.586 C824.241,1601.586 840.401,1617.746 840.401,1637.681 C840.401,1657.615 824.241,1673.775 804.307,1673.775 z" fill="#192D41"/>
    </g>
    <g>
      <path d="M846.386,1656.272 L855.357,1656.272 L855.357,1689.565 L846.386,1689.565 z" fill="#192D41"/>
      <path d="M850.872,1672.828 C830.937,1672.828 814.777,1656.668 814.777,1636.734 C814.777,1616.799 830.937,1600.639 850.872,1600.639 C870.806,1600.639 886.966,1616.799 886.966,1636.734 C886.966,1656.668 870.806,1672.828 850.872,1672.828 z" fill="#192D41"/>
    </g>
    <g>
      <path d="M-506.33,1661.403 L-495.071,1661.403 L-495.071,1703.187 L-506.33,1703.187 z" fill="#192D41"/>
      <path d="M-500.701,1682.182 C-525.719,1682.182 -546.001,1661.901 -546.001,1636.882 C-546.001,1611.864 -525.719,1591.583 -500.701,1591.583 C-475.683,1591.583 -455.401,1611.864 -455.401,1636.882 C-455.401,1661.901 -475.683,1682.182 -500.701,1682.182 z" fill="#192D41"/>
    </g>
    <g>
      <path d="M-506.33,1661.403 L-495.071,1661.403 L-495.071,1703.187 L-506.33,1703.187 z" fill="#192D41"/>
      <path d="M-500.701,1682.182 C-525.719,1682.182 -546.001,1661.901 -546.001,1636.882 C-546.001,1611.864 -525.719,1591.583 -500.701,1591.583 C-475.683,1591.583 -455.401,1611.864 -455.401,1636.882 C-455.401,1661.901 -475.683,1682.182 -500.701,1682.182 z" fill="#192D41"/>
    </g>
    <g>
      <path d="M534.388,1683.579 L547.183,1683.579 L547.183,1731.064 L534.388,1731.064 z" fill="#192D41"/>
      <path d="M540.785,1707.193 C512.353,1707.193 489.305,1684.144 489.305,1655.713 C489.305,1627.281 512.353,1604.232 540.785,1604.232 C569.217,1604.232 592.266,1627.281 592.266,1655.713 C592.266,1684.144 569.217,1707.193 540.785,1707.193 z" fill="#192D41"/>
    </g>
    <g>
      <path d="M614.193,1668.481 L625.452,1668.481 L625.452,1710.265 L614.193,1710.265 z" fill="#192D41"/>
      <path d="M619.823,1689.26 C594.804,1689.26 574.523,1668.978 574.523,1643.96 C574.523,1618.942 594.804,1598.66 619.823,1598.66 C644.841,1598.66 665.122,1618.942 665.122,1643.96 C665.122,1668.978 644.841,1689.26 619.823,1689.26 z" fill="#192D41"/>
    </g>
    <g>
      <path d="M-605.158,1999.882 L-577.606,1999.882 L-577.606,2102.132 L-605.158,2102.132 z" fill="#192D41"/>
      <path d="M-591.383,2050.73 C-652.605,2050.73 -702.236,2001.099 -702.236,1939.877 C-702.236,1878.655 -652.605,1829.024 -591.383,1829.024 C-530.16,1829.024 -480.53,1878.655 -480.53,1939.877 C-480.53,2001.099 -530.16,2050.73 -591.383,2050.73 z" fill="#192D41"/>
    </g>
    <g>
      <path d="M-533.004,2004.554 L-505.452,2004.554 L-505.452,2106.804 L-533.004,2106.804 z" fill="#192D41"/>
      <path d="M-519.228,2055.402 C-580.451,2055.402 -630.081,2005.771 -630.081,1944.549 C-630.081,1883.327 -580.451,1833.696 -519.228,1833.696 C-458.006,1833.696 -408.375,1883.327 -408.375,1944.549 C-408.375,2005.771 -458.006,2055.402 -519.228,2055.402 z" fill="#192D41"/>
    </g>
    <g>
      <path d="M337.484,1695.502 L365.589,1695.502 L365.589,1799.805 L337.484,1799.805 z" fill="#192D41"/>
      <path d="M351.536,1747.371 C289.085,1747.371 238.458,1696.744 238.458,1634.293 C238.458,1571.842 289.085,1521.215 351.536,1521.215 C413.987,1521.215 464.614,1571.842 464.614,1634.293 C464.614,1696.744 413.987,1747.371 351.536,1747.371 z" fill="#192D41"/>
    </g>
    <g>
      <path d="M1969.281,1680.982 L1985.724,1680.982 L1985.724,1742.004 L1969.281,1742.004 z" fill="#192D41"/>
      <path d="M1977.503,1711.328 C1940.966,1711.328 1911.346,1681.709 1911.346,1645.172 C1911.346,1608.635 1940.966,1579.016 1977.503,1579.016 C2014.04,1579.016 2043.659,1608.635 2043.659,1645.172 C2043.659,1681.709 2014.04,1711.328 1977.503,1711.328 z" fill="#192D41"/>
    </g>
    <g>
      <path d="M2801.742,1716.898 L2841.299,1716.898 L2841.299,1863.698 L2801.742,1863.698 z" fill="#192D41"/>
      <path d="M2821.521,1789.9 C2733.624,1789.9 2662.37,1718.646 2662.37,1630.749 C2662.37,1542.853 2733.624,1471.599 2821.521,1471.599 C2909.417,1471.599 2980.671,1542.853 2980.671,1630.749 C2980.671,1718.646 2909.417,1789.9 2821.521,1789.9 z" fill="#192D41"/>
    </g>
    <g>
      <path d="M-73.601,1685.692 L-34.045,1685.692 L-34.045,1832.492 L-73.601,1832.492 z" fill="#192D41"/>
      <path d="M-53.823,1758.694 C-141.72,1758.694 -212.974,1687.44 -212.974,1599.543 C-212.974,1511.647 -141.72,1440.393 -53.823,1440.393 C34.073,1440.393 105.328,1511.647 105.328,1599.543 C105.328,1687.44 34.073,1758.694 -53.823,1758.694 z" fill="#192D41"/>
    </g>

  </g>
  
  
  
  
</svg>
