<svg xmlns="http://www.w3.org/2000/svg" width="100%" height="100%" viewBox="0, 0, 2000, 2000" preserveAspectRatio="xMidYMid slice">
  <g id="Background">
    <rect x="0" y="0" width="2000" height="3000" fill="#FFFFFF"/>
  </g>
  <g id="Background" class="primary">
    <path d="M0,-63.666 L2000,-63.666 L2000,3000 L0,3000 z" fill="#6A8EB4"/>
  </g>
  <g id="Sky" class="lighter">
    <path d="M0,-63.667 L2000,-63.667 L2000,1101.448 L0,1101.448 z" fill="#4D739B"/>
  </g>
  <g id="Mountain" class="primary">
    <path d="M630.488,283.698 L726.844,335.946 L823.501,419.46 L985.22,451.589 C985.22,451.589 1171.753,650.13 1185.087,657.539 C1198.422,664.947 1585.134,826.447 1585.134,826.447 L2148.163,1263.535 L995.026,1407.256 L1.245,1362.806 L-16.755,790.95 L121.246,589.45 L276.746,531.95 L489.746,362.45 L573.246,336.45 L630.164,283.698 L630.795,284.388 C630.515,283.758 630.617,283.988 630.488,283.698 z" fill="#6A8EB4"/>
  </g>
  <g id="Mountain_highlight" class="shadow" >
    <path d="M489.746,362.45 L506.202,514.263 L573.246,336.45 L489.746,362.45 z" fill="#FFFFFF"/>
    <path d="M276.746,531.95 L438.069,781.258 L384.337,1037.174 L359.964,784.582 L214.834,659.393 L153.902,725.865 L121.246,589.45 L276.746,531.95 z" fill="#FFFFFF"/>
    <path d="M630.795,284.388 C630.795,284.388 684.02,396.314 684.02,396.314 L774.716,435.714 L705.579,488.496 L745.865,647.699 L805.939,597.034 L886.128,680.503 L931.575,599.264 L1015.571,668.126 L1078.571,866.126 L1172.571,784.626 L1235.571,931.626 C1235.571,931.626 1435.195,893.75 1435.195,893.75 C1435.195,893.75 1791.799,985.065 1791.799,985.065 L1698.384,913.46 L1585.134,826.447 C1585.134,826.447 1185.088,657.539 1185.088,657.539 C1185.088,657.539 985.22,451.589 985.22,451.589 L823.501,419.46 L726.844,335.946 L630.795,284.388 z" fill="#FFFFFF" id="Shape"/>
  </g>
  <g id="Sand" class="lighter">
    <path d="M1308.324,1581.416 L372.773,1598.696 C372.773,1598.696 350.244,1454.484 350.244,1459.71 C350.244,1464.935 727.336,1358.054 727.336,1358.054 L807.337,1321.574 L1404.461,1386.854 L1399.981,1571.659 L1308.324,1581.416 z" fill="#95A8BB"/>
    <path d="M1783.19,1545.353 L2001.571,1548.235 L2066.054,1362.507 L1779.178,1389.829 L1783.19,1545.353 z" fill="#95A8BB"/>
  </g>
  <g id="House_white" class="white">
    <path d="M1050.503,1108.067 L1050.503,1193.631 L921.345,1193.631 L921.345,1109.688 L987.508,1027.6 L1050.503,1108.067 z" fill="#FFFFFF"/>
    <path d="M1147.77,1119.063 L1147.904,1193.631 L1050.503,1193.631 L1050.522,1108.067 L1147.77,1119.063 z" fill="#FFFFFF"/>
  </g>
  <g id="Land" class="lighter">
    <path d="M386.974,1119.187 L465.049,1123.123 L601.35,1172.106 L896.461,1150.092 L1050.503,1191.593 L1209.593,1193.631 L1445.408,1135.901 L1560.722,1135.901 L1552.83,1446.913 L239.988,1459.71 L386.974,1119.187 z" fill="#294867"/>
    <path d="M1689.073,1140.369 L1884.926,1108.067 L2066.054,1108.067 L2066.054,1288.487 L1689.073,1140.369 z" fill="#294867"/>
  </g>
  <g id="House" class="darkest">
    <path d="M985.545,1025.666 L1050.491,1108.138 L1150.368,1119.187 L1085.59,1035.818 L985.545,1025.666 z" fill="#2B5580"/>
    <path d="M921.345,1110.301 L913.683,1110.301 L982.822,1025.112 L1083.872,1040.272 L1085.59,1045.427 L987.411,1027.937 L921.345,1110.301 z" fill="#2B5580"/>
    <path d="M976.451,1084.185 L995.351,1084.185 L995.351,1110.301 L976.451,1110.301 z" fill="#2B5580"/>
    <path d="M1008.752,1085.044 L1021.467,1085.044 L1021.467,1108.067 L1008.752,1108.067 z" fill="#2B5580"/>
    <path d="M948.273,1129.029 L970.266,1129.029 L970.266,1160.299 L948.273,1160.299 z" fill="#2B5580"/>
    <path d="M995.351,1129.029 L1021.089,1129.029 L1020.986,1183.875 L995.351,1177.041 z" fill="#2B5580"/>
    <path d="M1106.288,1139.272 L1106.599,1166.976 L1122.427,1167.117 L1122.215,1141.048 L1106.288,1139.272 z" fill="#2B5580"/>
    <path d="M1074.408,1135.901 L1074.52,1167.826 L1090.583,1167.779 L1090.59,1137.611 L1074.408,1135.901 z" fill="#2B5580"/>
    <path d="M952.912,1085.731 L965.627,1085.731 L965.627,1108.755 L952.912,1108.755 z" fill="#2B5580"/>
  </g>
  <g id="House_chimney" class="white">
    <path d="M1038.992,1012.882 L1038.139,1030.924 L1051.706,1048.619 L1060.667,1049.133 L1061.328,1012.538 L1051.535,1012.11 L1038.992,1012.882 z" fill="#FFFFFF"/>
  </g>
  <g id="House_edge" class="white">
    <path d="M921.345,1156.397 L921.345,1170.045 L1050.503,1193.631 L1147.904,1193.631 L1021.089,1182.031 L1021.089,1188.323 L995.351,1183.662 L995.351,1175.185 L921.345,1156.397 z" fill="#FFFFFF"/>
  </g>
  <g id="Cliffs" class="darker">
    <g>
      <path d="M1279.31,1261.754 L1195.857,1215.957 L1123.006,1252.594 L1074.908,1232.24 L895.63,1268.878 L841.69,1257.683 L817.265,1298.392 L783.68,1327.906 L781.645,1374.721 L772.485,1446.979 L829.478,1482.599 L953.412,1511.096 L1027.808,1478.529 L1061.828,1525.344 L1290.505,1572.159 L1345.462,1449.015 L1281.346,1402.199 L1279.31,1261.754 z" fill="#192D41"/>
      <path d="M1279.31,1261.754 L1195.857,1215.957 L1123.006,1252.594 L1074.908,1232.24 L895.63,1268.878 L841.69,1257.683 L817.265,1298.392 L783.68,1327.906 L781.645,1374.721 L772.485,1446.979 L829.478,1482.599 L953.412,1511.096 L1027.808,1478.529 L1061.828,1525.344 L1290.505,1572.159 L1345.462,1449.015 L1281.346,1402.199 L1279.31,1261.754 z" fill-opacity="0" stroke="#000000" stroke-width="1" stroke-opacity="0.107"/>
    </g>
    <g>
      <path d="M1308.824,1279.055 L1363.781,1248.524 L1476.748,1248.524 L1465.553,1449.015 L1421.791,1460.21 L1324.09,1432.731 L1308.824,1279.055 z" fill="#192D41"/>
      <path d="M1308.824,1279.055 L1363.781,1248.524 L1476.748,1248.524 L1465.553,1449.015 L1421.791,1460.21 L1324.09,1432.731 L1308.824,1279.055 z" fill-opacity="0" stroke="#000000" stroke-width="1" stroke-opacity="0.107"/>
    </g>
    <g>
      <path d="M1321.037,1472.422 L1290.505,1572.159" fill="#192D41"/>
      <path d="M1321.037,1472.422 L1290.505,1572.159" fill-opacity="0" stroke="#000000" stroke-width="1" stroke-opacity="0.107"/>
    </g>
    <g>
      <path d="M1429.933,1447.997 L1345.462,1411.359 L1321.037,1286.179 L1279.31,1261.754 L1256.92,1415.43 L1276.257,1572.159 L1362.763,1572.159 L1429.933,1447.997 z" fill="#192D41"/>
      <path d="M1429.933,1447.997 L1345.462,1411.359 L1321.037,1286.179 L1279.31,1261.754 L1256.92,1415.43 L1276.257,1572.159 L1362.763,1572.159 L1429.933,1447.997 z" fill-opacity="0" stroke="#000000" stroke-width="1" stroke-opacity="0.107"/>
    </g>
    <g>
      <path d="M1637.76,1079.573 L1826.169,1147.561 L1821.725,1575.924 L1773.734,1578.145 L1787.509,1597.697 L1742.629,1615.472 L1514.672,1614.139 L1452.462,1605.696 L1476.748,1581.256 L1299.149,1584.253 L1443.234,1409.404 L1462.682,1223.99 L1481.79,1206.216 L1488.455,1151.115 C1488.455,1151.115 1637.76,1079.573 1637.76,1079.573 z" fill="#192D41"/>
      <path d="M1637.76,1079.573 L1826.169,1147.561 L1821.725,1575.924 L1773.734,1578.145 L1787.509,1597.697 L1742.629,1615.472 L1514.672,1614.139 L1452.462,1605.696 L1476.748,1581.256 L1299.149,1584.253 L1443.234,1409.404 L1462.682,1223.99 L1481.79,1206.216 L1488.455,1151.115 C1488.455,1151.115 1637.76,1079.573 1637.76,1079.573 z" fill-opacity="0" stroke="#000000" stroke-width="1" stroke-opacity="0.107"/>
    </g>
    <g>
      <path d="M750.195,1447.413 L740.716,1288.987" fill="#192D41"/>
      <path d="M750.195,1447.413 L740.716,1288.987" fill-opacity="0" stroke="#000000" stroke-width="1" stroke-opacity="0.107"/>
    </g>
    <g>
      <path d="M750.195,1416.27 L740.716,1288.987 L750.195,1233.47 L750.195,1177.293 L732.592,1160.799 L681.814,1140.869 L569.426,1150.872 L507.816,1194.131 L465.84,1230.085 L387.304,1215.957 C387.304,1215.957 394.751,1378.356 393.397,1385.803 C392.043,1393.25 350.744,1582.143 350.744,1582.143 L421.832,1572.159 L443.498,1601.1 L490.213,1615.472 L631.036,1602.454 L703.479,1572.159 L690.615,1496.837 L687.907,1436.581 L750.195,1416.27 z" fill="#192D41"/>
      <path d="M750.195,1416.27 L740.716,1288.987 L750.195,1233.47 L750.195,1177.293 L732.592,1160.799 L681.814,1140.869 L569.426,1150.872 L507.816,1194.131 L465.84,1230.085 L387.304,1215.957 C387.304,1215.957 394.751,1378.356 393.397,1385.803 C392.043,1393.25 350.744,1582.143 350.744,1582.143 L421.832,1572.159 L443.498,1601.1 L490.213,1615.472 L631.036,1602.454 L703.479,1572.159 L690.615,1496.837 L687.907,1436.581 L750.195,1416.27 z" fill-opacity="0" stroke="#000000" stroke-width="1" stroke-opacity="0.107"/>
    </g>
    <g>
      <path d="M337.88,970.104 L400.844,1119.687 L387.304,1215.957 L421.833,1341.119 L400.167,1518.502 L375.794,1615.472" fill="#192D41"/>
      <path d="M337.88,970.104 L400.844,1119.687 L387.304,1215.957 L421.833,1341.119 L400.167,1518.502 L375.794,1615.472" fill-opacity="0" stroke="#000000" stroke-width="1" stroke-opacity="0.107"/>
    </g>
    <g>
      <path d="M337.88,970.104 C331.787,977.551 403.553,1129.529 403.553,1129.529 L390.689,1200.973 L416.416,1288.987 L421.833,1366.169 L388.658,1447.413 L404.907,1478.557 L397.459,1524.595 L366.993,1523.918 L384.596,1583.497 L378.502,1632.244 L350.744,1695.208 L387.981,1784.577 L350.744,1783.223 L293.873,1805.565 L211.275,1804.888 L235.386,1918.599 L228.026,1948.039 L2.071,2020.168 L2.07,642.25 L45.314,649.457 L47.116,734.142 L187.657,793.602 L238.108,932.341 L337.88,970.104 z" fill="#192D41"/>
      <path d="M337.88,970.104 C331.787,977.551 403.553,1129.529 403.553,1129.529 L390.689,1200.973 L416.416,1288.987 L421.833,1366.169 L388.658,1447.413 L404.907,1478.557 L397.459,1524.595 L366.993,1523.918 L384.596,1583.497 L378.502,1632.244 L350.744,1695.208 L387.981,1784.577 L350.744,1783.223 L293.873,1805.565 L211.275,1804.888 L235.386,1918.599 L228.026,1948.039 L2.071,2020.168 L2.07,642.25 L45.314,649.457 L47.116,734.142 L187.657,793.602 L238.108,932.341 L337.88,970.104 z" fill-opacity="0" stroke="#000000" stroke-width="1" stroke-opacity="0.107"/>
    </g>
    <g>
      <path d="M1804.942,1149.258 L1916.286,1140.869 L2098.998,1184.375 L2068.262,1528.644 L1897.502,1492.784 L1818.27,1572.159 L1804.942,1149.258 z" fill="#192D41"/>
      <path d="M1804.942,1149.258 L1916.286,1140.869 L2098.998,1184.375 L2068.262,1528.644 L1897.502,1492.784 L1818.27,1572.159 L1804.942,1149.258 z" fill-opacity="0" stroke="#000000" stroke-width="1" stroke-opacity="0.107"/>
    </g>
    <path d="M1739.903,1553.758 L2033.61,1571.659" fill="#95A8BB"/>
  </g>
  <g id="Foam" class="white">
    <path d="M655.248,1589.163 L1308.324,1581.416 L1476.248,1580.756 L1349.991,1583.167 L625.761,1602.218 L655.248,1589.163 z" fill="#FFFFFF"/>
    <path d="M381.785,1598.107 L440.972,1597.541 L442.998,1600.6 L471.536,1609.374 L380.372,1614.972 L381.785,1598.107 z" fill="#FFFFFF"/>
  </g>
</svg>
