<svg xmlns="http://www.w3.org/2000/svg" width="100%" height="100%" viewBox="0, 0, 2000, 3000" preserveAspectRatio="xMidYMid slice">
  <g id="Background">
    <rect x="0" y="0" width="2000" height="3000" fill="#FFFFFF"/>
  </g>
  <g id="Sky" class="darker">
    <path d="M-292.425,-0 L2188.673,-0 L2188.673,2942.048 L-292.425,2942.048 z" fill="#294867"/>
  </g>
  <g id="Hills_back" class="primary">
    <path d="M198.433,1238.802 C198.433,1233.344 382.928,1167.81 382.928,1167.81 L459.664,1197.199 L538.63,1166.178 L672.2,1218.638 L526.992,1422.337 L198.433,1238.802 z" fill="#000000" />
  </g>
  <g id="Hills_back" class="highlight">
    <path d="M198.433,1238.802 C198.433,1233.344 382.928,1167.81 382.928,1167.81 L459.664,1197.199 L538.63,1166.178 L672.2,1218.638 L526.992,1422.337 L198.433,1238.802 z" fill="#000000" />
  </g>
  <g id="Bg_hill_wedge" class="darker">
    <path d="M462.473,1195.899 L412.157,1218.528 L456.597,1175.602 L462.473,1195.899 z" fill="#294867"/>
  </g>
  <g id="Hills" class="primary">
    <path d="M1703.269,2468.219 L1668.86,2456.817 L-462.099,1725.327 L749.728,1126.609 L831.784,1169.546 L1132.113,1042.205 L1254.07,1078.902 L1591.106,931.444 L1760.139,973.662 L2021.206,891.157 L2110.92,936.721 L2237.575,891.157 C2237.575,891.157 2661.217,971.023 2672.952,971.023 C2684.688,971.023 2936.817,973.662 2936.817,973.662 C2936.817,973.662 2661.665,2577.167 2654.623,2558.389 C2647.582,2539.612 1703.269,2468.219 1703.269,2468.219 z" fill="#192D41"/>
    <path d="M-405.559,891.157 L67.044,1155.19 L154.229,1111.221 L486.606,1302.265 L-180.259,1850.885 L-475.077,1985.129 L-405.559,891.157 z" fill="#192D41" id="Shape"/>
  </g>
  <g id="Trees_body" class="darkest">
    <path d="M-279.384,1772.477 L645.2,1684.77 L1746.136,1564.963 L2212.492,1296.497 L2212.492,3000 L-291.038,3000 L-292.424,2028.332 L-279.384,1772.477 z" fill="#122131"/>
  </g>
  <g id="Land"  class="primary">
    <path d="M-618.566,2194.285 C426.971,1893.58 1517.429,2532.043 2589.2,2367.881 C3413.946,2241.556 2694.868,2730.17 2694.868,2730.17 L2180.758,3000 L-333.593,3000 L-618.566,2194.285 z" fill="#192D41"/>
  </g>
  <g id="Tree_shadows"  class="darkest">
    <path d="M2074.33,2354.481 L1760.139,2424.703 L1900.582,2322.813" fill="#122131"/>
    <path d="M1863.412,2350.896 L1475.113,2424.703 L1637.608,2342.455 L1382.397,2362.743 L1475.113,2322.813 L1265.362,2336.582 L1402.534,2277.035 L1087.743,2310.421 L1276.743,2241.949 L1008.714,2282.883 L1093.146,2224.277 L971.272,2241.949 L831.784,2241.949 L1008.714,2147.948 L486.606,1841.326 L322.251,2112.592 L198.433,2133.631 L242.333,2097.629 L83.108,2133.631 L203.412,2039.174 L-107.052,2133.631 L127.335,2022.651 L645.2,1705.255 L1806.479,1879.455 L2127.294,2269.114 L1863.412,2350.896 z" fill="#122131"/>
  </g>
  <g id="Trees_top" class="darkest">
    <g>
      <path d="M1508.536,1231.839 C1524.615,1280.02 1554.21,1299.639 1569.358,1329.857 C1543.957,1355.245 1485.932,1359.285 1453.307,1335.338 C1459.599,1307.14 1493.622,1279.732 1508.536,1231.839 z" fill="#122131"/>
      <path d="M1507.396,1279.302 C1530.03,1344.125 1571.689,1370.52 1593.01,1411.174 C1557.256,1445.332 1475.578,1450.767 1429.654,1418.549 C1438.511,1380.612 1486.402,1343.737 1507.396,1279.302 z" fill="#122131"/>
      <path d="M1507.138,1351.27 C1531.257,1423.541 1575.649,1452.969 1598.37,1498.296 C1560.269,1536.379 1473.232,1542.438 1424.295,1506.518 C1433.732,1464.221 1484.767,1423.109 1507.138,1351.27 z" fill="#122131"/>
      <path d="M1506.089,1419.501 C1536.238,1510.25 1591.729,1547.201 1620.131,1604.115 C1572.504,1651.935 1463.706,1659.543 1402.534,1614.44 C1414.332,1561.329 1478.125,1509.706 1506.089,1419.501 z" fill="#122131"/>
    </g>
    <g>
      <path d="M1663.833,1240.264 C1682.232,1293.555 1716.096,1315.254 1733.428,1348.677 C1704.364,1376.758 1637.968,1381.226 1600.638,1354.74 C1607.837,1323.551 1646.768,1293.236 1663.833,1240.264 z" fill="#122131"/>
      <path d="M1662.529,1292.76 C1688.427,1364.458 1736.096,1393.653 1760.493,1438.619 C1719.581,1476.4 1626.121,1482.41 1573.573,1446.776 C1583.707,1404.815 1638.507,1364.029 1662.529,1292.76 z" fill="#122131"/>
      <path d="M1662.233,1372.361 C1689.831,1452.298 1740.628,1484.847 1766.626,1534.98 C1723.029,1577.103 1623.436,1583.804 1567.44,1544.075 C1578.24,1497.292 1636.635,1451.819 1662.233,1372.361 z" fill="#122131"/>
      <path d="M1661.033,1447.829 C1695.531,1548.202 1759.026,1589.073 1791.524,1652.023 C1737.029,1704.915 1612.536,1713.329 1542.54,1663.443 C1556.039,1604.7 1629.035,1547.601 1661.033,1447.829 z" fill="#122131"/>
    </g>
    <g>
      <path d="M1688.335,1443.548 C1698.68,1465.502 1717.723,1474.442 1727.469,1488.211 C1711.125,1499.78 1673.791,1501.621 1652.799,1490.709 C1656.848,1477.86 1678.739,1465.371 1688.335,1443.548 z" fill="#122131"/>
      <path d="M1687.601,1465.175 C1702.164,1494.713 1728.969,1506.74 1742.687,1525.265 C1719.682,1540.829 1667.129,1543.306 1637.58,1528.625 C1643.279,1511.339 1674.094,1494.536 1687.601,1465.175 z" fill="#122131"/>
      <path d="M1687.435,1497.968 C1702.954,1530.9 1731.517,1544.31 1746.136,1564.963 C1721.621,1582.317 1665.619,1585.077 1634.132,1568.71 C1640.205,1549.437 1673.041,1530.703 1687.435,1497.968 z" fill="#122131"/>
      <path d="M1686.76,1529.059 C1706.159,1570.41 1741.864,1587.248 1760.137,1613.182 C1729.493,1634.972 1659.49,1638.438 1620.131,1617.886 C1627.722,1593.686 1668.768,1570.163 1686.76,1529.059 z" fill="#122131"/>
    </g>
    <g>
      <path d="M1791.527,1240.263 C1807.606,1288.445 1837.201,1308.063 1852.348,1338.281 C1826.948,1363.67 1768.922,1367.709 1736.298,1343.763 C1742.59,1315.565 1776.613,1288.156 1791.527,1240.263 z" fill="#122131"/>
      <path d="M1790.387,1287.727 C1813.021,1352.549 1854.679,1378.944 1876.001,1419.599 C1840.246,1453.757 1758.569,1459.191 1712.645,1426.974 C1721.502,1389.036 1769.393,1352.161 1790.387,1287.727 z" fill="#122131"/>
      <path d="M1790.129,1359.694 C1814.247,1431.966 1858.64,1461.394 1881.361,1506.72 C1843.26,1544.803 1756.222,1550.862 1707.285,1514.943 C1716.723,1472.646 1767.757,1431.533 1790.129,1359.694 z" fill="#122131"/>
      <path d="M1789.08,1427.925 C1819.229,1518.674 1874.72,1555.625 1903.121,1612.54 C1855.495,1660.359 1746.697,1667.967 1685.525,1622.864 C1697.322,1569.754 1761.116,1518.13 1789.08,1427.925 z" fill="#122131"/>
    </g>
    <g>
      <path d="M1866.141,1211.674 C1882.22,1259.856 1911.815,1279.474 1926.962,1309.692 C1901.562,1335.081 1843.537,1339.12 1810.912,1315.173 C1817.204,1286.975 1851.227,1259.567 1866.141,1211.674 z" fill="#122131"/>
      <path d="M1865.001,1259.137 C1887.634,1323.96 1929.293,1350.355 1950.615,1391.01 C1914.86,1425.168 1833.182,1430.602 1787.259,1398.385 C1796.116,1360.447 1844.007,1323.572 1865.001,1259.137 z" fill="#122131"/>
      <path d="M1864.743,1331.105 C1888.862,1403.376 1933.254,1432.805 1955.975,1478.131 C1917.874,1516.214 1830.837,1522.273 1781.9,1486.353 C1791.338,1444.057 1842.372,1402.944 1864.743,1331.105 z" fill="#122131"/>
      <path d="M1863.694,1399.336 C1893.843,1490.085 1949.334,1527.036 1977.735,1583.95 C1930.109,1631.77 1821.311,1639.378 1760.139,1594.275 C1771.936,1541.165 1835.73,1489.541 1863.694,1399.336 z" fill="#122131"/>
    </g>
    <g>
      <path d="M2195.577,905.414 C2214.079,958.393 2248.133,979.965 2265.562,1013.192 C2236.335,1041.109 2169.567,1045.55 2132.026,1019.219 C2139.266,988.213 2178.415,958.076 2195.577,905.414 z" fill="#122131"/>
      <path d="M2194.265,957.603 C2220.309,1028.881 2268.245,1057.904 2292.779,1102.607 C2251.637,1140.167 2157.653,1146.142 2104.81,1110.717 C2115.001,1069.001 2170.108,1028.454 2194.265,957.603 z" fill="#122131"/>
      <path d="M2193.968,1036.737 C2221.721,1116.206 2272.802,1148.565 2298.946,1198.405 C2255.105,1240.28 2154.953,1246.942 2098.643,1207.446 C2109.502,1160.937 2168.226,1115.73 2193.968,1036.737 z" fill="#122131"/>
      <path d="M2192.761,1111.763 C2227.453,1211.549 2291.305,1252.18 2323.986,1314.762 C2269.183,1367.344 2143.992,1375.709 2073.603,1326.115 C2087.178,1267.715 2160.583,1210.951 2192.761,1111.763 z" fill="#122131"/>
    </g>
    <g>
      <path d="M1945.193,1103.576 C1963.695,1156.555 1997.749,1178.127 2015.178,1211.354 C1985.951,1239.271 1919.183,1243.712 1881.642,1217.381 C1888.882,1186.375 1928.031,1156.238 1945.193,1103.576 z" fill="#122131"/>
      <path d="M1943.881,1155.765 C1969.925,1227.043 2017.861,1256.066 2042.395,1300.769 C2001.253,1338.329 1907.268,1344.304 1854.426,1308.879 C1864.617,1267.164 1919.724,1226.616 1943.881,1155.765 z" fill="#122131"/>
      <path d="M1943.584,1234.899 C1971.337,1314.368 2022.418,1346.727 2048.562,1396.567 C2004.721,1438.443 1904.569,1445.104 1848.258,1405.608 C1859.118,1359.099 1917.842,1313.892 1943.584,1234.899 z" fill="#122131"/>
      <path d="M1942.377,1309.925 C1977.069,1409.711 2040.921,1450.342 2073.602,1512.924 C2018.799,1565.506 1893.608,1573.871 1823.219,1524.277 C1836.794,1465.878 1910.199,1409.113 1942.377,1309.925 z" fill="#122131"/>
    </g>
    <g>
      <path d="M2060.264,1025.012 C2078.766,1077.991 2112.821,1099.563 2130.25,1132.79 C2101.022,1160.707 2034.254,1165.149 1996.714,1138.818 C2003.954,1107.812 2043.103,1077.674 2060.264,1025.012 z" fill="#122131"/>
      <path d="M2058.953,1077.202 C2084.997,1148.479 2132.932,1177.503 2157.467,1222.206 C2116.325,1259.766 2022.34,1265.741 1969.497,1230.315 C1979.688,1188.6 2034.796,1148.053 2058.953,1077.202 z" fill="#122131"/>
      <path d="M2058.655,1156.336 C2086.408,1235.804 2137.49,1268.163 2163.634,1318.003 C2119.792,1359.879 2019.641,1366.541 1963.33,1327.044 C1974.19,1280.535 2032.914,1235.329 2058.655,1156.336 z" fill="#122131"/>
      <path d="M2057.449,1231.362 C2092.14,1331.147 2155.993,1371.778 2188.673,1434.36 C2133.871,1486.942 2008.679,1495.307 1938.291,1445.713 C1951.866,1387.314 2025.271,1330.55 2057.449,1231.362 z" fill="#122131"/>
    </g>
    <g>
      <path d="M818.61,1445.771 C829.059,1481.67 848.291,1496.288 858.134,1518.802 C841.628,1537.719 803.922,1540.729 782.721,1522.886 C786.81,1501.877 808.919,1481.455 818.61,1445.771 z" fill="#122131"/>
      <path d="M817.869,1481.135 C832.577,1529.433 859.648,1549.1 873.504,1579.391 C850.269,1604.842 797.193,1608.891 767.351,1584.886 C773.106,1556.619 804.227,1529.144 817.869,1481.135 z" fill="#122131"/>
      <path d="M817.702,1534.757 C833.375,1588.606 862.222,1610.532 876.987,1644.304 C852.228,1672.679 795.669,1677.193 763.868,1650.43 C770.001,1618.916 803.164,1588.283 817.702,1534.757 z" fill="#122131"/>
      <path d="M817.02,1585.595 C836.612,1653.21 872.671,1680.743 891.127,1723.149 C860.178,1758.778 789.479,1764.447 749.728,1730.841 C757.394,1691.269 798.848,1652.806 817.02,1585.595 z" fill="#122131"/>
    </g>
    <g>
      <path d="M1040.154,1443.548 C1050.603,1479.447 1069.834,1494.064 1079.677,1516.579 C1063.172,1535.496 1025.465,1538.505 1004.265,1520.663 C1008.354,1499.654 1030.463,1479.232 1040.154,1443.548 z" fill="#122131"/>
      <path d="M1039.413,1478.912 C1054.121,1527.21 1081.192,1546.877 1095.047,1577.168 C1071.813,1602.618 1018.737,1606.667 988.895,1582.663 C994.65,1554.396 1025.771,1526.921 1039.413,1478.912 z" fill="#122131"/>
      <path d="M1039.246,1532.534 C1054.919,1586.382 1083.766,1608.309 1098.531,1642.081 C1073.772,1670.456 1017.213,1674.97 985.412,1648.207 C991.545,1616.692 1024.708,1586.06 1039.246,1532.534 z" fill="#122131"/>
      <path d="M1038.564,1583.372 C1058.156,1650.987 1094.215,1678.519 1112.671,1720.925 C1081.722,1756.555 1011.022,1762.223 971.272,1728.618 C978.938,1689.046 1020.392,1650.582 1038.564,1583.372 z" fill="#122131"/>
    </g>
    <g>
      <path d="M1110.588,1427.079 C1121.037,1462.978 1140.268,1477.596 1150.111,1500.111 C1133.605,1519.027 1095.899,1522.037 1074.699,1504.195 C1078.788,1483.185 1100.896,1462.763 1110.588,1427.079 z" fill="#122131"/>
      <path d="M1109.847,1462.443 C1124.555,1510.742 1151.626,1530.408 1165.481,1560.699 C1142.247,1586.15 1089.171,1590.199 1059.329,1566.194 C1065.084,1537.928 1096.205,1510.453 1109.847,1462.443 z" fill="#122131"/>
      <path d="M1109.679,1516.065 C1125.352,1569.914 1154.2,1591.84 1168.964,1625.612 C1144.205,1653.987 1087.646,1658.502 1055.846,1631.739 C1061.979,1600.224 1095.142,1569.591 1109.679,1516.065 z" fill="#122131"/>
      <path d="M1108.998,1566.903 C1128.589,1634.519 1164.649,1662.051 1183.105,1704.457 C1152.156,1740.086 1081.456,1745.755 1041.706,1712.149 C1049.372,1672.578 1090.826,1634.114 1108.998,1566.903 z" fill="#122131"/>
    </g>
    <g>
      <path d="M1181.553,1385.38 C1192.002,1421.28 1211.234,1435.897 1221.077,1458.412 C1204.571,1477.329 1166.865,1480.338 1145.665,1462.496 C1149.753,1441.486 1171.862,1421.065 1181.553,1385.38 z" fill="#122131"/>
      <path d="M1180.813,1420.745 C1195.521,1469.043 1222.592,1488.71 1236.447,1519 C1213.213,1544.451 1160.137,1548.5 1130.295,1524.496 C1136.05,1496.229 1167.171,1468.754 1180.813,1420.745 z" fill="#122131"/>
      <path d="M1180.645,1474.367 C1196.318,1528.215 1225.165,1550.142 1239.93,1583.914 C1215.171,1612.289 1158.612,1616.803 1126.812,1590.04 C1132.944,1558.525 1166.108,1527.893 1180.645,1474.367 z" fill="#122131"/>
      <path d="M1179.964,1525.205 C1199.555,1592.82 1235.615,1620.352 1254.07,1662.758 C1223.122,1698.388 1152.422,1704.056 1112.671,1670.451 C1120.337,1630.879 1161.792,1592.415 1179.964,1525.205 z" fill="#122131"/>
    </g>
    <g>
      <path d="M1258.112,1337.323 C1269.49,1380.749 1290.431,1398.431 1301.149,1425.667 C1283.176,1448.55 1242.117,1452.19 1219.032,1430.607 C1223.484,1405.192 1247.559,1380.489 1258.112,1337.323 z" fill="#122131"/>
      <path d="M1257.305,1380.102 C1273.321,1438.526 1302.799,1462.316 1317.886,1498.958 C1292.586,1529.745 1234.791,1534.643 1202.295,1505.605 C1208.562,1471.412 1242.45,1438.177 1257.305,1380.102 z" fill="#122131"/>
      <path d="M1257.122,1444.966 C1274.189,1510.104 1305.601,1536.628 1321.678,1577.481 C1294.718,1611.805 1233.131,1617.266 1198.503,1584.892 C1205.181,1546.769 1241.293,1509.714 1257.122,1444.966 z" fill="#122131"/>
      <path d="M1256.38,1506.462 C1277.714,1588.254 1316.98,1621.559 1337.076,1672.856 C1303.376,1715.954 1226.39,1722.811 1183.105,1682.161 C1191.453,1634.293 1236.593,1587.765 1256.38,1506.462 z" fill="#122131"/>
    </g>
    <g>
      <path d="M1335.748,1346.94 C1350.219,1390.366 1376.853,1408.048 1390.485,1435.283 C1367.625,1458.166 1315.405,1461.807 1286.044,1440.224 C1291.706,1414.809 1322.326,1390.106 1335.748,1346.94 z" fill="#122131"/>
      <path d="M1334.722,1389.719 C1355.092,1448.143 1392.583,1471.933 1411.772,1508.575 C1379.594,1539.362 1306.087,1544.26 1264.757,1515.222 C1272.728,1481.029 1315.829,1447.794 1334.722,1389.719 z" fill="#122131"/>
      <path d="M1334.49,1454.583 C1356.196,1519.721 1396.147,1546.245 1416.595,1587.097 C1382.306,1621.422 1303.975,1626.883 1259.934,1594.508 C1268.427,1556.386 1314.356,1519.331 1334.49,1454.583 z" fill="#122131"/>
      <path d="M1333.546,1516.08 C1360.679,1597.871 1410.619,1631.176 1436.179,1682.473 C1393.317,1725.572 1295.402,1732.429 1240.35,1691.778 C1250.967,1643.91 1308.379,1597.382 1333.546,1516.08 z" fill="#122131"/>
    </g>
    <g>
      <path d="M1402.948,1321.047 C1417.419,1364.473 1444.054,1382.155 1457.686,1409.39 C1434.826,1432.273 1382.606,1435.914 1353.245,1414.331 C1358.907,1388.916 1389.526,1364.213 1402.948,1321.047 z" fill="#122131"/>
      <path d="M1401.923,1363.826 C1422.292,1422.25 1459.784,1446.04 1478.973,1482.682 C1446.795,1513.469 1373.287,1518.366 1331.958,1489.329 C1339.929,1455.136 1383.029,1421.901 1401.923,1363.826 z" fill="#122131"/>
      <path d="M1401.69,1428.69 C1423.396,1493.828 1463.348,1520.352 1483.796,1561.204 C1449.506,1595.529 1371.176,1600.99 1327.134,1568.615 C1335.628,1530.493 1381.557,1493.438 1401.69,1428.69 z" fill="#122131"/>
      <path d="M1400.746,1490.187 C1427.879,1571.978 1477.82,1605.283 1503.38,1656.579 C1460.518,1699.679 1362.603,1706.536 1307.551,1665.885 C1318.168,1618.017 1375.58,1571.489 1400.746,1490.187 z" fill="#122131"/>
    </g>
    <g>
      <path d="M1578.099,1321.047 C1589.637,1360.582 1610.874,1376.68 1621.744,1401.475 C1603.517,1422.307 1561.879,1425.622 1538.468,1405.973 C1542.983,1382.835 1567.397,1360.345 1578.099,1321.047 z" fill="#122131"/>
      <path d="M1577.281,1359.993 C1593.523,1413.182 1623.417,1434.841 1638.717,1468.199 C1613.06,1496.227 1554.449,1500.686 1521.495,1474.251 C1527.851,1443.122 1562.217,1412.864 1577.281,1359.993 z" fill="#122131"/>
      <path d="M1577.096,1419.045 C1594.403,1478.347 1626.259,1502.494 1642.563,1539.686 C1615.222,1570.935 1552.766,1575.906 1517.65,1546.433 C1524.422,1511.727 1561.043,1477.992 1577.096,1419.045 z" fill="#122131"/>
      <path d="M1576.343,1475.032 C1597.978,1549.495 1637.797,1579.815 1658.177,1626.516 C1624.002,1665.754 1545.93,1671.996 1502.034,1634.987 C1510.5,1591.408 1556.277,1549.049 1576.343,1475.032 z" fill="#122131"/>
    </g>
    <g>
      <path d="M917.975,1398.672 C931.049,1442.205 955.114,1459.932 967.43,1487.235 C946.776,1510.175 899.596,1513.824 873.068,1492.188 C878.184,1466.71 905.848,1441.945 917.975,1398.672 z" fill="#122131"/>
      <path d="M917.048,1441.557 C935.452,1500.127 969.325,1523.976 986.662,1560.709 C957.59,1591.572 891.177,1596.482 853.836,1567.372 C861.037,1533.094 899.978,1499.776 917.048,1441.557 z" fill="#122131"/>
      <path d="M916.838,1506.582 C936.45,1571.883 972.546,1598.473 991.02,1639.427 C960.04,1673.837 889.269,1679.311 849.478,1646.856 C857.152,1608.639 898.648,1571.492 916.838,1506.582 z" fill="#122131"/>
      <path d="M915.986,1568.232 C940.5,1650.228 985.621,1683.615 1008.714,1735.04 C969.988,1778.247 881.523,1785.121 831.784,1744.369 C841.377,1696.381 893.248,1649.737 915.986,1568.232 z" fill="#122131"/>
    </g>
    <g>
      <path d="M526.032,1530.016 C534.813,1562.069 550.977,1575.12 559.249,1595.223 C545.377,1612.113 513.687,1614.8 495.869,1598.87 C499.305,1580.111 517.887,1561.877 526.032,1530.016 z" fill="#122131"/>
      <path d="M525.409,1561.591 C537.771,1604.715 560.522,1622.274 572.167,1649.32 C552.64,1672.044 508.032,1675.659 482.951,1654.226 C487.788,1628.988 513.944,1604.457 525.409,1561.591 z" fill="#122131"/>
      <path d="M525.268,1609.468 C538.441,1657.547 562.686,1677.125 575.094,1707.278 C554.286,1732.614 506.751,1736.644 480.024,1712.749 C485.178,1684.61 513.05,1657.26 525.268,1609.468 z" fill="#122131"/>
      <path d="M524.695,1654.859 C541.161,1715.231 571.468,1739.813 586.979,1777.676 C560.968,1809.488 501.548,1814.549 468.139,1784.544 C474.583,1749.212 509.423,1714.869 524.695,1654.859 z" fill="#122131"/>
    </g>
    <g>
      <path d="M584.253,1457.596 C593.035,1489.648 609.198,1502.7 617.471,1522.802 C603.598,1539.693 571.908,1542.38 554.09,1526.449 C557.527,1507.69 576.108,1489.457 584.253,1457.596 z" fill="#122131"/>
      <path d="M583.631,1489.171 C595.992,1532.295 618.744,1549.854 630.389,1576.9 C610.861,1599.624 566.253,1603.239 541.172,1581.806 C546.009,1556.568 572.165,1532.036 583.631,1489.171 z" fill="#122131"/>
      <path d="M583.49,1537.048 C596.662,1585.127 620.907,1604.704 633.316,1634.858 C612.507,1660.193 564.972,1664.224 538.245,1640.328 C543.4,1612.19 571.272,1584.839 583.49,1537.048 z" fill="#122131"/>
      <path d="M582.917,1582.439 C599.383,1642.81 629.689,1667.393 645.2,1705.255 C619.189,1737.068 559.77,1742.129 526.361,1712.124 C532.804,1676.792 567.644,1642.449 582.917,1582.439 z" fill="#122131"/>
    </g>
    <g>
      <path d="M646.945,1440.598 C655.726,1472.651 671.889,1485.702 680.162,1505.805 C666.29,1522.695 634.599,1525.382 616.782,1509.452 C620.218,1490.693 638.799,1472.459 646.945,1440.598 z" fill="#122131"/>
      <path d="M646.322,1472.173 C658.683,1515.297 681.435,1532.856 693.08,1559.902 C673.553,1582.626 628.945,1586.241 603.864,1564.808 C608.701,1539.57 634.856,1515.039 646.322,1472.173 z" fill="#122131"/>
      <path d="M646.181,1520.05 C659.353,1568.129 683.598,1587.707 696.007,1617.86 C675.198,1643.196 627.663,1647.226 600.936,1623.33 C606.091,1595.192 633.963,1567.841 646.181,1520.05 z" fill="#122131"/>
      <path d="M645.608,1565.441 C662.074,1625.813 692.38,1650.395 707.892,1688.258 C681.88,1720.07 622.461,1725.131 589.052,1695.126 C595.495,1659.794 630.336,1625.451 645.608,1565.441 z" fill="#122131"/>
    </g>
    <g>
      <path d="M261.304,1530.016 C270.086,1562.069 286.249,1575.12 294.521,1595.223 C280.649,1612.113 248.959,1614.8 231.141,1598.87 C234.577,1580.111 253.159,1561.877 261.304,1530.016 z" fill="#122131"/>
      <path d="M260.681,1561.591 C273.043,1604.715 295.795,1622.274 307.439,1649.32 C287.912,1672.044 243.304,1675.659 218.223,1654.226 C223.06,1628.988 249.216,1604.457 260.681,1561.591 z" fill="#122131"/>
      <path d="M260.54,1609.468 C273.713,1657.547 297.958,1677.125 310.366,1707.278 C289.558,1732.614 242.022,1736.644 215.296,1712.749 C220.45,1684.61 248.322,1657.26 260.54,1609.468 z" fill="#122131"/>
      <path d="M259.968,1654.859 C276.433,1715.231 306.74,1739.813 322.251,1777.676 C296.24,1809.488 236.82,1814.549 203.412,1784.544 C209.855,1749.212 244.695,1714.869 259.968,1654.859 z" fill="#122131"/>
    </g>
    <g>
      <path d="M758.429,1446.277 C768.999,1481.539 788.453,1495.897 798.409,1518.012 C781.713,1536.593 743.571,1539.549 722.125,1522.023 C726.261,1501.387 748.625,1481.328 758.429,1446.277 z" fill="#122131"/>
      <path d="M757.68,1481.013 C772.558,1528.454 799.942,1547.771 813.957,1577.524 C790.454,1602.523 736.764,1606.5 706.577,1582.922 C712.399,1555.157 743.88,1528.17 757.68,1481.013 z" fill="#122131"/>
      <path d="M757.51,1533.683 C773.364,1586.575 802.545,1608.113 817.48,1641.285 C792.435,1669.156 735.222,1673.59 703.054,1647.303 C709.258,1616.347 742.805,1586.259 757.51,1533.683 z" fill="#122131"/>
      <path d="M756.821,1583.618 C776.638,1650.033 813.115,1677.076 831.784,1718.729 C800.477,1753.726 728.961,1759.294 688.75,1726.286 C696.505,1687.416 738.439,1649.635 756.821,1583.618 z" fill="#122131"/>
    </g>
    <g>
      <path d="M722.769,1373.194 C734.535,1412.431 756.192,1428.407 767.276,1453.016 C748.689,1473.691 706.228,1476.981 682.354,1457.48 C686.959,1434.516 711.855,1412.196 722.769,1373.194 z" fill="#122131"/>
      <path d="M721.935,1411.846 C738.498,1464.635 768.983,1486.13 784.585,1519.238 C758.421,1547.055 698.651,1551.48 665.046,1525.244 C671.527,1494.349 706.573,1464.319 721.935,1411.846 z" fill="#122131"/>
      <path d="M721.746,1470.453 C739.395,1529.309 771.881,1553.274 788.507,1590.186 C760.626,1621.2 696.934,1626.134 661.124,1596.882 C668.03,1562.437 705.375,1528.957 721.746,1470.453 z" fill="#122131"/>
      <path d="M720.979,1526.019 C743.041,1599.921 783.648,1630.013 804.431,1676.362 C769.579,1715.305 689.964,1721.5 645.2,1684.77 C653.833,1641.519 700.515,1599.479 720.979,1526.019 z" fill="#122131"/>
    </g>
    <g>
      <path d="M864.168,1409.837 C875.935,1449.074 897.591,1465.051 908.676,1489.659 C890.088,1510.334 847.627,1513.624 823.753,1494.123 C828.358,1471.159 853.255,1448.839 864.168,1409.837 z" fill="#122131"/>
      <path d="M863.334,1448.489 C879.897,1501.278 910.381,1522.773 925.984,1555.881 C899.82,1583.698 840.05,1588.124 806.445,1561.887 C812.926,1530.992 847.972,1500.962 863.334,1448.489 z" fill="#122131"/>
      <path d="M863.145,1507.097 C880.795,1565.952 913.28,1589.917 929.906,1626.829 C902.025,1657.843 838.334,1662.777 802.523,1633.526 C809.429,1599.081 846.775,1565.6 863.145,1507.097 z" fill="#122131"/>
      <path d="M862.378,1562.662 C884.44,1636.564 925.047,1666.656 945.83,1713.005 C910.978,1751.948 831.363,1758.143 786.599,1721.413 C795.232,1678.162 841.914,1636.122 862.378,1562.662 z" fill="#122131"/>
    </g>
    <g>
      <path d="M1007.679,1409.183 C1017.061,1444.904 1034.329,1459.449 1043.167,1481.852 C1028.346,1500.676 994.49,1503.67 975.454,1485.917 C979.125,1465.011 998.977,1444.69 1007.679,1409.183 z" fill="#122131"/>
      <path d="M1007.014,1444.372 C1020.22,1492.431 1044.527,1512 1056.967,1542.141 C1036.105,1567.466 988.449,1571.495 961.654,1547.609 C966.821,1519.482 994.765,1492.143 1007.014,1444.372 z" fill="#122131"/>
      <path d="M1006.863,1497.728 C1020.936,1551.31 1046.838,1573.128 1060.095,1606.733 C1037.864,1634.968 987.08,1639.459 958.526,1612.829 C964.033,1581.47 993.81,1550.989 1006.863,1497.728 z" fill="#122131"/>
      <path d="M1006.251,1548.314 C1023.842,1615.595 1056.22,1642.991 1072.791,1685.187 C1045.002,1720.64 981.522,1726.281 945.83,1692.842 C952.713,1653.466 989.935,1615.192 1006.251,1548.314 z" fill="#122131"/>
    </g>
    <g>
      <path d="M305.56,1533.549 C317.41,1564.777 339.222,1577.492 350.385,1597.077 C331.665,1613.533 288.9,1616.15 264.856,1600.63 C269.493,1582.354 294.568,1564.59 305.56,1533.549 z" fill="#122131"/>
      <path d="M304.719,1564.311 C321.401,1606.325 352.104,1623.432 367.818,1649.782 C341.466,1671.921 281.269,1675.443 247.423,1654.562 C253.951,1629.974 289.247,1606.073 304.719,1564.311 z" fill="#122131"/>
      <path d="M304.529,1610.956 C322.305,1657.797 355.022,1676.871 371.768,1706.248 C343.687,1730.931 279.54,1734.858 243.473,1711.577 C250.429,1684.163 288.041,1657.517 304.529,1610.956 z" fill="#122131"/>
      <path d="M303.756,1655.179 C325.976,1713.996 366.874,1737.945 387.806,1774.833 C352.704,1805.827 272.52,1810.757 227.436,1781.525 C236.13,1747.102 283.146,1713.644 303.756,1655.179 z" fill="#122131"/>
    </g>
    <g>
      <path d="M414.507,1427.311 C428.501,1467.002 454.258,1483.164 467.441,1508.057 C445.334,1528.972 394.834,1532.299 366.44,1512.572 C371.916,1489.343 401.527,1466.765 414.507,1427.311 z" fill="#122131"/>
      <path d="M413.515,1466.411 C433.213,1519.811 469.47,1541.555 488.026,1575.045 C456.908,1603.184 385.822,1607.661 345.854,1581.121 C353.562,1549.868 395.243,1519.491 413.515,1466.411 z" fill="#122131"/>
      <path d="M413.29,1525.696 C434.281,1585.233 472.917,1609.475 492.691,1646.815 C459.531,1678.187 383.781,1683.178 341.19,1653.588 C349.404,1618.745 393.82,1584.877 413.29,1525.696 z" fill="#122131"/>
      <path d="M412.377,1581.905 C438.616,1656.662 486.912,1687.102 511.63,1733.988 C470.18,1773.381 375.49,1779.648 322.251,1742.493 C332.519,1698.741 388.039,1656.215 412.377,1581.905 z" fill="#122131"/>
    </g>
    <g>
      <path d="M471.517,1531.623 C480.521,1563.3 497.094,1576.199 505.576,1596.066 C491.352,1612.759 458.859,1615.414 440.589,1599.67 C444.113,1581.131 463.165,1563.111 471.517,1531.623 z" fill="#122131"/>
      <path d="M470.878,1562.828 C483.553,1605.447 506.881,1622.801 518.821,1649.53 C498.799,1671.988 453.061,1675.561 427.344,1654.379 C432.304,1629.436 459.122,1605.192 470.878,1562.828 z" fill="#122131"/>
      <path d="M470.734,1610.145 C484.24,1657.661 509.099,1677.009 521.822,1706.81 C500.486,1731.849 451.747,1735.832 424.343,1712.216 C429.628,1684.407 458.206,1657.377 470.734,1610.145 z" fill="#122131"/>
      <path d="M470.146,1655.005 C487.029,1714.669 518.104,1738.964 534.008,1776.383 C507.338,1807.823 446.412,1812.825 412.157,1783.171 C418.763,1748.253 454.487,1714.312 470.146,1655.005 z" fill="#122131"/>
    </g>
    <g>
      <path d="M-271.593,1659.609 C-263.892,1682.876 -249.718,1692.35 -242.464,1706.943 C-254.629,1719.204 -282.419,1721.154 -298.043,1709.59 C-295.03,1695.973 -278.736,1682.737 -271.593,1659.609 z" fill="#122131"/>
      <path d="M-272.139,1682.529 C-261.299,1713.833 -241.348,1726.58 -231.136,1746.212 C-248.26,1762.708 -287.378,1765.332 -309.371,1749.774 C-305.13,1731.453 -282.193,1713.646 -272.139,1682.529 z" fill="#122131"/>
      <path d="M-272.263,1717.284 C-260.712,1752.185 -239.451,1766.396 -228.569,1788.285 C-246.817,1806.675 -288.501,1809.601 -311.938,1792.255 C-307.418,1771.829 -282.977,1751.976 -272.263,1717.284 z" fill="#122131"/>
      <path d="M-272.765,1750.233 C-258.326,1794.057 -231.75,1811.901 -218.148,1839.386 C-240.957,1862.479 -293.063,1866.153 -322.36,1844.372 C-316.71,1818.724 -286.158,1793.795 -272.765,1750.233 z" fill="#122131"/>
    </g>
    <g>
      <path d="M-128.095,1601.719 C-120.394,1624.987 -106.221,1634.461 -98.966,1649.053 C-111.131,1661.314 -138.921,1663.264 -154.545,1651.7 C-151.532,1638.083 -135.238,1624.847 -128.095,1601.719 z" fill="#122131"/>
      <path d="M-128.641,1624.64 C-117.801,1655.943 -97.85,1668.69 -87.638,1688.323 C-104.762,1704.818 -143.88,1707.442 -165.873,1691.884 C-161.632,1673.564 -138.695,1655.756 -128.641,1624.64 z" fill="#122131"/>
      <path d="M-128.765,1659.394 C-117.214,1694.295 -95.953,1708.506 -85.071,1730.395 C-103.319,1748.786 -145.003,1751.712 -168.44,1734.365 C-163.92,1713.94 -139.479,1694.086 -128.765,1659.394 z" fill="#122131"/>
      <path d="M-129.267,1692.344 C-114.828,1736.167 -88.252,1754.012 -74.65,1781.496 C-97.459,1804.589 -149.565,1808.263 -178.862,1786.482 C-173.212,1760.835 -142.66,1735.905 -129.267,1692.344 z" fill="#122131"/>
    </g>
    <g>
      <path d="M-14.152,1644.446 C-6.451,1667.714 7.723,1677.188 14.977,1691.78 C2.812,1704.041 -24.977,1705.992 -40.602,1694.427 C-37.589,1680.81 -21.294,1667.574 -14.152,1644.446 z" fill="#122131"/>
      <path d="M-14.697,1667.367 C-3.858,1698.671 16.094,1711.417 26.305,1731.05 C9.182,1747.545 -29.936,1750.17 -51.93,1734.611 C-47.688,1716.291 -24.752,1698.483 -14.697,1667.367 z" fill="#122131"/>
      <path d="M-14.821,1702.121 C-3.27,1737.022 17.991,1751.233 28.872,1773.122 C10.625,1791.513 -31.06,1794.439 -54.497,1777.093 C-49.977,1756.667 -25.535,1736.813 -14.821,1702.121 z" fill="#122131"/>
      <path d="M-15.323,1735.071 C-0.884,1778.895 25.692,1796.739 39.294,1824.224 C16.485,1847.316 -35.622,1850.99 -64.918,1829.209 C-59.268,1803.562 -28.716,1778.632 -15.323,1735.071 z" fill="#122131"/>
    </g>
    <g>
      <path d="M44.471,1611.621 C52.171,1634.888 66.345,1644.362 73.6,1658.955 C61.435,1671.215 33.645,1673.166 18.02,1661.602 C21.034,1647.985 37.328,1634.749 44.471,1611.621 z" fill="#122131"/>
      <path d="M43.925,1634.541 C54.765,1665.845 74.716,1678.591 84.927,1698.224 C67.804,1714.719 28.686,1717.344 6.692,1701.786 C10.934,1683.465 33.87,1665.657 43.925,1634.541 z" fill="#122131"/>
      <path d="M43.801,1669.295 C55.352,1704.196 76.613,1718.407 87.494,1740.296 C69.247,1758.687 27.562,1761.613 4.125,1744.267 C8.645,1723.841 33.087,1703.987 43.801,1669.295 z" fill="#122131"/>
      <path d="M43.299,1702.245 C57.738,1746.069 84.314,1763.913 97.916,1791.398 C75.107,1814.491 23,1818.165 -6.296,1796.384 C-0.646,1770.736 29.906,1745.807 43.299,1702.245 z" fill="#122131"/>
    </g>
    <g>
      <path d="M94.574,1590.733 C102.96,1618.879 118.394,1630.339 126.293,1647.991 C113.047,1662.822 82.786,1665.182 65.772,1651.193 C69.054,1634.721 86.797,1618.71 94.574,1590.733 z" fill="#122131"/>
      <path d="M93.98,1618.459 C105.784,1656.326 127.509,1671.745 138.628,1695.494 C119.982,1715.447 77.387,1718.622 53.437,1699.802 C58.056,1677.64 83.032,1656.099 93.98,1618.459 z" fill="#122131"/>
      <path d="M93.845,1660.5 C106.423,1702.718 129.574,1719.909 141.423,1746.387 C121.554,1768.633 76.163,1772.173 50.642,1751.19 C55.564,1726.482 82.179,1702.465 93.845,1660.5 z" fill="#122131"/>
      <path d="M93.298,1700.358 C109.021,1753.369 137.96,1774.955 152.772,1808.202 C127.934,1836.136 71.195,1840.581 39.294,1814.233 C45.446,1783.208 78.715,1753.052 93.298,1700.358 z" fill="#122131"/>
    </g>
    <g>
      <path d="M153.417,1590.733 C164.082,1618.879 183.712,1630.339 193.759,1647.991 C176.911,1662.822 138.424,1665.182 116.785,1651.193 C120.958,1634.721 143.525,1618.71 153.417,1590.733 z" fill="#122131"/>
      <path d="M152.661,1618.459 C167.674,1656.326 195.305,1671.745 209.447,1695.494 C185.732,1715.448 131.557,1718.622 101.097,1699.802 C106.971,1677.64 138.737,1656.099 152.661,1618.459 z" fill="#122131"/>
      <path d="M152.49,1660.5 C168.487,1702.718 197.932,1719.909 213.002,1746.387 C187.731,1768.633 130.001,1772.173 97.542,1751.19 C103.802,1726.482 137.652,1702.465 152.49,1660.5 z" fill="#122131"/>
      <path d="M151.794,1700.358 C171.791,1753.37 208.598,1774.955 227.436,1808.202 C195.846,1836.137 123.682,1840.581 83.108,1814.234 C90.933,1783.208 133.246,1753.052 151.794,1700.358 z" fill="#122131"/>
    </g>
    <g>
      <path d="M197.644,1546.747 C208.308,1574.892 227.938,1586.353 237.985,1604.005 C221.137,1618.836 182.651,1621.195 161.011,1607.207 C165.185,1590.735 187.751,1574.724 197.644,1546.747 z" fill="#122131"/>
      <path d="M196.887,1574.473 C211.9,1612.339 239.531,1627.758 253.674,1651.507 C229.958,1671.461 175.783,1674.635 145.323,1655.815 C151.197,1633.654 182.963,1612.113 196.887,1574.473 z" fill="#122131"/>
      <path d="M196.716,1616.513 C212.714,1658.732 242.159,1675.922 257.229,1702.4 C231.957,1724.647 174.227,1728.186 141.768,1707.203 C148.028,1682.495 181.878,1658.479 196.716,1616.513 z" fill="#122131"/>
      <path d="M196.021,1656.371 C216.018,1709.383 252.824,1730.969 271.662,1764.216 C240.072,1792.15 167.909,1796.594 127.335,1770.247 C135.16,1739.222 177.472,1709.066 196.021,1656.371 z" fill="#122131"/>
    </g>
    <g>
      <path d="M353.139,1431.484 C361.643,1457.107 377.294,1467.541 385.305,1483.611 C371.872,1497.114 341.184,1499.262 323.93,1486.526 C327.258,1471.53 345.251,1456.954 353.139,1431.484 z" fill="#122131"/>
      <path d="M352.536,1456.725 C364.506,1491.199 386.538,1505.237 397.814,1526.857 C378.905,1545.023 335.708,1547.913 311.421,1530.78 C316.105,1510.604 341.433,1490.993 352.536,1456.725 z" fill="#122131"/>
      <path d="M352.399,1494.999 C365.155,1533.435 388.633,1549.085 400.649,1573.19 C380.499,1593.444 334.468,1596.666 308.587,1577.563 C313.578,1555.069 340.568,1533.204 352.399,1494.999 z" fill="#122131"/>
      <path d="M351.845,1531.286 C367.789,1579.548 397.137,1599.199 412.157,1629.467 C386.969,1654.899 329.43,1658.945 297.079,1634.958 C303.318,1606.713 337.056,1579.259 351.845,1531.286 z" fill="#122131"/>
    </g>
    <g>
      <path d="M-228.901,1611.621 C-219.265,1639.837 -201.53,1651.326 -192.453,1669.021 C-207.674,1683.89 -242.447,1686.255 -261.998,1672.232 C-258.227,1655.718 -237.839,1639.668 -228.901,1611.621 z" fill="#122131"/>
      <path d="M-229.584,1639.416 C-216.021,1677.377 -191.056,1692.834 -178.278,1716.642 C-199.705,1736.646 -248.652,1739.828 -276.172,1720.961 C-270.865,1698.745 -242.165,1677.15 -229.584,1639.416 z" fill="#122131"/>
      <path d="M-229.739,1681.561 C-215.285,1723.885 -188.682,1741.118 -175.067,1767.662 C-197.899,1789.964 -250.058,1793.512 -279.384,1772.477 C-273.728,1747.708 -243.145,1723.631 -229.739,1681.561 z" fill="#122131"/>
      <path d="M-230.367,1721.519 C-212.3,1774.662 -179.046,1796.302 -162.026,1829.632 C-190.567,1857.636 -255.766,1862.091 -292.424,1835.678 C-285.354,1804.576 -247.125,1774.344 -230.367,1721.519 z" fill="#122131"/>
    </g>
    <g>
      <path d="M-503.307,1734.507 C-497.045,1755.53 -485.52,1764.09 -479.622,1777.275 C-489.513,1788.353 -512.109,1790.115 -524.814,1779.667 C-522.364,1767.363 -509.114,1755.404 -503.307,1734.507 z" fill="#122131"/>
      <path d="M-503.751,1755.217 C-494.937,1783.501 -478.714,1795.018 -470.411,1812.757 C-484.334,1827.661 -516.141,1830.032 -534.024,1815.975 C-530.576,1799.421 -511.926,1783.332 -503.751,1755.217 z" fill="#122131"/>
      <path d="M-503.851,1786.618 C-494.459,1818.153 -477.171,1830.993 -468.324,1850.771 C-483.161,1867.388 -517.055,1870.031 -536.112,1854.359 C-532.436,1835.903 -512.563,1817.964 -503.851,1786.618 z" fill="#122131"/>
      <path d="M-504.259,1816.39 C-492.519,1855.987 -470.91,1872.11 -459.85,1896.943 C-478.396,1917.809 -520.764,1921.128 -544.586,1901.448 C-539.992,1878.275 -515.149,1855.75 -504.259,1816.39 z" fill="#122131"/>
    </g>
    <g>
      <path d="M-461.554,1673.216 C-455.293,1694.239 -443.768,1702.799 -437.869,1715.984 C-447.761,1727.062 -470.357,1728.824 -483.061,1718.376 C-480.611,1706.072 -467.362,1694.113 -461.554,1673.216 z" fill="#122131"/>
      <path d="M-461.998,1693.925 C-453.184,1722.21 -436.961,1733.727 -428.658,1751.466 C-442.582,1766.37 -474.389,1768.741 -492.272,1754.684 C-488.823,1738.13 -470.173,1722.04 -461.998,1693.925 z" fill="#122131"/>
      <path d="M-462.099,1725.327 C-452.706,1756.862 -435.419,1769.702 -426.571,1789.479 C-441.408,1806.097 -475.302,1808.74 -494.359,1793.067 C-490.684,1774.612 -470.81,1756.673 -462.099,1725.327 z" fill="#122131"/>
      <path d="M-462.507,1755.099 C-450.767,1794.696 -429.157,1810.819 -418.097,1835.652 C-436.644,1856.518 -479.012,1859.837 -502.833,1840.157 C-498.239,1816.983 -473.397,1794.458 -462.507,1755.099 z" fill="#122131"/>
    </g>
    <g>
      <path d="M-418.571,1661.291 C-412.309,1682.314 -400.784,1690.875 -394.886,1704.06 C-404.777,1715.138 -427.373,1716.9 -440.078,1706.451 C-437.628,1694.148 -424.378,1682.188 -418.571,1661.291 z" fill="#122131"/>
      <path d="M-419.015,1682.001 C-410.201,1710.285 -393.978,1721.802 -385.675,1739.541 C-399.598,1754.446 -431.405,1756.817 -449.289,1742.759 C-445.84,1726.206 -427.19,1710.116 -419.015,1682.001 z" fill="#122131"/>
      <path d="M-419.115,1713.403 C-409.723,1744.938 -392.435,1757.778 -383.588,1777.555 C-398.425,1794.172 -432.319,1796.816 -451.376,1781.143 C-447.7,1762.687 -427.827,1744.749 -419.115,1713.403 z" fill="#122131"/>
      <path d="M-419.523,1743.174 C-407.783,1782.771 -386.174,1798.894 -375.114,1823.728 C-393.66,1844.593 -436.028,1847.913 -459.85,1828.233 C-455.256,1805.059 -430.413,1782.534 -419.523,1743.174 z" fill="#122131"/>
    </g>
    <g>
      <path d="M-391.466,1669.219 C-385.205,1690.242 -373.68,1698.802 -367.781,1711.987 C-377.673,1723.065 -400.269,1724.827 -412.973,1714.379 C-410.523,1702.075 -397.274,1690.116 -391.466,1669.219 z" fill="#122131"/>
      <path d="M-391.91,1689.928 C-383.096,1718.213 -366.873,1729.73 -358.57,1747.469 C-372.494,1762.373 -404.301,1764.744 -422.184,1750.687 C-418.735,1734.133 -400.085,1718.043 -391.91,1689.928 z" fill="#122131"/>
      <path d="M-392.011,1721.33 C-382.618,1752.865 -365.331,1765.705 -356.483,1785.482 C-371.32,1802.099 -405.214,1804.743 -424.271,1789.07 C-420.596,1770.615 -400.722,1752.676 -392.011,1721.33 z" fill="#122131"/>
      <path d="M-392.419,1751.102 C-380.679,1790.698 -359.069,1806.822 -348.009,1831.655 C-366.556,1852.521 -408.924,1855.84 -432.745,1836.16 C-428.151,1812.986 -403.309,1790.461 -392.419,1751.102 z" fill="#122131"/>
    </g>
    <g>
      <path d="M-374.664,1633.705 C-367.128,1656.833 -353.257,1666.25 -346.157,1680.755 C-358.062,1692.942 -385.259,1694.881 -400.55,1683.386 C-397.601,1669.85 -381.654,1656.694 -374.664,1633.705 z" fill="#122131"/>
      <path d="M-375.199,1656.488 C-364.59,1687.604 -345.065,1700.274 -335.071,1719.788 C-351.829,1736.184 -390.112,1738.793 -411.636,1723.328 C-407.485,1705.118 -385.038,1687.417 -375.199,1656.488 z" fill="#122131"/>
      <path d="M-375.32,1691.033 C-364.015,1725.725 -343.208,1739.85 -332.559,1761.608 C-350.417,1779.888 -391.212,1782.797 -414.148,1765.555 C-409.725,1745.252 -385.805,1725.517 -375.32,1691.033 z" fill="#122131"/>
      <path d="M-375.811,1723.785 C-361.68,1767.346 -335.672,1785.083 -322.36,1812.403 C-344.682,1835.357 -395.676,1839.009 -424.347,1817.359 C-418.818,1791.865 -388.918,1767.085 -375.811,1723.785 z" fill="#122131"/>
    </g>
    <g>
      <path d="M-317.945,1602.357 C-309.273,1627.788 -293.312,1638.143 -285.143,1654.092 C-298.842,1667.493 -330.136,1669.625 -347.731,1656.986 C-344.337,1642.102 -325.988,1627.636 -317.945,1602.357 z" fill="#122131"/>
      <path d="M-318.56,1627.409 C-306.353,1661.624 -283.885,1675.555 -272.386,1697.013 C-291.669,1715.042 -335.72,1717.911 -360.487,1700.906 C-355.711,1680.882 -329.882,1661.419 -318.56,1627.409 z" fill="#122131"/>
      <path d="M-318.699,1665.394 C-305.691,1703.541 -281.749,1719.073 -269.496,1742.997 C-290.044,1763.098 -336.985,1766.296 -363.378,1747.337 C-358.288,1725.012 -330.764,1703.312 -318.699,1665.394 z" fill="#122131"/>
      <path d="M-319.265,1701.408 C-303.005,1749.306 -273.077,1768.81 -257.76,1798.85 C-283.446,1824.09 -342.123,1828.106 -375.114,1804.3 C-368.751,1776.267 -334.346,1749.02 -319.265,1701.408 z" fill="#122131"/>
    </g>
    <g>
      <path d="M-167.237,1623.545 C-158.565,1648.976 -142.604,1659.331 -134.435,1675.28 C-148.134,1688.681 -179.428,1690.813 -197.023,1678.174 C-193.63,1663.29 -175.281,1648.824 -167.237,1623.545 z" fill="#122131"/>
      <path d="M-167.852,1648.597 C-155.645,1682.811 -133.178,1696.743 -121.679,1718.201 C-140.962,1736.23 -185.012,1739.099 -209.779,1722.094 C-205.003,1702.07 -179.174,1682.607 -167.852,1648.597 z" fill="#122131"/>
      <path d="M-167.991,1686.583 C-154.983,1724.729 -131.042,1740.261 -118.788,1764.185 C-139.336,1784.286 -186.277,1787.484 -212.67,1768.525 C-207.58,1746.2 -180.056,1724.5 -167.991,1686.583 z" fill="#122131"/>
      <path d="M-168.557,1722.596 C-152.297,1770.495 -122.369,1789.998 -107.052,1820.038 C-132.738,1845.278 -191.415,1849.294 -224.406,1825.488 C-218.043,1797.455 -183.638,1770.208 -168.557,1722.596 z" fill="#122131"/>
    </g>
    <g>
      <path d="M-61.469,1644.446 C-54.554,1667.599 -41.828,1677.026 -35.314,1691.546 C-46.237,1703.746 -71.189,1705.687 -85.218,1694.18 C-82.513,1680.63 -67.882,1667.46 -61.469,1644.446 z" fill="#122131"/>
      <path d="M-61.959,1667.254 C-52.226,1698.402 -34.312,1711.086 -25.143,1730.621 C-40.518,1747.035 -75.642,1749.646 -95.39,1734.165 C-91.581,1715.935 -70.987,1698.216 -61.959,1667.254 z" fill="#122131"/>
      <path d="M-62.07,1701.836 C-51.698,1736.564 -32.609,1750.705 -22.838,1772.485 C-39.222,1790.785 -76.65,1793.696 -97.694,1776.436 C-93.636,1756.111 -71.69,1736.356 -62.07,1701.836 z" fill="#122131"/>
      <path d="M-62.521,1734.622 C-49.556,1778.229 -25.694,1795.985 -13.481,1823.333 C-33.961,1846.312 -80.747,1849.968 -107.052,1828.295 C-101.979,1802.774 -74.546,1777.968 -62.521,1734.622 z" fill="#122131"/>
    </g>
  </g>
  <g id="Shadows" class="shadow">
    <path d="M154.229,1111.221 L152.772,1321.047 L626.241,1385.381 L154.229,1111.221 z" fill="#000000" />
    <path d="M749.728,1126.609 C749.728,1126.609 672.2,1247.38 672.2,1247.38 C672.2,1247.38 831.784,1169.546 831.784,1169.546 L749.728,1126.609 z" fill="#000000" />
    <path d="M1132.113,1042.205 C1132.113,1042.205 1058.182,1195.899 1058.182,1195.899 C1058.182,1195.899 1254.07,1078.902 1254.07,1078.902 L1132.113,1042.205 z" fill="#000000" />
    <path d="M1591.106,931.444 C1591.106,933.972 1523.682,1092.07 1523.682,1092.07 L1760.139,973.662 L1591.106,931.444 z" fill="#000000" />
    <path d="M2021.206,891.157 L2000,1012.704 L2110.92,936.721 L2021.206,891.157 z" fill="#000000" />
    <path d="M67.044,1155.19 L-432.745,1427.311 L-405.559,891.157 L67.044,1155.19 z" fill="#000000" />
  </g>
  <g id="House_Shadows" class="darkest">
    <path d="M750.764,2148.699 C1002.988,2181.806 831.399,2250.592 601.158,2241.949 C379.223,2233.618 478.771,2229.774 322.251,2229.774 C123.359,2229.774 198.433,2167.996 371.91,2148.088 C553.223,2127.281 750.764,2148.699 750.764,2148.699 z" fill="#122131"/>
    <path d="M-43.396,2241.949 L227.436,2190.208 L371.91,2229.774 L-43.396,2241.949 z" fill="#122131"/>
    <path d="M322.251,2229.774 L565.421,2201.969 L322.251,2190.208 L152.772,2190.208 L322.251,2229.774 z" fill="#122131"/>
  </g>
  <g id="House_dark" class="darkest">
    <path d="M322.251,2079.549 C322.251,2075.704 454.266,1950.341 454.266,1950.341 L576.28,2078.011 L577.472,2201.969 L322.251,2200.708 L322.251,2079.549 z" fill="#122131"/>
  </g>
  <g id="House_light" class="primary">
    <path d="M454.266,1950.341 L626.241,1950.341 L749.728,2077.804 L749.728,2201.969 L577.472,2201.969 L576.28,2078.011 L454.266,1950.341 z" fill="#192D41" id="Shape"/>
  </g>
  <g id="House_windows" class="primary">
    <path d="M371.91,2097.628 L427.728,2097.628 L427.728,2167.996 L371.91,2167.996 z" fill="#192D41" id="Shape"/>
    <path d="M468.139,2097.628 L523.957,2097.628 L523.957,2167.996 L468.139,2167.996 z" fill="#192D41"/>
  </g>
</svg>