<?xml version="1.0" encoding="UTF-8"?>
<!DOCTYPE svg PUBLIC "-//W3C//DTD SVG 1.1//EN" "http://www.w3.org/Graphics/SVG/1.1/DTD/svg11.dtd">
<svg 
	viewBox="0, 0, 2000, 3000"
	width="100%" height="100%"
	preserveAspectRatio="xMidYMid slice"
  version="1.1"
  xmlns="http://www.w3.org/2000/svg"
  xmlns:xlink="http://www.w3.org/1999/xlink"
>
  <g id="Background">
    <rect x="0" y="0" width="2000" height="3000" fill="#FFFFFF"/>
  </g>
  <g id="Sky" class="lightest">
    <path d="M-515.524,2392.075 L2342.384,2392.075 L2342.384,-142.619 L-515.524,-142.619 z" fill="#87A0BB"/>
  </g>
  <g id="Water" class="lighter">
    <path d="M-515.524,2359.914 L2342.384,2359.914 L2342.384,3046.857 L-515.524,3046.857 z" fill="#294867"/>
  </g>
  <g id="Hills_1" class="lighter">
    <path d="M1959.016,1187.139 L1458.674,1317.559 L1286.743,1271.466 L1110.541,1358.863 L918.832,1282.039 L591.095,1212.967 C591.095,1212.967 627.041,1229.178 623.517,1235.521 C619.993,1241.865 1076.005,2162.346 1076.005,2162.346 L1654.154,1686.599 L1959.016,1187.139 z" fill="#6A8EB4"/>
  </g>
  <g id="_Hills_2" class="primary">
    <path d="M1715.909,1270.463 L1468.723,1455.565 L954.865,2209.162 L1747.41,2211.533 L1979.796,2204.419 L2136.862,1078.058 L1780.292,1186.534 L1715.909,1270.463 z" fill="#4D739B"/>
  </g>
  <g id="_Hills_2_shadow" class="highlight">
    <path d="M1715.909,1270.463 L1468.723,1455.565 L954.865,2209.162 L1747.41,2211.533 L1979.796,2204.419 L2136.862,1078.058 L1780.292,1186.534 L1715.909,1270.463 z" fill="#4D739B"/>
  </g>
  <g id="_Hills_2_shadow" class="highlight">
    <path d="M1715.909,1270.463 L1468.723,1455.565 L954.865,2209.162 L1747.41,2211.533 L1979.796,2204.419 L2136.862,1078.058 L1780.292,1186.534 L1715.909,1270.463 z" fill="#4D739B"/>
  </g>
  <g id="Hills_3" class="darker">
    <path d="M1275.534,2384.077 C1268.237,2389.915 1005.572,1489.558 1005.572,1489.558 L482.408,512.689 L261.017,151.651 L-634.766,-233.229 L-648.849,2384.105 L1275.534,2384.077 z" fill="#2B5580"/>
  </g>
  <g id="Reflections" class="shadow">
    <path d="M2342.384,3809.086 L2236.193,3797.121 L1979.796,3671.911 L1424.742,2848.895 C1424.742,2848.895 1194.181,2746.748 1183.966,2733.615 C1173.751,2720.481 954.864,2492.838 954.864,2492.838 L972.595,2383.007 L2342.384,2313.351 L2342.384,3809.086 z" fill="#000000" fill-opacity="0.107"/>
    <path d="M747.325,2378.623 L761.838,2500.002 L726.816,2529.187 L334.278,3766.629 L369.3,3951.953 L178.028,4163.677 L-33.452,4356.165 L-409.938,4414.276 L-409.938,2359.914 L747.325,2378.623 z" fill="#000000" fill-opacity="0.107"/>
  </g>
  <g id="Hills_front" class="darkest">
    <path d="M2342.384,958.026 L2236.193,969.991 L1979.796,1095.202 L1424.743,1918.217 C1424.743,1918.217 1194.181,2020.365 1183.967,2033.498 C1173.752,2046.631 954.865,2274.274 954.865,2274.274 L972.595,2384.106 L2342.384,2453.762 L2342.384,958.026 z" fill="#122131"/>
    <path d="M747.325,2435.053 L761.838,2313.674 L726.816,2284.489 L334.278,1047.047 L369.3,861.723 L178.028,649.999 L-33.452,457.511 L-409.938,399.4 L-409.938,2453.762 L747.325,2435.053 z" fill="#122131"/>
  </g>
</svg>
