<svg 
	viewBox="0, 0, 2000, 3000"
	width="100%" height="100%"
	preserveAspectRatio="xMidYMid slice"
  version="1.1"
  xmlns="http://www.w3.org/2000/svg"
  xmlns:xlink="http://www.w3.org/1999/xlink"
  >
	  <g id="Background" transform="translate(8.000000, 0.000000)" fill-rule="nonzero" fill="#B2DFD5">
	      <rect id="Rectangle-path" x="0" y="0" width="2000" height="3000"></rect>
	  </g>
	  <g id="Sky" transform="translate(1.000000, 0.000000)" fill-rule="nonzero" fill="#B2DFD5" class="lightest">
	      <polygon id="Shape" points="0.046 0 2007 0 2007 2046 0.046 2046" class="lightestFill"></polygon>
	  </g>
	  <g id="duneface1" transform="translate(0.000000, 1443.000000)" fill-rule="nonzero" fill="#7DBBAD" class="primary">
	      <path d="M1.045,14.268 C101.951,61.429 274.005,142.81 658,0 C643.054,188.797 124.118,361.811 1.045,206.255 C0.615,159.21 -0.562,13.517 1.045,14.268 Z" id="Shape"></path>
	  </g>
	  <g id="duneshadow" transform="translate(1.000000, 1242.000000)" fill-rule="nonzero" fill="#028063" class="darker">
	      <path d="M1761.539,13.598 C1664.771,25.965 1560.256,66.967 1490.511,128.702 C1576.335,160.227 1799.033,127.264 1761.539,13.598 Z" id="Shape"></path>
	      <path d="M1003.826,0.533 C720.045,3.693 360.623,411.831 0.046,367.505 C0.898,445.076 0.046,522.647 0.046,522.647 L7,1528 L524.37,1410 C524.37,1410 1106.906,1394.716 1187.165,919.708 C1289.181,315.93 539.179,48.504 1047.546,0.533 C1016.045,1.193 1003.826,0.533 1003.826,0.533 Z" id="Shape"></path>
	  </g>
	  <g id="duneface" transform="translate(8.000000, 1243.000000)" fill="#7DBBAD" class="primary">
	      <path d="M1740.896,11.955 C1865.777,-10.708 2000,60.145 2000,60.145 L2000,1757 L1,1417 C1,1417 1021,1386 1155.777,986.138 C1290.554,586.276 813.189,343.115 811.414,155.021 C809.64,-33.073 1084.111,-9.82 1206.55,23.895 C1328.988,57.609 1437.463,106.422 1520.863,106.422 C1616.545,106.422 1731.229,58.819 1740.896,11.955 Z" id="Shape" fill-rule="nonzero"></path>
	      <rect id="Rectangle" x="0" y="1417" width="1998" height="340" class="primaryFill"></rect>
	  </g>
</svg>
