<svg 
	viewBox="0, 0, 2000, 3000"
	width="100%" height="100%"
	preserveAspectRatio="xMidYMid slice"
  version="1.1"
  xmlns="http://www.w3.org/2000/svg"
  xmlns:xlink="http://www.w3.org/1999/xlink"
  >
  <g id="Background">
    <rect x="0" y="0" width="2000" height="3000" fill="#FFFFFF"/>
  </g>
  <g id="dune" class="primary">
    <g>
      <path d="M1000.5,0.5 L0.5,0.5 L0.5,3000.5 L1000.5,3000.5 z" fill="#FFFFFF"/>
      <path d="M1000.5,0.5 L0.5,0.5 L0.5,3000.5 L1000.5,3000.5 z" fill-opacity="0" stroke="#000000" stroke-width="1"/>
    </g>
    <g>
      <path d="M1000.5,0.5 L0.5,0.5 L0.499,1500.5 L1000.499,1500.5 z" fill="#FFFFFF"/>
      <path d="M1000.5,0.5 L0.5,0.5 L0.499,1500.5 L1000.499,1500.5 z" fill-opacity="0" stroke="#000000" stroke-width="1"/>
    </g>
  </g>
  <g id="Sky" class="lightest">
    <path d="M-6.954,0 L2000,0 L2000,1842.928 L-6.954,1842.928 z" fill="#B2DFD5"/>
  </g>
  <g id="duneface1" class="primary">
    <path d="M-6.955,1805.268 C93.951,1852.429 355.252,1878.037 739.247,1735.227 C724.301,1924.024 116.118,2152.811 -6.955,1997.255 C-7.385,1950.21 -8.562,1804.517 -6.955,1805.268 z" fill="#7DBBAD"/>
  </g>
  <g id="duneshadow" class="darker">
    <path d="M1754.539,1603.598 C1657.771,1615.965 1553.256,1656.967 1483.511,1718.702 C1569.335,1750.227 1792.033,1717.264 1754.539,1603.598 z" fill="#028063"/>
    <path d="M996.826,1590.533 C713.045,1593.693 353.623,2001.831 -6.954,1957.505 C-6.102,2035.076 -6.954,2112.647 -6.954,2112.647 L-0,3000 L517.37,3000 C517.37,3000 1099.906,2984.716 1180.165,2509.708 C1282.181,1905.93 532.179,1638.504 1040.546,1590.533 C1009.045,1591.193 996.826,1590.533 996.826,1590.533 z" fill="#028063"/>
  </g>
  
  <g id="duneshadow" class="primary">
    <path d="M1740.896,1602.955 C1865.777,1580.292 2000,1651.145 2000,1651.145 C2000,1651.145 2000,3000 2000,3000 C2000,3000 292.13,3000 292.13,3000 C292.13,3000 1026.564,2924.806 1155.777,2577.138 C1280.947,2240.347 813.189,1934.115 811.414,1746.021 C809.64,1557.927 1084.111,1581.18 1206.55,1614.895 C1328.988,1648.609 1437.463,1697.422 1520.863,1697.422 C1616.545,1697.422 1731.229,1649.819 1740.896,1602.955 z" fill="#7DBBAD"/>
  </g>
</svg>
