<svg version="1.1"
	xmlns="http://www.w3.org/2000/svg"
	xmlns:xlink="http://www.w3.org/1999/xlink"
	x="0"
	y="0"
	viewBox="0, 0, 2000, 3000"
	width="100%"
	height="100%"
	preserveAspectRatio="xMidYMid slice"
>
  <g id="Background" class="background">
    <rect x="0" y="0" width="2000" height="3000" fill="#FFFFFF"/>
  </g>
 <g id="Sky" class="lighter">
    <path d="M-0,-0 L2000,-0 L2000,1183.311 L-0,1183.311 z" fill="#7DBBAD"/>
  </g>
  <g id="mountains" class="primary">
    <path d="M2000,595.561 L1724.198,492.504 L1493.146,775.206 C1493.146,775.206 1115.951,1120.3 1115.951,1120.3 C1115.951,1120.3 519.865,1655.359 519.865,1655.359 L927.513,2011.238 C927.513,2011.238 2000,1685.144 2000,1685.144 C2000,1685.144 2000,595.561 2000,595.561 z" fill="#2C937C"/>
    <path d="M1542.743,718.578 L1321.858,618.993 L1083.717,782.58 L980.235,943.134 L892.365,1145.84 L734.2,1237.986 L324.425,1377.079 L707.522,1803.318 L1575.531,1366.725 L1605.085,742.035 L1542.743,718.578 z" fill="#2C937C"/>
    <path d="M1150.116,740.431 L890.412,579.107 L659.999,738.202 L304.19,903.661 L244.082,919.702 L-0,989.29 L-0,1038.814 L845.501,1844.934 L1150.116,740.431 z" fill="#2C937C"/>
    <path d="M246.916,927.513 L132.11,851.359 L-0,681.478 L-0,943.134 L0,989.29 L246.916,927.513 z" fill="#2C937C"/>
  </g>
  <g id="middleRange" class="darker">
    <path d="M2000,851.359 L1390.293,1491.831 L1038.815,1644.727 L626.804,1571.89 L398.342,2372.886 L1552.874,2337.333 L2000,1685.144 L2000,851.359 z" fill="#00513F"/>
    <path d="M0,532.553 L742.01,1724.153 L419.822,2340.465 L-0,2258.979 L0,532.553 z" fill="#00513F"/>
  </g>
  <g id="frontRange" class="darkest">
    <path d="M2000,1102.646 L2000,2367.028 L1446.921,2372.886 C1605.086,2005.787 2000,1102.646 2000,1102.646 z" fill="#082D25"/>
    <path d="M1747.63,1693.361 L1048.578,1925.728 L742.011,1955.017 L343.668,1718.746 L187.456,2341.644 L1446.921,2372.886 L1747.63,1693.361 z" fill="#082D25"/>
    <path d="M419.822,1819.157 L0,959.341 L0,2344.427 L300.155,2344.427 L419.822,1819.157 z" fill="#082D25"/>
  </g>
  <g id="Water" class="lighter">
    <path d="M0,2344.427 L2000,2344.427 L2000,3000 L0,3000 z" fill="#7DBBAD"/>
  </g>
  <g id="Fall" class="white">
    <path d="M742.01,2036.623 L698.179,2112.214 L681.986,2358.463 L742.01,2358.463" fill="#7DBBAD"/>
    <path d="M1032.503,1644.727 L1038.815,1921.672 L1000.215,1992.057 L1010.263,1719.884 L1032.503,1644.727 z" fill="#7DBBAD" display="none"/>
  </g>
  <g id="Highlights" class="shadow">
    <path d="M214.792,879.159 L361.242,879.159 C361.242,879.159 398.342,901.807 398.342,901.807 C398.342,901.807 575.64,876.744 575.64,876.744 L595.034,1001.42 L873.175,950.945 L463.061,1277.218 L214.792,879.159 z" fill="#B2DFD5"/>
    <path d="M674.009,1105.307 L734.2,1149.034 L1250.107,1047.202 L1126.996,1210.648 L1499.494,1378.158 L1390.293,1491.831 L1038.815,1644.727 L650.596,1577.819 L463.061,1277.218 L674.009,1105.307 z" fill="#B2DFD5"/>
  </g>
  <g id="Shadows" class="shadow">
    <path d="M1724.198,492.504 L2000,726.39 L2000,595.561 L1724.198,492.504 z" fill="#028063"/>
    <path d="M890.412,579.107 L1150.116,740.431 L1083.717,782.58 L890.412,579.107 z" fill="#028063"/>
    <path d="M1321.858,618.993 L1542.743,718.578 L1477.197,782.58 L1321.858,618.993 z" fill="#028063"/>
  </g>
  <g id="midRangeShadow" class="shadow">
    <path d="M0,532.553 L650.596,1577.819 L1032.503,1644.727 L519.865,1819.334 L378.816,1744.231 L-0,967.247 L0,532.553 z" fill="#000000" />
  </g>
</svg>