<svg
	version="1.1"
	xmlns="http://www.w3.org/2000/svg"
	xmlns:xlink="http://www.w3.org/1999/xlink"
	x="0" y="0"
	width="100%" height="100%"
	viewBox="0 0 3000 3000"
	preserveAspectRatio="xMidYMid slice"
	>
  <g id="Background">
    <rect x="0" y="0" width="3000" height="3000" fill="#FFFFFF"/>
  </g>
  <g id="Bg" class="lightest">
    <path d="M-0,-0 L3000,-0 L3000,3000 L-0,3000 z" fill="#6A8EB4"/>
  </g>
  <g id="Trunk" class="darkest">
    <path d="M2134.652,2124.298 C2134.652,2127.354 2132.536,2187.538 2132.536,2187.538 L2145.901,2188.061 L2145.701,2119.832 L2134.652,2124.298 z" fill="#122131"/>
  </g>
  <g id="Tree" class="darkest">
    <path d="M2112.978,2146.328 C2091.27,2146.328 2073.672,2131.738 2073.672,2113.741 C2073.672,2095.744 2091.27,2081.155 2112.978,2081.155 C2134.686,2081.155 2152.284,2095.744 2152.284,2113.741 C2152.284,2131.738 2134.686,2146.328 2112.978,2146.328 z" fill="#122131"/>
    <path d="M2109.505,2103.661 C2087.811,2103.661 2070.225,2087.894 2070.225,2068.444 C2070.225,2048.995 2087.811,2033.228 2109.505,2033.228 C2131.199,2033.228 2148.785,2048.995 2148.785,2068.444 C2148.785,2087.894 2131.199,2103.661 2109.505,2103.661 z" fill="#122131"/>
    <path d="M2143.952,2102.307 C2122.547,2102.307 2105.196,2087.146 2105.196,2068.444 C2105.196,2049.743 2122.547,2034.582 2143.952,2034.582 C2165.356,2034.582 2182.708,2049.743 2182.708,2068.444 C2182.708,2087.146 2165.356,2102.307 2143.952,2102.307 z" fill="#122131"/>
    <path d="M2153.6,2146.328 C2131.165,2146.328 2112.978,2131.738 2112.978,2113.741 C2112.978,2095.744 2131.165,2081.155 2153.6,2081.155 C2176.034,2081.155 2194.221,2095.744 2194.221,2113.741 C2194.221,2131.738 2176.034,2146.328 2153.6,2146.328 z" fill="#122131"/>
    <path d="M2183.411,2138.201 C2166.22,2138.201 2152.284,2126.83 2152.284,2112.804 C2152.284,2098.778 2166.22,2087.407 2183.411,2087.407 C2200.603,2087.407 2214.539,2098.778 2214.539,2112.804 C2214.539,2126.83 2200.603,2138.201 2183.411,2138.201 z" fill="#122131"/>
    <path d="M2179.348,2119.832 C2164.401,2119.832 2152.284,2107.144 2152.284,2091.493 C2152.284,2075.842 2164.401,2063.154 2179.348,2063.154 C2194.295,2063.154 2206.412,2075.842 2206.412,2091.493 C2206.412,2107.144 2194.295,2119.832 2179.348,2119.832 z" fill="#122131"/>
    <path d="M2078.587,2128.719 C2059.593,2128.719 2044.195,2115.273 2044.195,2098.687 C2044.195,2082.1 2059.593,2068.654 2078.587,2068.654 C2097.58,2068.654 2112.978,2082.1 2112.978,2098.687 C2112.978,2115.273 2097.58,2128.719 2078.587,2128.719 z" fill="#122131"/>
    <path d="M2181.156,2151.876 C2168.814,2151.876 2158.81,2143.1 2158.81,2132.273 C2158.81,2121.447 2168.814,2112.67 2181.156,2112.67 C2193.497,2112.67 2203.501,2121.447 2203.501,2132.273 C2203.501,2143.1 2193.497,2151.876 2181.156,2151.876 z" fill="#122131"/>
  </g>
  <g id="Hill_back" class="primary">
    <path d="M1503.163,2198.581 C2350.734,2138.776 2630.86,2254.188 3062.21,2294.934 C3493.56,2335.68 3189.078,3000 3189.078,3000 L3000,3024.501 L0,3000 L0,2414.775 C0,2414.775 650.304,2258.76 1503.163,2198.581 z" fill="#294867"/>
  </g>
  <g id="Hill_mid" class="darker">
    <path d="M-0,2287.466 C1215.572,2219.355 2221.938,2279.933 3000,2374.297 L3000,3024.501 L-0,3000 L-0,2287.466 z" fill="#192D41"/>
  </g>
  <g id="Hill_front" class="darkest">
    <path d="M-0,2555 C1360,2325 2132.536,2354.091 3010,2427.221 C3333.884,2454.214 3000,3024.501 3000,3024.501 L10,3024.501 L-0,2555 z" fill="#122131"/>
  </g>
  <g id="Cloud" class="white">
    <path d="M1445.704,1465.522 C1508.742,1467.297 1398.425,1438.021 1335.386,1431.702 C1181.039,1416.231 1125.37,1429.058 1030.497,1437.582 C957.154,1444.172 942,1463.088 942,1463.088 L1445.704,1465.522 z M1388.12,1465.618 C1409.545,1465.618 1426.913,1453.647 1426.913,1438.881 C1426.913,1424.114 1409.545,1412.143 1388.12,1412.143 C1366.695,1412.143 1349.327,1424.114 1349.327,1438.881 C1349.327,1453.647 1366.695,1465.618 1388.12,1465.618 z M1273.863,1440.464 C1302.15,1440.464 1325.081,1427.376 1325.081,1411.232 C1325.081,1395.088 1302.15,1382 1273.863,1382 C1245.575,1382 1222.644,1395.088 1222.644,1411.232 C1222.644,1427.376 1245.575,1440.464 1273.863,1440.464 z M1285.682,1459.277 C1329.202,1459.277 1364.481,1444.37 1364.481,1425.981 C1364.481,1407.592 1329.202,1392.685 1285.682,1392.685 C1242.163,1392.685 1206.884,1407.592 1206.884,1425.981 C1206.884,1444.37 1242.163,1459.277 1285.682,1459.277 z M1147.785,1451.71 C1172.055,1451.71 1191.73,1439.349 1191.73,1424.102 C1191.73,1408.854 1172.055,1396.494 1147.785,1396.494 C1123.515,1396.494 1103.84,1408.854 1103.84,1424.102 C1103.84,1439.349 1123.515,1451.71 1147.785,1451.71 z M1093.232,1458.935 C1118.507,1458.935 1138.996,1446.123 1138.996,1430.317 C1138.996,1414.512 1118.507,1401.699 1093.232,1401.699 C1067.958,1401.699 1047.469,1414.512 1047.469,1430.317 C1047.469,1446.123 1067.958,1458.935 1093.232,1458.935 z M1055.046,1452.051 C1072.286,1452.051 1086.262,1443.401 1086.262,1432.729 C1086.262,1422.058 1072.286,1413.408 1055.046,1413.408 C1037.805,1413.408 1023.829,1422.058 1023.829,1432.729 C1023.829,1443.401 1037.805,1452.051 1055.046,1452.051 z M982.309,1458.935 C996.201,1458.935 1007.463,1452.325 1007.463,1444.172 C1007.463,1436.018 996.201,1429.408 982.309,1429.408 C968.416,1429.408 957.154,1436.018 957.154,1444.172 C957.154,1452.325 968.416,1458.935 982.309,1458.935 z" fill="#FFFFFF"/>
  </g>
</svg>
