<svg
	version="1.1"
	xmlns="http://www.w3.org/2000/svg"
	xmlns:xlink="http://www.w3.org/1999/xlink"
	x="0" y="0"
	width="100%" height="100%"
	viewBox="0 0 3000 3000"
	preserveAspectRatio="xMidYMid slice"
	>
	<defs>
    <linearGradient id="LightestLighter">
      <stop offset="5%" stop-color="#F60" />
      <stop offset="95%" stop-color="#FF6" />
    </linearGradient>
  </defs>
  <g id="Background">
    <rect x="0" y="0" width="3000" height="3000" fill="#FFFFFF"/>
  </g>
  <g id="Bg" class="lightest">
    <path d="M-0,-0 L3000,-0 L3000,3000 L-0,3000 z" fill="#6A8EB4"/>
  </g>
  <g id="Hill_back" class="primary">
    <path d="M2.452,2338.46 C1090.632,2573.418 1823.767,2598.002 3000,2458.616 C3994.837,2340.726 3452.452,2945 3452.452,2945 L3002.452,3000 L2.452,3000 C2.452,3000 -3.065,2783.768 2.452,2338.46 z" fill="#294867"/>
  </g>
  <g id="Hill_mid" class="darker">
    <path d="M2.452,2382.047 C1368.257,2666.25 1974.725,2634.6 3002.452,2565 C4185.083,2484.909 3002.452,3000 3002.452,3000 L2.452,3000 L2.452,2382.047 z" fill="#192D41"/>
  </g>
  <g id="Hill_front" class="darkest">
    <path d="M-3091.348,2562.749 C-1731.348,2332.749 -958.811,2361.84 -81.348,2434.97 C242.536,2461.964 -91.348,3032.25 -91.348,3032.25 L-3081.348,3032.25 L-3091.348,2562.749 z" fill="#122131"/>
    <path d="M3002.452,2833.262 C2206.844,3033.966 1243.468,2609.144 2.452,2458.616 C-0.894,2763.016 2.452,3000 2.452,3000 L3002.452,3000 L3002.452,2833.262 z" fill="#122131"/>
    <path d="M3002.452,2382.047 C2578.145,2382.047 1283.608,2779.226 801.921,3000 C1116.355,2987.135 1307.024,3007.749 1307.024,3007.749 L3002.452,3000 L3002.452,2382.047 z" fill="#122131"/>
  </g>
	<g class="darker" display="none">
    <path d="M1055.342,2634.6 C1469.116,2727.457 1434.131,2748.313 904.652,2936.019 C1451.623,2785.989 1652.785,2711.31 1652.785,2711.31 L1055.342,2634.6 z" fill="#192D41"/>
	</g>
	<g class="darkest">
    <path d="M-3218.896,2589.501 C-4331.348,2826.125 -6211.348,2837.903 -6211.348,2837.903 C-6211.348,2837.903 -6218.896,3024.501 -6218.896,3024.501 L-3218.896,3024.501 L-3218.896,2589.501 z" fill="#122131"/>
    <path d="M3002.452,2382.047 C2578.145,2382.047 1283.608,2779.226 801.921,3000 C1116.355,2987.135 1307.024,3007.749 1307.024,3007.749 L3002.452,3000 L3002.452,2382.047 z" fill="#122131"/>
	</g>
</svg>
