<svg
	version="1.1"
	xmlns="http://www.w3.org/2000/svg"
	xmlns:xlink="http://www.w3.org/1999/xlink" x="0" y="0"
	viewBox="0, 0, 3000, 3000"
	width="100%" height="100%"
	preserveAspectRatio="xMidYMid slice"
>
  <title>
    Hokonui
  </title>
	    <g class="lightest">
      <path id="Rectangle-6" fill="#602222" d="M-480-175h3754v3754H-480z"/>
	    </g>
      <g id="bg-hills" fill="#C5C5C5" class="lighter">
        <path id="Path-3" d="M2198.9892715 1365.909091l78.8429655-20.3636365 96.363625 8.7272728 46.721757-11.6363637 55.482087 8.7272728 46.308086-2.661539 9.174001-6.0657338 33.941465 3.5876892 62.42216-3.5876892 140.165272 14.5454546 52.561978-29.090909h37.961428l81.763075 29.090909L3069.182004 1331l93.443516 20.3636364 105.12395-5.818182 108.04407-26.181818 166.44626 20.3636363 70.08263 11.6363637 105.12396-26.1818182 186.88703 2.909091 137.24516-14.5454547L4380.31132 1299 4611 1484H2161z"/>
        <path id="Path-3" d="M-1303.0107285 1337.909091l78.8429655-20.3636365 96.363625 8.7272728 46.721757-11.6363637 55.482087 8.7272728 46.308086-2.661539 9.174001-6.0657338 33.941465 3.5876892 62.42216-3.5876892 140.165272 14.5454546 52.561978-29.090909h37.961428l81.763075 29.090909L-432.817996 1303l93.443516 20.3636364 105.12395-5.818182 108.04407-26.181818 166.44626 20.3636363 70.08263 11.6363637 105.12396-26.1818182 186.88703 2.909091 137.24516-14.5454547L878.31132 1271 1109 1456h-2450z"/>
      </g>
      <g id="hill-main" fill="#A5A5A5" class="primary">
        <path d="M2390.18188 1426.669565l-477.29999-176.478454-72.18759-30.7302414-107.25292 16.1652174-51.42263-19.104348s-32.35724 13.226087-60.23795 13.226087-201.28288-77.8869564-201.28288-77.8869564l-56.49004 18.7124637-39.04855-7.992663L1240.85476 1175.08l-46.76659-9.158693-46.6683-6.345081-70.71899 26.0846436L816.64927 1121l-102.25758 22.5333333-78.45625 2.4492754-181.36681 83.7652173-87.5001-8.8173912-111.66058 45.5565222-92.560743-26.452174-91.091524 36.73913-143.983376-23.513043L-807 1459h3217l-19.81812-32.330435z" id="hill"/>
      </g>
      <g id="hill-shadows" class="darkest" >
        <path id="Path-12" fill="#777" d="M748.29423 1245.299435L569.274854 1299H497.94152l144.585324-65.677966-6.751109-25.4519775 87.014302-20.960452L808.304094 1139z"/>
        <path id="Path-15" fill="#777" d="M1844.51462 1220.25l-74.92305 107.5 5.99384-70.173611-44.95383-20.902778z"/>
        <path id="Path-17-Copy" fill="#777" d="M1683.07602 1216.5l-51.05965 85-16.51929-71.5789474z"/>
        <path id="Path-19" fill="#777" d="M1420.26901 1154l-70.73623 106.280864v52.391976L1190 1396.5l123.412147-97.299383-64.716126-71.8518516 72.241257-11.9753086 45.150782-43.4104938z"/>
        <path id="Path-20" fill="#777" d="M1146.19883 1160.25l-82.596491 73.75 33.789474-42.142857-23.277193-6.0204083z"/>
        <path id="Path-21" fill="#777" d="M2046 1354l-105.12281 105 25.52983-99z"/>
        <path id="Path-24" fill="#A5A5A5" d="M1425.27485 1411.5l-216.252628-72.5-61.57193 72.5z"/>
        <path id="Path-25" fill="#777" d="M1210.023392 1339l-156.432749 83.75 106.795434-73.28125z"/>
        <path id="Path-2" fill="#777" d="M432.865497 1307.75L361.5321638 1324 334 1377.75z"/>
      </g>
      <g id="hill-far-left-back-dkr" fill="#777" class="primary">
        <path d="M-830 1413.473648c524.187956-77.565708 1163.73393 0 2018.39014 0 854.65622 0-581.6774 195.941864-581.6774 195.941864l-1290.558876 50.042392S-718.631914 1652.507572-830 1413.473648z" id="hill-back-Far-left"/>
      </g>
      <g id="hill-back-left-pr" fill="#8D8D8D" class="darker">
        <path d="M-111.751159 1448.6959847C360.118473 1410.987852 1398 1361 1917.43996 1430.2800714c519.43996 69.2800716-243.1391 46.0626426-243.1391 46.0626426l-1041.750345 40.079691s-1216.171306-30.0182874-744.301674-67.7264203z" id="hill-back-left"/>
      </g>
      <g id="hill-back-center-dkr" fill="#777" class="darkest">
        <path d="M237.344319 1504.3422775c773.382881-117.626673 1899.668641-95.4958733 2820.913881-51.0035147 921.24525 44.4923587-487.53404 189.0350062-487.53404 189.0350062l-1987.268643 50.053903s-1119.494082-70.458721-346.111198-188.0853945z" id="hill-back-center"/>
      </g>
      <g id="hill-back-right-Dst" fill="#5A5A5A" class="darker">
        <path d="M-602.864537 1984.759651s-410.46948-349.236107-43.800097-349.236107C-279.99525 1635.523544 1312.78805 1439 3938.57981 1439c2625.79175 0 409.21805 1005.42725 409.21805 1005.42725l-4853.050752 43.53281-97.611645-503.200409z" id="hill-back-right"/>
      </g>
      <g  class="primary">
      <path d="M-1252.568746 1583.613889c1330.167166-56.3125 2103.010766-190.7749007 3753.007756-13.0776785 1649.99698 177.6972225 767.67133 475.7055215 767.67133 475.7055215l-4689.28093 335.372222s-1161.565325-741.687565 168.601844-798.000065z" id="hill-3" fill="#8D8D8D"/>
      </g>
      <g  class="shadow">
      <path d="M-1252.568746 1583.613889c1330.167166-56.3125 2103.010766-190.7749007 3753.007756-13.0776785 1649.99698 177.6972225 767.67133 475.7055215 767.67133 475.7055215l-4689.28093 335.372222s-1161.565325-741.687565 168.601844-798.000065z" id="hill-3" fill="#8D8D8D"/>
      </g>
      <g  class="shadow">
      <path d="M-1252.568746 1583.613889c1330.167166-56.3125 2103.010766-190.7749007 3753.007756-13.0776785 1649.99698 177.6972225 767.67133 475.7055215 767.67133 475.7055215l-4689.28093 335.372222s-1161.565325-741.687565 168.601844-798.000065z" id="hill-3" fill="#8D8D8D"/>
      </g>
      <g class="white">
      <path d="M1664.71436 1503c259.065433 18.777299 355.662297 30.0436783 104.739117 68.8500962-250.92318 38.8064178-50.939292 61.3391768-50.939292 61.3391768s68.057044 6.259099 301.862472-51.3246174c233.805428-57.5837168-206.730961-72.605556-355.662297-78.8646556z" id="road-3" fill="#FFF"/>
      </g>
      <g  class="darker">
      <path d="M-1048 1628.3341646S-65.529 1572 1317.5 1572s2365.5 67.6009975 2365.5 67.6009975V2576h-4716.4136563L-1048 1628.3341646z" id="hill-2" fill="#777"/></g>
			<g class="white">
      <path d="M1456.104252 1573c-240.307917 0-680.915182 52.464852-130.166788 236.091833-207.76622 0-374.927479-3.747489-486.873853-33.727404C551.152002 1611.7240573 1044.326624 1580.4949788 1244.583221 1573h211.521031z" id="road-2" fill="#FFF"/>
    </g>
      <g id="front-hill-" fill="#5A5A5A" class="darkest">
        <path id="Combined-Shape" d="M-480.05083 1947.776262h3754.81986v1632.22374H-480.05083z"/>
        <path d="M2444.95385 1934.007503c-896.15034 27.537517-3645.930091 73.850614-3645.930091 73.850614s-915.996983-237.264439 0-242.830832c1246.779261-7.576513 1821.087631-93.877899 3645.930091 168.980218z" id="front-hill-left"/>
        <path d="M1483.71996 1998.583326c1443.10244-242.8308325 1389.28335-262.8581176 2563.29036-240.3274218C5221.01733 1780.7866 4702.85219 2462.966 4702.85219 2462.966l-952.47264 996.35743S40.61753 2241.414158 1483.71996 1998.583326z" id="front-hill"/>
      </g>
      <g id="road-1" fill="#FFF" class="white">
        <path d="M1879.58345 1859c857.31627 167.71685 136.41967 1100.17247-2947.4158 1419.33513-3083.83547 319.16266 587.97554 872.37795 587.97554 872.37795s-564.19596 1047.6045 2002.74663-116.4005c2566.94259-1164.00501 1618.26268-2057.660461 737.16684-2167.8028703-60.07472 0-340.4234-7.5097097-380.47321-7.5097097z" id="road"/>
      </g>
      <g id="Cloud" fill-rule="nonzero" fill="#FFF" class="white">
        <path d="M2717.833881 884.4025c78.948165 2.21875-59.211749-34.37625-138.161166-42.275-193.302648-19.33875-263.02195-3.305-381.839952 7.35C2105.978719 857.715 2087 881.36 2087 881.36l630.833881 3.0425zm-72.117629.12c26.832457 0 48.583968-14.96375 48.583968-33.42125 0-18.45875-21.751511-33.4225-48.583968-33.4225-26.832457 0-48.583967 14.96375-48.583967 33.4225 0 18.4575 21.75151 33.42125 48.583967 33.42125zm-143.09433-31.4425c35.426357 0 64.144914-16.36 64.144914-36.54S2538.048279 780 2502.621922 780c-35.42761 0-64.146167 16.36-64.146167 36.54s28.718557 36.54 64.146167 36.54zm14.801998 23.51625c54.504015 0 98.687084-18.63375 98.687084-41.62s-44.183069-41.62-98.687084-41.62c-54.502763 0-98.685832 18.63375-98.685832 41.62s44.183069 41.62 98.685832 41.62zm-172.700832-9.45875c30.395507 0 55.036281-15.45125 55.036281-34.51 0-19.06-24.640774-34.51-55.036281-34.51-30.395507 0-55.036281 15.45-55.036281 34.51 0 19.05875 24.640774 34.51 55.036281 34.51zm-68.321635 9.03125c31.654159 0 57.314379-16.015 57.314379-35.7725 0-19.75625-25.66022-35.7725-57.314379-35.7725-31.652906 0-57.313126 16.01625-57.313126 35.7725 0 19.7575 25.66022 35.7725 57.313126 35.7725zm-47.823767-8.605c21.591205 0 39.094608-10.8125 39.094608-24.1525 0-13.33875-17.503403-24.15125-39.094608-24.15125-21.592457 0-39.09586 10.8125-39.09586 24.15125 0 13.34 17.503403 24.1525 39.09586 24.1525zm-91.0950952 8.605c17.3982027 0 31.5026195-8.2625 31.5026195-18.45375 0-10.1925-14.1044168-18.455-31.5026195-18.455-17.399455 0-31.503872 8.2625-31.503872 18.455 0 10.19125 14.104417 18.45375 31.503872 18.45375z" id="Shape"/>
      </g>
</svg>
