<?xml version="1.0" encoding="UTF-8"?>
<!DOCTYPE svg PUBLIC "-//W3C//DTD SVG 1.1//EN" "http://www.w3.org/Graphics/SVG/1.1/DTD/svg11.dtd">
<svg
	version="1.1"
	xmlns="http://www.w3.org/2000/svg"
	xmlns:xlink="http://www.w3.org/1999/xlink" x="0" y="0"
	viewBox="0, 0, 3000, 3000"
	width="100%" height="100%"
	preserveAspectRatio="xMidYMid slice"
>
	<g id="background" fill="#A2D4DD" class="lightest">
	  <path id="Rectangle-path" d="M1-24h3003v1532H1z"/>
	</g>
	<g id="sea" fill="#65B0BD" class="lighter">
	  <path id="seapath" d="M1 1505h3003v1543H1z"/>
	</g>
	<g id="shadow" fill="#2E7989" opacity=".27" class="shadow">
	  <path d="M3004 1545.7074722h-248.49105L2767.64632 1498H1939.4873l1.62554 4.337043h-546.18182c2.16739 1.0842607 41.07201 25.480127 82.46912 50.2012718l-415.1632-.5421304-.21674.8674086-.32511 1.626391H586.603608l-12.787591-14.0953894H0v638.6295704l317.522367-303.593004 412.345598-104.848013 63.937951 34.262639 40.42179 44.346264 128.851226 141.92973 41.397118 8.674085 90.48845 85.981876.10837.216853 133.186-188.769794 377.45065-278.87186 217.28067 49.875994 125.70851 70.151669 16.36378-7.372973 49.74156 16.263911 50.39178-6.939269 36.95396 40.551352 57.65253 26.130683 127.98427-51.285532 103.81789 10.300477 50.71689-9.324643 14.95497 3.035931 167.75585 274.751669L3004 1857.974563v-312.2670908z" id="Shape"/>
	</g>
	<g id="hills" fill="#2E7989" class="primary">
	  <path d="M1393.9557 1505.31773c4.65988-6.502127 182.27734-160.710921 182.27734-160.710921l245.67345-83.010497 125.70852-102.625248 16.36378 10.620142 49.74156-23.841135 99.48311 20.481702 32.83593 338.977589H1393.9557v.108368z" id="Shape"/>
	  <path id="Shape" d="M1938.40361 1511.819858l51.80057-206.225815 67.40578-139.253901 43.34776-69.464397 57.65253-38.254185 127.98427 74.991206 103.81789-14.954894 50.71688 13.762837 246.86552-73.69078 78.56782 453.089929z"/>
	  <path id="Shape" d="M1113.92915 1006.821277l-385.144879 250.76539-417.6557-134.268937L0 789.541844v751.537589h1115.22958z"/>
	  <path id="Shape" d="M2063.78701 1545.414184l36.30375-49.632907 264.31299-41.288511 260.52006-616.510071 120.29004 97.423546L3004 962.173333v583.240851z"/>
	  <path id="Shape" d="M1693.16364 1553l-466.09683-421.988085-133.07763-231.04227-90.59683 105.2261-41.397112 10.945248L563.954401 1553z"/>
	</g>
	<g id="shadows" fill="#004958" class="darker">
	  <path id="Shape" d="M833.577115 1188.500756l-.758614.433283.32512-.433283-104.3637 67.917096-.108373.216641-417.5631745-134.20938 307.9975445 330.269895-55.378868 99.113464 65.457606-88.281392.108373.216642z"/>
	  <path id="Shape" d="M1948.19877 1157.73767l-24.60079 48.636006 24.60079 134.750984 15.71416-172.446596z"/>
	  <path id="Shape" d="M2158.66015 1057.75764l127.77238 74.957942-47.57598-3.141301z"/>
	  <path id="Shape" d="M1061.161508 1552.241755l632.034372-1.083207-466.114512-421.367625-133.082683-230.9397884-35.329768 91.0977304-58.413327 54.268684 61.122665 54.918608-66.866462 57.518306z"/>
	  <path id="Shape" d="M2624.99141 837.2166415L2783 1066.639939l-37.71399-132.0429647z"/>
	  <path id="Shape" d="M2486.2733 1118.092284l-121.81184 335.252648 144.46191-342.076853z"/>
	  <path id="Shape" d="M2390.47111 1117.767322l-59.49706 155.11528 110.54099-140.16702z"/>
	  <path id="Shape" d="M1987.53836 1182.759758l26.11802-37.912254 52.99465 6.06596-102.62972 264.735855z"/>
	</g>
	<g id="highlights" fill="#2E7989" class="primary">
	  <path id="Shape" d="M1447.133333 1401.891633L1227.325 1130.3250996l169.433333 153.2302784z"/>
	</g>
	<g id="waterfall" fill="#FFF">
	  <path id="Shape" d="M1940.4324324 1505H1924l30.2702703-82.0843373L1963.027027 1415z"/>
	</g>
	<g id="boat" display="none">
	  <g id="darker" fill="#004958" class="darker">
	    <path id="Shape" d="M2488.531645 1541.7118648v-15.1864407h20.563292v-4.338983h-3.679747l-3.463291-14.101695h7.143038v-3.254237h-14.069621v-17.3559322h14.069621v-3.2542373h-114.721519v59.661017h114.721519v-2.1694915z"/>
	    <path id="Shape" d="M2281.8164556 1505.9152546v3.2542373h2.164557v17.355932h-2.164557v8.677966H2471.21519v-29.2881356z"/>
	    <path id="Shape" d="M2383.225949 1506.6745766h21.64557v-14.101695h-12.013291z"/>
	    <path id="Shape" d="M2428.356962 1487.4745766h-37.23038v-10.8474576h29.979114z"/>
	    <path d="M2514.614557 1569.9152546h-288.3189875l-24.5677215-43.3898305h203.468354v15.945763l115.154431.216949s-.216456.542373-.216456 12.1491527-5.51962 15.077966-5.51962 15.077966z" id="Shape"/>
	  </g>
	  <g id="waterline" fill="#F9AE3B" class="lightest">
	    <path id="waterline-path" d="M2516.129747 1569.5898305h-290.3753166l.649367 1.0847458h288.2107596z"/>
	  </g>
	  <g id="lighter" class="lighter">
	    <path id="Rectangle-path" fill="#A2D4DD" d="M2286.903165 1380.8440678h2.164557v125.071186h-2.164557z"/>
	    <path id="Shape" fill="#A2D4DD" d="M2426.95 1491.813559h-35.823418v-11.932203h28.031013z"/>
	    <path id="Shape" fill="#A2D4DD" d="M2426.95 1495.067797h-35.823418v-11.932204h28.031013z"/>
	    <path id="Shape" fill="#A2D4DD" d="M2429.006329 1504.830508v-16.271186h-11.688607z"/>
	    <path id="Rectangle-path" fill="#A2D4DD" d="M2429.006329 1488.559322h66.0189873v16.2711864h-66.0189873z"/>
	    <path id="Rectangle-path" fill="#004958" d="M2284.846835 1506.349153h1v1.0847458h-1z"/>
	    <path id="Rectangle-path" fill="#A2D4DD" d="M2285.063291 1509.169492h97.4050633v17.3559322h-97.4050633z"/>
	    <path id="Rectangle-path" fill="#A2D4DD" d="M2460.392405 1526.525424h28.1392405v16.2711864h-28.1392405z"/>
	    <path id="Shape" fill="#A2D4DD" d="M2382.468354 1543.881356h-55.629113l-11.147469-13.884746 66.776582.650848z"/>
	    <path id="Shape" fill="#A2D4DD" d="M2180.7316456 1527.284746l22.5113924 2.169491-.8658228-2.169491-22.836076-2.169492z"/>
	    <path id="Rectangle-path" fill="#A2D4DD" d="M2286.946273 1380.7529427l.8784855.632159-104.797439 145.6327377-.8784855-.632159z"/>
	    <path id="Shape" fill="#A2D4DD" d="M2289.500633 1505.915254h-1.406962L2375.65 1379.759322l.974051.6508475z"/>
	    <g id="pinstripe" fill="#A2D4DD">
	      <path id="Rectangle-path" d="M2266.664557 1554.728814h253.253165v1.0847458h-253.253165z"/>
	    </g>
	    <path id="Rectangle-path" fill="#A2D4DD" d="M2375.65 1379.759322h2.164557v126.155932H2375.65z"/>
	    <path id="Rectangle-path" fill="#A2D4DD" d="M2464.937975 1380.8440678h2.164557v103.376271h-2.164557z"/>
	    <g id="Group" fill="#A2D4DD">
	      <path id="Shape" d="M2401.1917722 1476.627119l65.2613924-95.4576272-.8658228-.6508475-65.8025317 96.1084746z"/>
	      <path id="Shape" d="M2391.1265823 1489.318644l-11.363924 16.59661h1.298734l10.06519-14.644067z"/>
	    </g>
	  </g>
	  <g id="windows" fill="#004958" class="darker">
	    <path id="Rectangle-path" d="M2291.556962 1512.423729h6.493671v9.762712h-6.493671z"/>
	    <path id="Rectangle-path" d="M2302.3797468 1512.423729h6.493671v9.762712h-6.493671z"/>
	    <path id="Rectangle-path" d="M2313.2025316 1512.423729h6.493671v9.762712h-6.493671z"/>
	    <path id="Rectangle-path" d="M2324.0253164 1512.423729h6.493671v9.762712h-6.493671z"/>
	    <path id="Rectangle-path" d="M2334.8481012 1512.423729h6.493671v9.762712h-6.493671z"/>
	    <path id="Rectangle-path" d="M2332.6835443 1530.864407h6.493671v10.8474577h-6.493671z"/>
	    <path id="Rectangle-path" d="M2340.2594936 1530.864407h6.493671v10.8474577h-6.493671z"/>
	    <path id="Rectangle-path" d="M2355.4113924 1530.864407h6.493671v10.8474577h-6.493671z"/>
	    <path id="Rectangle-path" d="M2362.9873417 1530.864407h6.493671v10.8474577h-6.493671z"/>
	    <path id="Rectangle-path" d="M2394.373418 1480.966102h6.493671v9.762712h-6.493671z"/>
	    <path id="Rectangle-path" d="M2401.949367 1480.966102h7.5759494v9.762712h-7.5759494z"/>
	    <path id="Rectangle-path" d="M2435.5 1493.9830512h3.2468354v5.4237288H2435.5z"/>
	    <path id="Rectangle-path" d="M2441.993671 1493.9830512h4.329114v5.4237288h-4.329114z"/>
	    <path id="Rectangle-path" d="M2457.14557 1493.9830512h3.2468354v5.4237288h-3.2468354z"/>
	    <path id="Rectangle-path" d="M2449.56962 1493.9830512h4.329114v5.4237288h-4.329114z"/>
	    <path id="Rectangle-path" d="M2471.21519 1493.9830512h4.329114v5.4237288h-4.329114z"/>
	    <path id="Rectangle-path" d="M2464.721519 1493.9830512h3.2468354v5.4237288h-3.2468354z"/>
	  </g>
	</g>
</svg>