<svg
	version="1.1"
	xmlns="http://www.w3.org/2000/svg"
	xmlns:xlink="http://www.w3.org/1999/xlink"
	x="0" y="0"
	width="100%" height="100%"
	viewBox="0 0 3000 3000"
	preserveAspectRatio="xMidYMid slice"
	>
  <g id="bg" class="lightest">
    <rect x="0" y="0" width="3000" height="3000" fill="#FFFFFF"/>
  </g>
  <defs>
    <clipPath id="Clip_1">
      <path d="M476,335.667 L2524,335.667 L2524,3067.667 L476,3067.667 z"/>
    </clipPath>
  </defs>
  <g id="Sky" class="lightest">
    <path d="M-0,0 L3000,0 L3000,3000 L-0,3000 z" fill="#FFFFFF"/>
  </g>
  <g id="Wash" class="white">
    <path d="M564.514,1514.27 L3000,1514.27 L3000,2506.986 L564.514,2506.986 z" fill="#FFFFFF"/>
  </g>
  <g id="Hills" class="darker">
    <path d="M1080.816,1526.677 L831.014,1378.388 C831.014,1378.388 625.002,1394.312 614.055,1396.302 C603.107,1398.293 294.338,1239.49 294.338,1239.49 L0,1216.598 L-0,2443.006 L723.239,1595.552 L1080.816,1526.677 z" fill="#294867"/>
    <path d="M887.421,1498.889 L1104.359,1470.944 L1452.442,1495.064 L1503.018,1514.27 L1298.421,1514.27 L887.421,1498.889 z" fill="#294867"/>
    <path d="M860.51,1542.64 L1120.041,1488.859 L1419.493,1514.27 C1419.493,1514.27 1265.847,1510.885 1154.155,1525.674 C1042.463,1540.463 887.421,1557.119 887.421,1557.119 L860.51,1542.64 z" fill="#294867"/>
  </g>
  <g id="sand" transform="translate(0.000000, 1508.000000)" fill="#95A8BB"  class="lighter">
      <path d="M1519.502,1.31 C-292.578,-8.69 17.253,920.463 26.485,1197.572 C43.178,1698.661 837.932,1860.898 837.932,1860.898 L3325.256,1449.148 C3325.256,1449.148 3795.42,523.273 3010,499 C-238.109,414.895 754,-23 1519.502,1.31 Z" ></path>
  </g>
  <g id="Point" class="darker">
    <path d="M1531.653,1514.27 L1446.943,1478.332 L1063.897,1514.27 L1531.653,1514.27 z" fill="#294867"/>
  </g>
  <g id="Sea" class="primary">
    <path d="M2961.992,1514.269 C3171.146,1514.269 3235.738,1771.659 3235.738,1771.659 C3235.738,1771.659 3345.584,1955.444 3000,1949.105 C1010.795,1912.614 659.022,1514.269 1419.493,1514.27 C1861.762,1514.27 2132.172,1514.27 2132.172,1514.27 z" fill="#6A8EB4"/>
  </g>
  <g id="Boulders" class="darker">
    <path d="M1309.714,1976.275 C1132.021,1977.642 1100.55,1981.477 1094.543,1961.035 C1094.543,1885.166 1190.253,1824.55 1310.356,1824.55 C1430.459,1824.55 1527.822,1886.054 1527.822,1961.923 C1506.236,1979.77 1487.408,1974.908 1309.714,1976.275 z" fill="#294867"/>
    <path d="M1167.249,1938.868 C1026.942,1940.11 1002.092,1943.595 997.349,1925.02 C997.349,1856.083 1072.922,1801.006 1167.756,1801.006 C1262.59,1801.006 1339.468,1856.89 1339.468,1925.827 C1322.424,1942.044 1307.557,1937.626 1167.249,1938.868 z" fill="#294867"/>
    <path d="M1637.62,1924.364 C1547.681,1925.051 1531.752,1926.977 1528.712,1916.71 C1528.712,1878.602 1577.155,1848.156 1637.944,1848.156 C1698.734,1848.156 1748.014,1879.048 1748.014,1917.156 C1737.088,1926.12 1727.558,1923.678 1637.62,1924.364 z" fill="#294867"/>
    <path d="M755.525,1834.016 C683.574,1834.565 670.831,1836.106 668.399,1827.892 C668.399,1797.406 707.153,1773.05 755.785,1773.05 C804.417,1773.05 843.84,1797.763 843.84,1828.249 C835.1,1835.421 827.476,1833.467 755.525,1834.016 z" fill="#294867"/>
    <path d="M701.796,1796.261 C644.235,1796.7 634.04,1797.933 632.094,1791.362 C632.094,1766.973 663.098,1747.488 702.003,1747.488 C740.909,1747.488 772.448,1767.259 772.448,1791.647 C765.455,1797.385 759.356,1795.822 701.796,1796.261 z" fill="#294867"/>
  </g>
  <g id="highlights" class="white">
    <path d="M1201.268,1834.498 C1175.818,1841.173 1130.641,1869.667 1112.737,1908.519 C1139.312,1879.457 1158.892,1858.586 1207.729,1841.167 C1247.969,1826.815 1201.268,1834.498 1201.268,1834.498 z" fill="#95A8BB"/>
    <path d="M1259.928,1820.679 C1236.396,1821.842 1214.245,1827.068 1195.355,1837.612 C1176.465,1848.156 1180.057,1849.891 1207.729,1841.167 C1235.401,1832.444 1251.653,1826.742 1272.055,1826.742 C1268.51,1824.923 1265.385,1822.451 1259.928,1820.679 z" fill="#95A8BB"/>
  </g>
</svg>
