<!-- width="2000" height="2000" -->
<svg xmlns="http://www.w3.org/2000/svg" width="100%" height="100%" viewBox="0, 0, 2000, 2000" preserveAspectRatio="xMidYMid slice">
  <path fill="#FFF" d="M0 0h2000v2000H0z" id="Background"/>
  <g id="sky" class="lighter">
	  <path d="M0-22.557h2000V982.536H0z" fill="#95A8BB"/>
  </g>
  <g  id="Sea" class="lighter">
  <path d="M0 982.534h2000v1017.464H0z" fill="#6A8EB4"/>
  </g>
<!--
  <g id="Reflection" class="primary">
    <path d="M1780.685 1129.31l-74.584 11.867-86.11 5.53h-14.56l-9.51-3.157-18.307 7.12-92.448-50.918-105.3 13.324-44.497 19.89-15.17-2.36-14.16 11.46-32.55-18.047-16.33 4.563-57.817-26.18 36.243-34.5s444.647-24.272 440.94-25.283c-3.71-1.01 104.162 86.69 104.162 86.69z" fill="#4D739B"/>
    <path d="M1853.174 1120.958l-4.516 10.916-47.29 12.462-27.845-10.678-28.373 7.25-65.017-29.947-25.694-13.338-25.595 15.056-82.33-35.637-103.34 26.768-57.268-15.807-52.968 17.195-75.495 2.904-58.365-12.755-74.794 19.67-14.915-4.106-35.883 16.644-34.37-6.27 42.078-141.776 791.175-12.098-19.196 153.548z" fill="#294867"/>
    <path d="M1567 982.536l393.196 221.93 64.914 27.24-5.795-244.073L1567 982.536zM0 1506.3l525.582-181.84 127.383-75.784 67.246 21.845 81.67-38.814 60.177 16.852 350.326-245.156 89.694-20.866H0V1506.3z" fill="#192D41" class="lighterFill" />
  </g>
-->
  <g id="reflection_highlights" class="shadow">
    <path d="M1780.685 1129.31l-74.584 11.867-86.11 5.53h-14.56l-9.51-3.157-18.307 7.12-92.448-50.918-105.3 13.324-44.497 19.89-15.17-2.36-14.16 11.46-32.55-18.047-16.33 4.563-57.817-26.18 36.243-34.5s444.647-24.272 440.94-25.283c-3.71-1.01 104.162 86.69 104.162 86.69z" />
    <path d="M0 1506.3l525.582-181.84 127.383-75.784 67.246 21.845 81.67-38.814 60.177 16.852 350.326-245.156 89.694-20.866H0V1506.3zM1567 982.536l393.196 221.93 64.914 27.24-5.795-244.073L1567 982.536z" fill="#4D739B" />
    <path d="M1853.174 1120.958l-4.516 10.916-47.29 12.462-27.845-10.678-28.373 7.25-65.017-29.947-25.694-13.338-25.595 15.056-82.33-35.637-103.34 26.768-57.268-15.807-52.968 17.195-75.495 2.904-58.365-12.755-74.794 19.67-14.915-4.106-35.883 16.644-34.37-6.27 42.078-141.776 791.175-12.098-19.196 153.548z"/>
  </g>
  <g id="water_highlight_back" class="lightest">
	  <path d="M780.257 981.694l835.113.842-366.24 10.698-468.873-11.54z"/>
  </g>
  <g id="Hills_back" class="primary">
    <path d="M1780.684 832.064L1706.1 820.2l-86.11-5.533h-14.56l-9.51 3.16-18.307-7.12-92.448 50.916-105.3-13.323-44.497-19.89-15.17 2.36-14.16-11.462-32.55 18.048-16.33-4.563-57.817 26.18 36.243 34.5s444.647 24.27 440.94 25.283c-3.71 1.01 104.16-86.692 104.16-86.692z" fill="#4D739B"/>
  </g>  
  <g id="Hills_back_highlight" class="shadow">
    <path d="M1780.684 832.064L1706.1 820.2l-86.11-5.533h-14.56l-9.51 3.16-18.307-7.12-92.448 50.916-105.3-13.323-44.497-19.89-15.17 2.36-14.16-11.462-32.55 18.048-16.33-4.563-57.817 26.18 36.243 34.5s444.647 24.27 440.94 25.283c-3.71 1.01 104.16-86.692 104.16-86.692z" fill="#4D739B"/>
  </g>  
  <g id="Hills_mid" class="darker">
    <path d="M1853.174 834.084l-4.516-10.915-47.292-12.464-27.843 10.678-28.373-7.25-65.017 29.947-25.694 13.34-25.595-15.055-82.33 35.637-103.34-26.768-57.268 15.807-52.968-17.192-75.495-2.905-58.365 12.754-74.794-19.67-14.915 4.106-35.883-16.645-34.37 6.27 42.078 141.776 791.175 12.1-19.196-153.55z" fill="#294867"/>
  </g>  
  <g id="Hills_mid_highlight" class="highlight">
    <path d="M1853.174 834.084l-4.516-10.915-47.292-12.464-27.843 10.678-28.373-7.25-65.017 29.947-25.694 13.34-25.595-15.055-82.33 35.637-103.34-26.768-57.268 15.807-52.968-17.192-75.495-2.905-58.365 12.754-74.794-19.67-14.915 4.106-35.883-16.645-34.37 6.27 42.078 141.776 791.175 12.1-19.196-153.55z" fill="#294867"/>
  </g>  
  <g id="Hills_front" class="darkest">
    <path d="M1560.854 985.894l399.342-235.316 64.914-27.24-5.795 264.295-458.46-1.74zM0 450.59l525.582 179.993 127.383 75.783 67.246-21.845 81.67 38.817 60.177-16.853 350.326 245.157 92.686 30.896H0V450.59z" fill="#192D41" class="lighterFill" />
  </g>
  <g id="church_reflection" class="primary church">
    <path d="M970.625 998.458h450.883v12.627H970.625z"/>
    <path d="M1115.654 1000.48h274.132v17.953h-274.132z"/>
    <path d="M1380.024 998.458h90.523v7.358h-90.523zM898.66 998.458h160.565v7.358H898.66z"/>
    <path d="M1333.163 1128.855h51.472v-125.29h-51.472z"/>
    <path d="M1333.163 1114.144h51.472v-110.58h-51.472zM1153.253 1162.315h49.095V1001.54h-49.095zM1325.13 1148.202l60.97-34.058h-127.147l66.176 34.058z"/>
    <path d="M1356.222 1148.202l44.585-20.673h-92.977l48.392 20.672zM1192.864 1123.85c0 30.344 21.7 54.942 48.468 54.942 26.768 0 48.468-24.598 48.468-54.94z"/>
    <path d="M1202.348 1123.85c0 30.344 17.55 54.942 39.2 54.942 21.65 0 39.2-24.598 39.2-54.94z"/>
    <path d="M1213.126 1123.85c0 30.344 12.116 54.942 27.062 54.942 14.947 0 27.063-24.598 27.063-54.94zM1188.453 1123.85h105.644v-122.308h-105.644zM1155.423 1200.704h43.557v-36.35h-43.557z"/>
    <path d="M1179.938 1193.385h8.515v-29.03h-8.515zM1165.717 1193.385h8.515v-29.03h-8.515z"/>
    <path d="M1184.196 1188.922c-2.35 0-4.258 2.025-4.258 4.523 0 2.497 1.907 4.522 4.258 4.522 2.35 0 4.257-2.025 4.257-4.522 0-2.498-1.906-4.523-4.257-4.523zM1169.974 1188.922c-2.35 0-4.257 2.025-4.257 4.523 0 2.497 1.906 4.522 4.257 4.522 2.352 0 4.258-2.025 4.258-4.522 0-2.498-1.906-4.523-4.258-4.523zM1151.615 1164.354h52.303v-2.625h-52.303zM1151.65 1203.33h52.303v-2.626h-52.304z"/>
    <path d="M1155.423 1203.33c0 13.583 9.75 24.595 21.778 24.595 12.03 0 21.78-11.012 21.78-24.596zM1167.386 1259.17h17.276v-2.37h-17.276z"/>
    <path d="M1177.2 1266.623v-38.698h-2.362v38.698z"/>
    <path d="M1176.02 1236.21c-2.59 0-4.69 2.067-4.69 4.618 0 2.55 2.1 4.617 4.69 4.617 2.59 0 4.69-2.067 4.69-4.617s-2.1-4.618-4.69-4.618zM1232.638 1210.038h17.275v-2.372h-17.275z"/>
    <path d="M1242.453 1217.49v-38.698h-2.363v38.698z"/>
    <path d="M1241.27 1187.076c-2.588 0-4.688 2.068-4.688 4.618 0 2.55 2.1 4.618 4.69 4.618 2.59 0 4.688-2.067 4.688-4.618 0-2.55-2.1-4.618-4.69-4.618zM1120.266 1067.85h32.987v-19.89h-32.987z"/>
    <path d="M1063.836 1047.96h89.417v-46.418h-89.417zM1108.415 1073.68l45.266-25.72h-94.396l49.13 25.72z"/>
    <path d="M1153.253 1073.68v-11.38l-27.54.91-17.298 10.47h44.838zM1099.897 1029.318h14.077v-27.776h-14.077z"/>
    <path d="M1106.935 1022.594c-3.887 0-7.038 2.827-7.038 6.315 0 3.487 3.15 6.315 7.038 6.315 3.887 0 7.04-2.828 7.04-6.316 0-3.49-3.153-6.316-7.04-6.316zM1026.767 1013.26h37.07v-9.696h-37.07zM1188.453 1123.85h109.03v-2.93h-109.03zM1245.784 1093.458l28.32-19.545-56.876-.234 28.556 19.778z"/>
    <path d="M1218.486 1098.467l21.33-14.202-42.835-.17 21.506 14.372zM1275.247 1098.467l21.33-14.202-42.835-.17 21.505 14.372zM1232.742 1054.842h26.21v-11.474h-26.21z"/>
    <path d="M1245.743 1045.843c-7.238 0-13.105 3.712-13.105 8.29 0 4.58 5.867 8.29 13.105 8.29s13.106-3.71 13.106-8.29c0-4.578-5.87-8.29-13.107-8.29zM1294.098 1114.144h80.85V1000.48h-80.85zM1191.167 1034.213l-30.286-11.62h30.287v11.62z"/>
    <path d="M1274.136 1051.734h77.582v-51.254h-77.582zM1162.58 1022.594h80.028v-22.113h-80.03z"/>
    <path d="M1294.098 1028.89h25.676v-28.41h-25.676zM1294.098 1065.41h54.214v-13.676h-54.214z"/>
    <path d="M1295.885 1063.22h1.597v-9.934h-1.597zM1301.857 1063.22h1.597v-9.934h-1.597zM1307.83 1063.22h1.596v-9.934h-1.596zM1313.802 1063.22h1.596v-9.934h-1.596zM1325.746 1063.22h1.597v-9.934h-1.597zM1319.774 1063.22h1.597v-9.934h-1.596zM1331.566 1063.602h1.597v-9.935h-1.597zM1337.538 1063.602h1.597v-9.935h-1.597zM1343.51 1063.602h1.597v-9.935h-1.597zM1309.426 1086.76h23.737v-18.91h-23.737zM1321.447 1093.458c-3.256 0-5.896 2.633-5.896 5.88 0 3.25 2.64 5.88 5.897 5.88 3.256 0 5.896-2.63 5.896-5.88 0-3.247-2.64-5.88-5.896-5.88zM1242.453 1018.306h12.912v-17.826h-12.912zM1268.618 1006.766h11.446v-6.286h-11.446zM1255.365 1013.26h13.253v-12.78h-13.253z"/>
  </g>
  <g id="island" class="darker church" >
    <path d="M970.625 996.436h450.883v12.626H970.625z"/>
    <path d="M1115.654 998.458h274.132v17.953h-274.132z"/>
    <path d="M1380.024 996.436h90.523v7.358h-90.523zM898.66 996.436h160.565v7.358H898.66z"/>
  </g>
  <g id="church_1" class=" church">
    <path d="M1328.55 871.145h51.474v125.29h-51.473z" fill="#192D41" class="lightestFill" />
    <path d="M1328.55 885.856h51.474v110.58h-51.473z" fill="#192D41" class="lightestFill" />
    <path d="M1148.642 837.685h49.095v160.773h-49.095zM1320.518 851.798l60.97 34.058h-127.146l66.176-34.058z" fill="#122131" class="darkestFill" />
    <path d="M1351.61 851.798l44.586 20.673h-92.978l48.392-20.672z" fill="#122131" class="darkestFill" />
    <path d="M1188.253 876.15c0-30.344 21.7-54.942 48.468-54.942 26.77 0 48.468 24.598 48.468 54.94z" fill="#192D41" class="lightestFill" />
    <path d="M1183.842 876.15h105.644v122.308h-105.644z" fill="#122131" class="darkestFill" />
    <path d="M1150.812 799.296h43.556v36.35h-43.556z" fill="#192D41" class="lightestFill" />
    <path d="M1175.327 806.615h8.515v29.03h-8.515zM1161.106 806.615h8.515v29.03h-8.514z" fill="#122131" class="darkestFill" />
    <path d="M1179.585 811.078c-2.352 0-4.258-2.025-4.258-4.523 0-2.497 1.906-4.522 4.258-4.522 2.35 0 4.257 2.025 4.257 4.522 0 2.498-1.906 4.523-4.257 4.523zM1165.363 811.078c-2.35 0-4.257-2.025-4.257-4.523 0-2.497 1.906-4.522 4.257-4.522 2.35 0 4.258 2.025 4.258 4.522 0 2.498-1.906 4.523-4.257 4.523z" fill="#122131" class="darkestFill" />
    <path d="M1147.004 835.646h52.303v2.625h-52.303zM1147.038 796.67h52.303v2.626h-52.302z" fill="#192D41" class="lightestFill" />
    <path d="M1150.812 796.67c0-13.583 9.75-24.595 21.778-24.595 12.028 0 21.778 11.012 21.778 24.596z" fill="#122131" class="darkestFill" />
    <path d="M1162.775 740.83h17.276v2.37h-17.275z" fill="#192D41" class="lightestFill" />
    <path d="M1172.59 733.377v38.698h-2.363v-38.698z" fill="#192D41" class="lightestFill" />
    <path d="M1171.41 763.79c-2.59 0-4.69-2.068-4.69-4.618 0-2.55 2.1-4.617 4.69-4.617 2.588 0 4.688 2.067 4.688 4.617s-2.1 4.618-4.69 4.618zM1228.026 789.962h17.276v2.372h-17.276z" fill="#192D41" class="lightestFill" />
    <path d="M1237.842 782.51v38.698h-2.363V782.51z" fill="#192D41" class="lightestFill" />
    <path d="M1236.66 812.924c-2.59 0-4.69-2.068-4.69-4.618 0-2.55 2.1-4.618 4.69-4.618 2.59 0 4.69 2.067 4.69 4.618 0 2.55-2.1 4.618-4.69 4.618zM1115.654 932.15h32.988v19.89h-32.988zM1059.225 952.04h89.417v46.418h-89.417z" fill="#192D41" class="lightestFill" />
    <path d="M1103.803 926.32l45.267 25.72h-94.398l49.13-25.72z" fill="#122131" class="darkestFill" />
    <path d="M1148.642 926.32v11.38l-27.54-.91-17.3-10.47h44.84zM1095.286 970.682h14.076v27.776h-14.076z" fill="#122131" class="darkestFill" />
    <path d="M1102.324 977.406c-3.887 0-7.038-2.827-7.038-6.315 0-3.487 3.15-6.315 7.038-6.315 3.887 0 7.038 2.828 7.038 6.316 0 3.49-3.15 6.316-7.038 6.316z" fill="#122131" class="darkestFill" />
    <path d="M1022.156 986.74h37.07v9.696h-37.07zM1180.71 876.15h112.16v3.112h-112.16z" fill="#192D41" class="lightestFill" />
  </g>
  <g id="church_2" class=" church">
    <path d="M1212.617 926.32h56v44.362h-56z" fill="#122131" class="darkestFill" />
    <path d="M1240.874 895.672l28.65 19.778h-57.206l28.556-19.778z" fill="#192D41" class="lightestFill" />
    <path d="M1213.875 901.533l21.33 14.202-42.835.17 21.505-14.372zM1270.636 901.533l21.328 14.202-42.834.17 21.506-14.372zM1228.13 945.158h26.212v25.524h-26.212z" fill="#192D41" class="lightestFill" />
    <path d="M1241.132 954.157c-7.238 0-13.106-3.712-13.106-8.29 0-4.58 5.868-8.29 13.106-8.29 7.238 0 13.106 3.71 13.106 8.29 0 4.578-5.868 8.29-13.106 8.29zM1289.486 885.856h80.85V999.52h-80.85zM1186.555 965.787l-30.285 11.62h30.285v-11.62z" fill="#192D41" class="lightestFill" />
    <path d="M1269.525 948.265h77.58v51.255h-77.58z" fill="#122131" class="darkestFill" />
    <path d="M1157.968 977.406h80.03v22.113h-80.03zM1289.486 971.11h25.677v28.41h-25.677z" fill="#192D41" class="lightestFill" />
    <path d="M1289.486 934.59h54.214v13.675h-54.214z" fill="#122131" class="darkestFill" />
    <path d="M1291.274 936.78h1.597v9.934h-1.596zM1297.246 936.78h1.597v9.934h-1.597zM1303.218 936.78h1.597v9.934h-1.597zM1309.19 936.78h1.597v9.934h-1.596zM1321.135 936.78h1.597v9.934h-1.597zM1315.163 936.78h1.596v9.934h-1.597zM1326.955 936.398h1.596v9.935h-1.595zM1332.927 936.398h1.596v9.935h-1.596zM1338.9 936.398h1.596v9.935h-1.597z" fill="#192D41" class="lightestFill" />
    <path d="M1304.815 913.24h23.736v18.91h-23.735z" fill="#122131" class="darkestFill"  id="Shape"/>
    <path d="M1316.836 906.542c-3.257 0-5.896-2.633-5.896-5.88 0-3.25 2.64-5.882 5.896-5.882s5.896 2.633 5.896 5.88c0 3.25-2.64 5.882-5.896 5.882z" fill="#122131" class="darkestFill" />
    <path d="M1237.842 981.694h12.91v17.825h-12.91zM1264.006 993.234h11.447v6.286h-11.447zM1250.753 986.74h13.253v12.78h-13.253z" fill="#192D41" class="lightestFill" />
  </g>
  <g id="water_highlights" class="lightest">
    <path d="M-68.982 1203.33l375.48-13.082-149.794 10.416-225.686 2.665zM1267.25 1067.85l375.48-13.08-149.793 10.415-225.686 2.665zM724.42 1128.926l375.477-13.08-149.792 10.415-225.686 2.666zM1567 1097.822l375.48-13.08-149.794 10.414-225.686 2.666z"/>
  </g>
</svg>