<svg
	version="1.1"
	xmlns="http://www.w3.org/2000/svg"
	xmlns:xlink="http://www.w3.org/1999/xlink" x="0" y="0"
	viewBox="0, 0, 3000, 3000"
	width="100%" height="100%"
	preserveAspectRatio="xMidYMid slice"
>
      <g id="Nelson-Lakes-Clean">
        <g id="Bg" fill="#95A8BB" class="lightest">
          <path id="Shape" d="M0 0h3000v3000H0z"/>
        </g>
        <g id="Hills_back" fill="#6A8EB4" class="lighter">
          <path id="Shape" d="M1539.578 1399.642l-80.442-38.266-25.976 15.083-34.832-16.62-16.202 7.35-33.319-16.986-16.313 5.922-18.197-8.492-21.558 8.557 2.16 9.376 134.63 116.753z"/>
        </g>
        <g id="Hills_mid" fill="#4D739B" class="primary">
          <path id="Shape" d="M1421.428 1464.443l166.192-119.547 20.39 1.118 13.128-8.938 54.187-3.352 13.407-13.687 21.507 1.397 19.273-13.128 34.076-1.676-194.961 195.241-175.409-8.659z"/>
          <path id="Shape" d="M1432.661 1482.319l110.388 13.031-9.881 13.88h-106.299z"/>
        </g>
        <g id="Water" fill="#4D739B" class="primary">
          <path id="Shape" d="M0 1509.157h3000v1485.844H0z"/>
        </g>
        <g id="Hills_main" fill="#2B5580" class="darker">
          <path id="Shape" d="M1489.177 1510.097l-194.51-154.582-131.058-78.167-291.767-121.696-57.44 14.196-156.68-62.966-55.758 9.776-246.105-94.169-36.071 11.099L0 923.986v600.036z"/>
          <path d="M1496.799 1509.23l-4.144-11.05 472.383-350.373 120.793-62.554 23.213 6.882 310.313-55.36 49.035 21.107 33.7-24.339 212.815-14.121s103.333-31.509 112.137-32.436c8.804-.927 172.956 38.994 172.956 38.994v483.533l-1503.201-.283z" id="Shape"/>
        </g>
        <g id="Water_highlight" fill="#6A8EB4" class="lighter">
          <path d="M845 1516l489.249 13.88-203.58 2.928 108.906 14.313s-285.235 10.266-282.895 8.804c2.339-1.463 164.8 18.842 164.8 18.842l-443.355 12.642 223.935 24.38-523.208 27.955 411.24 52.408 642.224 35.386 986.114-44.798-825.676-36.812 602.124-6.184-426.448-35.231 173.634-25.666-358.077-16.528 213.251-14.824-353.37-23.473L2353 1510.23l-866-1-642 6.77z" id="Shape"/>
          <path id="Shape" d="M142.08 1699.101l1064.69-59.357 203.929 87.794z"/>
          <path id="Shape" d="M1453.829 1682.74l572.488 62.642-572.488 23.35-705.778-19.763 311.114-46.087z"/>
          <path id="Shape" d="M1488.072 1509.23h8.727l-1.296 4.927-222.515 5.865L844 1516z"/>
        </g>
        <g id="Hills_low_front_" fill="#192D41" class="darkest">
          <path id="Shape" d="M0 1383l763.573 89.551 76.562 25.976 4.102 20.508L0 1534.758z"/>
          <path id="Shape" d="M2866.16 1385.476l-217.575 15.255-259.952 77.258-35.447 26.359-3.636 16.361 650.45 3.313V1386.5z"/>
        </g>
        <g id="Jetty" fill="#192D41" class="darkest">
          <path id="Shape" d="M1746 2029.251l553.372 696.345-1669.006 1.481 596.338-694.863z"/>
          <path id="Shape" d="M2278.188 2687.965L2621.518 3120H284.439l362.789-422.728z"/>
        </g>
        <g id="Jetty_posts" fill="#192D41" class="darkest">
          <path id="Shape" d="M1198.501 1847.538h30.382v194.895l-29.714 46.647z"/>
          <path id="Shape" d="M1086.459 2204.098l-.62-300.103 43.752-.149v255.203z"/>
          <path id="Shape" d="M991.773 1970.486l.318 343.62-62.404 71.839.547-414.765z"/>
          <path id="Shape" d="M701.795 2114l-.825 560.189-100.602 129.023v-687.971z"/>
          <path id="Shape" d="M1743.588 1847.538h36.369v228.726l-36.369-43.79z"/>
          <path id="Shape" d="M1844.777 1898.732h41.053v306.657l-41.053-50.977z"/>
          <path d="M1966.135 1970.486h62.085l-.142 415.459-61.814-77.52-.129-337.939z" id="Shape"/>
          <path id="Shape" d="M2234.361 2100.351h95.189l-1.805 723.162-93.384-84.362z"/>
        </g>
        <g id="Post_highlights" fill="#2B5580" class="darker">
          <path id="Shape" d="M1966.277 1970.486H1987l-1 363.014-19.736-25.075"/>
          <path id="Shape" d="M2234.38 2100.351h30.252l-1.46 587.614-28.811-40.59"/>
          <path id="Shape" d="M1844.786 1898.732h13.809l-.667 270.411-13.151-18.678"/>
          <path id="Shape" d="M1743.595 1847.538h11.149l-.538 193.509-10.618-13.367"/>
          <path id="Shape" d="M929.7 1970.486h20.723l-1 384.602-19.736 21.894"/>
          <path id="Shape" d="M600.387 2114h29.979l-1.446 607.865-28.552 34.604"/>
          <path id="Shape" d="M1198.507 1847.538h9.622l-.464 205.525-9.164 11.7"/>
          <path id="Shape" d="M1085.848 1903.846h14.062l-.678 275.307-13.393 15.672"/>
        </g>
      </g>
</svg>