<svg
	version="1.1"
	xmlns="http://www.w3.org/2000/svg"
	xmlns:xlink="http://www.w3.org/1999/xlink" x="0" y="0"
	viewBox="0, 0, 3000, 3000"
	width="100%" height="100%"
	preserveAspectRatio="xMidYMid slice"
>
  <g id="bg" fill-rule="nonzero" fill="#9BDEEF" class="lighter">
    <path d="M0-1h3000v3000H0z"/>
  </g>
  <g id="clouds" fill="#FFF" class="white">
    <path d="M1569.04006 1017.088933v-6.807721c0-35.011135-35.07044-64.18708-77.9343-64.18708-20.45775 0-37.99297 5.835189-51.63147 16.533036-4.87089-22.368225-23.38029-41.818855-52.60565-56.406828 0-1.945063.97418-4.862658.97418-6.807721 0-32.09354-30.19954-59.324422-68.192504-63.214548 0-50.5716387-68.192507-91.4179623-152.946051-91.4179623-44.812219 0-85.727723 11.6703782-113.978905 30.148477-14.61268-5.835189-32.147896-10.6978467-49.683112-13.6154413-18.509395-38.9012605-83.779366-67.1046744-160.739481-67.1046744-82.805187 0-150.997694 32.09354-164.636196 74.8849266-6.81925 1.945063-13.638501 4.8626575-19.483573 8.7527836-4.870893-.9725315-9.741787-.9725315-15.586859-.9725315-31.173717 0-59.424899 10.6978466-79.882651 28.2034143-8.767608-2.917595-19.483573-4.862658-30.199539-4.862658-39.941325 0-73.0634 25.285819-77.934293 57.379359-7.7934298-1.945063-15.5868592-2.917594-24.3544672-2.917594-42.8638616 0-77.9342938 28.203414-77.9342938 64.18708s35.0704322 64.18708 77.9342938 64.18708c39.9413252 0 73.0634002-25.28582 77.9342942-57.37936 7.793429 1.945063 15.586858 2.917595 24.354466 2.917595s16.561038-.972532 24.354467-2.917595c7.79343 7.780252 16.561038 13.615441 27.277003 19.450631-50.657291 40.846323-79.882651 90.44543-79.882651 142.962132 0 141.989601 213.345129 257.720851 476.37337 257.720851 204.577522 0 378.955502-70.022269 446.173832-167.27542 28.25118 11.670378 63.32161 18.478099 101.31458 18.478099 92.54698 0 166.58455-40.846324 166.58455-90.445431.97418-44.73645-52.60564-79.747584-125.66904-89.472899z" id="Shape"/>
  </g>
  <g id="hills" fill="#08A3C1" class="darker">
    <path id="Shape" d="M-252.564521 952.5498728l304.05036-23.3704912L302 996l-98-43.4501272 343.516715-67.190162 207.572845 60.3737687-53.59862-29.213114 233.88489-43.819671 236.80845 96.4032762 135.45834-10.711475 328.41336 117.8262263-53.59862-31.160655 111.09533-20.44918 182.23531 56.478687-98.42656 42.845901 394.68076-102.245899 334.26049 59.399998-90.6304 46.740983 368.36871-111.983604 575.94155 102.245899V3022.78588H-352.9401208z"/>
  </g>
  <g id="road" fill="#9BDEEF" class="lighter">
    <path id="Shape" d="M1781.29196 1441.2898916l-257.16524 30.1934252 144.16839 32.1413882L-15.9423425 1894.19127V3000H3000v-919l-1632.70511-321.218171 544.5279-258.105087-226.86424-37.0112954z"/>
  </g>
  <g id="tower" fill="#08A3C1" class="darker">
    <path id="Shape" d="M936.3882353 803l8.2588235 83.4466374-17.435294.9817252"/>
  </g>
  <g id="Cloud" fill-rule="nonzero" fill="#FFF" class="white">
    <path d="M2035.225015 553.5882452c-36.1993166 6.3445045-44.461832 16.6582-44.461832 16.6582l390.639438 1.8876492c40.7371 1.1470597-11.875098-14.4264195-58.837287-22.486735.033897-.3839807.051045-.770481.051045-1.1592664 0-12.5202165-17.783764-22.6704018-39.721286-22.6704018-5.599267 0-10.927902.6611964-15.759308 1.8542372-10.831873-7.227224-29.922919-12.0253837-51.666519-12.0253837-17.089501 0-32.540574 2.9640842-43.630889 7.7419653-5.862187-2.9936677-13.338561-4.7879574-21.481987-4.7879574-9.873809 0-18.766966 2.637835-24.991191 6.8530678-5.122158-1.7937932-11.028341-2.8164147-17.3165-2.8164147-17.674741 0-32.3320372 8.079943-35.0419966 18.6552354-3.8710536-1.625101-8.5426683-2.574511-13.5725344-2.574511-13.30965 0-24.1103568 6.6469713-24.209153 14.8703153z" id="Shape"/>
  </g>
</svg>