<svg version="1.1" xmlns="http://www.w3.org/2000/svg" xmlns:xlink="http://www.w3.org/1999/xlink" x="0" y="0" width="3000" height="3000" viewBox="0, 0, 3000, 3000">
  <g id="Background">
    <rect x="0" y="0" width="3000" height="3000" fill="#FFFFFF"/>
  </g>
  <g id="Bg" display="none">
    <path d="M-0,0 L3000,0 L3000,3000 L-0,3000 z" fill="#95A8BB" id="Shape"/>
  </g>
  <g id="half">
    <path d="M-0,1514.271 L3000,1514.271 L3000,0 L-0,0 z" fill="#95A8BB"/>
  </g>
  <g id="Sand_7">
    <path d="M-6.659,1514.27 L3006.659,1514.27 L3006.659,3000.001 L-6.659,3000.001 z" fill="#4D739B"/>
  </g>
  <g id="Layer_wash">
    <path d="M2338.977,1512.862 C2626.734,1512.862 2966.987,1514.27 2966.987,1514.27 C2966.987,1514.27 5162.724,2936.792 5025,2935 C1181.521,2885.001 0,1541.558 1358.551,1555.459 C1387.419,1555.754 1488.843,1571.472 1488.843,1571.472 L1538.224,1531.775 C1538.224,1531.775 1722.545,1529.522 1722.545,1529.522 C1722.545,1529.522 2349.253,1518.676 2349.253,1518.676 L2338.977,1512.862 z" fill="#FFFFFF" id="Shape"/>
    <path d="M1332.735,1571.472 C814.956,1564.922 463.085,1843.222 1620.796,2138.575 C3182.481,2536.99 1998.191,1755.71 1998.191,1755.71 L1526.828,1613.503 C1526.828,1613.503 1356.435,1571.772 1332.735,1571.472 z" fill="#FFFFFF" display="none"/>
    <path d="M2260.255,1730.822 C281.07,1700.569 1323.786,2935.007 4979.782,2935.002 C7333.994,2934.998 3483.647,1749.157 3483.647,1749.157 C3483.647,1749.157 4239.44,1761.076 2260.255,1730.822 z" fill="#FFFFFF" display="none"/>
  </g>
  <g id="Sea">
    <path d="M2378.649,1512.862 C2666.406,1512.862 3006.659,1514.271 3006.659,1514.271 C3006.659,1514.271 5168.902,2768.786 5031.218,2765 C1031.218,2655 388.142,1544.679 1425.555,1540.5 C1454.393,1541.852 1722.545,1529.522 1722.545,1529.522 L1697.677,1523.418 C1835.914,1521.547 1804.081,1519.417 1845.248,1514.271 C1886.415,1509.125 2388.925,1518.676 2388.925,1518.676 L2378.649,1512.862 z" fill="#6A8EB4" id="Shape"/>
  </g>
  <g id="Layer_10">
    <path d="M-47.253,1561.585 L459.573,1541.558 L521.223,1562.549 L274.623,1584.407 L-47.253,1561.585 z" fill="#6A8EB4"/>
  </g>
  <g id="Hills">
    <path d="M134,1524.358 C1438.823,1514.271 1854.459,1525.637 1854.459,1525.637 L2260.255,1519.316 L2257.817,1462.837 L2224.094,1440.024 L2201.415,1404.747 L2159.397,1403.588 L2127.056,1421.013 L1966.228,1377.484 L1852.977,1451.378 L1744.232,1435.379 L1686.707,1380.594 L1587,1310 L1316.5,1218.5 L960.461,1263.086 L-0,1204.063 L-119.645,1514.271 L134,1524.358 z" fill="#2B5580"/>
    <path d="M2260.255,1519.316 L2380.472,1521.047 L2382.271,1518.074 L2389.492,1519.01 L2383.776,1515.517 L2380.541,1509.713 L2338.304,1508.272 L2333.403,1448.737 L2305.437,1416.446 L2292.144,1419.786 L2285.977,1451.908 L2291.914,1485.003 L2286.268,1486.5 L2284.823,1507.695 L2260.255,1514.271 L2260.255,1519.316 z" fill="#2B5580"/>
    <path d="M243.329,1519.922 L-38.87,1564.922 L-83.758,1487.764 L243.329,1519.922 z" fill="#2B5580"/>
  </g>
  <g id="Lion">
    <path d="M1551.47,1571.472 L1504.441,1334.96 L1387.219,1150.193 L1125.22,1103.286 L1042.197,1226.686 L773.768,1345.648 L762.387,1393.182 L538.109,1474.859 L434.339,1562.562 L918.76,1571.472 L1551.47,1571.472 z" fill="#122131"/>
    <path d="M1526.828,1541.558 L1599.709,1548.17 L1677.485,1548.17 L1707.943,1568.752 L1551.47,1571.472 L1526.828,1541.558 z" fill="#122131"/>
  </g>
  <g id="waves">
    <path d="M1687.05,1555.459 L1705.786,1568.841 L1575.532,1571.472 L1734.557,1575.755 L1687.05,1555.459 z" fill="#FFFFFF"/>
    <path d="M2381.15,1516.949 L2398.376,1521.047 C2398.376,1521.047 2362.061,1521.047 2361.673,1521.047 C2361.285,1521.047 2380.762,1519.355 2380.762,1519.355 L2381.15,1516.949 z" fill="#FFFFFF"/>
    <path d="M2379.189,1523.265 L2401.79,1521.047 L2383.113,1519.922 L2350.847,1521.047 L2379.189,1523.265 z" fill="#FFFFFF"/>
  </g>
  <g id="Breakers_13" display="none">
    <path d="M1337.27,1730.275 C1297.642,1814.208 1360.08,1902.355 1457.414,1952.71 C1396.349,1922.096 1246.682,1879.859 1337.27,1730.275 z" fill="#FFFFFF"/>
    <path d="M1707.943,2017.167 C1856.795,2143.24 2190.518,2215.547 2451.007,2303.613 C2027.364,2196.08 1847.525,2201.642 1707.943,2017.167 z" fill="#FFFFFF"/>
  </g>
  <g id="Frames" display="none">
    <path d="M3000,0 L3000,3000 L0,3000 L0,0 L500,0 L500,3000 L2500,3000 L2500,0 L3000,0 z" fill="#FFFFFF"/>
    <path d="M-0,0 L3000,0 L3000,3000 L-0,3000 L-0,2500 L3000,2500 L3000,500 L-0,500 L-0,0 z" fill="#FFFFFF" display="none"/>
  </g>
  <g id="Mask_corners" display="none">
    <path d="M3000,-0 L3000,510 L2500,510 L2500,-0 L500,-0 L500,510 L10,510 L10,2510 L500,2510 L500,3000 L-0,3000 L-0,-0 L3000,-0 z M3000,2510 L2499.999,2510 L2499.999,3000 L3000,3000 L3000,2510 z" fill="#FFFFFF"/>
  </g>
</svg>
