<svg
	version="1.1"
	xmlns="http://www.w3.org/2000/svg"
	xmlns:xlink="http://www.w3.org/1999/xlink" x="0" y="0"
	viewBox="0, 0, 3000, 3000"
	width="100%" height="100%"
	preserveAspectRatio="xMidYMid slice"
>
  <title>
    Piha
  </title>
  <g id="Background" class="lightest">
    <rect x="0" y="0" width="3000" height="3000" fill="#FFFFFF"/>
  </g>
  <g id="half" class="lightest">
    <path d="M-0,1514.271 L3000,1514.271 L3000,0 L-0,0 z" fill="#95A8BB"/>
  </g>
  <g id="Sand_7" class="primary">
    <path d="M-6.659,1514.27 L3006.659,1514.27 L3006.659,3000.001 L-6.659,3000.001 z" fill="#4D739B"/>
  </g>
  <g id="Sea" class="lighter">
    <path d="M2384.811,1514.271 C2672.567,1514.271 3000,1514.271 3000,1514.271 C3000,1514.271 3136.934,2105.802 3000,2090.961 C2149.568,1998.793 388.142,1544.679 1425.555,1540.5 C1454.393,1541.852 1722.545,1529.522 1722.545,1529.522 L1697.677,1523.418 C1835.914,1521.547 1804.081,1519.417 1845.248,1514.271 C1886.415,1509.125 2390.421,1518.417 2390.421,1518.417 L2384.811,1514.271 z" fill="#6A8EB4" id="Shape"/>
  </g>
  <g id="Hills" class="darker">
    <path d="M134,1524.358 C1438.823,1514.271 1854.459,1525.637 1854.459,1525.637 L2260.255,1519.316 L2257.817,1462.837 L2224.094,1440.024 L2201.415,1404.747 L2159.397,1403.588 L2127.056,1421.013 L1966.228,1377.484 L1852.977,1451.378 L1744.232,1435.379 L1686.707,1380.594 L1587,1310 L1316.5,1218.5 L960.461,1263.086 L-0,1204.063 L-119.645,1514.271 L134,1524.358 z" fill="#2B5580"/>
    <path d="M2260.255,1519.316 L2380.472,1521.047 L2382.271,1518.074 L2389.492,1519.01 L2383.776,1515.517 L2380.541,1509.713 L2338.304,1508.272 L2333.403,1448.737 L2305.437,1416.446 L2292.144,1419.786 L2285.977,1451.908 L2291.914,1485.003 L2286.268,1486.5 L2284.823,1507.695 L2260.255,1514.271 L2260.255,1519.316 z" fill="#2B5580"/>
  </g>
  <g id="Lion" class="darkest">
    <path d="M1566.768,1533.174 L1520.665,1305.521 L1403.444,1120.754 L1141.445,1073.847 L1058.422,1197.246 L789.993,1316.209 L778.612,1363.743 L554.334,1445.42 L450.564,1533.123 L928.577,1545.173 L1566.768,1533.174 z" fill="#122131"/>
    <path d="M1541.38,1507.659 L1614.261,1514.271 L1692.037,1514.271 L1722.495,1534.854 L1535.397,1537.573 L1541.38,1507.659 z" fill="#122131"/>
  </g>
</svg>
