<svg
	version="1.1"
	xmlns="http://www.w3.org/2000/svg"
	xmlns:xlink="http://www.w3.org/1999/xlink"
	x="0" y="0"
	width="100%" height="100%"
	viewBox="0 0 3000 3000"
	preserveAspectRatio="xMidYMid slice"
	>
  <title>
    Port
  </title>
  <linearGradient id="g1" x1="0" x2="0" y1="0" y2="1">
    <stop offset="0" class="color1" />
    <stop offset="1" class="color2" />
  </linearGradient>
  <linearGradient id="g2" x1="0" x2="0" y1="0" y2="1">
    <stop offset="0%" class="color2" />
    <stop offset="90%" class="color1" />
    <stop offset="100%" class="color1" />
  </linearGradient>
  <linearGradient id="g3" x1="0" x2="0" y1="0" y2="1">
    <stop offset="0%" class="color2" />
    <stop offset="100%" class="primaryStop" />
  </linearGradient>  
  <g id="land" fill="#1D68A0" class="darker">
    <path d="M-7.6 1662.4h3007.9v1339H-.4z" id="darkerPrimary"/>
  </g>
  <g id="sky" fill="#72C5F7" class="lighter">
    <path d="M.3-21h3000v1683.4H.3z" id="lighterPrimary"/>
  </g>
  <g id="cranes" fill="#1D68A0" class="darker">
    <path id="Rectangle-path" d="M1929.3 1407.4h50v210h-50z"/>
    <path id="Shape" d="M1979.5 1407.4h-49.7l-14.2-190h49.8z"/>
    <path id="Shape" d="M1929.3 1418.4l-69.7-57.2-.3-.6-193.5-440.3v-.3L1632 740.8l5.6-1 33.7 178.8 192.9 439.1 68.7 56.4z"/>
    <path d="M1935.3 1362.2l-55.5-63.4s18.8 42.8 19 43.2c.2.4 36.5 42.4 36.5 42.4v-22.2z" id="Shape"/>
    <path id="Shape" d="M1971.9 1191.4l-75.3-8.1 19.3 35.1h54.2z"/>
    <path id="Rectangle-path" d="M1632.3 739.4h7v556h-7z"/>
    <path id="Rectangle-path" d="M1626.3 1297.4h18v64h-18z"/>
    <path id="Rectangle-path" d="M1602.3 1372.4h67v14h-67z"/>
    <path id="Shape" d="M1668.5 1372.4h-67.9l24.9-34h18.1z"/>
    <path id="Rectangle-path" d="M1635.7878707 739.7580498l296.2331986 675.9342004-2.10657.92322-296.2331986-675.9342004z"/>
    <path id="Rectangle-path" d="M1076.3 1407.4h50v210h-50z"/>
    <path id="Shape" d="M1075.8 1407.4h49.8l14.1-190h-49.8z"/>
    <path id="Shape" d="M1126 1418.4l-3.5-4.3 68.6-56.4 193-439.1 33.6-178.8 5.6 1-33.8 179.5-193.7 440.9-.6.5z"/>
    <path d="M1121.3 1362.2l54.9-63.4s-18.5 42.8-18.7 43.2c-.2.4-36.2 42.4-36.2 42.4v-22.2z" id="Shape"/>
    <path id="Shape" d="M1083.5 1191.4l75.3-8.1-19.3 35.1h-54.3z"/>
    <path id="Rectangle-path" d="M1418.3 739.4h5v556h-5z"/>
    <path id="Rectangle-path" d="M1413.3 1297.4h18v64h-18z"/>
    <path id="Rectangle-path" d="M1388.3 1372.4h67v14h-67z"/>
    <path id="Shape" d="M1386.9 1372.4h67.8l-24.9-34h-18.1z"/>
    <path id="Rectangle-path" d="M1419.5624493 739.8582897l2.10657.92322-296.2331985 675.9342005-2.10657-.92322z"/>
  </g>
  <g id="dock" fill="#1D68A0" class="darker">
    <path id="Rectangle-path" d="M640.3 1578.4h140v39h-140z"/>
    <path id="Rectangle-path" d="M494.3 1578.4h139v39h-139z"/>
    <path id="Rectangle-path" d="M640.3 1539.4h140v39h-140z"/>
    <path id="Rectangle-path" d="M344.3 1578.4h141v39h-141z"/>
    <path id="Rectangle-path" d="M344.3 1539.4h141v39h-141z"/>
    <path id="Rectangle-path" d="M931.3 1578.4h141v39h-141z"/>
    <path id="Rectangle-path" d="M786.3 1578.4h140v39h-140z"/>
    <path id="Rectangle-path" d="M931.3 1539.4h141v39h-141z"/>
    <path id="Rectangle-path" d="M1102.3 1578.4h139v39h-139z"/>
    <path id="Rectangle-path" d="M1102.3 1539.4h139v39h-139z"/>
    <path id="Rectangle-path" d="M1102.3 1500.4h139v39h-139z"/>
    <path id="Rectangle-path" d="M1248.3 1578.4h141v39h-141z"/>
    <path id="Rectangle-path" d="M1394.3 1578.4h141v39h-141z"/>
    <path id="Rectangle-path" d="M1394.3 1539.4h141v39h-141z"/>
    <path id="Rectangle-path" d="M1394.3 1500.4h141v39h-141z"/>
    <path id="Rectangle-path" d="M1540.3 1578.4h141v39h-141z"/>
    <path id="Rectangle-path" d="M1686.3 1578.4h141v39h-141z"/>
    <path id="Rectangle-path" d="M1686.3 1539.4h141v39h-141z"/>
    <path id="Rectangle-path" d="M1540.3 1539.4h141v39h-141z"/>
    <path id="Rectangle-path" d="M1815.3 1578.4h139v39h-139z"/>
    <path id="Rectangle-path" d="M1836.3 1539.4h140v39h-140z"/>
    <path id="Rectangle-path" d="M1960.3 1578.4h141v39h-141z"/>
    <path id="Rectangle-path" d="M1960.3 1539.4h141v39h-141z"/>
    <path id="Rectangle-path" d="M2254.3 1578.4h140v39h-140z"/>
    <path id="Rectangle-path" d="M2546.3 1578.4h141v39h-141z"/>
    <path id="Rectangle-path" d="M2694.3 1578.4h141v39h-141z"/>
    <path id="Rectangle-path" d="M2841.3 1578.4h141v39h-141z"/>
    <path id="Rectangle-path" d="M2109.3 1578.4h139v39h-139z"/>
    <path id="Rectangle-path" d="M2254.3 1539.4h140v39h-140z"/>
    <path id="Rectangle-path" d="M2400.3 1578.4h139v39h-139z"/>
    <path id="Rectangle-path" d="M2400.3 1539.4h139v39h-139z"/>
    <path id="Rectangle-path" d="M2400.3 1500.4h139v39h-139z"/>
    <path d="M286.3 1617.4h2714v89h-2714z"/>
    <path id="Rectangle-path" d="M0 1661.9h522.3v44.5H0z"/>
  </g>
  <g id="gaps" fill="#72C5F7" class="lighter">
    <path id="gap2" d="M1924.3 1535.4h64v4h-64z"/>
    <path id="gap" d="M1165.3 1496.4h-66v39h-64v4h68v-39h62z"/>
  </g>
  <g id="sea" fill="#72C5F7" class="lighter">
    <path d="M.3 1706.4h1767.2L744.2 3001l-744.6.4z"/>
  </g>
  <g id="sand" fill="#FFF" class="white">
    <path id="Shape" d="M1767.3 1706.7L744.2 3001l-266.4 8.1z"/>
  </g>
</svg>