<svg
	version="1.1"
	xmlns="http://www.w3.org/2000/svg"
	xmlns:xlink="http://www.w3.org/1999/xlink" x="0" y="0"
	viewBox="0, 0, 3000, 3000"
	width="100%" height="100%"
	preserveAspectRatio="xMidYMid slice"
>
  <g id="background" fill="#8B9BB2" class="lightest">
    <path id="bgsky" d="M0 0h3014v3000H0z"/>
  </g>
  <g id="sea" fill="#55677C" class="lighter">
    <path d="M0 1492h3014v1508H0z"/>
  </g>
  <g id="hills-back" fill="#3C4D62" class="primary">
    <path id="hills_back" d="M2815.51565 1505H-338l398.016539-33.75 478.890726.5869565 220.093325-5.2826087L830 1446l171.62315 5.8804348L1086 1431l144.95924 19.4130435 107.1583-16.1413044 144.4182 26.706522 57.47844-16.1413044 218.93798 7.6304348 82.31837-28.173913 212.87241 23.1847826L2083 1424.2934782l115.56113 1.4673913L2265.57118 1397 2447 1437h105l61 25 395.45836 4.847826L3085 1504.413043z"/>
  </g>
  <g id="hills_mid" fill="#24303D" class="darker">
    <path id="Shape" d="M3063.62776 1504.4082377L2763 1464l-148.2091-2.5177385-62.63511-24.610893L2322 1469l-123-43-116-3-31.63647 26.7491613L1840 1425l-125.48059 40.488686-234.08791-2.5755586L1338 1434l-255.604529 31.2025128L830 1446l-205 59z"/>
    <path id="Shape" d="M479.052633 1505.05782l-77.933088-25.1832393L299.80653 1469 178 1504.1993005z"/>
  </g>
  <g id="hills_front" fill="#0B1219" class="darkest">
    <path id="Shape" d="M2369.71148 1504l-45.29741-34.7142857L2082.63556 1423l-30.58297 22.8535714-212.63815-20.5392857L1593.885185 1504z"/>
    <path id="Shape" d="M1321.658148 1504.982143L1086.227037 1437 813 1504.982143z"/>
    <path id="Shape" d="M1593.65 1505.2357143L1481.127778 1463 1321 1505.2357143z"/>
  </g>
</svg>