<?xml version="1.0" encoding="UTF-8"?>
<svg width="3000px" height="3000px" viewBox="0 0 3000 3000" version="1.1" xmlns="http://www.w3.org/2000/svg" xmlns:xlink="http://www.w3.org/1999/xlink">
    <!-- Generator: Sketch 43.2 (39069) - http://www.bohemiancoding.com/sketch -->
    <title>hokonui 2</title>
    <desc>Created with Sketch.</desc>
    <defs></defs>
    <g id="Page-1" stroke="none" stroke-width="1" fill="none" fill-rule="evenodd">
        <g id="hokonui-2">
            <rect id="Rectangle-6" fill="#602222" x="-272" y="-30" width="3526" height="3526"></rect>
            <g id="bg-hills" transform="translate(2208.000000, 1354.000000)" fill="#C5C5C5">
                <polygon id="Path-3" points="35.6789035 62.9307125 109.72693 43.777887 200.230073 51.9862408 244.110385 41.041769 296.218255 49.2501229 339.710053 46.7468375 348.326125 41.041769 380.203394 44.4161362 438.829268 41.041769 570.470204 54.7223587 619.835554 27.3611794 655.488308 27.3611794 732.278853 54.7223587 852.949711 30.0972973 940.710334 49.2501229 1039.44104 43.777887 1140.91426 19.1528256 1297.23787 38.3056511 1363.05834 49.2501229 1461.78904 24.6250614 1637.31028 27.3611794 1766.2087 13.6805897 2084.34096 0 2301 174 -4.54747351e-13 174"></polygon>
            </g>
            <g id="bg-hills-copy" transform="translate(-1081.000000, 1328.000000)" fill="#C5C5C5">
                <polygon id="Path-3" points="35.6789035 62.9307125 109.72693 43.777887 200.230073 51.9862408 244.110385 41.041769 296.218255 49.2501229 339.710053 46.7468375 348.326125 41.041769 380.203394 44.4161362 438.829268 41.041769 570.470204 54.7223587 619.835554 27.3611794 655.488308 27.3611794 732.278853 54.7223587 852.949711 30.0972973 940.710334 49.2501229 1039.44104 43.777887 1140.91426 19.1528256 1297.23787 38.3056511 1363.05834 49.2501229 1461.78904 24.6250614 1637.31028 27.3611794 1766.2087 13.6805897 2084.34096 0 2301 174 -4.54747351e-13 174"></polygon>
            </g>
            <g id="hill-main" transform="translate(-579.000000, 1187.000000)" fill="#A5A5A5">
                <path d="M3002.38933,286.678261 L2554.16947,121.164444 L2486.38001,92.3434783 L2385.66161,107.504348 L2337.37197,89.5869565 C2337.37197,89.5869565 2306.98615,101.991304 2280.8041,101.991304 C2254.62206,101.991304 2091.78465,28.9434783 2091.78465,28.9434783 L2038.73634,46.4933333 L2002.06688,38.9972559 L1923.08648,50.72 L1879.16921,42.1303383 L1835.34424,36.1794782 L1768.9339,60.6434783 L1524.72628,0 L1428.69888,21.1333333 L1355.02268,23.4304348 L1184.70588,101.991304 L1102.53684,93.7217391 L997.679333,136.447826 L910.757977,111.63913 L825.216326,146.095652 L690.005328,124.043478 L0,317 L514.782913,317 L3021,317 L3002.38933,286.678261 Z" id="hill"></path>
            </g>
            <g id="hill-shadows" transform="translate(493.000000, 1204.000000)">
                <polygon id="Path-12" fill="#777777" points="389.126823 99.9879061 220.982456 150.5 153.982456 150.5 289.784559 88.7216631 283.443564 64.7808969 365.171951 45.0649718 445.491228 0"></polygon>
                <polygon id="Path-15" fill="#777777" points="1418.75439 76.4257812 1348.38273 177.542969 1354.01247 111.535916 1311.78947 91.8742405"></polygon>
                <polygon id="Path-17-Copy" fill="#777777" points="1267.12281 72.8984375 1219.16491 152.851562 1203.64912 85.5226151"></polygon>
                <polygon id="Path-19" fill="#777777" points="1020.2807 14.109375 953.841532 114.079813 953.841532 163.361015 804 242.210938 919.915147 150.688706 859.130375 83.1030575 926.983144 71.8387828 969.391125 31.005787"></polygon>
                <polygon id="Path-20" fill="#777777" points="762.859649 19.9882812 685.280702 89.359375 717.017544 49.71875 695.154386 44.0558036"></polygon>
                <polygon id="Path-21" fill="#777777" points="1608 202.234375 1509.26316 301 1533.24211 207.878125"></polygon>
                <polygon id="Path-24" fill="#A5A5A5" points="1024.98246 256.320312 821.866667 188.125 764.035088 256.320312"></polygon>
                <polygon id="Path-25" fill="#777777" points="822.807018 188.125 675.877193 266.902344 776.185054 197.972168"></polygon>
                <polygon id="Path-2" fill="#777777" points="92.8596491 158.730469 25.8596491 174.015625 0 224.574219"></polygon>
            </g>
            <g id="hill-far-left-back-dkr" transform="translate(-601.000000, 1429.000000)" fill="#777777">
                <path d="M0,32.3880536 C492.370433,-40.485067 1093.09681,32.3880536 1895.87651,32.3880536 C2698.65621,32.3880536 1349.50616,216.475784 1349.50616,216.475784 L137.282516,263.4907 C137.282516,263.4907 104.608189,256.960851 0,32.3880536 Z" id="hill-back-Far-left"></path>
            </g>
            <g id="hill-back-left-pr" transform="translate(-502.000000, 1447.000000)" fill="#8D8D8D">
                <path d="M102.831487,47.6628916 C546.026114,12.2108009 1649.68824,-17.0450294 2112.02629,11.5453663 C2574.36434,40.135762 1883.66249,73.6555431 1883.66249,73.6555431 L792.510447,109.456962 C792.510447,109.456962 -340.36314,83.1149824 102.831487,47.6628916 Z" id="hill-back-left"></path>
            </g>
            <g id="hill-back-center-dkr" transform="translate(146.000000, 1461.000000)" fill="#777777">
                <path d="M255.792565,76.4036393 C982.173024,-34.0814145 2040.00865,-3.90141323 2905.26512,37.8896236 C3770.52159,79.6806605 2447.361,215.447504 2447.361,215.447504 L580.868819,262.462421 C580.868819,262.462421 -470.587895,186.888693 255.792565,76.4036393 Z" id="hill-back-center"></path>
            </g>
            <g id="hill-back-right-Dst" transform="translate(-572.000000, 1486.000000)" fill="#5A5A5A">
                <path d="M184.214909,512.46259 C184.214909,512.46259 -201.307406,184.533547 143.076857,184.533547 C487.46112,184.533547 1983.43959,0 4449.64321,0 C6915.84682,0 4833.99015,944.085642 4833.99015,944.085642 L275.893996,984.9625 L184.214909,512.46259 Z" id="hill-back-right"></path>
            </g>
            <g id="hill-3" transform="translate(-1598.000000, 1525.000000)" fill="#8D8D8D">
                <path d="M600.570137,96.35 C1849.89706,43.475 2575.77147,-82.7793739 4125.4907,84.0706261 C5675.20994,250.920626 4846.50719,530.73752 4846.50719,530.73752 L442.214986,845.63752 C442.214986,845.63752 -648.756782,149.225 600.570137,96.35 Z"></path>
            </g>
            <g id="road-3" transform="translate(1722.000000, 1546.000000)" fill="#FFFFFF">
                <path d="M20.3931159,0 C263.695309,17.6305937 354.414586,28.2089499 118.759218,64.6455102 C-116.89615,101.08207 70.9194065,122.238783 70.9194065,122.238783 C70.9194065,122.238783 134.835414,128.115647 354.414586,74.0484935 C573.993758,19.9813395 160.262492,5.87686456 20.3931159,0 Z"></path>
            </g>
            <g id="hill-2" transform="translate(-805.000000, 1610.000000)" fill="#777777">
                <path d="M0,52.9114713 C0,52.9114713 922.663,-3.75421916e-13 2221.5,-1.13686838e-13 C3520.337,1.57863306e-13 4443,63.4937656 4443,63.4937656 L4443,943 L13.6983989,943 L0,52.9114713 Z"></path>
            </g>
            <g id="road-2" transform="translate(884.000000, 1611.000000)" fill="#FFFFFF">
                <path d="M662.158809,0 C436.48721,0 22.7157982,49.3656623 539.920026,222.14548 C344.808123,222.14548 187.828073,218.619362 82.6999634,190.410412 C-187.675953,36.4365603 275.461121,7.05223747 463.520787,0 C472.92377,3.66908792e-16 633.949859,4.29466741e-13 662.158809,0 Z"></path>
            </g>
            <g id="front-hill-" transform="translate(-1332.000000, 1773.000000)" fill="#5A5A5A">
                <rect id="Combined-Shape" x="1060.26719" y="190.399727" width="3526.38754" height="1532.60027"></rect>
                <path d="M3807.32308,177.471351 C2965.69192,203.328104 383.200779,246.814461 383.200779,246.814461 C383.200779,246.814461 -477.069609,24.031557 383.200779,18.8049113 C1554.12961,11.6908339 2093.49873,-69.3431105 3807.32308,177.471351 Z" id="front-hill-left"></path>
                <path d="M2904.56787,238.10576 C4259.87614,10.0962105 4209.33126,-8.70870079 5311.91509,12.4468245 C6414.49893,33.6023497 5927.85745,674.144642 5927.85745,674.144642 L5033.33048,1609.68898 C5033.33048,1609.68898 1549.25959,466.11531 2904.56787,238.10576 Z" id="front-hill"></path>
            </g>
            <g id="road-1" transform="translate(-1982.000000, 1880.000000)" fill="#FFFFFF">
                <path d="M3926.10653,2.27373675e-13 C4731.23697,157.49997 4054.22217,1033.15279 1158.10332,1332.87288 C-1738.01554,1632.59297 1710.28811,2152.1078 1710.28811,2152.1078 C1710.28811,2152.1078 1180.4354,3135.89493 3591.12525,2042.79812 C6001.81509,949.701313 5110.88242,110.485054 4283.41989,7.05223747 C4227.00199,7.05223747 3963.71846,2.27373675e-13 3926.10653,2.27373675e-13 Z" id="road"></path>
            </g>
            <g id="Cloud" transform="translate(2139.000000, 923.000000)" fill-rule="nonzero" fill="#FFFFFF">
                <path d="M592.309675,98.4366429 C666.436577,100.528607 536.71391,66.02475 462.585832,58.5773571 C281.087925,40.3436786 215.626291,55.4612143 104.06435,65.5073571 C17.8197132,73.2741429 0,95.568 0,95.568 L592.309675,98.4366429 Z M524.596176,98.5497857 C549.79001,98.5497857 570.213184,84.4411071 570.213184,67.0383214 C570.213184,49.6343571 549.79001,35.5256786 524.596176,35.5256786 C499.402342,35.5256786 478.979168,49.6343571 478.979168,67.0383214 C478.979168,84.4411071 499.402342,98.5497857 524.596176,98.5497857 Z M390.24043,68.904 C423.503346,68.904 450.468098,53.4788571 450.468098,34.452 C450.468098,15.4251429 423.503346,0 390.24043,0 C356.976338,0 330.011587,15.4251429 330.011587,34.452 C330.011587,53.4788571 356.976338,68.904 390.24043,68.904 Z M404.138489,91.0764643 C455.314015,91.0764643 496.798881,73.5075 496.798881,51.83475 C496.798881,30.162 455.314015,12.5930357 404.138489,12.5930357 C352.96414,12.5930357 311.479273,30.162 311.479273,51.83475 C311.479273,73.5075 352.96414,91.0764643 404.138489,91.0764643 Z M241.984273,82.1582143 C270.523566,82.1582143 293.65956,67.5898929 293.65956,49.6202143 C293.65956,31.6493571 270.523566,17.0822143 241.984273,17.0822143 C213.444981,17.0822143 190.308987,31.6493571 190.308987,49.6202143 C190.308987,67.5898929 213.444981,82.1582143 241.984273,82.1582143 Z M177.834952,90.6733929 C207.556033,90.6733929 231.649216,75.5735357 231.649216,56.9450357 C231.649216,38.3177143 207.556033,23.2166786 177.834952,23.2166786 C148.115048,23.2166786 124.021864,38.3177143 124.021864,56.9450357 C124.021864,75.5735357 148.115048,90.6733929 177.834952,90.6733929 Z M132.931721,82.5601071 C153.204379,82.5601071 169.638872,72.3654643 169.638872,59.78775 C169.638872,47.2112143 153.204379,37.0165714 132.931721,37.0165714 C112.657887,37.0165714 96.2233939,47.2112143 96.2233939,59.78775 C96.2233939,72.3654643 112.657887,82.5601071 132.931721,82.5601071 Z M47.3996845,90.6733929 C63.7354015,90.6733929 76.9784799,82.8830357 76.9784799,73.2741429 C76.9784799,63.6640714 63.7354015,55.8737143 47.3996845,55.8737143 C31.0627916,55.8737143 17.8197132,63.6640714 17.8197132,73.2741429 C17.8197132,82.8830357 31.0627916,90.6733929 47.3996845,90.6733929 Z" id="Shape"></path>
            </g>
        </g>
    </g>
</svg>