<?xml version="1.0" encoding="UTF-8"?>
<svg width="3000px" height="3000px" viewBox="0 0 3000 3000" version="1.1" xmlns="http://www.w3.org/2000/svg" xmlns:xlink="http://www.w3.org/1999/xlink">
    <!-- Generator: Sketch 43.2 (39069) - http://www.bohemiancoding.com/sketch -->
    <title>hokonui 2</title>
    <desc>Created with Sketch.</desc>
    <defs></defs>
    <g id="Page-1" stroke="none" stroke-width="1" fill="none" fill-rule="evenodd">
        <g id="hokonui-2">
            <rect id="Rectangle-6" fill="#602222" x="-480" y="-175" width="3754" height="3754"></rect>
            <g id="bg-hills" transform="translate(2161.000000, 1299.000000)" fill="#C5C5C5">
                <polygon id="Path-3" points="37.9892715 66.9090909 116.832237 46.5454545 213.195862 55.2727273 259.917619 43.6363636 315.399706 52.3636364 361.707792 49.7020973 370.881793 43.6363636 404.823258 47.2240528 467.245418 43.6363636 607.41069 58.1818182 659.972668 29.0909091 697.934096 29.0909091 779.697171 58.1818182 908.182004 32 1001.62552 52.3636364 1106.74947 46.5454545 1214.79354 20.3636364 1381.2398 40.7272727 1451.32243 52.3636364 1556.44639 26.1818182 1743.33342 29.0909091 1880.57858 14.5454545 2219.31132 0 2450 185 -4.54747351e-13 185"></polygon>
            </g>
            <g id="bg-hills-copy" transform="translate(-1341.000000, 1271.000000)" fill="#C5C5C5">
                <polygon id="Path-3" points="37.9892715 66.9090909 116.832237 46.5454545 213.195862 55.2727273 259.917619 43.6363636 315.399706 52.3636364 361.707792 49.7020973 370.881793 43.6363636 404.823258 47.2240528 467.245418 43.6363636 607.41069 58.1818182 659.972668 29.0909091 697.934096 29.0909091 779.697171 58.1818182 908.182004 32 1001.62552 52.3636364 1106.74947 46.5454545 1214.79354 20.3636364 1381.2398 40.7272727 1451.32243 52.3636364 1556.44639 26.1818182 1743.33342 29.0909091 1880.57858 14.5454545 2219.31132 0 2450 185 -4.54747351e-13 185"></polygon>
            </g>
            <g id="hill-main" transform="translate(-807.000000, 1121.000000)" fill="#A5A5A5">
                <path d="M3197.18188,305.669565 L2719.88189,129.191111 L2647.6943,98.4608696 L2540.44138,114.626087 L2489.01875,95.5217391 C2489.01875,95.5217391 2456.66151,108.747826 2428.7808,108.747826 C2400.90009,108.747826 2227.49792,30.8608696 2227.49792,30.8608696 L2171.00788,49.5733333 L2131.95933,41.5806704 L2047.85476,54.08 L2001.08817,44.9213071 L1954.41987,38.5762259 L1883.70088,64.6608696 L1623.64927,0 L1521.39169,22.5333333 L1442.93544,24.9826087 L1261.56863,108.747826 L1174.06853,99.9304348 L1062.40795,145.486957 L969.847207,119.034783 L878.755683,155.773913 L734.772307,132.26087 L0,338 L548.181606,338 L3217,338 L3197.18188,305.669565 Z" id="hill"></path>
            </g>
            <g id="hill-shadows" transform="translate(334.000000, 1139.000000)">
                <polygon id="Path-12" fill="#777777" points="414.29423 106.299435 235.274854 160 163.94152 160 308.526844 94.3220339 301.775735 68.8700565 388.790037 47.9096045 474.304094 0"></polygon>
                <polygon id="Path-15" fill="#777777" points="1510.51462 81.25 1435.59157 188.75 1441.58541 118.576389 1396.63158 97.6736111"></polygon>
                <polygon id="Path-17-Copy" fill="#777777" points="1349.07602 77.5 1298.01637 162.5 1281.49708 90.9210526"></polygon>
                <polygon id="Path-19" fill="#777777" points="1086.26901 15 1015.53278 121.280864 1015.53278 173.67284 856 257.5 979.412147 160.200617 914.696021 88.3487654 986.937278 76.3734568 1032.08806 32.962963"></polygon>
                <polygon id="Path-20" fill="#777777" points="812.19883 21.25 729.602339 95 763.391813 52.8571429 740.11462 46.8367347"></polygon>
                <polygon id="Path-21" fill="#777777" points="1712 215 1606.87719 320 1632.40702 221"></polygon>
                <polygon id="Path-24" fill="#A5A5A5" points="1091.27485 272.5 875.022222 200 813.450292 272.5"></polygon>
                <polygon id="Path-25" fill="#777777" points="876.023392 200 719.590643 283.75 826.386077 210.46875"></polygon>
                <polygon id="Path-2" fill="#777777" points="98.8654971 168.75 27.5321637 185 0 238.75"></polygon>
            </g>
            <g id="hill-far-left-back-dkr" transform="translate(-830.000000, 1379.000000)" fill="#777777">
                <path d="M0,34.4736479 C524.187956,-43.0920599 1163.73393,34.4736479 2018.39014,34.4736479 C2873.04636,34.4736479 1436.71274,230.415512 1436.71274,230.415512 L146.153864,280.457904 C146.153864,280.457904 111.368086,273.507572 0,34.4736479 Z" id="hill-back-Far-left"></path>
            </g>
            <g id="hill-back-left-pr" transform="translate(-221.000000, 1395.000000)" fill="#8D8D8D">
                <path d="M109.248841,53.6959847 C581.118473,15.9878519 1619,-34 2138.43996,35.2800714 C2657.87992,104.560143 1895.30086,81.342714 1895.30086,81.342714 L853.550515,121.422405 C853.550515,121.422405 -362.620791,91.4041176 109.248841,53.6959847 Z" id="hill-back-left"></path>
            </g>
            <g id="hill-back-center-dkr" transform="translate(-35.000000, 1417.000000)" fill="#777777">
                <path d="M272.344319,87.3422775 C1045.7272,-30.2843956 2172.01296,-8.15359584 3093.2582,36.3387628 C4014.50345,80.8311215 2605.72416,225.373769 2605.72416,225.373769 L618.455517,275.427672 C618.455517,275.427672 -501.038565,204.968951 272.344319,87.3422775 Z" id="hill-back-center"></path>
            </g>
            <g id="hill-back-right-Dst" transform="translate(-799.000000, 1439.000000)" fill="#5A5A5A">
                <path d="M196.135463,545.759651 C196.135463,545.759651 -214.334017,196.523544 152.335366,196.523544 C519.00475,196.523544 2111.78805,0 4737.57981,0 C7363.37156,0 5146.79786,1005.42725 5146.79786,1005.42725 L293.747108,1048.96006 L196.135463,545.759651 Z" id="hill-back-right"></path>
            </g>
            <g id="hill-3" transform="translate(-1892.000000, 1481.000000)" fill="#8D8D8D">
                <path d="M639.431254,102.613889 C1969.59842,46.3013889 2742.44202,-88.1610117 4392.43901,89.5362105 C6042.43599,267.233433 5160.11034,565.241732 5160.11034,565.241732 L470.82941,900.613954 C470.82941,900.613954 -690.735915,158.926389 639.431254,102.613889 Z"></path>
            </g>
            <g id="road-3" transform="translate(1643.000000, 1503.000000)" fill="#FFFFFF">
                <path d="M21.71436,0 C280.779793,18.777299 377.376657,30.0436783 126.453477,68.8500962 C-124.469703,107.656514 75.5141849,130.189273 75.5141849,130.189273 C75.5141849,130.189273 143.571229,136.448372 377.376657,78.8646556 C611.182085,21.2809388 170.645696,6.25909965 21.71436,0 Z"></path>
            </g>
            <g id="hill-2" transform="translate(-1048.000000, 1572.000000)" fill="#777777">
                <path d="M0,56.3341646 C0,56.3341646 982.471,-3.92352817e-13 2365.5,-1.13686838e-13 C3748.529,1.75429116e-13 4731,67.6009975 4731,67.6009975 L4731,1004 L14.5863437,1004 L0,56.3341646 Z"></path>
            </g>
            <g id="road-2" transform="translate(751.000000, 1573.000000)" fill="#FFFFFF">
                <path d="M705.104252,0 C464.796335,0 24.1890701,52.4648519 574.937464,236.091833 C367.171244,236.091833 200.009985,232.344344 88.0636111,202.364429 C-199.847998,38.7240573 293.326624,7.49497884 493.583221,0 C503.596051,3.89943425e-16 675.065763,4.56428779e-13 705.104252,0 Z"></path>
            </g>
            <g id="front-hill-" transform="translate(-1609.000000, 1745.000000)" fill="#5A5A5A">
                <rect id="Combined-Shape" x="1128.94917" y="202.776262" width="3754.81986" height="1632.22374"></rect>
                <path d="M4053.95385,189.007503 C3157.80351,216.54502 408.023759,262.858117 408.023759,262.858117 C408.023759,262.858117 -507.973224,25.5936779 408.023759,20.0272851 C1654.80302,12.4507721 2229.11139,-73.8506139 4053.95385,189.007503 Z" id="front-hill-left"></path>
                <path d="M3092.71996,253.583326 C4535.8224,10.7524935 4482.00331,-9.27479161 5656.01032,13.2559042 C6830.01733,35.7865999 6311.85219,717.966 6311.85219,717.966 L5359.37955,1714.32343 C5359.37955,1714.32343 1649.61753,496.414158 3092.71996,253.583326 Z" id="front-hill"></path>
            </g>
            <g id="road-1" transform="translate(-2301.000000, 1859.000000)" fill="#FFFFFF">
                <path d="M4180.58345,2.27373675e-13 C5037.89972,167.71685 4317.00312,1100.17247 1233.16765,1419.33513 C-1850.66782,1738.49779 1821.14319,2291.71308 1821.14319,2291.71308 C1821.14319,2291.71308 1256.94723,3339.31758 3823.88982,2175.31258 C6390.83241,1011.30757 5442.1525,117.652119 4561.05666,7.5097097 C4500.98194,7.5097097 4220.63326,2.27373675e-13 4180.58345,2.27373675e-13 Z" id="road"></path>
            </g>
            <g id="Cloud" transform="translate(2087.000000, 840.000000)" fill-rule="nonzero" fill="#FFFFFF">
                <path d="M630.833881,44.4025 C709.782046,46.62125 571.622132,10.02625 492.672715,2.1275 C299.370067,-17.21125 229.650765,-1.1775 110.832763,9.4775 C18.9787189,17.715 0,41.36 0,41.36 L630.833881,44.4025 Z M558.716252,44.5225 C585.548709,44.5225 607.30022,29.55875 607.30022,11.10125 C607.30022,-7.3575 585.548709,-22.32125 558.716252,-22.32125 C531.883795,-22.32125 510.132285,-7.3575 510.132285,11.10125 C510.132285,29.55875 531.883795,44.5225 558.716252,44.5225 Z M415.621922,13.08 C451.048279,13.08 479.766836,-3.28 479.766836,-23.46 C479.766836,-43.64 451.048279,-60 415.621922,-60 C380.194312,-60 351.475755,-43.64 351.475755,-23.46 C351.475755,-3.28 380.194312,13.08 415.621922,13.08 Z M430.42392,36.59625 C484.927935,36.59625 529.111004,17.9625 529.111004,-5.02375 C529.111004,-28.01 484.927935,-46.64375 430.42392,-46.64375 C375.921157,-46.64375 331.738088,-28.01 331.738088,-5.02375 C331.738088,17.9625 375.921157,36.59625 430.42392,36.59625 Z M257.723088,27.1375 C288.118595,27.1375 312.759369,11.68625 312.759369,-7.3725 C312.759369,-26.4325 288.118595,-41.8825 257.723088,-41.8825 C227.327581,-41.8825 202.686807,-26.4325 202.686807,-7.3725 C202.686807,11.68625 227.327581,27.1375 257.723088,27.1375 Z M189.401453,36.16875 C221.055612,36.16875 246.715832,20.15375 246.715832,0.39625 C246.715832,-19.36 221.055612,-35.37625 189.401453,-35.37625 C157.748547,-35.37625 132.088327,-19.36 132.088327,0.39625 C132.088327,20.15375 157.748547,36.16875 189.401453,36.16875 Z M141.577686,27.56375 C163.168891,27.56375 180.672294,16.75125 180.672294,3.41125 C180.672294,-9.9275 163.168891,-20.74 141.577686,-20.74 C119.985229,-20.74 102.481826,-9.9275 102.481826,3.41125 C102.481826,16.75125 119.985229,27.56375 141.577686,27.56375 Z M50.4825908,36.16875 C67.8807935,36.16875 81.9852103,27.90625 81.9852103,17.715 C81.9852103,7.5225 67.8807935,-0.74 50.4825908,-0.74 C33.0831358,-0.74 18.9787189,7.5225 18.9787189,17.715 C18.9787189,27.90625 33.0831358,36.16875 50.4825908,36.16875 Z" id="Shape"></path>
            </g>
        </g>
    </g>
</svg>