<?xml version="1.0" encoding="UTF-8"?>
<svg width="3000px" height="3000px" viewBox="0 0 3000 3000" version="1.1" xmlns="http://www.w3.org/2000/svg" xmlns:xlink="http://www.w3.org/1999/xlink">
    <!-- Generator: Sketch 43.2 (39069) - http://www.bohemiancoding.com/sketch -->
    <title>template</title>
    <desc>Created with Sketch.</desc>
    <defs></defs>
    <g id="Page-1" stroke="none" stroke-width="1" fill="none" fill-rule="evenodd">
        <g id="template">
            <rect id="Rectangle-6" fill="#602222" x="0" y="0" width="3000" height="3000"></rect>
            <g id="bg-hills" transform="translate(2110.000000, 1178.000000)" fill="#C5C5C5">
                <polygon id="Path-3" points="30.3604055 53.5272727 93.3704165 37.2363636 170.382652 44.2181818 207.721918 34.9090909 252.062296 41.8909091 289.070962 39.7616779 296.402674 34.9090909 323.528138 37.7792423 373.41491 34.9090909 485.432707 46.5454545 527.439381 23.2727273 557.777534 23.2727273 623.121249 46.5454545 725.80423 25.6 800.482762 41.8909091 884.49611 37.2363636 970.843162 16.2909091 1103.8643 32.5818182 1159.87319 41.8909091 1243.88654 20.9454545 1393.24361 23.2727273 1502.9277 11.6363636 1773.63738 0 1958 148 -4.54747351e-13 148"></polygon>
            </g>
            <g id="bg-hills-copy" transform="translate(-688.000000, 1156.000000)" fill="#C5C5C5">
                <polygon id="Path-3" points="30.3604055 53.5272727 93.3704165 37.2363636 170.382652 44.2181818 207.721918 34.9090909 252.062296 41.8909091 289.070962 39.7616779 296.402674 34.9090909 323.528138 37.7792423 373.41491 34.9090909 485.432707 46.5454545 527.439381 23.2727273 557.777534 23.2727273 623.121249 46.5454545 725.80423 25.6 800.482762 41.8909091 884.49611 37.2363636 970.843162 16.2909091 1103.8643 32.5818182 1159.87319 41.8909091 1243.88654 20.9454545 1393.24361 23.2727273 1502.9277 11.6363636 1773.63738 0 1958 148 -4.54747351e-13 148"></polygon>
            </g>
            <g id="hill-main" transform="translate(-261.000000, 1036.000000)" fill="#A5A5A5">
                <path d="M1029.21425,77 L1152.73363,19.9565217 L1215.41083,18 L1297.10246,0 L1504.85274,51.6521739 L1561.34879,30.8153284 L1598.63121,35.8838844 L1635.99214,43.2 L1703.18169,33.2153284 L1734.37683,39.6 L1779.50564,24.6521739 C1779.50564,24.6521739 1918.03333,86.8695652 1940.3067,86.8695652 C1962.58007,86.8695652 1988.42965,76.3043478 1988.42965,76.3043478 L2029.51021,91.5652174 L2115.19253,78.6521739 L2172.86181,103.2 L2554.16768,244.173913 L2570,270 L437.931839,270 L0,270 L586.995595,105.652174 L702.021171,124.434783 L774.792453,95.0869565 L843.99596,114.862464 L809,135 L852.162657,114.820057 L937.940973,79.826087 L999.816278,86.0607632 L953,113 L1030,77 L1029.21425,77 Z" id="hill"></path>
            </g>
            <g id="hill-shadows" transform="translate(651.000000, 1050.000000)">
                <polygon id="Path-12" fill="#777777" points="331.048193 85.039548 188 128 131 128 246.533133 75.4576271 241.138554 55.0960452 310.668675 38.3276836 379 0"></polygon>
                <polygon id="Path-15" fill="#777777" points="1207 65 1147.13158 151 1151.92105 94.8611111 1116 78.1388889"></polygon>
                <polygon id="Path-17-Copy" fill="#777777" points="1078 62 1037.2 130 1024 72.7368421"></polygon>
                <polygon id="Path-19" fill="#777777" points="868 12 811.477124 97.0246914 811.477124 138.938272 684 206 782.614379 128.160494 730.901961 70.6790123 788.627451 61.0987654 824.705882 26.3703704"></polygon>
                <polygon id="Path-20" fill="#777777" points="649 17 583 76 610 42.2857143 591.4 37.4693878"></polygon>
                <polygon id="Path-21" fill="#777777" points="1368 172 1284 256 1304.4 176.8"></polygon>
                <polygon id="Path-24" fill="#A5A5A5" points="872 218 699.2 160 650 218"></polygon>
                <polygon id="Path-25" fill="#777777" points="700 160 575 227 660.336538 168.375"></polygon>
                <polygon id="Path-2" fill="#777777" points="79 135 22 148 0 191"></polygon>
            </g>
            <path d="M-280,1269 C138.905718,1207 650,1269 1333,1269 C2016,1269 868.151487,1425.6207 868.151487,1425.6207 L-163.200885,1465.6207 C-163.200885,1465.6207 -191,1460.06515 -280,1269 Z" id="hill-back-Far-left" fill="#777777"></path>
            <path d="M-108,1297.57401 C269.067246,1267.41159 1208.05615,1242.52091 1601.4105,1266.84545 C1994.76485,1291.16998 1407.12,1319.6884 1407.12,1319.6884 L478.774591,1350.14802 C478.774591,1350.14802 -485.067246,1327.73643 -108,1297.57401 Z" id="hill-back-left" fill="#8D8D8D"></path>
            <path d="M573,1334 C1191,1240 2091,1265.67696 2827.15485,1301.23251 C3563.3097,1336.78807 2437.57287,1452.29766 2437.57287,1452.29766 L849.572866,1492.29766 C849.572866,1492.29766 -45,1428 573,1334 Z" id="hill-back-center" fill="#777777"></path>
            <path d="M-98.2710956,1726 C-98.2710956,1726 -426.271096,1447 -133.271096,1447 C159.728904,1447 1432.49813,1290 3530.7289,1290 C5628.95968,1290 3857.7289,2093.22222 3857.7289,2093.22222 L-20.2710956,2128 L-98.2710956,1726 Z" id="hill-back-right" fill="#5A5A5A"></path>
            <g id="hill-3" transform="translate(-1128.000000, 1323.000000)" fill="#8D8D8D">
                <path d="M511,82 C1574,37 2191.61617,-70.450531 3510.20742,71.549469 C4828.79867,213.549469 4123.69018,451.691506 4123.69018,451.691506 L376.262228,719.691506 C376.262228,719.691506 -552,127 511,82 Z"></path>
            </g>
            <path d="M2033.79904,1341 C1826.79904,1356 1749.61564,1365 1950.10977,1396 C2150.6039,1427 1990.81159,1445 1990.81159,1445 C1990.81159,1445 1936.43224,1450 1749.61564,1404 C1562.79904,1358 1914.79904,1346 2033.79904,1341 Z" id="road-3" fill="#FFFFFF" transform="translate(1873.574689, 1393.079719) scale(-1, 1) translate(-1873.574689, -1393.079719) "></path>
            <g id="hill-2" transform="translate(-456.000000, 1396.000000)" fill="#777777">
                <path d="M0,45 C0,45 784.98,-3.36286554e-13 1890,-1.13686838e-13 C2995.02,1.17260368e-13 3780,54 3780,54 L3780,802 L11.6542759,802 L0,45 Z"></path>
            </g>
            <path d="M1547.03416,1396 C1355.03416,1396 1003,1438 1443.03416,1585 C1277.03416,1585 1143.4765,1582 1054.03416,1558 C824,1427 1218.03416,1402 1378.03416,1396 C1386.03416,1396 1523.03416,1396 1547.03416,1396 Z" id="road-2" fill="#FFFFFF"></path>
            <g id="front-hill-" transform="translate(-902.000000, 1534.000000)" fill="#5A5A5A">
                <rect id="Combined-Shape" x="902" y="162" width="3000" height="1304"></rect>
                <path d="M3239,151 C2523,173 326,210 326,210 C326,210 -405.856932,20.4470473 326,16 C1322.14307,9.94704733 1781,-59 3239,151 Z" id="front-hill-left"></path>
                <path d="M2471,202.590275 C3624,8.59027548 3581,-7.40972452 4519,10.5902755 C5457,28.5902755 5043,573.590275 5043,573.590275 L4282,1369.59028 C4282,1369.59028 1318,396.590275 2471,202.590275 Z" id="front-hill"></path>
            </g>
            <path d="M1885,1625 C2570,1759 1994,2504 -470,2759 C-2934,3014 -0.204598949,3456 -0.204598949,3456 C-0.204598949,3456 -908.414947,4293 1142.58505,3363 C3193.58505,2433 2893,1719 2189,1631 C2141,1631 1917,1625 1885,1625 Z" id="road" fill="#FFFFFF"></path>
        </g>
    </g>
</svg>