		<svg 
			viewBox="0, 0, 2000, 3000"
			width="100%" height="100%"
			preserveAspectRatio="xMidYMid slice"
		  version="1.1"
		  xmlns="http://www.w3.org/2000/svg"
		  xmlns:xlink="http://www.w3.org/1999/xlink"
  >
			  <g id="Background" class="lightest"  className="lightest">
			    <rect x="0" y="0" width="2000" height="3000" fill="#FFFFFF"/>
			  </g>
			  <defs>
			    <clipPath id="Clip_1">
			      <path d="M-1914.675,-297.918 L3914.675,-297.918 L3914.675,4071.96 L-1914.675,4071.96 z"/>
			    </clipPath>
			  </defs>
			  <g id="Sky" class="lightest" className="lightest">
			    <path d="M-0,0 L2000,0 L2000,1929.37 L-0,1929.37 z" fill="#B2DFD5"/>
			  </g>
			
			  <g id="Clouds">
			    <path d="M-251.822,1478.239 C-141.081,1464.409 10.409,1469.302 121.737,1467.491 C241.797,1465.537 442.196,1478.235 448.095,1450.885 C472.476,1342.464 338.658,1312.184 264.596,1341.092 C292.75,1265.299 208.748,1238.926 152.846,1285.217 C150.142,1223.298 26.617,1186.181 -36.125,1290.695 C-96.005,1202.786 -144.178,1261.837 -165.47,1254.74 C-147.774,1235.019 -199.333,1217.49 -199.333,1217.49 C-199.333,1217.49 -240.301,1240.664 -260.287,1237.808 C-291.133,1233.402 -305.393,1201.7 -344.946,1209.025 C-381.68,1215.827 -409.332,1251.486 -431.298,1278.445 C-451.156,1302.817 -479.455,1339.075 -477.013,1373.262 C-474.133,1413.583 -355.368,1476.383 -312.776,1479.932 C-291.532,1481.702 -270.762,1471.466 -248.435,1471.466" fill="#FFFFFF"/>
			    <path d="M2075.828,1215.697 L2075.828,1215.697" fill="#FFFFFF"/>
			    <path d="M1791.977,1659.401 C1881.824,1662.767 1971.436,1661.095 2061.191,1661.095 C2124.36,1661.095 2188.456,1669.561 2250.827,1669.561 C2254.003,1669.561 2266.514,1673.12 2267.758,1671.254 C2269.856,1668.107 2266.065,1656.472 2266.065,1652.629 C2266.065,1641.815 2267.895,1629.061 2259.292,1620.459 C2247.852,1609.018 2141.095,1611.02 2125.532,1611.993 C2109.232,1580.818 2046.563,1563.023 1977.212,1603.117 C1969.967,1577.723 1933.366,1565.015 1875.577,1558.381 C1802.634,1550.007 1783.511,1593.368 1783.511,1593.368 C1783.511,1593.368 1721.41,1565.015 1651.979,1565.015 C1603.237,1565.015 1566.099,1579.271 1554.899,1603.117 C1537.473,1585.46 1525.931,1598.694 1512.181,1597.319 C1485.407,1594.641 1435.345,1574.054 1397.407,1603.117 C1364.311,1628.47 1336.312,1664.794 1461.953,1664.794" fill="#FFFFFF"/>
			    <path d="M1817.407,1528.045 L1817.407,1528.045" fill="#FFFFFF"/>
			    <path d="M1973.693,1589.941 C1974.983,1589.425 1976.272,1588.909 1977.562,1588.393" fill="#FFFFFF"/>
			    <path d="M1822.049,1546.614 L1822.049,1546.614" fill="#FFFFFF"/>
			  </g>
			
			  <g id="Bg_city" class="lighter" className="lighter">
			    <path d="M475.605,1919.025 L2020.693,1919.025 L2020.693,1929.369 L475.605,1929.369 z" fill="#47A590"/>
			    <path d="M1805.475,1875.507 L2000,1875.507 L2000,1893.983 L1805.475,1893.983 z" fill="#47A590"/>
			    <path d="M1704.262,1893.983 L1933.463,1893.983 L1933.463,1948.108 L1704.262,1948.108 z" fill="#47A590"/>
			    <path d="M1587.34,1881.226 L1704.262,1881.226 L1704.262,1948.108 L1587.34,1948.108 z" fill="#47A590"/>
			    <path d="M1675.031,1875.507 L1762.773,1875.507 L1762.773,1930.798 L1675.031,1930.798 z" fill="#47A590"/>
			    <path d="M1718.715,1869.5 L1777.974,1869.5 L1777.974,1895.959 L1718.715,1895.959 z" fill="#47A590"/>
			    <path d="M1354.96,1909.117 L1474.298,1909.117 L1474.298,1930.798 L1354.96,1930.798 z" fill="#47A590"/>
			    <path d="M1194.895,1902.184 L1236.903,1902.184 L1236.903,1912.631 L1194.895,1912.631 z" fill="#47A590"/>
			    <path d="M880.987,1904.455 L923.747,1904.455 L923.747,1912.631 L880.987,1912.631 z" fill="#47A590"/>
			    <path d="M716.125,1899.343 L817.913,1899.343 L817.913,1923.326 L716.125,1923.326 z" fill="#47A590"/>
			    <path d="M451.022,1875.507 L549.145,1875.507 L549.145,1912.631 L451.022,1912.631 z" fill="#47A590"/>
			    <path d="M538,1885.999 L646,1885.999 L646,1912.631 L538,1912.631 z" fill="#47A590"/>
			    <path d="M-0,1856.769 L400.398,1856.769 L400.398,1905.698 L-0,1905.698 z" fill="#47A590"/>
			    <path d="M316.219,1837.705 L337.673,1837.705 L337.673,1869.5 L316.219,1869.5 z" fill="#47A590"/>
			    <path d="M352.5,1837.705 L374.066,1837.705 L374.066,1862.488 L352.5,1862.488 z" fill="#47A590"/>
			    <path d="M385,1842 L405.5,1842 L405.5,1869.5 L385,1869.5 z" fill="#47A590"/>
			    <path d="M66.5,1847.029 L106,1847.029 L106,1862.488 L66.5,1862.488 z" fill="#47A590"/>
			    <path d="M22.5,1830.08 L46.5,1830.08 L46.5,1862.488 L22.5,1862.488 z" fill="#47A590"/>
			    <path d="M1496.729,1902.184 L1626.102,1902.184 L1626.102,1921.834 L1496.729,1921.834 z" fill="#47A590"/>
			    <path d="M1026.287,1904.455 L1136.729,1904.455 L1136.729,1929.37 L1026.287,1929.37 z" fill="#B2DFD5"/>
			    <path d="M811.745,1909.117 L833.87,1909.117 L833.87,1921.834 L811.745,1921.834 z" fill="#47A590"/>
			    <path d="M962.547,1903.884 L987.901,1903.884 L987.901,1912.06 L962.547,1912.06 z" fill="#47A590"/>
			    <path d="M1767.937,1856.769 L1814.118,1856.769 L1814.118,1899.343 L1767.937,1899.343 z" fill="#47A590"/>
			    <path d="M1775.281,1868.572 L1987.395,1868.572 L1987.395,1887.54 L1775.281,1887.54 z" fill="#47A590"/>
			  </g>
			  <g id="Sea" class="lighter" className="lighter">
			    <path d="M-0,1929.369 L2000,1929.369 L2000,2999.999 L-0,2999.999 z" fill="#7DBBAD"/>
			  </g>
			  <g id="Mid_city" class="primary">
			    <path d="M1864.339,1875.245 L2000,1875.245 L2000,1929.37 L1864.339,1929.37 z" fill="#028063"/>
			    <path d="M1969.242,1856.769 L2118.853,1856.769 L2118.853,1929.37 L1969.242,1929.37 z" fill="#028063"/>
			    <path d="M1821.184,1875.245 L1838.517,1875.245 L1838.517,1929.37 L1821.184,1929.37 z" fill="#028063"/>
			    <path d="M1704.262,1899.343 L1875.196,1899.343 L1875.196,1929.37 L1704.262,1929.37 z" fill="#028063"/>
			    <path d="M1626.102,1885.999 L1777.974,1885.999 L1777.974,1929.37 L1626.102,1929.37 z" fill="#028063"/>
			    <path d="M1565.735,1905.698 L1653.426,1905.698 L1653.426,1929.37 L1565.735,1929.37 z" fill="#028063"/>
			    <path d="M1435.252,1916.778 L1641.988,1916.778 L1641.988,1929.37 L1435.252,1929.37 z" fill="#028063"/>
			    <path d="M1880.28,1837.705 L1899.343,1837.705 L1899.343,1847.029 L1880.28,1847.029 z" fill="#028063"/>
			    <path d="M1880.28,1847.029 L1919.042,1847.029 L1919.042,1885.999 L1880.28,1885.999 z" fill="#028063"/>
			    <path d="M1691.553,1847.029 L1712.523,1847.029 L1712.523,1885.999 L1691.553,1885.999 z" fill="#028063"/>
			    <path d="M1704.262,1875.245 L1731.884,1875.245 L1731.884,1893.893 L1704.262,1893.893 z" fill="#028063"/>
			    <path d="M1641.988,1856.769 L1675.031,1856.769 L1675.031,1885.999 L1641.988,1885.999 z" fill="#028063"/>
			    <path d="M1991.483,1837.705 L2070.956,1837.705 L2070.956,1885.999 L1991.483,1885.999 z" fill="#028063"/>
			    <path d="M2084.893,1830.08 L2118.853,1830.08 L2118.853,1885.999 L2084.893,1885.999 z" fill="#028063"/>
			    <path d="M117.85,1885.999 L264.509,1885.999 L264.509,1972.994 L117.85,1972.994 z" fill="#028063"/>
			    <path d="M238.628,1905.698 L400.398,1905.698 L400.398,1972.994 L238.628,1972.994 z" fill="#028063"/>
			    <path d="M264.509,1875.245 L316.219,1875.245 L316.219,1946.381 L264.509,1946.381 z" fill="#028063"/>
			    <path d="M93.866,1830.08 L161.592,1830.08 L161.592,1885.999 L93.866,1885.999 z" fill="#028063"/>
			    <path d="M-19.011,1837.705 L35.645,1837.705 L35.645,1937.059 L-19.011,1937.059 z" fill="#028063"/>
			    <path d="M-43.963,1875.245 L264.509,1875.245 L264.509,1946.381 L-43.963,1946.381 z" fill="#028063"/>
			    <path d="M29.876,1905.698 L201.663,1905.698 L201.663,1984.26 L29.876,1984.26 z" fill="#028063"/>
			    <path d="M501.251,1893.893 L528.125,1893.893 L528.125,1929.369 L501.251,1929.369 z" fill="#028063"/>
			    <path d="M365.501,1862.488 L427.641,1862.488 L427.641,1899.343 L365.501,1899.343 z" fill="#028063"/>
			    <path d="M337.673,1875.245 L400.398,1875.245 L400.398,1919.025 L337.673,1919.025 z" fill="#028063"/>
			    <path d="M766.049,1919.025 L880.987,1919.025 L880.987,1929.37 L766.049,1929.37 z" fill="#028063"/>
			    <path d="M726.756,1905.698 L781.542,1905.698 L781.542,1929.37 L726.756,1929.37 z" fill="#028063"/>
			    <path d="M667.436,1912.06 L750.865,1912.06 L750.865,1929.37 L667.436,1929.37 z" fill="#028063"/>
			    <path d="M601.033,1893.893 L681.625,1893.893 L681.625,1929.37 L601.033,1929.37 z" fill="#028063"/>
			    <path d="M559.602,1905.698 L618.059,1905.698 L618.059,1929.37 L559.602,1929.37 z" fill="#028063"/>
			    <path d="M475.605,1912.06 L589.682,1912.06 L589.682,1946.381 L475.605,1946.381 z" fill="#028063"/>
			    <path d="M365.501,1885.999 L483.73,1885.999 L483.73,1946.381 L365.501,1946.381 z" fill="#028063"/>
			    <path d="M2185.498,1875.245 L2319.961,1875.245 L2319.961,1923.326 L2185.498,1923.326 z" fill="#028063"/>
			    <path d="M2229.729,1848.818 L2287.792,1848.818 L2287.792,1893.893 L2229.729,1893.893 z" fill="#028063"/>
			    <path d="M2310.31,1842 L2358.562,1842 L2358.562,1903.884 L2310.31,1903.884 z" fill="#028063"/>
			    <path d="M2358.562,1869.5 L2399.094,1869.5 L2399.094,1919.025 L2358.562,1919.025 z" fill="#028063"/>
			    <path d="M2343.122,1869.5 L2380.437,1869.5 L2380.437,1912.06 L2343.122,1912.06 z" fill="#028063"/>
			  </g>
			  <g id="Bridge_bars" class="lighter">
			    <path d="M2000,1633.245 L2008.937,1633.245 L2008.937,1783.28 L2000,1783.28 z" fill="#7DBBAD"/>
			    <path d="M1903.209,1591.094 L1910.004,1591.094 L1910.004,1781.833 L1903.209,1781.833 z" fill="#7DBBAD"/>
			    <path d="M1790.865,1557.307 L1799.809,1557.307 L1799.809,1780.795 L1790.865,1780.795 z" fill="#7DBBAD"/>
			    <path d="M1682.24,1528.245 L1691.553,1528.245 L1691.553,1780.795 L1682.24,1780.795 z" fill="#7DBBAD"/>
			    <path d="M1559.002,1505.604 L1567.978,1505.604 L1567.978,1779.357 L1559.002,1779.357 z" fill="#7DBBAD"/>
			    <path d="M1444.57,1486.615 L1454.011,1486.615 L1454.011,1780.795 L1444.57,1780.795 z" fill="#7DBBAD"/>
			    <path d="M1339.237,1482.167 L1348.179,1482.167 L1348.179,1780.794 L1339.237,1780.794 z" fill="#7DBBAD"/>
			    <path d="M1218.261,1483.286 L1229,1483.286 L1229,1781.833 L1218.261,1781.833 z" fill="#7DBBAD"/>
			    <path d="M1127.908,1482.167 L1117.428,1482.167 L1117.428,1781.833 L1127.908,1781.833 z" fill="#7DBBAD"/>
			    <path d="M1016.678,1487.654 L1026.287,1487.654 L1026.287,1781.833 L1016.678,1781.833 z" fill="#7DBBAD"/>
			    <path d="M919.71,1499.303 L929.598,1499.303 L929.598,1779.357 L919.71,1779.357 z" fill="#7DBBAD"/>
			    <path d="M804.807,1519.205 L812.796,1519.205 L812.796,1779.357 L804.807,1779.357 z" fill="#7DBBAD"/>
			    <path d="M695.357,1551.509 L707.711,1551.509 L707.711,1779.357 L695.357,1779.357 z" fill="#7DBBAD"/>
			    <path d="M577.809,1580.791 L588.995,1580.791 L588.995,1780.795 L577.809,1780.795 z" fill="#7DBBAD"/>
			    <path d="M489.883,1610.791 L501.027,1610.791 L501.027,1780.793 L489.883,1780.793 z" fill="#7DBBAD"/>
			    <path d="M412.095,1641.547 L420.977,1641.547 L420.977,1780.793 L412.095,1780.793 z" fill="#7DBBAD"/>
			    <path d="M337.673,1670.395 L346.65,1670.395 L346.65,1780.795 L337.673,1780.795 z" fill="#7DBBAD"/>
			    <path d="M238.628,1704 C924.52,1418.752 1466.118,1385.47 2109.9,1670.395 C2177.794,1700.444 2180.522,1713.045 2118.853,1685.89 C1505.682,1415.889 991.209,1403.414 264.509,1705 C241.738,1714.45 187.783,1725.146 238.628,1704 z" fill="#7DBBAD"/>
			  </g>
			  <g id="Bridge_4" class="darkest" className="darkest">
			    <path d="M184.76,1633.244 L295.636,1633.244 L295.636,1929.37 L184.76,1929.37 z" fill="#00513F"/>
			    <path d="M207.153,1618.985 L272.569,1618.985 L272.569,1919.024 L207.153,1919.024 z" fill="#00513F"/>
			    <path d="M175.807,1670.395 L305.278,1670.395 L305.278,1937.059 L175.807,1937.059 z" fill="#00513F"/>
			    <path d="M-0,1780.794 L2476.396,1780.794 L2476.396,1807.5 L-0,1807.5 z" fill="#00513F"/>
			    <path d="M2118.853,1633.245 L2229.729,1633.245 L2229.729,1929.37 L2118.853,1929.37 z" fill="#00513F"/>
			    <path d="M2141.246,1618.985 L2206.662,1618.985 L2206.662,1919.024 L2141.246,1919.024 z" fill="#00513F"/>
			    <path d="M2109.9,1670.395 L2239.371,1670.395 L2239.371,1946.381 L2109.9,1946.381 z" fill="#00513F"/>
			    <path d="M161.592,1919.025 L374.066,1919.025 L374.066,1971.946 L161.592,1971.946 z" fill="#00513F"/>
			    <path d="M-10.581,1912.06 L201.663,1912.06 L201.663,1984.26 L-10.581,1984.26 z" fill="#00513F"/>
			    <path d="M80.914,1893.893 L215.978,1893.893 L215.978,1937.059 L80.914,1937.059 z" fill="#00513F"/>
			    <path d="M2076.501,1905.698 L2141.246,1905.698 L2141.246,1946.381 L2076.501,1946.381 z" fill="#00513F"/>
			    <path d="M2218.644,1905.698 L2270.33,1905.698 L2270.33,1946.381 L2218.644,1946.381 z" fill="#00513F"/>
			    <path d="M2224.075,1885.999 L2287.792,1885.999 L2287.792,1930.798 L2224.075,1930.798 z" fill="#00513F"/>
			    <path d="M2100.179,1893.893 L2150.839,1893.893 L2150.839,1919.025 L2100.179,1919.025 z" fill="#00513F"/>
			    <path d="M2043.37,1930.798 L2211.411,1930.798 L2211.411,1957.561 L2043.37,1957.561 z" fill="#00513F"/>
			    <path d="M-34.5,1967 L161.68,1967 L161.68,2004.344 L-34.5,2004.344 z" fill="#00513F"/>
			  </g>
			  <g id="Under_white">
			    <path d="M851.895,1712.889 L1265.851,1873.661 L1188.15,2078.184 L706.192,2080.284 L851.895,1712.889 z" fill="#FFFFFF"/>
			    <path d="M214.795,2115.67 L851.895,2095.146 L485.56,1873.661 C485.56,1873.661 214.795,2115.67 214.795,2115.67 z" fill="#FFFFFF"/>
			  </g>
			  <g id="Under_shadows" class="darkest" className="darkest">
			    <path d="M1021.763,1985.696 L774.514,2029.476 L1186.939,2029.476 L1021.763,1985.696 z" fill="#082D25"/>
			    <path d="M570.211,2004.344 L649,2072.825 L242.535,2082.397 L288.925,2029.476 L431.777,2056.625 L570.211,2004.344 z" fill="#082D25"/>
			  </g>
			  <g id="White">
			    <path d="M945.878,1480.138 L734.228,2065.96 L485.56,1873.661 L650.729,1602.41 L945.878,1480.138 z" fill="#FFFFFF"/>
			    <path d="M473.324,1852.535 L230.391,2095.146 L143.287,1815.775 L311.102,1788.605 L473.324,1852.535 z" fill="#FFFFFF"/>
			    <path d="M851.895,1712.889 L998.818,1654.353 L1117.344,1647.982 L935.661,2039.822 L851.895,1712.889 z" fill="#FFFFFF"/>
			    <path d="M1213.31,1735.863 L1391.119,1729.437 L1186.939,2029.476 L1057.481,1788.605 L1213.31,1735.863 z" fill="#FFFFFF"/>
			    <path d="M-17.707,2123.959 L156.088,1913.717 L54.357,1927.281 L-17.707,1957.48 L-17.707,2123.959 z" fill="#FFFFFF"/>
			    <path d="M-113.686,1926.527 L-29.209,1964.923 L-17.707,2105.874 L-115.193,2115.67 L-113.686,1926.527 z" fill="#FFFFFF"/>
			  </g>
			  <g id="Shadows" class="darkest" className="darkest">
			    <path d="M945.878,1480.138 L762.153,2072.825 L654.003,2072.825 L945.878,1480.138 z" fill="#082D25"/>
			    <path d="M1123.445,1638.37 L916.679,2074.951 L998.818,2074.951 L1123.445,1638.37 z" fill="#082D25"/>
			    <path d="M1175.778,2045.451 L1391.119,1729.437 L1258.278,2059.951 L1175.778,2045.451 z" fill="#082D25"/>
			    <path d="M1299.278,1917.951 L1403.783,2029.477 L1258.278,2059.951 L1299.278,1917.951 z" fill="#082D25"/>
			    <path d="M151.455,1917.951 L8.981,2065.96 L161.68,2074.951 L94.193,2022.599 L151.455,1917.951 z" fill="#082D25"/>
			    <path d="M-17.707,1957.48 L-21.09,2065.96 L-29.209,1964.923 L-107.014,2021.078 L-40.71,1958.834 L-17.707,1957.48 z" fill="#082D25"/>
			    <path d="M872.291,1721.946 L935.661,2039.821 L851.895,1729.437 L872.291,1721.946 z" fill="#082D25"/>
			    <path d="M660.782,2082.397 L485.56,1873.661 L506.148,1852.535 L660.782,2082.397 z" fill="#082D25"/>
			    <path d="M473.324,1852.535 L485.56,1873.661 L252.844,2082.397 L473.324,1852.535 z" fill="#082D25"/>
			    <path d="M444.295,2095.147 L485.56,1873.661 L414.841,2095.147 L444.295,2095.147 z" fill="#082D25"/>
			  </g>
			  <g id="opera">
			    <path d="M-121.222,2072.824 L1466.118,2072.824 L1466.118,2204.597 L-121.222,2204.597 z" fill="#FFFFFF"/>
			    <path d="M242.536,2134.233 L1520.767,2134.233 L1520.767,2204.597 L242.536,2204.597 z" fill="#FFFFFF"/>
			    <path d="M702.456,2029.477 L1403.784,2029.477 L1403.784,2095.147 L702.456,2095.147 z" fill="#FFFFFF"/>
			    <path d="M1120.041,1875.245 L1441.095,1875.245 L1441.095,1919.025 L1120.041,1919.025 z" fill="#FFFFFF" display="none"/>
			  </g>
			</svg>