<?xml version="1.0" encoding="UTF-8"?>
<!DOCTYPE svg PUBLIC "-//W3C//DTD SVG 1.1//EN" "http://www.w3.org/Graphics/SVG/1.1/DTD/svg11.dtd">
<svg
	version="1.1"
	xmlns="http://www.w3.org/2000/svg"
	xmlns:xlink="http://www.w3.org/1999/xlink" x="0" y="0"
	viewBox="0, 0, 2000, 3000"
	width="100%" height="100%"
	preserveAspectRatio="xMidYMid slice"
>
  <g id="Background">
    <rect x="0" y="0" width="2000" height="3000" fill="#FFFFFF"/>
  </g>
  <g id="Lake">
    <path d="M-913.241,1751.949 L2913.241,1751.949 L2913.241,3255 L-913.241,3255 z" fill="#7DBBAD"/>
  </g>
  <g id="Sky">
    <path d="M-913.241,-71.191 L2913.241,-71.191 L2913.241,1751.949 L-913.241,1751.949 z" fill="#B2DFD5"/>
  </g>
  <g id="Hills_back">
    <path d="M704.482,1694.206 L875.62,1610.355 L928.542,1622.727 L1015.829,1589.049 L1173.908,1641.284 L1314.061,1586.85 L1453.997,1612.964 L1539.827,1589.112 L1760.101,1613.714 L1812.35,1598.271 L2500.229,1698.591 L2538.408,1681.049 L2768.516,1708.909 L2913.241,1686.208 L2913.241,1770.406 L682.605,1751.949 L704.482,1694.206 z" fill="#028063"/>
  </g>
  <g id="Hills_front">
    <path d="M1530.955,1751.949 L1539.827,1747.141 L1028.913,1687.997 L884.914,1719.048 L664.959,1645.668 L608.422,1656.637 L228.206,1513.989 L151.833,1534.625 L71.889,1508.467 L-97.633,1548.731 C-97.633,1548.731 -444.5,1484 -444.5,1484 L-623.323,1523.363 L-913.241,1454.194 L-913.241,1751.949 L1530.955,1751.949 z" fill="#00513F"/>
  </g>
  <g id="Town_trees">
    <path d="M1523.91,1759.675 L1554.055,1719.931 L1576.642,1736.791 L1593.319,1720.554 L1619.424,1739.776 L1659.221,1751.949 L1673.717,1720.243 L1688.738,1743.424 L1748.086,1751.949 C1748.086,1751.949 1779.357,1702.48 1777.176,1704.973 C1774.994,1707.466 1799.833,1744.352 1799.833,1744.352 L1825.477,1718.685 L1842.448,1743.482 L1865.676,1715.568 L1892.164,1748.289 L1923.752,1745.104 C1923.752,1745.104 1959.055,1715.597 1959.055,1715.597 C1959.055,1715.597 1975.389,1732.748 1975.389,1732.748 C1975.389,1732.748 2012.975,1657.308 2011.385,1660.17 C2009.794,1663.033 2031.242,1686.617 2031.242,1686.617 L2045.995,1661.852 L2067.072,1691.886 L2080.771,1669.712 L2122.924,1751.949 L2141.151,1747.636 L2153.874,1710.423 L2188.684,1751.949 L2248.368,1770.406" fill="#082D25"/>
    <path d="M2224,1751.949 L2240.703,1728.234 L2263.5,1744 L2297,1701.5 L2323.5,1721 L2349.5,1686.5 L2380.5,1713 L2409,1668 L2438,1707.5 C2438,1707.5 2467.5,1681 2467.5,1681 C2467.5,1681 2495,1712 2495,1712 L2517.5,1682 L2562,1725.5 L2644.562,1744.156 L2861.927,1723.682 L2905.699,1782.457 L2179.954,1767.75 L2224,1751.949 z" fill="#082D25"/>
    <path d="M2055.86,1732.748 L2339.563,1732.748 L2339.563,1751.949 L2055.86,1751.949 z" fill="#082D25"/>
    <path d="M1863.206,1732.748 L2016.274,1732.748 L2016.274,1751.949 L1863.206,1751.949 z" fill="#082D25"/>
  </g>
  <g id="Town_land">
    <path d="M1439.881,1751.949 L1910.037,1751.949 L1910.037,1770.406 L1439.881,1770.406 z" fill="#082D25"/>
    <path d="M1899.833,1751.949 L2797.175,1751.949 L2797.175,1782.458 L1899.833,1782.458 z" fill="#082D25"/>
    <path d="M2504.184,1751.949 L2913.241,1751.949 L2913.241,1806.056 L2504.184,1806.056 z" fill="#082D25"/>
  </g>
  <g id="Jetty">
    <path d="M452.445,2099.199 L1346.843,2099.199 L1346.843,2129.024 L452.445,2129.024 z" fill="#028063"/>
    <path d="M487.302,2074.725 L1322.369,2074.725 L1346.843,2099.199 L452.445,2099.199 z" fill="#00513F"/>
  </g>
  <g id="Jetty_shadow">
    <path d="M452.445,2099.199 L1346.843,2099.199 L1346.843,2129.024 L452.445,2129.024 z" fill="#000000" fill-opacity="0.107"/>
  </g>
  <g id="Jetty_2">
    <path d="M845.724,2081.451 L983.45,2081.451 L1380.625,3426.048 L517.94,3434.034 z" fill="#00513F"/>
    <path d="M1263.002,2028.406 L1297.236,2028.406 L1297.236,2195.504 L1263.002,2195.504 z" fill="#00513F"/>
    <path d="M517.94,2031.999 L552.174,2031.999 L552.174,2199.098 L517.94,2199.098 z" fill="#00513F"/>
    <path d="M1047.985,2028.406 L1082.219,2028.406 L1082.219,2195.504 L1047.985,2195.504 z" fill="#00513F"/>
    <path d="M704.925,2031.101 L739.159,2031.101 L739.159,2198.199 L704.925,2198.199 z" fill="#00513F"/>
    <path d="M1263.002,2028.405 L1282.9,2028.405 L1282.9,2195.504 L1263.002,2195.504 z" fill="#00513F"/>
    <path d="M1047.985,2028.406 L1071.054,2028.406 L1071.054,2198.2 L1047.985,2198.2 z" fill="#00513F"/>
    <path d="M704.925,2031.101 L723.607,2031.101 L723.607,2198.199 L704.925,2198.199 z" fill="#00513F"/>
    <path d="M517.94,2031.999 L535.436,2031.999 L535.436,2199.098 L517.94,2199.098 z" fill="#00513F"/>
  </g>
  <g id="Cloud">
    <path d="M2284.787,1157.096 C2196.557,1157.096 2125.032,1098.512 2125.032,1026.246 C2125.032,953.98 2196.557,895.396 2284.787,895.396 C2373.017,895.396 2444.541,953.98 2444.541,1026.246 C2444.541,1098.512 2373.017,1157.096 2284.787,1157.096 z" fill="#FFFFFF"/>
    <path d="M2086.286,1157.096 C2017.9,1157.096 1962.462,1113.453 1962.462,1059.617 C1962.462,1005.781 2017.9,962.139 2086.286,962.139 C2154.673,962.139 2210.111,1005.781 2210.111,1059.617 C2210.111,1113.453 2154.673,1157.096 2086.286,1157.096 z" fill="#FFFFFF"/>
    <path d="M1946.043,1125.917 C1891.09,1125.917 1846.542,1087.725 1846.542,1040.613 C1846.542,993.501 1891.09,955.31 1946.043,955.31 C2000.996,955.31 2045.545,993.501 2045.545,1040.613 C2045.545,1087.725 2000.996,1125.917 1946.043,1125.917 z" fill="#FFFFFF"/>
    <path d="M1804.659,1157.096 C1745.253,1157.096 1677.893,1146.924 1681.547,1078.719 C1683.823,1036.229 1744.555,997.266 1803.962,997.266 C1863.369,997.266 1911.527,1027.934 1911.527,1065.764 C1911.527,1103.595 1864.066,1157.096 1804.659,1157.096 z" fill="#FFFFFF"/>
    <path d="M2431.294,1134.263 C2391.039,1134.263 2358.405,1106.854 2358.405,1073.043 C2358.405,1039.232 2391.039,1011.823 2431.294,1011.823 C2471.55,1011.823 2504.184,1039.232 2504.184,1073.043 C2504.184,1106.854 2471.55,1134.263 2431.294,1134.263 z" fill="#FFFFFF"/>
    <path d="M1737.646,1064.008 L2437.713,1064.008 L2369.724,1157.096 L1811.73,1157.096 z" fill="#FFFFFF"/>
    <path d="M2373.979,1157.096 C2338.779,1157.096 2310.244,1139.551 2310.244,1117.907 C2310.244,1096.264 2338.779,1078.719 2373.979,1078.719 C2409.178,1078.719 2437.713,1096.264 2437.713,1117.907 C2437.713,1139.551 2409.178,1157.096 2373.979,1157.096 z" fill="#FFFFFF"/>
    <path d="M1710.021,1114.026 C1680.634,1114.026 1656.811,1096.955 1656.811,1075.898 C1656.811,1054.84 1680.634,1037.77 1710.021,1037.77 C1739.408,1037.77 1763.232,1054.84 1763.232,1075.898 C1763.232,1096.955 1739.408,1114.026 1710.021,1114.026 z" fill="#FFFFFF"/>
  </g>
  <g id="Mountain_shadows">
    <path d="M1015.829,1589.049 L1140.009,1660.091 L1173.908,1641.284 L1015.829,1589.049 z" fill="#000000" fill-opacity="0.107"/>
    <path d="M875.62,1610.355 L905.716,1643.074 L928.542,1622.727 L875.62,1610.355 z" fill="#000000" fill-opacity="0.107"/>
    <path d="M1314.061,1586.85 L1411.827,1628.875 L1453.997,1612.964 L1314.061,1586.85 z" fill="#000000" fill-opacity="0.107"/>
    <path d="M71.889,1508.467 L93.177,1554.171 L151.833,1534.625 L71.889,1508.467 z" fill="#000000" fill-opacity="0.107"/>
    <path d="M1539.827,1589.112 L1687.883,1628.875 L1656.811,1660.091 L1760.101,1613.714 L1539.827,1589.112 z" fill="#000000" fill-opacity="0.107"/>
  </g>
</svg>
