<svg
	version="1.1"
	xmlns="http://www.w3.org/2000/svg"
	xmlns:xlink="http://www.w3.org/1999/xlink" x="0" y="0"
	viewBox="0, 0, 3000, 3000"
	width="100%" height="100%"
	preserveAspectRatio="xMidYMid slice"
	id="svgWakatipu"
>
  <title>
    wakatipu
  </title>
      <g id="art" fill="#A1BFD6" class="primary">
        <path id="colLight" d="M0 3000h3000V0H0z"/>
      </g>
      <g id="sky" fill="#C2D9EF" class="lightest">
        <path d="M0 1502h3000V0H0z"/>
      </g>
      <g id="back-hills" fill="#A1BFD6" class="primary">
        <path id="colLight" d="M2911.45592 1337.1500785l-367.838458-94.5520172-225.202485 95.6468367-83.209601-25.33873-410.023358 189.816565H2962.43104z"/>
      </g>
      <g id="back-hills-snow" fill="#FFF" class="white">
        <path id="bgsnow" d="M2419.305677 1387l125.679071-44.238605L2526.074236 1387h215.316594l171.640206-50.5984024-369.046288-93.8082408-224.465532 94.8631576-83.120809-25.108117-135.6853203 62.7828306h261.6493583l72.409617-32.369833z"/>
      </g>
      <g id="main-hills-reflections" fill="#90B0C8" class="shadow">
        <path id="shadow" d="M177.726026 1701.018498L5.0028032 1733.941474v-233.4371946H2579.0546L1866.43147 1620.20236l-63.84264-8.515334-61.18464 12.341048-35.40499-6.998562-178.68139 30.315668-144.49455-19.144166-220.85239 34.089402-102.71345-11.92313-620.358143 110.261665z"/>
      </g>
      <g id="main-hills" fill="#4C758E" class="darker">
        <path id="colMid" d="M172.726026 1009.395368L.0028032 928.7225814v572.0026366H2574.0546l-712.62313-293.302092-63.84264 20.86554-61.18464-30.239876-35.40499 17.148921-178.68139-74.283972-151.60781 46.909892-213.73913-83.53094-102.71345 29.215832-567.008696-270.179579z"/>
      </g>
      <g id="main-snow" fill="#FFF" class="white" display="none">
        <path d="M1588.54945 1283.056265l78.70798 33.469762s-11.85745 31.944358-56.08511 25.507615c-26.85219-3.907976-179.643-74.704886-206.49519-78.612862-15.18699-2.210264-30.59722-4.374884-45.91125-6.467856l206.51867 82.529956-276.15637-17.2053-144.48203-42.677577 66.28241 52.230593-344.57701-15.304569-203.91329-100.590021c-20.576484-4.553751-43.829344-10.01175-68.313064-16.319437l229.531411 120.820764-372.623681-65.535672L126 1073l239 181.901661-365-47.019196.0028043-279.0711568 172.7854847 80.7800638 314.636076-146.2606608 567.213085 270.5388598 102.75048-29.254683 215.59514 83.642019 149.88349-46.972272 178.74581 74.382754 35.41775-17.171726L1798 1229l64.10247-21.117535s182.13657 75.036579 273.20486 112.554868c146.55838 60.379085-114.41337 39.451622-114.41337 39.451622l-256.16965-13.690373s50.68559-33.469405 44.4739-66.598579c-7.6354-40.722285-72.16809-81.10434-72.16809-81.10434s-134.18728 85.88452-143.08558 87.178096l-5.39509-2.617494z" id="snow"/>
        <path d="M1766 1347l-74-34s108-45.92266 44-115c72 45 122 92 122 92l-92 57z" id="new-snow-corner"/>
      </g>
      <g id="main-hills-snow-shadows" fill="#A1BFD6" class="darker">
        <path d="M1496.04317 1237.213043c96.72293-62.272912 27.44912-95.4 25.95683-96.213043l-150.86023 46.633973 124.9034 49.57907z" id="Path"/>
        <path d="M175 1008.596364c17.7903392 10.669565 83.614594 44.456522 101.404933 53.347826 211.705036-99.807086 211.695488-199.614173 211.695488-199.614173L175 1008.596364z" id="Path"/>
        <path d="M1797.47893 1227.683292s46.25488 21.977578 81.83556 43.316708c67.60329-26.673913-16.0113-64.017391-16.0113-64.017391l-65.82426 20.700683z" id="Path"/>
        <path d="M1110.609376 1156.192753c56.216678-16.177985 45.542474-52.832768 45.542474-52.832768L1053 1132.901725s45.183553 20.062498 57.609376 23.291028z" id="Path"/>
      </g>
      <g id="hill-right-reflection" fill="#90B0C8" class="darker">
        <path id="shadow" d="M2771.31698 1923.682054L3037 2006v-406.1364922L2226 1599l300 167 494.764335 5.69717-450.120295 22.110745z"/>
      </g>
      <g id="hill-right" fill="#4C758E" class="darkest">
        <path id="colDark" d="M2690.714286 1282.524876l-465.1847758 317.692537L3000 1704l39.111254-546z"/>
      </g>
      <g id="tree-reflection" fill="#90B0C8" class="darker">
        <path d="M1277.14641 2153.778015L1418 1933H-762v63.558657l932.024091 17.4757743L-762 2033.927604v670.458097l106.800836-198.412943 83.128405 132.36943 90.354229-164.733868 99.952011 179.326349 51.989287-97.020278 41.051064 65.079446 113.089398-175.650231 109.958208 234.083451 63.96426-99.347673L65.425037 2723l150.311454-233.461545-239.448289-2.380466 330.819038-11.024495 29.76673 2.688584 83.91505-119.275637 61.53566 129.703352 274.14318 5.66432-263.36344 7.282369 58.6553 136.145706 86.64706-134.5751 82.51578 175.659969 196.23351-304.801233 91.33862 194.430077 250.30845-393.25427L225.665536 2170l1051.480874-16.221985zM272.6439 2589.651895l-46.978364-100.014731 110.660964 1.100131-63.6826 98.9146z" id="shadow"/>
      </g>
      <g id="trees" fill="#214463" class="darkest">
        <path id="colDark" d="M-.176041 1216.869719l-63.925025-109.9505397-109.89076 259.0659737-113.02003-194.396476-41.025883 72.025039-51.957398-107.374752-99.8907 198.464927-90.298807-182.315066-83.077415 146.496538-106.7353246-219.5885354L-760 2327l2178.66542-393.991444-409.25412-703.938875-91.28259 215.180598-196.11315-337.3310997-82.46516 194.4072537-86.59392-148.937608-130.89036 308.550183-148.05425-254.663426-51.161998 120.620118-155.929755-268.1997797z"/>
      </g>
      <g id="tree-shadows" fill="#193A4E" class="darker">
        <path id="Path-2" d="M918 1444l90-214 32 383z"/>
        <path id="Path" d="M722 1106v363.012396L641 1300z"/>
        <path id="Path" d="M553 1152v544l-130-235z"/>
        <path id="Path" d="M274 1207l3 209-54-91z"/>
        <path id="Path" d="M68 1059v540.53307L-70 1360z"/>
      </g>
      <g id="stars" fill="#FFF"  class="white" display="none">
        <path d="M2018.0281 727.755696c9.07378-.026599 10.76205 14.859274-1.54749 12.478598-3.40954-3.623105.30686-8.855493 1.54749-12.478598" id="Fill-1423"/>
        <path d="M1937.09709 819.458662c-6.91115-24.946509 23.69486-6.718708 0 0" id="Fill-1699"/>
        <path d="M1669.72949 1051.30846c6.95244-.847649 7.08831 10.537637 5.4631 12.69154-3.38241-2.70655-9.49896-8.141548-5.4631-12.69154" id="Fill-2352"/>
        <path d="M1438.12913 383.869405c4.13597 3.049197 8.6689 5.31466 13.59611 6.795048-3.05235 4.133029-5.31882 8.659934-6.79805 13.583397-4.13328-3.055896-8.66487-5.321359-13.59477-6.797727 3.05772-4.12901 5.32284-8.655916 6.79671-13.580718 5.50657 1.290148.02817 6.813804 0 0" id="Fill-2735"/>
        <path d="M1264.7902 383.869405c4.13596 3.049197 8.66889 5.31466 13.5961 6.795048-3.05235 4.133029-5.31881 8.659934-6.79805 13.583397-4.13328-3.055896-8.66487-5.321359-13.59476-6.797727 3.05771-4.12901 5.32284-8.655916 6.79671-13.580718 5.50657 1.290148.02816 6.813804 0 0" id="Fill-2737"/>
        <path d="M1263.94139 513.781991c5.17112 4.193756 10.83496 7.308648 16.99402 9.344678-3.81489 5.681466-6.64805 11.90715-8.49701 18.675683-5.16739-4.20196-10.83123-7.316853-16.99401-9.347413 3.82234-5.675997 6.65426-11.900313 8.497-18.672948 6.88321 1.773492.03484 9.369291 0 0" id="Fill-2739"/>
        <path d="M1332.76715 516.329296c5.1703 4.193253 10.83455 7.309064 16.99401 9.34469-3.81567 5.681933-6.64842 11.9067-8.49701 18.675672-5.1678-4.201478-10.83206-7.317289-16.99401-9.346061 3.82191-5.67645 6.65466-11.901217 8.49701-18.674301 6.88417 1.773805.03492 9.369364 0 0" id="Fill-2741"/>
        <path d="M1399.0438 526.518519c5.1703 4.193253 10.83455 7.309063 16.99401 9.344689-3.81567 5.681934-6.64842 11.906701-8.49701 18.675672-5.1678-4.201478-10.83206-7.317288-16.99401-9.346061 3.82191-5.67645 6.65466-11.901217 8.49701-18.6743 6.88417 1.773805.03492 9.369364 0 0" id="Fill-2743"/>
        <path d="M997.985085 694.640688c4.653824 3.431028 9.751127 5.979985 15.294612 7.645519-3.435609 4.648097-5.98426 9.741958-7.648658 15.280231-4.649767-3.437781-9.74707-5.986738-15.29326-7.646869 3.441018-4.645396 5.989669-9.737906 7.647306-15.278881 6.195183 1.450758.03245 7.665781 0 0" id="Fill-2745"/>
        <path d="M1227.404264 974.844304c4.653824 3.431028 9.751126 5.979985 15.294612 7.645519-3.435609 4.648097-5.984261 9.741958-7.648658 15.280231-4.649768-3.437782-9.74707-5.986738-15.29326-7.646869 3.439665-4.645396 5.989668-9.737906 7.647306-15.278881 6.195183 1.450757.031097 7.665781 0 0" id="Fill-2747"/>
        <path d="M1455.97285 363.49096c4.13596 3.049197 8.66889 5.31466 13.5961 6.795048-3.05235 4.133029-5.31881 8.659935-6.79805 13.583397-4.13328-3.055896-8.66487-5.321358-13.59476-6.797727 3.05771-4.12901 5.32284-8.655916 6.79671-13.580718 5.50657 1.290148.02816 6.813804 0 0" id="Fill-2749"/>
        <path d="M1365.90462 88.3819554c5.17069 4.1926078 10.83649 7.306916 16.99486 9.342925-3.81421 5.683157-6.64711 11.908969-8.49615 18.6774366-5.16686-4.201021-10.83266-7.3167316-16.99487-9.3471316 3.82187-5.676146 6.65477-11.900556 8.49616-18.67323 6.88574 1.7737956.03573 9.369567 0 0" id="Fill-2751"/>
        <path d="M1203.612197 152.0645954c4.137458 3.0489764 8.668897 5.3135465 13.595659 6.7950535-3.050989 4.1329074-5.316708 8.6607045-6.795813 13.583391-4.134769-3.055692-8.666207-5.3216055-13.597003-6.799083 3.057712-4.128878 5.323431-8.655332 6.797157-13.5793618 5.508992 1.289435.028237 6.8125146 0 0" id="Fill-2753"/>
        <path d="M1471.26746 343.112515c4.13596 3.049198 8.66889 5.31466 13.5961 6.795048-3.05235 4.133029-5.31881 8.659935-6.79805 13.583397-4.13328-3.055896-8.66487-5.321358-13.59476-6.797727 3.05771-4.12901 5.32284-8.655916 6.79671-13.580718 5.50657 1.290148.02816 6.813804 0 0" id="Fill-2755"/>
        <path d="M1710.88305 309.997543c4.13596 3.049197 8.66889 5.314659 13.5961 6.795047-3.05235 4.133029-5.31881 8.659935-6.79805 13.583397-4.13328-3.055896-8.66487-5.321358-13.59477-6.797727 3.05772-4.12901 5.32284-8.655915 6.79672-13.580717 5.50657 1.290148.02816 6.813803 0 0" id="Fill-2757"/>
        <path d="M2349.85802 238.672986c5.1702 4.193468 10.83556 7.308192 16.99483 9.344171-3.81499 5.681299-6.64828 11.906696-8.49619 18.67619-5.16651-4.201569-10.83187-7.317642-16.99483-9.346871 3.82236-5.677248 6.65443-11.901295 8.49619-18.67349 6.88418 1.772706.03563 9.369823 0 0" id="Fill-2759"/>
        <path d="M2532.54374 470.477795c6.20429 5.338034 13.00178 9.302365 20.39356 11.892995-4.57907 7.230889-7.97836 15.153127-10.19568 23.769284-6.20098-5.348314-12.99846-9.312646-20.39355-11.895565 4.58679-7.225749 7.98498-15.147987 10.19567-23.766714 8.25952 2.257806.04301 11.923836 0 0" id="Fill-2761"/>
        <path d="M253.647306 686.998771c4.6530915 3.430753 9.7520798 5.980018 15.294612 7.645443-3.4342288 4.648382-5.9825464 9.74221-7.6461296 15.280308-4.6507385-3.437805-9.7485503-5.98707-15.2957884-7.647794 3.4401112-4.644856 5.9896053-9.737508 7.647306-15.277957 6.1954943 1.450343.0317657 7.665423 0 0" id="Fill-2765"/>
      </g>
</svg>