<?xml version="1.0" encoding="UTF-8"?>
<svg width="3000px" height="3000px" viewBox="0 0 3000 3000" version="1.1" xmlns="http://www.w3.org/2000/svg" xmlns:xlink="http://www.w3.org/1999/xlink">
    <!-- Generator: Sketch 43.2 (39069) - http://www.bohemiancoding.com/sketch -->
    <title>wakatipu</title>
    <desc>Created with Sketch.</desc>
    <defs></defs>
    <g id="Page-1" stroke="none" stroke-width="1" fill="none" fill-rule="evenodd">
        <g id="wakatipu">
            <g id="art" fill="#A1BFD6">
                <polygon id="colLight" points="0 3000 3000 3000 3000 0 0 0"></polygon>
            </g>
            <g id="sky" fill="#C2D9EF">
                <polygon points="0 1502 3000 1502 3000 0 0 0"></polygon>
            </g>
            <g id="back-hills" transform="translate(1824.000000, 1242.000000)" fill="#A1BFD6">
                <polygon id="colLight" points="1087.45592 95.1500785 719.617462 0.598061346 494.414977 96.244898 411.205376 70.906168 1.18201801 260.722733 1138.43104 260.722733"></polygon>
            </g>
            <g id="back-hills-snow" transform="translate(2099.000000, 1242.000000)" fill="#FFFFFF">
                <polygon id="bgsnow" points="320.305677 145 445.984748 100.761395 427.074236 145 642.39083 145 814.031036 94.4015976 445.984748 0.593356805 220.519216 95.4565144 137.398407 70.3483974 1.71308671 133.131228 263.362445 133.131228 335.772062 100.761395"></polygon>
            </g>
            <g id="main-hills-shadow" transform="translate(5.000000, 1501.000000)" fill="#90B0C8">
                <polygon id="shadow" points="172.726026 201.018498 0.00280324512 233.941474 0.00280324512 0.504279406 2574.0546 0.504279406 1861.43147 120.20236 1797.58883 111.687026 1736.40419 124.028074 1700.9992 117.029512 1522.31781 147.34518 1377.82326 128.201014 1156.97087 162.290416 1054.25742 150.367286 433.899277 260.628951"></polygon>
            </g>
            <g id="main-hills" transform="translate(0.000000, 862.000000)" fill="#4C758E">
                <polygon id="colMid" points="172.726026 147.395368 0.00280324512 66.7225814 0.00280324512 638.725218 2574.0546 638.725218 1861.43147 345.423126 1797.58883 366.288666 1736.40419 336.04879 1700.9992 353.197711 1522.31781 278.913739 1370.71 325.823631 1156.97087 242.292691 1054.25742 271.508523 487.248724 1.328944"></polygon>
            </g>
            <g id="main-snow" transform="translate(0.000000, 863.000000)" fill="#FFFFFF">
                <path d="M1588.54945,420.056265 L1667.25743,453.526027 C1667.25743,453.526027 1655.39998,485.470385 1611.17232,479.033642 C1584.32013,475.125666 1431.52932,404.328756 1404.67713,400.42078 C1389.49014,398.210516 1374.07991,396.045896 1358.76588,393.952924 L1565.28455,476.48288 L1289.12818,459.27758 L1144.64615,416.600003 L1210.92856,468.830596 L866.35155,453.526027 L662.43826,352.936006 C641.861776,348.382255 618.608916,342.924256 594.125196,336.616569 L823.656607,457.437333 L441.032926,371.901661 C441.032926,371.901661 188.34304,243.598632 177.629173,232.030902 C157.239403,219.098281 63.7330821,170.391509 63.7330821,170.391509 L221.79113,352.667402 L0.00280425562,301.652173 L0.00280425562,65.8113082 L172.788289,146.591372 L487.424365,0.330711209 L1054.63745,270.869571 L1157.38793,241.614888 L1372.98307,325.256907 L1522.86656,278.284635 L1701.61237,352.667389 L1737.03012,335.495663 L1798,366 L1862.10247,344.882465 C1862.10247,344.882465 2044.23904,419.919044 2135.30733,457.437333 C2281.86571,517.816418 2020.89396,496.888955 2020.89396,496.888955 L1764.72431,483.198582 C1764.72431,483.198582 1815.4099,449.729177 1809.19821,416.600003 C1801.56281,375.877718 1737.03012,335.495663 1737.03012,335.495663 C1737.03012,335.495663 1602.84284,421.380183 1593.94454,422.673759 L1588.54945,420.056265 Z" id="snow"></path>
            </g>
            <g id="main-hills-snow-shadows" transform="translate(175.000000, 863.000000)" fill="#A1BFD6">
                <path d="M1320.04317,374.213043 C1416.7661,311.940131 1348.50771,278.186957 1348.50771,278.186957 L1195.13977,324.633973 L1320.04317,374.213043 Z" id="Path"></path>
                <path d="M0,146.595652 C17.7903392,157.265217 83.614594,191.052174 101.404933,199.943478 C313.109969,100.136392 313.100421,0.329305122 313.100421,0.329305122 L0,146.595652 Z" id="Path"></path>
                <path d="M1622.47893,364.683292 C1622.47893,364.683292 1668.73381,386.66087 1704.31449,408 C1771.91778,381.326087 1688.30319,343.982609 1688.30319,343.982609 L1622.47893,364.683292 Z" id="Path"></path>
                <path d="M937.550874,294.191304 C993.767551,278.01332 983.093348,241.358537 983.093348,241.358537 L879.941497,270.900277 C879.941497,270.900277 925.125051,290.962775 937.550874,294.191304 Z" id="Path"></path>
            </g>
            <g id="hill-right-reflection" transform="translate(2226.000000, 1599.000000)" fill="#90B0C8">
                <polygon id="shadow" points="545.901547 240.277372 811.738459 301.139581 811.738459 0.860419119 0.268702587 0.221980079 281.6599 117.751789 311.504738 112.520002 795.49339 127.906545 345.112372 144.254241"></polygon>
            </g>
            <g id="hill-right" transform="translate(2225.000000, 1158.000000)" fill="#4C758E">
                <polygon id="colDark" points="465.714286 124.524876 0.529510221 442.217413 814.111254 442.217413 814.111254 0"></polygon>
            </g>
            <g id="tree-reflection" transform="translate(-342.000000, 1754.000000)" fill="#90B0C8">
                <path d="M1618.16598,138.355231 L1729.94029,0.611288006 L1167.86619,0.611288006 L0.00207755466,0.611288006 L0.00207755466,40.6281975 L739.60946,51.6310493 L0.00207755466,64.1559094 L0.00207755466,486.280326 L84.7538424,361.358354 L150.720358,444.698937 L222.420925,340.981511 L301.737806,453.88645 L342.993887,392.801904 L375.569944,433.776311 L465.311995,323.185878 L552.569291,470.566215 L603.328107,408.016327 L656.604918,498 L775.884518,351.011219 L585.870415,349.512463 L864.262739,329.979256 L887.884114,331.672004 L938.603878,269.167471 L979.499987,338.237356 L1204.9817,354.395765 L988.054241,352.684728 L1042.53563,444.698937 L1111.29438,359.969651 L1176.77474,470.566215 L1332.49578,278.661541 L1404.9775,401.075877 L1595.67418,166.072763 L560.939759,159.06369 L1618.16598,138.355231 L1618.16598,138.355231 Z M871.57868,351.766016 L821.04337,414.043238 L783.763708,351.073366 L871.57868,351.766016 L871.57868,351.766016 Z" id="shadow"></path>
            </g>
            <g id="trees" transform="translate(-342.000000, 1055.000000)" fill="#214463">
                <polygon id="colDark" points="603.328107 128.147355 552.569291 40.5617553 465.311995 246.931355 375.569944 92.076889 342.993887 149.451381 301.737806 63.9176292 222.420925 222.012986 150.720358 76.7824618 84.7538424 193.480272 0.00207755466 18.5580411 0.00207755466 698.617043 1167.86619 698.617043 1729.94029 698.617043 1404.9775 137.865734 1332.49578 309.276643 1176.77474 40.5617553 1111.29438 195.424807 1042.53563 76.7824618 938.603878 322.570733 821.04337 119.708163 780.418866 215.793052 656.604918 2.1475456"></polygon>
            </g>
            <g id="tree-shadows" transform="translate(-342.000000, 1059.000000)" fill="#E3E3E3">
                <polygon style="mix-blend-mode: multiply;" points="603.938456 126.483125 553.128116 38.5615604 465.782246 245.72276 375.9491 90.2742978 345.222056 153.823093 302.042016 62.0070236 221.887275 222.767664 150.871272 74.9212036 83.1844637 196.91345 0 16.4734435 0 257.23995 83.1844637 196.91345 150.871267 74.9211999 150.871267 283.094164 221.887275 222.767664 302.042 62.0070251 311.947439 194.018645 345.222056 153.823093 375.949104 90.2743011 395.133981 308.30721 465.782249 245.722767 553.128118 38.561562 561.507066 153.823093 603.938473 126.483127 657.269327 0 677.968225 308.30721 781.208974 214.465015 821.874748 118.011557 821.874748 386.51102 939.554587 321.652294 1043.59184 74.9211999 1060.62632 336.483541 1112.42034 194.018645 1177.96718 38.561562 1193.72485 395.129092 1333.84624 308.30721 1406.40155 147.868877 1434.96582 446.83752 1518.15236 321.652294 1406.40159 136.238782 1333.84629 308.307195 1177.96719 38.5615604 1112.42035 194.018641 1043.59181 74.9212036 939.55456 321.652278 821.874718 118.011561 781.208977 214.465015 657.269348 0"></polygon>
            </g>
            <g id="stars" transform="translate(246.000000, 88.000000)" fill="#FFFFFF">
                <path d="M1772.0281,639.755696 C1781.10188,639.729097 1782.79015,654.61497 1770.48061,652.234294 C1767.07107,648.611189 1770.78747,643.378801 1772.0281,639.755696" id="Fill-1423"></path>
                <path d="M1691.09709,731.458662 C1684.18594,706.512153 1714.79195,724.739954 1691.09709,731.458662" id="Fill-1699"></path>
                <path d="M1423.72949,963.30846 C1430.68193,962.460811 1430.8178,973.846097 1429.19259,976 C1425.81018,973.29345 1419.69363,967.858452 1423.72949,963.30846" id="Fill-2352"></path>
                <path d="M1192.12913,295.869405 C1196.2651,298.918602 1200.79803,301.184065 1205.72524,302.664453 C1202.67289,306.797482 1200.40642,311.324387 1198.92719,316.24785 C1194.79391,313.191954 1190.26232,310.926491 1185.33242,309.450123 C1188.39014,305.321113 1190.65526,300.794207 1192.12913,295.869405 C1197.6357,297.159553 1192.1573,302.683209 1192.12913,295.869405" id="Fill-2735"></path>
                <path d="M1018.7902,295.869405 C1022.92616,298.918602 1027.45909,301.184065 1032.3863,302.664453 C1029.33395,306.797482 1027.06749,311.324387 1025.58825,316.24785 C1021.45497,313.191954 1016.92338,310.926491 1011.99349,309.450123 C1015.0512,305.321113 1017.31633,300.794207 1018.7902,295.869405 C1024.29677,297.159553 1018.81836,302.683209 1018.7902,295.869405" id="Fill-2737"></path>
                <path d="M1017.94139,425.781991 C1023.11251,429.975747 1028.77635,433.090639 1034.93541,435.126669 C1031.12052,440.808135 1028.28736,447.033819 1026.4384,453.802352 C1021.27101,449.600392 1015.60717,446.485499 1009.44439,444.454939 C1013.26673,438.778942 1016.09865,432.554626 1017.94139,425.781991 C1024.8246,427.555483 1017.97623,435.151282 1017.94139,425.781991" id="Fill-2739"></path>
                <path d="M1086.76715,428.329296 C1091.93745,432.522549 1097.6017,435.63836 1103.76116,437.673986 C1099.94549,443.355919 1097.11274,449.580686 1095.26415,456.349658 C1090.09635,452.14818 1084.43209,449.032369 1078.27014,447.003597 C1082.09205,441.327147 1084.9248,435.10238 1086.76715,428.329296 C1093.65132,430.103101 1086.80207,437.69866 1086.76715,428.329296" id="Fill-2741"></path>
                <path d="M1153.0438,438.518519 C1158.2141,442.711772 1163.87835,445.827582 1170.03781,447.863208 C1166.22214,453.545142 1163.38939,459.769909 1161.5408,466.53888 C1156.373,462.337402 1150.70874,459.221592 1144.54679,457.192819 C1148.3687,451.516369 1151.20145,445.291602 1153.0438,438.518519 C1159.92797,440.292324 1153.07872,447.887883 1153.0438,438.518519" id="Fill-2743"></path>
                <path d="M751.985085,606.640688 C756.638909,610.071716 761.736212,612.620673 767.279697,614.286207 C763.844088,618.934304 761.295437,624.028165 759.631039,629.566438 C754.981272,626.128657 749.883969,623.5797 744.337779,621.919569 C747.778797,617.274173 750.327448,612.181663 751.985085,606.640688 C758.180268,608.091446 752.017535,614.306469 751.985085,606.640688" id="Fill-2745"></path>
                <path d="M981.404264,886.844304 C986.058088,890.275332 991.15539,892.824289 996.698876,894.489823 C993.263267,899.13792 990.714615,904.231781 989.050218,909.770054 C984.40045,906.332272 979.303148,903.783316 973.756958,902.123185 C977.196623,897.477789 979.746626,892.385279 981.404264,886.844304 C987.599447,888.295061 981.435361,894.510085 981.404264,886.844304" id="Fill-2747"></path>
                <path d="M1209.97285,275.49096 C1214.10881,278.540157 1218.64174,280.80562 1223.56895,282.286008 C1220.5166,286.419037 1218.25014,290.945943 1216.7709,295.869405 C1212.63762,292.813509 1208.10603,290.548047 1203.17614,289.071678 C1206.23385,284.942668 1208.49898,280.415762 1209.97285,275.49096 C1215.47942,276.781108 1210.00101,282.304764 1209.97285,275.49096" id="Fill-2749"></path>
                <path d="M1119.90462,0.381955415 C1125.07531,4.57456319 1130.74111,7.68887151 1136.89948,9.72488037 C1133.08527,15.4080373 1130.25237,21.6338495 1128.40333,28.402317 C1123.23647,24.201296 1117.57067,21.0855854 1111.40846,19.0551854 C1115.23033,13.3790395 1118.06323,7.15462951 1119.90462,0.381955415 C1126.79036,2.15575101 1119.94035,9.75152236 1119.90462,0.381955415" id="Fill-2751"></path>
                <path d="M957.612197,64.0645954 C961.749655,67.1135718 966.281094,69.3781419 971.207856,70.8596489 C968.156867,74.9925566 965.891148,79.5203537 964.412043,84.4430402 C960.277274,81.387348 955.745836,79.1214347 950.81504,77.6439572 C953.872752,73.515079 956.138471,68.9886251 957.612197,64.0645954 C963.121189,65.3540303 957.640434,70.87711 957.612197,64.0645954" id="Fill-2753"></path>
                <path d="M1225.26746,255.112515 C1229.40342,258.161713 1233.93635,260.427175 1238.86356,261.907563 C1235.81121,266.040592 1233.54475,270.567498 1232.06551,275.49096 C1227.93223,272.435064 1223.40064,270.169602 1218.47075,268.693233 C1221.52846,264.564223 1223.79359,260.037317 1225.26746,255.112515 C1230.77403,256.402663 1225.29562,261.926319 1225.26746,255.112515" id="Fill-2755"></path>
                <path d="M1464.88305,221.997543 C1469.01901,225.04674 1473.55194,227.312202 1478.47915,228.79259 C1475.4268,232.925619 1473.16034,237.452525 1471.6811,242.375987 C1467.54782,239.320091 1463.01623,237.054629 1458.08633,235.57826 C1461.14405,231.44925 1463.40917,226.922345 1464.88305,221.997543 C1470.38962,223.287691 1464.91121,228.811346 1464.88305,221.997543" id="Fill-2757"></path>
                <path d="M2103.85802,150.672986 C2109.02822,154.866454 2114.69358,157.981178 2120.85285,160.017157 C2117.03786,165.698456 2114.20457,171.923853 2112.35666,178.693347 C2107.19015,174.491778 2101.52479,171.375705 2095.36183,169.346476 C2099.18419,163.669228 2102.01626,157.445181 2103.85802,150.672986 C2110.7422,152.445692 2103.89365,160.042809 2103.85802,150.672986" id="Fill-2759"></path>
                <path d="M2286.54374,382.477795 C2292.74803,387.815829 2299.54552,391.78016 2306.9373,394.37079 C2302.35823,401.601679 2298.95894,409.523917 2296.74162,418.140074 C2290.54064,412.79176 2283.74316,408.827428 2276.34807,406.244509 C2280.93486,399.01876 2284.33305,391.096522 2286.54374,382.477795 C2294.80326,384.735601 2286.58675,394.401631 2286.54374,382.477795" id="Fill-2761"></path>
                <path d="M7.64730595,598.998771 C12.3003975,602.429524 17.3993858,604.978789 22.9419179,606.644214 C19.5076892,611.292596 16.9593716,616.386424 15.2957884,621.924522 C10.6450499,618.486717 5.54723809,615.937452 0,614.276728 C3.44011117,609.631872 5.98960532,604.53922 7.64730595,598.998771 C13.8428003,600.449114 7.67907168,606.664194 7.64730595,598.998771" id="Fill-2765"></path>
            </g>
            <path d="M1766,1347 L1692,1313 C1692,1313 1800,1267.07734 1736,1198 C1808,1243 1858,1290 1858,1290 L1766,1347 Z" id="new-snow-corner" fill="#FFFFFF"></path>
        </g>
    </g>
</svg>