<?xml version="1.0" encoding="UTF-8"?>
<svg width="3000px" height="3000px" viewBox="0 0 3000 3000" version="1.1" xmlns="http://www.w3.org/2000/svg" xmlns:xlink="http://www.w3.org/1999/xlink">
    <!-- Generator: Sketch 43.2 (39069) - http://www.bohemiancoding.com/sketch -->
    <title>wakatipu</title>
    <desc>Created with Sketch.</desc>
    <defs></defs>
    <g id="Page-1" stroke="none" stroke-width="1" fill="none" fill-rule="evenodd">
        <g id="wakatipu">
            <g id="art" fill="#A1BFD6">
                <polygon id="colLight" points="0 3000 3000 3000 3000 0 0 0"></polygon>
            </g>
            <g id="sky" fill="#C2D9EF">
                <polygon points="0 1502 3000 1502 3000 0 0 0"></polygon>
            </g>
            <g id="back-hills" transform="translate(1824.000000, 1242.000000)" fill="#A1BFD6">
                <polygon id="colLight" points="1087.45592 95.1500785 719.617462 0.598061346 494.414977 96.244898 411.205376 70.906168 1.18201801 260.722733 1138.43104 260.722733"></polygon>
            </g>
            <g id="back-hills-snow" transform="translate(2100.000000, 1242.000000)" fill="#FFFFFF">
                <polygon id="bgsnow" points="319.305677 145 444.984748 100.761395 426.074236 145 641.39083 145 813.031036 94.4015976 443.984748 0.593356805 219.519216 95.4565144 136.398407 70.3483974 0.713086706 133.131228 262.362445 133.131228 334.772062 100.761395"></polygon>
            </g>
            <g id="main-hills-shadow" transform="translate(5.000000, 1500.000000)" fill="#90B0C8">
                <polygon id="shadow" points="172.726026 201.018498 0.00280324512 233.941474 0.00280324512 0.504279406 2574.0546 0.504279406 1861.43147 120.20236 1797.58883 111.687026 1736.40419 124.028074 1700.9992 117.029512 1522.31781 147.34518 1377.82326 128.201014 1156.97087 162.290416 1054.25742 150.367286 433.899277 260.628951"></polygon>
            </g>
            <g id="main-hills" transform="translate(0.000000, 862.000000)" fill="#4C758E">
                <polygon id="colMid" points="172.726026 147.395368 0.00280324512 66.7225814 0.00280324512 638.725218 2574.0546 638.725218 1861.43147 345.423126 1797.58883 366.288666 1736.40419 336.04879 1700.9992 353.197711 1522.31781 278.913739 1370.71 325.823631 1156.97087 242.292691 1054.25742 271.508523 487.248724 1.328944"></polygon>
            </g>
            <g id="main-snow" transform="translate(0.000000, 863.000000)" fill="#FFFFFF">
                <path d="M1588.54945,420.056265 L1667.25743,453.526027 C1667.25743,453.526027 1655.39998,485.470385 1611.17232,479.033642 C1584.32013,475.125666 1431.52932,404.328756 1404.67713,400.42078 C1389.49014,398.210516 1374.07991,396.045896 1358.76588,393.952924 L1565.28455,476.48288 L1289.12818,459.27758 L1144.64615,416.600003 L1210.92856,468.830596 L866.35155,453.526027 L662.43826,352.936006 C641.861776,348.382255 618.608916,342.924256 594.125196,336.616569 L823.656607,457.437333 L451.032926,391.901661 C451.032926,391.901661 126,210 126,210 L365,391.901661 L2.17833564e-14,344.882465 L0.00280425562,65.8113082 L172.788289,146.591372 L487.424365,0.330711209 L1054.63745,270.869571 L1157.38793,241.614888 L1372.98307,325.256907 L1522.86656,278.284635 L1701.61237,352.667389 L1737.03012,335.495663 L1798,366 L1862.10247,344.882465 C1862.10247,344.882465 2044.23904,419.919044 2135.30733,457.437333 C2281.86571,517.816418 2020.89396,496.888955 2020.89396,496.888955 L1764.72431,483.198582 C1764.72431,483.198582 1815.4099,449.729177 1809.19821,416.600003 C1801.56281,375.877718 1737.03012,335.495663 1737.03012,335.495663 C1737.03012,335.495663 1602.84284,421.380183 1593.94454,422.673759 L1588.54945,420.056265 Z" id="snow"></path>
                <path d="M1766,484 L1692,450 C1692,450 1800,404.07734 1736,335 C1808,380 1858,427 1858,427 L1766,484 Z" id="new-snow-corner"></path>
            </g>
            <g id="main-hills-snow-shadows" transform="translate(175.000000, 862.000000)" fill="#A1BFD6">
                <path d="M1321.04317,375.213043 C1417.7661,312.940131 1348.49229,279.813043 1347,279 L1196.13977,325.633973 L1321.04317,375.213043 Z" id="Path"></path>
                <path d="M0,146.596364 C17.7903392,157.265929 83.614594,191.052886 101.404933,199.94419 C313.109969,100.137104 313.100421,0.33001709 313.100421,0.33001709 L0,146.596364 Z" id="Path"></path>
                <path d="M1622.47893,365.683292 C1622.47893,365.683292 1668.73381,387.66087 1704.31449,409 C1771.91778,382.326087 1688.30319,344.982609 1688.30319,344.982609 L1622.47893,365.683292 Z" id="Path"></path>
                <path d="M935.609376,294.192753 C991.826054,278.014768 981.15185,241.359985 981.15185,241.359985 L878,270.901725 C878,270.901725 923.183553,290.964223 935.609376,294.192753 Z" id="Path"></path>
            </g>
            <g id="hill-right-reflection" transform="translate(2226.000000, 1599.000000)" fill="#90B0C8">
                <polygon id="shadow" points="545.31698 324.682054 811 407 811 0.863507779 0 0 300 167 794.764335 172.69717 344.64404 194.807915"></polygon>
            </g>
            <g id="hill-right" transform="translate(2225.000000, 1158.000000)" fill="#4C758E">
                <polygon id="colDark" points="465.714286 124.524876 0.529510221 442.217413 775 546 814.111254 0"></polygon>
            </g>
            <g id="tree-reflection" transform="translate(-762.000000, 1933.000000)" fill="#90B0C8">
                <path d="M2039.14641,220.778015 L2180,0 L1471.69635,0 L1.11614293e-13,0 L1.11614293e-13,63.5586569 L932.024091,81.0344313 L0,100.927604 L1.11614293e-13,771.385701 L106.800836,572.972758 L189.929241,705.342188 L280.28347,540.60832 L380.235481,719.934669 L432.224768,622.914391 L473.275832,687.993837 L586.36523,512.343606 L696.323438,746.427057 L760.287698,647.079384 L827.425037,790 L977.736491,556.538455 L738.288202,554.157989 L1069.10724,543.133494 L1098.87397,545.822078 L1182.78902,426.546441 L1244.32468,556.249793 L1518.46786,561.914113 L1255.10442,569.196482 L1313.75972,705.342188 L1400.40678,570.767088 L1482.92256,746.427057 L1679.15607,441.625824 L1770.49469,636.055901 L2020.80314,242.801631 L987.665536,237 L2039.14641,220.778015 Z M1034.6439,656.651895 L987.665536,556.637164 L1098.3265,557.737295 L1034.6439,656.651895 Z" id="shadow"></path>
            </g>
            <g id="trees" transform="translate(-760.000000, 1058.000000)" fill="#214463">
                <polygon id="colDark" points="759.823959 158.869719 695.898934 48.9191793 586.008174 307.985153 472.988144 113.588677 431.962261 185.613716 380.004863 78.2389639 280.114163 276.703891 189.815356 94.3888251 106.737941 240.885363 0.00261644666 21.2968276 -7.63837778e-14 1269 2178.66542 875.008556 1769.4113 171.069681 1678.12871 386.250279 1482.01556 48.9191793 1399.5504 243.326433 1312.95648 94.3888251 1182.06612 402.939008 1034.01187 148.275582 982.849872 268.8957 826.920117 0.695920296"></polygon>
            </g>
            <g id="tree-shadows" transform="translate(-70.000000, 1059.000000)" fill="#193A4E">
                <polygon id="Path-2" points="988 385 1078 171 1110 554"></polygon>
                <polygon id="Path" points="792 47 792 410.012396 711 241"></polygon>
                <polygon id="Path" points="623 93 623 637 493 402"></polygon>
                <polygon id="Path" points="344 148 347 357 293 266"></polygon>
                <polygon id="Path" points="138 0 138 540.53307 0 301"></polygon>
            </g>
            <g id="stars" transform="translate(246.000000, 88.000000)" fill="#FFFFFF">
                <path d="M1772.0281,639.755696 C1781.10188,639.729097 1782.79015,654.61497 1770.48061,652.234294 C1767.07107,648.611189 1770.78747,643.378801 1772.0281,639.755696" id="Fill-1423"></path>
                <path d="M1691.09709,731.458662 C1684.18594,706.512153 1714.79195,724.739954 1691.09709,731.458662" id="Fill-1699"></path>
                <path d="M1423.72949,963.30846 C1430.68193,962.460811 1430.8178,973.846097 1429.19259,976 C1425.81018,973.29345 1419.69363,967.858452 1423.72949,963.30846" id="Fill-2352"></path>
                <path d="M1192.12913,295.869405 C1196.2651,298.918602 1200.79803,301.184065 1205.72524,302.664453 C1202.67289,306.797482 1200.40642,311.324387 1198.92719,316.24785 C1194.79391,313.191954 1190.26232,310.926491 1185.33242,309.450123 C1188.39014,305.321113 1190.65526,300.794207 1192.12913,295.869405 C1197.6357,297.159553 1192.1573,302.683209 1192.12913,295.869405" id="Fill-2735"></path>
                <path d="M1018.7902,295.869405 C1022.92616,298.918602 1027.45909,301.184065 1032.3863,302.664453 C1029.33395,306.797482 1027.06749,311.324387 1025.58825,316.24785 C1021.45497,313.191954 1016.92338,310.926491 1011.99349,309.450123 C1015.0512,305.321113 1017.31633,300.794207 1018.7902,295.869405 C1024.29677,297.159553 1018.81836,302.683209 1018.7902,295.869405" id="Fill-2737"></path>
                <path d="M1017.94139,425.781991 C1023.11251,429.975747 1028.77635,433.090639 1034.93541,435.126669 C1031.12052,440.808135 1028.28736,447.033819 1026.4384,453.802352 C1021.27101,449.600392 1015.60717,446.485499 1009.44439,444.454939 C1013.26673,438.778942 1016.09865,432.554626 1017.94139,425.781991 C1024.8246,427.555483 1017.97623,435.151282 1017.94139,425.781991" id="Fill-2739"></path>
                <path d="M1086.76715,428.329296 C1091.93745,432.522549 1097.6017,435.63836 1103.76116,437.673986 C1099.94549,443.355919 1097.11274,449.580686 1095.26415,456.349658 C1090.09635,452.14818 1084.43209,449.032369 1078.27014,447.003597 C1082.09205,441.327147 1084.9248,435.10238 1086.76715,428.329296 C1093.65132,430.103101 1086.80207,437.69866 1086.76715,428.329296" id="Fill-2741"></path>
                <path d="M1153.0438,438.518519 C1158.2141,442.711772 1163.87835,445.827582 1170.03781,447.863208 C1166.22214,453.545142 1163.38939,459.769909 1161.5408,466.53888 C1156.373,462.337402 1150.70874,459.221592 1144.54679,457.192819 C1148.3687,451.516369 1151.20145,445.291602 1153.0438,438.518519 C1159.92797,440.292324 1153.07872,447.887883 1153.0438,438.518519" id="Fill-2743"></path>
                <path d="M751.985085,606.640688 C756.638909,610.071716 761.736212,612.620673 767.279697,614.286207 C763.844088,618.934304 761.295437,624.028165 759.631039,629.566438 C754.981272,626.128657 749.883969,623.5797 744.337779,621.919569 C747.778797,617.274173 750.327448,612.181663 751.985085,606.640688 C758.180268,608.091446 752.017535,614.306469 751.985085,606.640688" id="Fill-2745"></path>
                <path d="M981.404264,886.844304 C986.058088,890.275332 991.15539,892.824289 996.698876,894.489823 C993.263267,899.13792 990.714615,904.231781 989.050218,909.770054 C984.40045,906.332272 979.303148,903.783316 973.756958,902.123185 C977.196623,897.477789 979.746626,892.385279 981.404264,886.844304 C987.599447,888.295061 981.435361,894.510085 981.404264,886.844304" id="Fill-2747"></path>
                <path d="M1209.97285,275.49096 C1214.10881,278.540157 1218.64174,280.80562 1223.56895,282.286008 C1220.5166,286.419037 1218.25014,290.945943 1216.7709,295.869405 C1212.63762,292.813509 1208.10603,290.548047 1203.17614,289.071678 C1206.23385,284.942668 1208.49898,280.415762 1209.97285,275.49096 C1215.47942,276.781108 1210.00101,282.304764 1209.97285,275.49096" id="Fill-2749"></path>
                <path d="M1119.90462,0.381955415 C1125.07531,4.57456319 1130.74111,7.68887151 1136.89948,9.72488037 C1133.08527,15.4080373 1130.25237,21.6338495 1128.40333,28.402317 C1123.23647,24.201296 1117.57067,21.0855854 1111.40846,19.0551854 C1115.23033,13.3790395 1118.06323,7.15462951 1119.90462,0.381955415 C1126.79036,2.15575101 1119.94035,9.75152236 1119.90462,0.381955415" id="Fill-2751"></path>
                <path d="M957.612197,64.0645954 C961.749655,67.1135718 966.281094,69.3781419 971.207856,70.8596489 C968.156867,74.9925566 965.891148,79.5203537 964.412043,84.4430402 C960.277274,81.387348 955.745836,79.1214347 950.81504,77.6439572 C953.872752,73.515079 956.138471,68.9886251 957.612197,64.0645954 C963.121189,65.3540303 957.640434,70.87711 957.612197,64.0645954" id="Fill-2753"></path>
                <path d="M1225.26746,255.112515 C1229.40342,258.161713 1233.93635,260.427175 1238.86356,261.907563 C1235.81121,266.040592 1233.54475,270.567498 1232.06551,275.49096 C1227.93223,272.435064 1223.40064,270.169602 1218.47075,268.693233 C1221.52846,264.564223 1223.79359,260.037317 1225.26746,255.112515 C1230.77403,256.402663 1225.29562,261.926319 1225.26746,255.112515" id="Fill-2755"></path>
                <path d="M1464.88305,221.997543 C1469.01901,225.04674 1473.55194,227.312202 1478.47915,228.79259 C1475.4268,232.925619 1473.16034,237.452525 1471.6811,242.375987 C1467.54782,239.320091 1463.01623,237.054629 1458.08633,235.57826 C1461.14405,231.44925 1463.40917,226.922345 1464.88305,221.997543 C1470.38962,223.287691 1464.91121,228.811346 1464.88305,221.997543" id="Fill-2757"></path>
                <path d="M2103.85802,150.672986 C2109.02822,154.866454 2114.69358,157.981178 2120.85285,160.017157 C2117.03786,165.698456 2114.20457,171.923853 2112.35666,178.693347 C2107.19015,174.491778 2101.52479,171.375705 2095.36183,169.346476 C2099.18419,163.669228 2102.01626,157.445181 2103.85802,150.672986 C2110.7422,152.445692 2103.89365,160.042809 2103.85802,150.672986" id="Fill-2759"></path>
                <path d="M2286.54374,382.477795 C2292.74803,387.815829 2299.54552,391.78016 2306.9373,394.37079 C2302.35823,401.601679 2298.95894,409.523917 2296.74162,418.140074 C2290.54064,412.79176 2283.74316,408.827428 2276.34807,406.244509 C2280.93486,399.01876 2284.33305,391.096522 2286.54374,382.477795 C2294.80326,384.735601 2286.58675,394.401631 2286.54374,382.477795" id="Fill-2761"></path>
                <path d="M7.64730595,598.998771 C12.3003975,602.429524 17.3993858,604.978789 22.9419179,606.644214 C19.5076892,611.292596 16.9593716,616.386424 15.2957884,621.924522 C10.6450499,618.486717 5.54723809,615.937452 0,614.276728 C3.44011117,609.631872 5.98960532,604.53922 7.64730595,598.998771 C13.8428003,600.449114 7.67907168,606.664194 7.64730595,598.998771" id="Fill-2765"></path>
            </g>
        </g>
    </g>
</svg>